<?xml version="1.0" standalone="no"?>
<!DOCTYPE svg PUBLIC "-//W3C//DTD SVG 1.1//EN" "http://www.w3.org/Graphics/SVG/1.1/DTD/svg11.dtd" >
<svg xmlns="http://www.w3.org/2000/svg" xmlns:xlink="http://www.w3.org/1999/xlink" version="1.1">
<metadata>
Created by FontForge 20170731 at Thu Nov 21 00:29:58 2013
 By Aleksey,,,
Copyright (c) 2013 Swiss Typefaces Sa`rl. All rights reserved.
</metadata>
<defs>
<font id="NewParisHeadline-Medium" horiz-adv-x="735" >
  <font-face 
    font-family="NewParis Headline Medium"
    font-weight="500"
    font-stretch="normal"
    units-per-em="1000"
    panose-1="2 7 6 0 8 0 0 0 0 3"
    ascent="744"
    descent="-256"
    x-height="432"
    cap-height="692"
    bbox="-140 -333 1176 910"
    underline-thickness="13"
    underline-position="-154"
    unicode-range="U+0020-FB04"
  />
<missing-glyph horiz-adv-x="396" 
d="M16 15h364v681h-364v-681zM396 711v-711h-396v711h396z" />
    <glyph glyph-name="f_b" unicode="fb" horiz-adv-x="899" 
d="M524 327h2q41 117 133 117q79 0 139 -66.5t60 -160.5q0 -92 -60 -159.5t-139 -67.5q-92 0 -133 118h-2v-108h-188v13h75v594q0 101 -92 101q-24 0 -47.5 -9t-47.5 -33t-29 -66t9 -108l15 -60h130v-13h-128v-406h86v-13h-278v13h75v406h-75v13h75v15q0 119 67.5 196
t150.5 77q78 0 133 -39l73 30v-294q0 -46 -4 -90zM729 217q0 96 -21.5 154t-63.5 58q-53 0 -87.5 -65.5t-34.5 -146.5t34.5 -146t87.5 -65q42 0 63.5 57.5t21.5 153.5z" />
    <glyph glyph-name="f_f" unicode="ff" horiz-adv-x="657" 
d="M330 701q55 0 88 -28t35 -68q32 54 79.5 84.5t95.5 30.5q57 0 87 -30t30 -72q0 -30 -18 -53t-48 -23q-25 0 -41 15.5t-16 38.5q0 35 38 51q31 14 31 31q0 13 -17.5 21.5t-45.5 8.5q-12 0 -26 -3t-33 -11.5t-33 -23.5t-25.5 -39t-10.5 -58t11 -81l15 -60h130v-13h-128
v-406h100v-13h-291v13h74v406h-190v-406h86v-13h-278v13h75v406h-75v13h75v4q0 116 72.5 190.5t153.5 74.5zM411 447q0 49 12 91q-16 -11 -36 -11q-25 0 -40 13.5t-15 36.5q0 33 38 51q29 12 29 30q0 14 -20.5 22.5t-48.5 8.5q-25 0 -51 -9.5t-52.5 -33.5t-32.5 -64.5
t10 -102.5l15 -47h192v15z" />
    <glyph glyph-name="f_h" unicode="fh" horiz-adv-x="889" 
d="M336 0v13h75v600q-3 95 -92 95q-24 0 -47.5 -9t-47.5 -33t-29 -66t9 -108l15 -60h130v-13h-128v-406h86v-13h-278v13h75v406h-75v13h75v15q0 119 67.5 196t150.5 77q78 0 133 -39l73 30v-314q0 -45 -4 -83h1q40 127 137 127q143 0 143 -173v-255h75v-13h-255v13h63v244
q0 52 -1 74.5t-5 48.5t-14 34.5t-28 8.5q-48 0 -80 -60.5t-32 -122.5v-227h64v-13h-256z" />
    <glyph glyph-name="f_i" unicode="fi" horiz-adv-x="620" 
d="M603 0h-262v13h70v406h-190v-406h86v-13h-278v13h75v406h-75v13h75v15q0 117 66.5 195t148.5 78q71 0 118 -32q16 7 31 7q30 0 51 -21t21 -51t-21 -50.5t-51 -20.5t-50.5 20.5t-20.5 50.5v4q-1 41 -24.5 61t-56.5 20q-25 0 -49.5 -10.5t-47.5 -36t-27 -67t11 -103.5
l16 -59h309v-419h75v-13z" />
    <glyph glyph-name="f_k" unicode="fk" horiz-adv-x="879" 
d="M586 13v-13h-250v13h75v585v9q0 101 -92 101q-24 0 -47.5 -9t-47.5 -33t-29 -66t9 -108l15 -60h130v-13h-128v-406h86v-13h-278v13h75v406h-75v13h75v15q0 119 67.5 196t150.5 77q78 0 133 -39l73 30v-456h34q44 0 72 14t51 56l53 94h-79v13h171v-13h-74l-55 -95
q-33 -62 -78 -72v-2q37 -2 61 -20t51 -64l90 -153h61v-13h-257v13h66l-124 229h-43v-229h58z" />
    <glyph glyph-name="f_l" unicode="fl" horiz-adv-x="621" 
d="M603 0h-265v13h73v585v9v6q-3 95 -92 95q-24 0 -47.5 -9t-47.5 -33t-29 -66t9 -108l15 -60h130v-13h-128v-406h86v-13h-278v13h75v406h-75v13h75v15q0 119 67.5 196t150.5 77q78 0 133 -39l73 30v-698h75v-13z" />
    <glyph glyph-name="f_f_b" unicode="ffb" horiz-adv-x="1206" 
d="M628 720q79 0 134 -39l73 30v-294q0 -46 -4 -90h2q39 117 133 117q79 0 138.5 -66t59.5 -161q0 -92 -59.5 -159.5t-138.5 -67.5q-94 0 -133 118h-2v-108h-188v13h75v585v9q0 101 -92 101q-24 0 -47.5 -9t-47.5 -33t-29 -66t9 -108l15 -60h130v-13h-128v-406h86v-13h-277
v13h74v406h-190v-406h86v-13h-278v13h75v406h-75v13h75v4q0 116 72.5 190.5t153.5 74.5q54 0 87 -28t36 -67q31 53 78.5 83.5t96.5 30.5zM829 217q0 -81 34.5 -146t87.5 -65q42 0 63.5 57.5t21.5 153.5t-21.5 154t-63.5 58q-53 0 -87.5 -65.5t-34.5 -146.5zM411 447
q0 49 12 91q-16 -11 -36 -11q-25 0 -40 13.5t-15 36.5q0 33 38 51q29 12 29 30q0 14 -20.5 22.5t-48.5 8.5q-25 0 -51 -9.5t-52.5 -33.5t-32.5 -64.5t10 -102.5l15 -47h192v15z" />
    <glyph glyph-name="f_f_i" unicode="ffi" horiz-adv-x="925" 
d="M330 701q54 0 87 -28t36 -67q31 53 77.5 83.5t95.5 30.5q69 0 116 -32q13 7 30 7q31 0 52 -21t21 -51t-21 -50.5t-52 -20.5q-30 0 -50.5 20t-20.5 50v1v4q-1 42 -23 61.5t-55 19.5q-25 0 -49.5 -10.5t-47.5 -36t-27 -67t11 -103.5l16 -59h306v-419h76v-13h-262v13h70v406
h-188v-406h86v-13h-277v13h74v406h-190v-406h86v-13h-278v13h75v406h-75v13h75v4q0 116 72.5 190.5t153.5 74.5zM411 447q0 45 13 91q-16 -11 -37 -11q-25 0 -40 13.5t-15 36.5q0 33 38 51q29 12 29 30q0 14 -20.5 22.5t-48.5 8.5q-25 0 -51 -9.5t-52.5 -33.5t-32.5 -64.5
t10 -102.5l15 -47h192v15z" />
    <glyph glyph-name="f_f_l" unicode="ffl" horiz-adv-x="928" 
d="M330 701q54 0 87 -28t36 -67q31 53 78.5 83.5t96.5 30.5q79 0 134 -39l73 30v-698h75v-13h-265v13h73v585v9v6q-3 95 -92 95q-24 0 -47.5 -9t-47.5 -33t-29 -66t9 -108l15 -60h130v-13h-128v-406h86v-13h-277v13h74v406h-190v-406h86v-13h-278v13h75v406h-75v13h75v4
q0 116 72.5 190.5t153.5 74.5zM411 447q0 49 12 91q-16 -11 -36 -11q-25 0 -40 13.5t-15 36.5q0 33 38 51q29 12 29 30q0 14 -20.5 22.5t-48.5 8.5q-25 0 -51 -9.5t-52.5 -33.5t-32.5 -64.5t10 -102.5l15 -47h192v15z" />
    <glyph glyph-name=".notdef" horiz-adv-x="396" 
d="M16 15h364v681h-364v-681zM396 711v-711h-396v711h396z" />
    <glyph glyph-name=".null" horiz-adv-x="0" 
 />
    <glyph glyph-name="nonmarkingreturn" horiz-adv-x="333" 
 />
    <glyph glyph-name="space" unicode=" " horiz-adv-x="194" 
 />
    <glyph glyph-name="exclam" unicode="!" horiz-adv-x="357" 
d="M251 664q0 -77 -16.5 -138t-33.5 -139t-17 -195h-13q0 93 -10.5 163t-23 105.5t-23 88.5t-10.5 115q0 54 73 54q74 0 74 -54zM257 70q0 -34 -22.5 -57t-54.5 -23q-34 0 -57 23t-23 55q0 34 22.5 57t54.5 23q34 0 57 -23t23 -55z" />
    <glyph glyph-name="quotedbl" unicode="&#x22;" horiz-adv-x="365" 
d="M323 711l-55 -236h-11l-55 236h121zM163 711l-55 -236h-11l-55 236h121z" />
    <glyph glyph-name="numbersign" unicode="#" horiz-adv-x="589" 
d="M37 256h122l30 212h-124l2 15h124l32 228h16l-32 -228h208l32 228h15l-32 -228h124l-2 -15h-124l-30 -212h127l-2 -15h-127l-34 -241h-15l34 241h-208l-34 -241h-16l34 241h-122zM205 468l-30 -212h208l30 212h-208z" />
    <glyph glyph-name="dollar" unicode="$" horiz-adv-x="604" 
d="M290 799h15v-97h1q78 0 139.5 -35.5t61.5 -98.5q0 -38 -20.5 -60t-47.5 -22q-24 0 -38.5 14.5t-14.5 34.5q0 16 11 28t24 17.5t24 14.5t11 21q0 31 -46.5 51.5t-104.5 21.5v-256l43 -22q92 -46 140 -93.5t48 -124.5q0 -54 -19.5 -94.5t-54 -63t-73.5 -33.5t-84 -12v-81
h-15v81q-86 2 -150.5 46.5t-64.5 114.5q0 37 21 59.5t50 22.5q23 0 37 -14t14 -34q0 -19 -11.5 -31t-25 -16.5t-25 -13.5t-11.5 -23q0 -35 47 -65.5t119 -31.5v291l-34 17q-162 81 -162 217q0 78 56 123t140 49v98zM325 279l-20 9v-284q83 2 132 34t49 90q0 44 -39 76.5
t-122 74.5zM141 588q0 -47 37 -78.5t112 -68.5v247q-64 -3 -106.5 -30.5t-42.5 -69.5z" />
    <glyph glyph-name="percent" unicode="%" horiz-adv-x="830" 
d="M40 512q0 98 49.5 155.5t118.5 57.5t118.5 -57.5t49.5 -155.5q0 -97 -50 -155t-118 -58q-69 0 -118.5 57.5t-49.5 155.5zM144 512q0 -116 15 -160t49 -44t49 44t15 160t-15 160t-49 44t-49 -43.5t-15 -160.5zM606 722l13 -7l-396 -726l-12 7zM454 206q0 98 49.5 155.5
t118.5 57.5t118.5 -57.5t49.5 -155.5q0 -97 -50 -155t-118 -58q-69 0 -118.5 57.5t-49.5 155.5zM558 206q0 -116 15 -160t49 -44t49 44t15 160t-15 160t-49 44t-49 -43.5t-15 -160.5z" />
    <glyph glyph-name="ampersand" unicode="&#x26;" horiz-adv-x="767" 
d="M327 -10q-124 0 -202.5 65.5t-78.5 155.5q0 76 55 129.5t157 96.5q-21 66 -21 117q0 78 51 122.5t124 44.5q45 0 73 -24t28 -67q0 -51 -39.5 -93.5t-102.5 -70.5q51 -153 178 -321q49 91 49 233v39h-86v13h190v-13h-89v-34q0 -153 -55 -249q58 -76 106 -121h74v-13h-213
q-15 13 -42 45q-68 -55 -156 -55zM475 55q-62 75 -122 176.5t-92 193.5l-2 -1q-49 -25 -68 -67t-19 -107q0 -60 16.5 -113t57 -91.5t97.5 -38.5q71 0 132 48zM346 600q0 -57 21 -123q57 25 94 65.5t37 87.5q0 37 -23 57t-54 20q-37 0 -56 -29.5t-19 -77.5z" />
    <glyph glyph-name="quotesingle" unicode="'" horiz-adv-x="205" 
d="M163 711l-55 -236h-11l-55 236h121z" />
    <glyph glyph-name="parenleft" unicode="(" horiz-adv-x="242" 
d="M40 235q0 274 148 485l14 -9q-78 -117 -111 -231t-33 -245t33 -245t111 -231l-14 -9q-148 211 -148 485z" />
    <glyph glyph-name="parenright" unicode=")" horiz-adv-x="242" 
d="M202 235q0 -274 -148 -485l-14 9q78 117 111 231t33 245t-33 245t-111 231l14 9q148 -211 148 -485z" />
    <glyph glyph-name="asterisk" unicode="*" horiz-adv-x="394" 
d="M96 441q-14 -9 -29 -5.5t-23 17.5q-9 16 -5 30.5t18 22.5q17 10 64.5 17.5t69.5 19.5l3 -4q-21 -13 -51.5 -51t-46.5 -47zM191 544q-22 13 -69.5 20t-64.5 18q-14 8 -18 22.5t5 30.5q8 13 23 16.5t29 -4.5q16 -10 46.5 -48t51.5 -51zM197 366q-16 0 -26.5 11t-10.5 28
q0 19 17.5 64t17.5 70h5q0 -25 17.5 -69.5t17.5 -64.5q0 -17 -10 -28t-28 -11zM195 549q0 25 -17.5 69.5t-17.5 64.5q0 17 10.5 28t26.5 11q18 0 28.5 -11t10.5 -28q0 -20 -18 -64.5t-18 -69.5h-5zM298 441q-16 9 -46 47t-51 51l2 4q22 -12 69.5 -19.5t64.5 -17.5
q31 -18 13 -53q-8 -14 -23 -17.5t-29 5.5zM203 544l-2 4q21 13 51 51t46 48q14 8 29 4.5t23 -16.5q18 -35 -13 -53q-17 -11 -64.5 -18t-69.5 -20z" />
    <glyph glyph-name="plus" unicode="+" horiz-adv-x="546" 
d="M511 220h-230v-230h-16v230h-230v15h230v230h16v-230h230v-15z" />
    <glyph glyph-name="comma" unicode="," horiz-adv-x="295" 
d="M72 61q0 31 22.5 51t56.5 20q42 0 65 -31t23 -81q0 -127 -128 -201l-7 12q52 31 81.5 71t29.5 79q0 28 -22 28q-8 0 -25.5 -9.5t-32.5 -9.5q-26 0 -44.5 20.5t-18.5 50.5z" />
    <glyph glyph-name="hyphen" unicode="-" horiz-adv-x="335" 
d="M283 189h-231v70h231v-70z" />
    <glyph glyph-name="period" unicode="." horiz-adv-x="285" 
d="M229 70q0 -34 -22.5 -57t-54.5 -23q-34 0 -57 23t-23 55q0 34 22.5 57t54.5 23q34 0 57 -23t23 -55z" />
    <glyph glyph-name="slash" unicode="/" horiz-adv-x="410" 
d="M395 725l15 -8l-396 -726l-14 8z" />
    <glyph glyph-name="zero" unicode="0" horiz-adv-x="634" 
d="M582 344q0 -160 -79 -257t-186 -97t-186 97t-79 257t79 258.5t186 98.5t186 -98.5t79 -258.5zM448 344q0 130 -16 207.5t-44 107.5t-71 30q-63 0 -97 -78t-34 -267q0 -191 32 -266.5t99 -75.5t99 75.5t32 266.5z" />
    <glyph glyph-name="one" unicode="1" horiz-adv-x="427" 
d="M373 0h-315v13h108v634q-75 -24 -140 -43l-4 13q49 13 139 43t111 39h10v-686h91v-13z" />
    <glyph glyph-name="two" unicode="2" horiz-adv-x="572" 
d="M250 701q45 0 87 -10.5t80.5 -31.5t61.5 -60.5t23 -90.5q0 -41 -19.5 -83.5t-45.5 -74.5t-73 -73t-78.5 -64t-87.5 -63l-77 -55l1 -1q11 3 57 3h176q49 0 72 14t33 41q24 63 49 63h2v-215h-504v10q138 114 206 187q163 177 163 319q0 76 -33.5 123t-103.5 47
q-81 0 -134 -47.5t-53 -120.5q0 -51 24 -85t53 -34q16 0 26 15t15 33t20 33t40 15q24 0 38.5 -15.5t14.5 -39.5q0 -35 -31 -54.5t-69 -19.5q-59 0 -102.5 39.5t-43.5 111.5q0 80 59.5 132t153.5 52z" />
    <glyph glyph-name="three" unicode="3" horiz-adv-x="533" 
d="M227 -10q-91 0 -150 48t-59 115q0 41 22.5 66t54.5 25q24 0 40 -14.5t16 -38.5q0 -21 -13 -35t-28 -20t-28 -17.5t-13 -27.5q0 -33 45.5 -59.5t102.5 -26.5q146 0 146 176q0 91 -32.5 133.5t-86.5 42.5q-34 0 -81 -18v14l36 11q72 22 108 60.5t36 119.5q0 143 -121 143
q-56 0 -100 -25.5t-44 -57.5q0 -15 13 -26t28.5 -17t28.5 -20.5t13 -35.5q0 -24 -16 -38.5t-41 -14.5q-30 0 -52 25.5t-22 66.5q0 66 57 111.5t147 45.5q93 0 163.5 -39t70.5 -115q0 -127 -210 -174v-2q59 1 111 -18t88 -62t36 -102q0 -90 -79.5 -144.5t-186.5 -54.5z" />
    <glyph glyph-name="four" unicode="4" horiz-adv-x="548" 
d="M393 440v-261h125v-14h-125v-152h94v-13h-307v13h97v152h-277v14q73 62 117.5 111t71 105t38.5 103.5t26 133.5q7 39 19.5 50t51.5 11h17q50 0 58.5 -13.5t-10.5 -63.5q-38 -98 -156 -229t-215 -208h259v136q34 20 63.5 55t41.5 70h11z" />
    <glyph glyph-name="five" unicode="5" horiz-adv-x="536" 
d="M224 5q146 0 146 207q0 202 -137 202q-50 0 -90 -27t-56 -72l-18 1l51 376h11q24 -26 67.5 -42t93.5 -16q144 0 182 96l10 -3q-21 -102 -81 -153.5t-149 -51.5q-67 0 -137 31l-29 -208q19 39 61 61.5t95 22.5q109 0 181.5 -58.5t72.5 -157.5q0 -102 -80 -162.5
t-185 -60.5q-87 0 -143.5 49.5t-56.5 116.5q0 41 22.5 65.5t55.5 24.5q24 0 39.5 -15t15.5 -38q0 -21 -13 -35t-28 -20t-28 -17.5t-13 -28.5q0 -34 42.5 -60.5t97.5 -26.5z" />
    <glyph glyph-name="six" unicode="6" horiz-adv-x="579" 
d="M362 701q72 0 116 -38.5t44 -97.5q0 -40 -21.5 -66t-53.5 -26q-26 0 -42 15t-16 37q0 21 13.5 35t29.5 19t29.5 15.5t13.5 26.5q0 27 -32 47t-79 20q-92 0 -143.5 -99t-47.5 -296v-18h3q12 71 49 107t92 36q86 0 148.5 -56.5t62.5 -156.5q0 -94 -70.5 -154.5
t-158.5 -60.5q-112 0 -180.5 86.5t-68.5 238.5q0 156 91.5 271t220.5 115zM183 202q0 -99 31.5 -149.5t82.5 -50.5q104 0 104 203q0 198 -100 198q-49 0 -83.5 -50t-34.5 -151z" />
    <glyph glyph-name="seven" unicode="7" horiz-adv-x="509" 
d="M442 600h-254q-57 0 -77 -14t-30 -48q-15 -60 -47 -60h-2v214h505v-9l-19 -19l-20 -20l-19 -19t-20 -21t-18.5 -20t-19.5 -21.5t-17.5 -21.5t-18 -23t-16 -22.5t-15.5 -24.5q-71 -101 -94.5 -177.5t-21.5 -210.5v-31q0 -28 -13 -42t-49 -14h-20q-39 0 -50.5 18t-8.5 56
q4 41 17.5 82.5t29.5 76t46 78t52 72.5t63.5 75.5t65 71t71.5 74.5z" />
    <glyph glyph-name="eight" unicode="8" horiz-adv-x="559" 
d="M39 173q0 115 139 175q-112 69 -112 177q0 77 61.5 126.5t157.5 49.5q82 0 136.5 -39t54.5 -105q0 -52 -35.5 -92.5t-92.5 -64.5l4 -1q83 -40 125.5 -88.5t42.5 -122.5q0 -86 -71.5 -142t-182.5 -56q-98 0 -162.5 50t-64.5 133zM208 332q-10 4 -14 7q-139 -54 -139 -166
q0 -77 60.5 -123t150.5 -46q85 0 140.5 34.5t55.5 97.5q0 47 -40 80t-134 77zM117 579q0 -41 39.5 -73.5t113.5 -67.5l63 -31q59 24 93 63t34 87q0 60 -50.5 95t-124.5 35t-121 -31t-47 -77z" />
    <glyph glyph-name="nine" unicode="9" horiz-adv-x="555" 
d="M378 489q0 99 -32 149.5t-82 50.5q-105 0 -105 -203q0 -198 100 -198q49 0 84 50t35 151zM199 -10q-73 0 -116.5 38t-43.5 98q0 40 21.5 66t53.5 26q26 0 41.5 -15t15.5 -37q0 -21 -13.5 -35t-29 -19t-29 -15.5t-13.5 -26.5q0 -27 32 -47t78 -20q92 0 144 99.5t48 296.5
q0 2 -0.5 9t-0.5 8h-2q-12 -71 -49 -107t-92 -36q-86 0 -148.5 56.5t-62.5 156.5q0 94 70 154.5t158 60.5q113 0 181.5 -86.5t68.5 -238.5q0 -101 -41.5 -190t-113.5 -142.5t-157 -53.5z" />
    <glyph glyph-name="colon" unicode=":" horiz-adv-x="301" 
d="M245 366q0 -34 -22.5 -57t-54.5 -23q-34 0 -57 23t-23 55q0 34 22.5 57t54.5 23q34 0 57 -23t23 -55zM245 70q0 -34 -22.5 -57t-54.5 -23q-34 0 -57 23t-23 55q0 34 22.5 57t54.5 23q34 0 57 -23t23 -55z" />
    <glyph glyph-name="semicolon" unicode=";" horiz-adv-x="311" 
d="M88 61q0 31 22.5 51t56.5 20q42 0 65 -31t23 -81q0 -127 -128 -201l-7 12q52 31 81.5 71t29.5 79q0 28 -22 28q-8 0 -25.5 -9.5t-32.5 -9.5q-26 0 -44.5 20.5t-18.5 50.5zM251 366q0 -34 -22.5 -57t-54.5 -23q-34 0 -57 23t-23 55q0 34 22.5 57t54.5 23q34 0 57 -23
t23 -55z" />
    <glyph glyph-name="less" unicode="&#x3c;" horiz-adv-x="558" 
d="M523 -12l-517 233v10l517 233v-18l-492 -220l492 -220v-18z" />
    <glyph glyph-name="equal" unicode="=" horiz-adv-x="506" 
d="M466 314h-426v15h426v-15zM466 127h-426v15h426v-15z" />
    <glyph glyph-name="greater" unicode="&#x3e;" horiz-adv-x="558" 
d="M35 -12v18l491 220l-491 220v18l517 -233v-10z" />
    <glyph glyph-name="question" unicode="?" horiz-adv-x="536" 
d="M372 573q0 62 -38 97t-101 35q-76 0 -129 -42t-53 -105q0 -38 18 -66t43 -28q10 0 17.5 10.5t12.5 23t17.5 23t31.5 10.5q22 0 36 -12.5t14 -35.5q0 -29 -23 -45.5t-54 -16.5q-55 0 -91.5 39t-36.5 99q0 69 59 114.5t151 45.5q104 0 176 -40.5t72 -103.5q0 -43 -25 -75.5
t-60.5 -55t-71.5 -47.5t-61 -67.5t-25 -100.5v-37h-14v51q0 54 14 96t33.5 68.5t39.5 49.5t34 52t14 64zM326 70q0 -34 -22.5 -57t-54.5 -23q-34 0 -57 23t-23 55q0 34 22.5 57t54.5 23q34 0 57 -23t23 -55z" />
    <glyph glyph-name="at" unicode="@" horiz-adv-x="848" 
d="M774 410q0 135 -89 216t-221 81q-170 0 -280 -109t-110 -259q0 -145 101.5 -240t259.5 -95t271 93l10 -14q-116 -95 -286 -95q-156 0 -265.5 97.5t-109.5 254.5q0 160 118.5 271.5t289.5 111.5q139 0 234.5 -85t95.5 -228q0 -113 -57.5 -197t-150.5 -84q-64 0 -95.5 34
t-32.5 74h-1q-16 -37 -47.5 -67.5t-72.5 -30.5q-58 0 -98 47t-40 114q0 111 83.5 197.5t167.5 86.5q40 0 57 -27t16 -68h1l24 80h89l-82 -297q-34 -127 36 -127q80 0 132 80t52 185zM341 153q23 0 43 13t33.5 30t27 46.5t20 47.5t15.5 48q12 38 19.5 74.5t9 74.5t-12 61
t-43.5 23q-38 0 -76.5 -51t-62 -124.5t-23.5 -139.5q0 -51 11 -77t39 -26z" />
    <glyph glyph-name="A" unicode="A" horiz-adv-x="700" 
d="M70 13l198 608q15 45 32 64.5t47 19.5q28 0 45 -21t36 -79l200 -592h72v-13h-299v13h90l-83 255h-238l-82 -255h88v-13h-182v13h76zM288 633l-113 -350h228l-113 350h-2z" />
    <glyph glyph-name="B" unicode="B" horiz-adv-x="688" 
d="M636 191q0 -51 -23.5 -89.5t-63 -60.5t-86 -32.5t-99.5 -10.5q-30 0 -108 1t-109 1h-119v13h101v666h-101v13h108q19 0 85 1t102 1q278 0 278 -158q0 -70 -57.5 -115.5t-143.5 -55.5v-1q107 -6 171.5 -49t64.5 -124zM468 523q0 88 -33 122.5t-113 34.5h-65v-313h72
q74 0 106.5 39.5t32.5 116.5zM257 354v-342h83q84 0 123 39.5t39 137.5q0 86 -40 125.5t-134 39.5h-71z" />
    <glyph glyph-name="C" unicode="C" horiz-adv-x="706" 
d="M384 703q47 0 86.5 -15t64 -30t37.5 -15q17 0 29.5 26t28.5 26h3v-246h-4q-37 0 -65 115q-14 57 -63 90.5t-115 33.5q-94 0 -144 -87t-50 -254q0 -168 50 -254.5t147 -86.5q109 0 169 61t73 160l15 -2q-5 -41 -20 -79.5t-43.5 -75t-79.5 -58.5t-118 -22
q-143 0 -239.5 101t-96.5 256t97 255.5t238 100.5z" />
    <glyph glyph-name="D" unicode="D" horiz-adv-x="754" 
d="M705 339q0 -164 -107.5 -252.5t-271.5 -88.5q-28 0 -97 1t-98 1h-103v13h101v666h-101v13h104q20 0 84 1t94 1q173 0 284 -94t111 -261zM563 339q0 341 -251 341h-55v-668h61q124 0 184.5 76t60.5 251z" />
    <glyph glyph-name="E" unicode="E" horiz-adv-x="685" 
d="M257 372h54q38 0 57 13.5t30 45.5q2 6 5.5 16t5.5 15.5t5.5 13.5t6.5 12.5t7 9t8.5 6.5t10.5 2h3v-281h-3q-6 0 -10.5 2t-8.5 6.5t-7 9t-6.5 12.5t-5.5 13.5t-5.5 15.5t-5.5 16q-12 33 -30 46t-57 13h-54v-346h138q80 0 111.5 22.5t48.5 77.5q4 13 9.5 35.5t9 35.5
t9.5 27t14.5 20.5t19.5 6.5h3v-238h-592v13h101v666h-101v13h557v-229h-5q-11 0 -19 6t-13.5 19t-9 24.5t-8.5 32.5t-9 34q-17 57 -47.5 78.5t-108.5 21.5h-108v-307z" />
    <glyph glyph-name="F" unicode="F" horiz-adv-x="647" 
d="M621 692v-229h-5q-11 0 -19 6t-13.5 19t-9 24.5t-8.5 32.5t-9 34q-17 57 -47 78.5t-109 21.5h-144v-307h72q38 0 57 13t30 44l5.5 16.5t5.5 16t5.5 13.5t6.5 12.5t6.5 9t8.5 6.5t10 2h3v-278h-3q-5 0 -10 2t-8.5 6.5t-6.5 8.5t-6.5 12.5t-5.5 13.5t-5.5 15.5l-5.5 16.5
q-12 33 -30 45t-57 12h-72v-346h131v-13h-360v13h101v666h-101v13h593z" />
    <glyph glyph-name="G" unicode="G" horiz-adv-x="769" 
d="M387 703q50 0 88.5 -15t62 -30t35.5 -15q14 0 22 13t15.5 26t21.5 13h3v-246h-5q-37 0 -65 115q-14 58 -61 91t-116 33q-95 0 -145.5 -87t-50.5 -254q0 -166 48.5 -254t137.5 -88q69 0 110.5 34t41.5 103v145h-87v13h285v-13h-72v-291h-7q-22 0 -45 31t-40 31
q-13 0 -38 -17t-64 -34t-87 -17q-137 0 -231.5 101t-94.5 256t97.5 255.5t240.5 100.5z" />
    <glyph glyph-name="H" unicode="H" horiz-adv-x="822" 
d="M794 0h-330v13h101v347h-308v-347h101v-13h-330v13h101v666h-101v13h330v-13h-101v-304h308v304h-101v13h330v-13h-101v-666h101v-13z" />
    <glyph glyph-name="I" unicode="I" horiz-adv-x="386" 
d="M358 0h-330v13h101v666h-101v13h330v-13h-101v-666h101v-13z" />
    <glyph glyph-name="J" unicode="J" horiz-adv-x="505" 
d="M163 3q50 0 74.5 36t24.5 121v519h-114v13h343v-13h-101v-401q0 -146 -58.5 -217t-164.5 -71q-70 0 -116.5 42.5t-46.5 100.5q0 37 23 62.5t60 25.5q26 0 43 -16.5t17 -41.5q0 -19 -11.5 -32.5t-25 -20t-25 -18t-11.5 -27.5q0 -27 26 -44.5t63 -17.5z" />
    <glyph glyph-name="K" unicode="K" horiz-adv-x="746" 
d="M358 0h-330v13h101v666h-101v13h330v-13h-101v-307h43q60 0 91 20t75 98l105 189h-104v13h227v-13h-105l-115 -207q-28 -51 -52 -74t-53 -31v-1q54 -2 87 -25t74 -88l153 -240h79v-13h-328v13h98l-211 345h-64v-345h101v-13z" />
    <glyph glyph-name="L" unicode="L" horiz-adv-x="652" 
d="M605 0h-577v14h101v665h-101v13h340v-13h-111v-666h122q80 0 112 22.5t48 77.5q4 14 9.5 36t9.5 36t9.5 28t14 21t19.5 7h4v-241z" />
    <glyph glyph-name="M" unicode="M" horiz-adv-x="915" 
d="M28 0v13h100v666h-100v13h139q57 0 84.5 -21.5t51.5 -94.5l168 -484h1l163 528q12 42 31 57t62 15h159v-13h-101v-666h100v-13h-320v13h92v626h-1l-168 -544q-13 -44 -28 -61t-44 -17t-47 19t-33 64l-191 549h-1v-636h102v-13h-219z" />
    <glyph glyph-name="N" unicode="N" 
d="M622 679v-583q0 -33 -3.5 -53.5t-19 -37t-43.5 -16.5q-29 0 -53 20.5t-52 69.5l-302 538h-1v-604h101v-13h-219v13h101v666h-103v13h125q67 0 92.5 -16.5t58.5 -74.5l301 -530h1v608h-101v13h218v-13h-101z" />
    <glyph glyph-name="O" unicode="O" horiz-adv-x="785" 
d="M192 347q0 -164 52 -254t149 -90q96 0 148 90t52 254t-52 253.5t-148 89.5q-97 0 -149 -89.5t-52 -253.5zM49 347q0 154 99.5 255t244.5 101q144 0 243.5 -101t99.5 -255t-99.5 -255.5t-243.5 -101.5q-145 0 -244.5 101.5t-99.5 255.5z" />
    <glyph glyph-name="P" unicode="P" horiz-adv-x="659" 
d="M497 495q0 97 -39.5 140.5t-124.5 43.5h-76v-370h74q86 0 126 42.5t40 143.5zM28 679v13h111q27 0 99 1t100 1q58 0 109.5 -11.5t94.5 -34.5t68 -62t25 -90q0 -97 -82 -148.5t-205 -51.5h-91v-283h122v-13h-351v13h101v666h-101z" />
    <glyph glyph-name="Q" unicode="Q" horiz-adv-x="785" 
d="M630 -215q-55 0 -93 10t-55.5 25.5t-30 33.5t-19 33.5t-19.5 25.5t-34 10q-34 0 -88 -33l-9 15l179 92q-31 -7 -68 -7q-145 0 -244.5 101.5t-99.5 255.5t99.5 255t244.5 101q144 0 243.5 -101t99.5 -255q0 -107 -50.5 -191.5t-143.5 -131.5l-179 -91v-2q44 16 86 16
q46 0 76.5 -15t45 -36t26.5 -42t30 -36t45 -15q29 0 66 20l6 -12q-49 -26 -114 -26zM192 347q0 -164 52 -254t149 -90q96 0 148 90t52 254t-52 253.5t-148 89.5q-97 0 -149 -89.5t-52 -253.5z" />
    <glyph glyph-name="R" unicode="R" horiz-adv-x="755" 
d="M28 679v13h107q29 0 99.5 1t101.5 1q53 0 99.5 -8.5t88 -26.5t65.5 -51t24 -79q0 -69 -55 -111t-143 -57v-1q91 -13 145 -63.5t58 -141.5l1 -21q3 -68 13 -96.5t34 -28.5q47 0 61 76l13 -3q-18 -92 -106 -92q-69 0 -108 38.5t-45 129.5l-3 38q-5 69 -21 103t-39 43t-69 9
h-92v-338h102v-13h-331v13h101v666h-101zM474 526q0 85 -38 119.5t-106 34.5h-73v-316h95q59 0 90.5 33.5t31.5 128.5z" />
    <glyph glyph-name="S" unicode="S" horiz-adv-x="621" 
d="M504 461h-5q-40 0 -60 102q-12 55 -50.5 90t-107.5 35q-55 0 -99.5 -29t-44.5 -77t41 -79.5t120 -59.5l54 -20q101 -35 152.5 -86.5t51.5 -140.5q0 -93 -64 -149.5t-161 -56.5q-41 0 -76.5 9.5t-54.5 21t-36.5 21t-26.5 9.5q-16 0 -29 -28t-30 -28h-4v247h4q40 0 64 -107
q30 -130 195 -130q63 0 115 31.5t52 94.5q0 53 -41.5 86t-128.5 65l-64 23q-182 66 -182 220q0 77 57 127.5t137 50.5q45 0 79.5 -14.5t54.5 -28.5t30 -14q12 0 25.5 23t29.5 23h3v-231z" />
    <glyph glyph-name="T" unicode="T" horiz-adv-x="708" 
d="M39 692h630v-250h-6q-11 0 -19 7t-14.5 22.5t-10 27.5t-9 35t-8.5 33q-17 67 -41 89.5t-95 22.5h-48v-666h111v-13h-350v13h111v666h-47q-71 0 -95.5 -23t-41.5 -89q-3 -10 -8.5 -33t-9 -35t-10 -27.5t-14.5 -22.5t-19 -7h-6v250z" />
    <glyph glyph-name="U" unicode="U" 
d="M618 259v420h-99v13h219v-13h-101v-419q0 -142 -58.5 -206t-180.5 -64q-138 0 -209.5 59.5t-71.5 203.5v426h-100v13h329v-13h-101v-414q0 -134 37 -194.5t132 -60.5q101 0 152.5 58.5t51.5 190.5z" />
    <glyph glyph-name="V" unicode="V" horiz-adv-x="680" 
d="M598 679l-175 -611q-12 -41 -29 -59.5t-46 -18.5q-31 0 -50 22t-37 81l-183 586h-78v13h307v-13h-92l188 -619h1l177 619h-95v13h194v-13h-82z" />
    <glyph glyph-name="W" unicode="W" horiz-adv-x="955" 
d="M743 692h209v-13h-92l-121 -612q-9 -43 -26.5 -60t-46.5 -17q-33 0 -52.5 23t-32.5 81l-117 510h-1l-101 -534q-7 -42 -24.5 -61t-49.5 -19t-50.5 21.5t-29.5 74.5l-122 593h-83v13h306v-13h-85l118 -621h2l99 537q8 43 26 61t51 18q34 0 52 -22t29 -79l117 -519h1
l123 625h-99v13z" />
    <glyph glyph-name="X" unicode="X" horiz-adv-x="746" 
d="M506 13l-176 296l-223 -296h97v-13h-201v13h84l234 311l-210 355h-90v13h336v-13h-100l152 -257l195 257h-94v13h197v-13h-84l-205 -272l235 -394h90v-13h-337v13h100z" />
    <glyph glyph-name="Y" unicode="Y" horiz-adv-x="692" 
d="M401 336l188 343h-96v13h199v-13h-85l-203 -369v-297h105v-13h-338v13h105v295l-187 371h-89v13h327v-13h-97z" />
    <glyph glyph-name="Z" unicode="Z" horiz-adv-x="655" 
d="M175 13h172q87 0 119 22t50 79q4 12 9.5 33.5t10 34.5t10.5 27t14 21t18 7h6v-237h-549l420 679h-124q-88 0 -119.5 -21t-49.5 -78q-4 -12 -9.5 -32.5t-9.5 -34t-9.5 -27t-13.5 -20.5t-18 -7h-6v233h501z" />
    <glyph glyph-name="bracketleft" unicode="[" horiz-adv-x="244" 
d="M214 -240h-114v951h114v-13h-96v-925h96v-13z" />
    <glyph glyph-name="backslash" unicode="\" horiz-adv-x="410" 
d="M0 717l15 8l395 -726l-14 -8z" />
    <glyph glyph-name="bracketright" unicode="]" horiz-adv-x="244" 
d="M144 -240h-114v13h96v925h-96v13h114v-951z" />
    <glyph glyph-name="asciicircum" unicode="^" horiz-adv-x="446" 
d="M223 690l-182 -382h-16l198 415l198 -415h-17z" />
    <glyph glyph-name="underscore" unicode="_" horiz-adv-x="511" 
d="M474 -15h-437v15h437v-15z" />
    <glyph glyph-name="grave" unicode="`" horiz-adv-x="232" 
d="M208 520h-8l-179 156v5h121z" />
    <glyph glyph-name="a" unicode="a" horiz-adv-x="499" 
d="M300 240v59q0 77 -19.5 105t-64.5 28q-30 0 -55 -10.5t-25 -26.5q0 -8 7.5 -15t17 -11.5t17 -15.5t7.5 -27q0 -22 -15 -36t-40 -14q-24 0 -42 17.5t-18 46.5q0 42 46.5 73.5t109.5 31.5q38 0 69 -7.5t59.5 -26t44 -54t15.5 -85.5l-2 -197q0 -37 6 -51t22 -14
q17 0 32 16.5t19 49.5l13 -1q-12 -84 -91 -84q-103 0 -105 102h-2q-28 -103 -116 -103q-64 0 -108 28.5t-44 76.5q0 20 8 36.5t26.5 30t37.5 23.5t54 20.5t62 17t74 17.5zM301 227q-54 -11 -75 -16.5t-40 -19.5t-23 -33.5t-4 -57.5q0 -93 51 -93q37 0 64 42t27 121v57z" />
    <glyph glyph-name="b" unicode="b" horiz-adv-x="580" 
d="M410 217q0 96 -21.5 154t-63.5 58q-53 0 -87.5 -65.5t-34.5 -146.5t34.5 -146t87.5 -65q42 0 63.5 57.5t21.5 153.5zM205 327h2q39 117 133 117q79 0 138.5 -66t59.5 -161q0 -92 -59.5 -159.5t-138.5 -67.5q-94 0 -133 118h-2v-108h-188v13h75v685h-75v13h192v-294
q0 -46 -4 -90z" />
    <glyph glyph-name="c" unicode="c" horiz-adv-x="463" 
d="M168 214q0 -208 108 -208q50 0 84 31.5t46 95.5l14 -2q-26 -141 -156 -141q-97 0 -159.5 63t-62.5 161q0 93 65 161.5t165 68.5q65 0 107 -33t42 -82q0 -28 -18 -49t-47 -21q-26 0 -41.5 15.5t-15.5 38.5q0 34 33 53q26 15 26 27q0 15 -24 26.5t-55 11.5q-35 0 -58.5 -18
t-34 -52t-14.5 -67.5t-4 -79.5z" />
    <glyph glyph-name="d" unicode="d" horiz-adv-x="581" 
d="M375 327q-4 38 -4 82v289h-85v13h202v-698h75v-13h-188v108h-2q-39 -118 -132 -118q-80 0 -139.5 66t-59.5 161q0 92 60 159.5t139 67.5q93 0 132 -117h2zM170 217q0 -96 21.5 -153.5t63.5 -57.5q53 0 87.5 65t34.5 146t-34.5 146.5t-87.5 65.5q-42 0 -63.5 -58
t-21.5 -154z" />
    <glyph glyph-name="e" unicode="e" horiz-adv-x="490" 
d="M448 239h-280v-10v-15q0 -208 115 -208q54 0 93 31.5t51 96.5l14 -3q-13 -68 -58 -104.5t-114 -36.5q-100 0 -163.5 62.5t-63.5 161.5q0 95 63.5 162.5t149.5 67.5q84 0 143 -54.5t50 -150.5zM254 433q-81 0 -86 -181h161q7 181 -75 181z" />
    <glyph glyph-name="f" unicode="f" horiz-adv-x="350" 
d="M322 720q56 0 86 -30t30 -72q0 -30 -18 -53t-48 -23q-25 0 -41 15.5t-16 38.5q0 35 38 51q31 14 31 31q0 13 -17.5 21.5t-45.5 8.5q-12 0 -26 -3t-33 -11.5t-33 -23.5t-25.5 -39t-10.5 -58t11 -81l15 -60h130v-13h-128v-406h100v-13h-292v13h75v406h-75v13h75v15
q0 118 69 195.5t149 77.5z" />
    <glyph glyph-name="g" unicode="g" horiz-adv-x="571" 
d="M485 -107q0 -68 -76.5 -107.5t-174.5 -39.5q-86 0 -147.5 45t-61.5 121q0 52 32 92t81 40q22 0 37.5 -13.5t15.5 -33.5q0 -27 -18 -39.5t-52 -18.5q-73 -13 -73 -55q0 -51 54.5 -88t124.5 -37q68 0 102.5 34.5t34.5 96.5q0 119 -99 119h-11l6 11h18q33 0 53 13.5t20 37.5
q0 45 -56 53q-27 -5 -48 -5q-77 0 -137 44t-60 116t60.5 117.5t136.5 45.5q90 0 152 -59q30 64 87 64q27 0 47 -14t20 -41q0 -20 -12 -34t-32 -14q-15 0 -26 9.5t-11 24.5q0 12 7 24.5t7 17.5q0 12 -15 12q-19 0 -37.5 -18t-26.5 -40q37 -40 37 -95q0 -56 -37.5 -96
t-95.5 -56q50 -3 84.5 -17.5t34.5 -39.5q0 -50 -128 -56v-1q34 -2 64 -9t58 -20.5t44.5 -36.5t16.5 -54zM324 279q0 153 -77 153q-76 0 -76 -153q0 -149 76 -149q77 0 77 149z" />
    <glyph glyph-name="h" unicode="h" horiz-adv-x="570" 
d="M17 0v13h75v685h-74v13h191v-314q0 -45 -4 -83h1q40 127 137 127q142 0 142 -173v-255h76v-13h-255v13h63v244q0 52 -1 74.5t-5 48.5t-14 34.5t-28 8.5q-48 0 -80 -60.5t-32 -122.5v-227h64v-13h-256z" />
    <glyph glyph-name="i" unicode="i" horiz-adv-x="313" 
d="M296 0h-267v13h75v406h-75v13h192v-419h75v-13zM233 631q0 -30 -21 -50.5t-51 -20.5t-50.5 20.5t-20.5 50.5t20.5 51t50.5 21t51 -21t21 -51z" />
    <glyph glyph-name="j" unicode="j" horiz-adv-x="310" 
d="M11 -240q94 0 94 167v492h-97v13h213v-410q0 -122 -60 -197.5t-146 -75.5q-51 0 -85 29t-34 73q0 30 19.5 50.5t47.5 20.5q25 0 39 -14.5t14 -36.5q0 -17 -8.5 -29t-19 -17t-19 -13.5t-8.5 -19.5q0 -14 14 -23t36 -9zM233 631q0 -30 -21 -50.5t-51 -20.5t-50.5 20.5
t-20.5 50.5t20.5 51t50.5 21t51 -21t21 -51z" />
    <glyph glyph-name="k" unicode="k" horiz-adv-x="560" 
d="M267 13v-13h-250v13h75v685h-74v13h191v-456h33q44 0 72 13.5t52 56.5l53 94h-79v13h171v-13h-74l-55 -95q-33 -62 -78 -72v-2q37 -2 61 -20t51 -64l89 -153h62v-13h-257v13h66l-124 229h-43v-229h58z" />
    <glyph glyph-name="l" unicode="l" horiz-adv-x="302" 
d="M284 0h-267v13h75v685h-74v13h191v-698h75v-13z" />
    <glyph glyph-name="m" unicode="m" horiz-adv-x="848" 
d="M29 0v13h75v406h-75v13h188v-118h2q37 127 134 127q123 0 135 -129h1q37 129 135 129q139 0 139 -165v-263h75v-13h-254v13h63v251q0 91 -8 125t-38 34q-47 0 -78 -60t-31 -121v-229h64v-13h-244v13h63v251q0 91 -8 125t-37 34q-32 0 -58 -31t-38.5 -71.5t-12.5 -77.5
v-230h64v-13h-256z" />
    <glyph glyph-name="n" unicode="n" horiz-adv-x="582" 
d="M29 0v13h75v406h-75v13h188v-118h1q40 127 136 127q143 0 143 -173v-255h76v-13h-255v13h63v244q0 51 -1 75t-5.5 49t-14.5 33.5t-27 8.5q-48 0 -80 -60.5t-32 -122.5v-227h64v-13h-256z" />
    <glyph glyph-name="o" unicode="o" horiz-adv-x="526" 
d="M485 217q0 -90 -65 -158.5t-157 -68.5q-91 0 -156 68.5t-65 158.5t65 158.5t156 68.5q92 0 157 -68.5t65 -158.5zM168 217q0 -111 21 -163.5t74 -52.5t74 52.5t21 163.5t-21 163.5t-74 52.5t-74 -52.5t-21 -163.5z" />
    <glyph glyph-name="p" unicode="p" horiz-adv-x="591" 
d="M214 217q0 -81 34.5 -146t87.5 -65q42 0 63.5 57.5t21.5 153.5t-21.5 154t-63.5 58q-53 0 -87.5 -65.5t-34.5 -146.5zM216 327h2q39 117 132 117q80 0 139.5 -66t59.5 -161q0 -92 -60 -159.5t-139 -67.5q-93 0 -132 118h-2q3 -60 3 -96v-239h100v-13h-291v13h75v646h-75
v13h188v-105z" />
    <glyph glyph-name="q" unicode="q" horiz-adv-x="589" 
d="M170 217q0 -96 21.5 -153.5t63.5 -57.5q53 0 87.5 65t34.5 146t-34.5 146.5t-87.5 65.5q-42 0 -63.5 -58t-21.5 -154zM272 -240v13h99v242q0 53 4 93h-2q-39 -118 -132 -118q-80 0 -139.5 66t-59.5 161q0 92 60 159.5t139 67.5q93 0 132 -117h2v105h188v-13h-75v-646h74
v-13h-290z" />
    <glyph glyph-name="r" unicode="r" horiz-adv-x="458" 
d="M216 432v-121h2q15 54 48.5 90.5t82.5 37.5q39 0 66 -25.5t27 -68.5q0 -33 -18.5 -55t-49.5 -22q-24 0 -40 14t-16 39q0 34 36 52q25 15 25 28q0 24 -35 24q-54 0 -88.5 -60t-34.5 -133v-219h104v-13h-296v13h75v406h-75v13h187z" />
    <glyph glyph-name="s" unicode="s" horiz-adv-x="454" 
d="M408 129q0 -64 -48.5 -101.5t-114.5 -37.5q-36 0 -65.5 11t-47 22t-24.5 11q-9 0 -20 -20t-25 -20h-3v184h3q28 0 54 -86q27 -89 127 -89q47 0 80.5 19t33.5 53q0 29 -26.5 46t-93.5 40l-39 12q-66 22 -101 59.5t-35 86.5q0 56 42.5 90.5t102.5 34.5q42 0 80.5 -18.5
t41.5 -18.5q9 0 18 17t20 17h4v-159h-4q-13 0 -26 19.5t-20 48.5q-22 81 -114 81q-39 0 -68 -16t-29 -43q0 -24 25 -42.5t81 -37.5l44 -15q71 -24 109 -57.5t38 -90.5z" />
    <glyph glyph-name="t" unicode="t" horiz-adv-x="363" 
d="M218 -10q-128 0 -128 125v304h-86v13h86v70q36 14 64.5 42t41.5 63h10v-175h129v-13h-129v-317q0 -46 9.5 -69.5t35.5 -23.5q27 0 49 25.5t31 69.5l13 -2q-24 -112 -126 -112z" />
    <glyph glyph-name="u" unicode="u" horiz-adv-x="563" 
d="M193 432v-266q0 -92 8.5 -124.5t39.5 -32.5q49 0 80.5 60.5t31.5 126.5v223h-70v13h187v-419h73v-13h-187v118h-1q-39 -128 -136 -128q-68 0 -105.5 37t-37.5 127v265h-73v13h190z" />
    <glyph glyph-name="v" unicode="v" horiz-adv-x="503" 
d="M355 419v13h144v-13h-62l-118 -353q-16 -45 -29.5 -61t-41.5 -16q-32 0 -47.5 22.5t-33.5 80.5l-107 327h-56v13h248v-13h-71l116 -364h1l123 364h-66z" />
    <glyph glyph-name="w" unicode="w" horiz-adv-x="733" 
d="M589 419v13h140v-13h-63l-94 -353q-12 -44 -27.5 -60.5t-43.5 -16.5q-32 0 -48.5 23.5t-32.5 79.5l-52 187l-70 -212q-13 -44 -29 -61t-42 -17q-33 0 -49.5 23.5t-30.5 79.5l-87 327h-56v13h243v-13h-66l96 -364h1l82 252l-34 125h121l103 -379h1l99 366h-61z" />
    <glyph glyph-name="x" unicode="x" horiz-adv-x="535" 
d="M170 13v-13h-161v13h68l145 175l-148 231h-64v13h255v-13h-60l91 -142l118 142h-71v13h156v-13h-67l-128 -154l163 -252h63v-13h-268v13h74l-106 163l-135 -163h75z" />
    <glyph glyph-name="y" unicode="y" horiz-adv-x="508" 
d="M275 -44v-57q0 -150 -101 -150q-44 0 -78.5 30t-34.5 76q0 30 19 50t48 20q25 0 39 -14t14 -36q0 -20 -14.5 -33.5t-29 -24t-14.5 -23.5q0 -16 16 -24t39 -8q36 0 58.5 31.5t22.5 99.5v64l-195 462h-60v13h258v-13h-73l123 -306h2l110 306h-72v13h152v-13h-62z" />
    <glyph glyph-name="z" unicode="z" horiz-adv-x="485" 
d="M159 13h102q57 0 79.5 20t35.5 63q11 35 21.5 52.5t27.5 17.5h2v-166h-392v1l269 418h-74q-49 0 -69.5 -19t-33.5 -60q-11 -35 -21.5 -52.5t-27.5 -17.5h-2v162h353v-1z" />
    <glyph glyph-name="braceleft" unicode="{" horiz-adv-x="253" 
d="M53 235v-1q39 -11 53.5 -39t14.5 -91v-210q0 -70 17.5 -95.5t67.5 -25.5h17v-13h-15q-59 0 -82 26t-23 102v221q0 55 -13.5 81.5t-59.5 37.5v13q45 10 59 37t14 82v223q0 76 23 102t82 26h15v-13h-17q-50 0 -67.5 -25.5t-17.5 -95.5v-212q0 -63 -14.5 -91t-53.5 -39z" />
    <glyph glyph-name="bar" unicode="|" horiz-adv-x="237" 
d="M127 -267h-17v978h17v-978z" />
    <glyph glyph-name="braceright" unicode="}" horiz-adv-x="253" 
d="M199 235q-38 11 -53 39.5t-15 90.5v212q0 70 -17 95.5t-68 25.5h-16v13h14q59 0 82.5 -26t23.5 -102v-223q0 -56 13.5 -82.5t59.5 -36.5v-13q-46 -11 -59.5 -37.5t-13.5 -81.5v-221q0 -76 -23.5 -102t-82.5 -26h-14v13h16q51 0 68 25.5t17 95.5v210q0 62 15 90.5t53 39.5
v1z" />
    <glyph glyph-name="asciitilde" unicode="~" horiz-adv-x="519" 
d="M373 196q76 0 90 80h16q-7 -46 -35 -71t-71 -25q-41 0 -113.5 40t-114.5 40q-73 0 -89 -80h-16q7 45 35 70.5t70 25.5q45 0 118 -40t110 -40z" />
    <glyph glyph-name="uni00A0" unicode="&#xa0;" horiz-adv-x="194" 
 />
    <glyph glyph-name="exclamdown" unicode="&#xa1;" horiz-adv-x="358" 
d="M253 -192q0 -59 -74 -59q-73 0 -73 59q0 58 10.5 104t23 74.5t23 94t10.5 158.5h13q0 -93 10.5 -158.5t23 -94t23 -74.5t10.5 -104zM257 366q0 -34 -22.5 -57t-54.5 -23q-34 0 -57 23t-23 55q0 34 22.5 57t54.5 23q34 0 57 -23t23 -55z" />
    <glyph glyph-name="cent" unicode="&#xa2;" horiz-adv-x="459" 
d="M262 -89h-13v80q-92 5 -149.5 67t-57.5 156q0 87 58 153.5t149 74.5v75h13v-73h10q65 0 107 -33t42 -82q0 -28 -18 -49t-47 -21q-26 0 -41.5 15.5t-15.5 38.5q0 34 33 53q26 15 26 27q0 15 -24 26.5t-55 11.5q-7 0 -17 -2v-422q4 -1 14 -1q50 0 84 31.5t46 95.5l14 -2
q-26 -141 -156 -141h-2v-79zM168 214q0 -179 81 -205v418q-48 -14 -64.5 -70.5t-16.5 -142.5z" />
    <glyph glyph-name="sterling" unicode="&#xa3;" horiz-adv-x="587" 
d="M109 -9q-37 0 -60.5 21.5t-23.5 56.5q0 49 40 83.5t107 34.5q44 0 85 -18q10 30 10 68q0 45 -18 84h-165v13h159l-7 12q-17 27 -55 66t-60.5 73.5t-22.5 73.5q0 70 70 106.5t169 36.5q94 0 148.5 -42t54.5 -108q0 -57 -34.5 -93.5t-83.5 -36.5q-32 0 -55.5 17t-23.5 46
q0 21 14.5 34t35.5 13q17 0 30 -10t19.5 -21.5t16 -21.5t19.5 -10q18 0 32.5 26t14.5 57q0 60 -49 97.5t-125 37.5q-60 0 -92 -35.5t-32 -93.5q0 -45 33 -115.5t38 -108.5h177v-13h-175q0 -3 0.5 -9.5t0.5 -9.5q0 -62 -31 -139q33 -16 71 -48.5t67.5 -53.5t55.5 -21
q59 0 74 72l12 -3q-13 -57 -47.5 -88t-85.5 -31q-76 0 -156 58l-32 22q-47 -79 -120 -79zM120 114q-31 0 -54 -15t-23 -40q0 -24 19 -39.5t47 -15.5q68 0 109 74q-54 36 -98 36z" />
    <glyph glyph-name="currency" unicode="&#xa4;" horiz-adv-x="572" 
d="M285 9q-82 0 -144 57l-61 -62l-13 12l62 62q-55 61 -55 142q0 82 55 143l-62 62l13 13l61 -62q62 57 144 57q85 0 146 -58l62 63l12 -13l-62 -63q55 -60 55 -142q0 -81 -56 -142l63 -63l-12 -13l-63 63q-61 -56 -145 -56zM91 220q0 -80 56.5 -137.5t138.5 -57.5
q81 0 138 58t57 137q0 81 -57 139.5t-139 58.5q-81 0 -137.5 -58.5t-56.5 -139.5z" />
    <glyph glyph-name="yen" unicode="&#xa5;" horiz-adv-x="673" 
d="M384 331l183 348h-89v13h188v-13h-80l-197 -371v-35h133v-13h-133v-105h133v-13h-133v-129h102v-13h-321v13h101v129h-135v13h135v105h-135v13h135v34l-178 372h-86v13h314v-13h-93z" />
    <glyph glyph-name="brokenbar" unicode="&#xa6;" horiz-adv-x="236" 
d="M126 341h-16v371h16v-371zM126 -183h-16v371h16v-371z" />
    <glyph glyph-name="section" unicode="&#xa7;" horiz-adv-x="567" 
d="M284 -232q73 0 121 31.5t48 88.5q0 28 -21 51.5t-41.5 35t-75.5 37.5q-9 5 -14 7l-67 32q-149 73 -149 188q0 96 88 142q-78 59 -78 156q0 74 50.5 118t129.5 44t127.5 -38t48.5 -97q0 -38 -19.5 -60.5t-46.5 -22.5q-22 0 -36 12.5t-14 32.5q0 19 12.5 30.5t27 15.5
t27 12.5t12.5 22.5q0 30 -40 54.5t-99 24.5q-62 0 -103.5 -29.5t-41.5 -76.5q0 -20 7.5 -35t30.5 -31t38.5 -24.5t57.5 -29.5l56 -27q40 -19 62.5 -33t49.5 -37.5t39.5 -54.5t12.5 -71q0 -97 -84 -142q90 -63 90 -157q0 -85 -55 -134.5t-150 -49.5q-89 0 -148.5 43.5
t-59.5 109.5q0 38 20 61.5t50 23.5q21 0 34.5 -12.5t13.5 -33.5q0 -19 -12.5 -31t-27 -16t-27 -13t-12.5 -23q0 -37 50 -66t118 -29zM228 348q-21 10 -46 26q-61 -31 -61 -80q0 -21 9.5 -37.5t34 -33t40.5 -25t55 -27.5l64 -32q29 -15 67 -38q60 33 60 84q0 43 -49 74
q-18 12 -92 49z" />
    <glyph glyph-name="dieresis" unicode="&#xa8;" horiz-adv-x="358" 
d="M135 602q0 -24 -17 -41t-42 -17t-41.5 17t-16.5 41q0 25 16.5 42t41.5 17q26 0 42.5 -16.5t16.5 -42.5zM340 602q0 -24 -16.5 -41t-41.5 -17t-41.5 17t-16.5 41q0 25 16.5 42t41.5 17t41.5 -17t16.5 -42z" />
    <glyph glyph-name="copyright" unicode="&#xa9;" horiz-adv-x="845" 
d="M591 267h16q-13 -73 -63.5 -110t-121.5 -37q-90 0 -143.5 63.5t-53.5 159.5t53 159t145 63q70 0 119.5 -37t62.5 -110h-16q-13 68 -57 101t-110 33q-82 0 -131.5 -57.5t-49.5 -151.5q0 -95 49.5 -152.5t130.5 -57.5q67 0 112 33t58 101zM775 343q0 -150 -102.5 -251.5
t-250.5 -101.5q-147 0 -249.5 101.5t-102.5 251.5t102.5 251t249.5 101q148 0 250.5 -101t102.5 -251zM758 343q0 143 -97.5 240t-238.5 97q-140 0 -238 -97.5t-98 -239.5q0 -143 98 -241t238 -98q141 0 238.5 98t97.5 241z" />
    <glyph glyph-name="ordfeminine" unicode="&#xaa;" horiz-adv-x="356" 
d="M197 550v45q-40 -9 -54.5 -22.5t-14.5 -49.5q0 -59 26 -59q17 0 30 23t13 63zM204 509h-1q-18 -59 -71 -59q-39 0 -67 19.5t-28 48.5q0 34 35.5 50.5t112.5 32.5q3 0 4 0.5t3 1t4 0.5v47q0 35 -10.5 49.5t-35.5 14.5q-14 0 -27 -5.5t-14 -14.5q0 -8 14.5 -17.5
t14.5 -25.5q0 -13 -10.5 -22t-27.5 -9q-16 0 -27.5 11t-11.5 28q0 29 29.5 46.5t70.5 17.5q59 0 92.5 -20.5t32.5 -71.5l-2 -124q0 -25 3 -34t13 -9q9 0 18 12t12 33l8 -1q-9 -58 -65 -58q-62 0 -69 59z" />
    <glyph glyph-name="guillemotleft" unicode="&#xab;" horiz-adv-x="450" 
d="M232 221q0 60 29 104.5t69 65.5l7 -13q-36 -19 -60 -56t-24 -74q0 -40 67 -47q76 -8 76 -71q0 -24 -16.5 -41t-44.5 -17q-48 0 -75.5 46t-27.5 103zM40 221q0 60 29 104.5t69 65.5l7 -13q-36 -19 -60 -56t-24 -74q0 -40 67 -47q76 -8 76 -71q0 -24 -16.5 -41t-44.5 -17
q-48 0 -75.5 46t-27.5 103z" />
    <glyph glyph-name="logicalnot" unicode="&#xac;" horiz-adv-x="542" 
d="M35 220v15h426v-235h-16v220h-410z" />
    <glyph glyph-name="uni00AD" unicode="&#xad;" horiz-adv-x="335" 
d="M283 189h-231v70h231v-70z" />
    <glyph glyph-name="registered" unicode="&#xae;" horiz-adv-x="845" 
d="M775 343q0 -150 -102.5 -251.5t-249.5 -101.5t-250 101.5t-103 251.5t103 251t250 101t249.5 -101t102.5 -251zM758 343q0 143 -97.5 240t-237.5 97q-141 0 -238.5 -97t-97.5 -240t97.5 -241t238.5 -98q140 0 237.5 98t97.5 241zM583 126l-105 209q-32 -2 -50 -2h-118
v-207h-16v434h134q82 0 124.5 -23.5t42.5 -89.5q0 -93 -100 -110l106 -211h-18zM422 548h-112v-202h112q39 0 63.5 3t48.5 13t35 31t11 54q0 62 -39.5 81.5t-118.5 19.5z" />
    <glyph glyph-name="macron" unicode="&#xaf;" horiz-adv-x="283" 
d="M265 570h-250v51h250v-51z" />
    <glyph glyph-name="degree" unicode="&#xb0;" horiz-adv-x="374" 
d="M78 597q0 -43 30 -75.5t79 -32.5q51 0 80 31t29 77t-30.5 77t-78.5 31q-45 0 -77 -31t-32 -77zM60 597q0 52 37 88t90 36t90 -36t37 -88t-37 -88t-90 -36t-90 36t-37 88z" />
    <glyph glyph-name="plusminus" unicode="&#xb1;" horiz-adv-x="506" 
d="M466 252h-205v-165h-16v165h-205v15h205v165h16v-165h205v-15zM40 15h426v-15h-426v15z" />
    <glyph glyph-name="twosuperior" unicode="&#xb2;" horiz-adv-x="399" 
d="M177 825q69 0 115 -30t46 -85q0 -27 -13.5 -53t-45 -53.5t-52 -42.5t-67.5 -45t-58 -37q7 1 27 1h112q35 0 48 7.5t21 25.5q16 40 33 40v-147h-325v6q126 112 172.5 175.5t46.5 131.5q0 93 -77 93q-44 0 -76 -29.5t-32 -71.5q0 -27 12.5 -46t28.5 -19q10 0 15.5 9.5
t8.5 21t13.5 21t28.5 9.5q17 0 27.5 -11t10.5 -26q0 -25 -20.5 -38.5t-46.5 -13.5q-37 0 -64 25t-27 67q0 49 38 82t100 33z" />
    <glyph glyph-name="threesuperior" unicode="&#xb3;" horiz-adv-x="380" 
d="M159 399q-55 0 -95 29t-40 69q0 27 15.5 44t37.5 17q18 0 29 -11t11 -28q0 -14 -7.5 -23.5t-16 -13t-16 -10.5t-7.5 -17q0 -20 26 -31.5t56 -11.5q37 0 60.5 24.5t23.5 78.5q0 103 -66 103q-13 0 -54 -13v12l28 9q41 12 60.5 33t19.5 71q0 83 -70 83q-29 0 -54 -11
t-25 -29q0 -10 7.5 -17t16.5 -11t16.5 -14t7.5 -25q0 -16 -12 -27t-30 -11q-21 0 -36 17t-15 44q0 40 39.5 68t97.5 28q62 0 110.5 -22t48.5 -70q0 -21 -11.5 -38t-25 -27t-38.5 -18.5t-36 -11.5t-32 -7v-1q62 0 110 -27.5t48 -80.5q0 -57 -53 -90t-129 -33z" />
    <glyph glyph-name="acute" unicode="&#xb4;" horiz-adv-x="232" 
d="M33 520h-8l70 161h121v-4z" />
    <glyph glyph-name="mu" unicode="&#xb5;" horiz-adv-x="497" 
d="M393 96l-1 1q-38 -107 -143 -107q-54 0 -91.5 30t-51.5 77l-1 -1q1 -25 1 -57v-279h-16v670h16v-252q0 -84 41.5 -128t101.5 -44t101.5 44t41.5 128v252h15v-430h-15v39q0 32 1 57z" />
    <glyph glyph-name="mu" unicode="&#x3bc;" horiz-adv-x="497" 
d="M393 96l-1 1q-38 -107 -143 -107q-54 0 -91.5 30t-51.5 77l-1 -1q1 -25 1 -57v-279h-16v670h16v-252q0 -84 41.5 -128t101.5 -44t101.5 44t41.5 128v252h15v-430h-15v39q0 32 1 57z" />
    <glyph glyph-name="paragraph" unicode="&#xb6;" horiz-adv-x="592" 
d="M276 293q-85 2 -139 23q-50 19 -83.5 68.5t-33.5 110.5q0 57 28.5 102.5t77.5 67.5q39 18 74.5 22.5t91.5 4.5h270v-13h-103v-729q0 -45 -27.5 -70.5t-64.5 -25.5t-64 26t-27 76v337zM369 -133v812h-78v-723q0 -46 23 -67.5t55 -21.5z" />
    <glyph glyph-name="periodcentered" unicode="&#xb7;" horiz-adv-x="257" 
d="M207 225q0 -34 -22.5 -57t-54.5 -23q-34 0 -57 23t-23 55q0 34 22.5 57t54.5 23q34 0 57 -23t23 -55z" />
    <glyph glyph-name="cedilla" unicode="&#xb8;" horiz-adv-x="252" 
d="M242 -160q0 -39 -35 -63.5t-80 -24.5q-31 0 -55 17t-33 48l13 4q7 -28 26.5 -42.5t44.5 -14.5q28 0 44.5 19t16.5 54q0 70 -51 70q-30 0 -52 -24l-11 10l58 107h16l-51 -94l1 -1q21 16 52 16q35 0 65.5 -21.5t30.5 -59.5z" />
    <glyph glyph-name="onesuperior" unicode="&#xb9;" horiz-adv-x="314" 
d="M265 406h-212v11h65v367q-51 -18 -82 -25l-3 12q87 22 169 51h8v-405h55v-11z" />
    <glyph glyph-name="ordmasculine" unicode="&#xba;" horiz-adv-x="367" 
d="M37 586q0 57 43.5 97t103.5 40q59 0 102.5 -40t43.5 -97t-43.5 -97t-102.5 -40q-60 0 -103.5 40t-43.5 97zM134 586q0 -74 11 -102t39 -28q27 0 37.5 28.5t10.5 101.5q1 73 -10 101.5t-38 28.5q-28 0 -39 -28t-11 -102z" />
    <glyph glyph-name="guillemotright" unicode="&#xbb;" horiz-adv-x="450" 
d="M410 239q0 -60 -29 -104.5t-69 -65.5l-7 13q37 19 60.5 56.5t23.5 74.5q0 39 -67 46q-76 8 -76 71q0 24 17 41.5t44 17.5q48 0 75.5 -46.5t27.5 -103.5zM218 239q0 -60 -29 -104.5t-69 -65.5l-7 13q37 19 60.5 56.5t23.5 74.5q0 39 -67 46q-76 8 -76 71q0 24 17 41.5
t44 17.5q48 0 75.5 -46.5t27.5 -103.5z" />
    <glyph glyph-name="onequarter" unicode="&#xbc;" horiz-adv-x="827" 
d="M265 306h-212v11h65v367q-51 -18 -82 -25l-3 12q87 22 169 51h8v-405h55v-11zM569 722l13 -7l-396 -726l-12 7zM718 261v-158h76v-12h-76v-80h59v-11h-214v11h58v80h-164v9q72 58 105.5 117t44.5 147q5 31 14 39.5t37 8.5h27q23 0 31.5 -3t12 -15.5t-9.5 -37.5
q-22 -52 -101.5 -129t-147.5 -124h151v69q26 12 53.5 38t35.5 51h8z" />
    <glyph glyph-name="onehalf" unicode="&#xbd;" horiz-adv-x="841" 
d="M265 306h-212v11h65v367q-51 -18 -82 -25l-3 12q87 22 169 51h8v-405h55v-11zM569 722l13 -7l-396 -726l-12 7zM619 419q69 0 115 -30t46 -85q0 -27 -13.5 -53t-45 -53.5t-52 -42.5t-67.5 -45t-58 -37q7 1 27 1h112q35 0 48 7.5t21 25.5q16 40 33 40v-147h-325v6
q126 112 172.5 175.5t46.5 131.5q0 93 -77 93q-44 0 -76 -29.5t-32 -71.5q0 -27 12.5 -46t28.5 -19q10 0 15.5 9.5t8.5 21t13.5 21t28.5 9.5q17 0 27.5 -11t10.5 -26q0 -25 -20.5 -38.5t-46.5 -13.5q-37 0 -64 25t-27 67q0 49 38 82t100 33z" />
    <glyph glyph-name="threequarters" unicode="&#xbe;" horiz-adv-x="893" 
d="M159 299q-55 0 -95 29t-40 69q0 27 15.5 44t37.5 17q18 0 29 -11t11 -28q0 -14 -7.5 -23.5t-16 -13t-16 -10.5t-7.5 -17q0 -20 26 -31.5t56 -11.5q37 0 60.5 24.5t23.5 78.5q0 103 -66 103q-13 0 -54 -13v12l28 9q41 12 60.5 33t19.5 71q0 83 -70 83q-29 0 -54 -11
t-25 -29q0 -10 7.5 -17t16.5 -11t16.5 -14t7.5 -25q0 -16 -12 -27t-30 -11q-21 0 -36 17t-15 44q0 40 39.5 68t97.5 28q62 0 110.5 -22t48.5 -70q0 -21 -11.5 -38t-25 -27t-38.5 -18.5t-36 -11.5t-32 -7v-1q62 0 110 -27.5t48 -80.5q0 -57 -53 -90t-129 -33zM635 722l13 -7
l-396 -726l-12 7zM784 261v-158h76v-12h-76v-80h59v-11h-214v11h58v80h-164v9q72 58 105.5 117t44.5 147q5 31 14 39.5t37 8.5h27q23 0 31.5 -3t12 -15.5t-9.5 -37.5q-22 -52 -101.5 -129t-147.5 -124h151v69q26 12 53.5 38t35.5 51h8z" />
    <glyph glyph-name="questiondown" unicode="&#xbf;" horiz-adv-x="536" 
d="M165 -105q0 -62 38 -97t101 -35q76 0 129 42t53 105q0 38 -18.5 66.5t-43.5 28.5q-9 0 -16.5 -10.5t-13 -23.5t-18 -23.5t-31.5 -10.5q-22 0 -36 12.5t-14 35.5q0 29 23 46t55 17q54 0 90.5 -39t36.5 -99q0 -70 -58.5 -115.5t-151.5 -45.5q-104 0 -176 40.5t-72 103.5
q0 43 25 75.5t60.5 55t71.5 47.5t61 67.5t25 100.5v1h14v-15q0 -54 -14 -96t-33.5 -68.5t-39 -49.5t-33.5 -52t-14 -64zM367 366q0 -34 -22.5 -57t-54.5 -23q-34 0 -57 23t-23 55q0 34 22.5 57t54.5 23q34 0 57 -23t23 -55z" />
    <glyph glyph-name="Agrave" unicode="&#xc0;" horiz-adv-x="700" 
d="M70 13l198 608q15 45 32 64.5t47 19.5q28 0 45 -21t36 -79l200 -592h72v-13h-299v13h90l-83 255h-238l-82 -255h88v-13h-182v13h76zM288 633l-113 -350h228l-113 350h-2zM355 743h-9l-233 134v5h147z" />
    <glyph glyph-name="Aacute" unicode="&#xc1;" horiz-adv-x="700" 
d="M70 13l198 608q15 45 32 64.5t47 19.5q28 0 45 -21t36 -79l200 -592h72v-13h-299v13h90l-83 255h-238l-82 -255h88v-13h-182v13h76zM288 633l-113 -350h228l-113 350h-2zM305 743h-8l95 139h147v-5z" />
    <glyph glyph-name="Acircumflex" unicode="&#xc2;" horiz-adv-x="700" 
d="M70 13l198 608q15 45 32 64.5t47 19.5q28 0 45 -21t36 -79l200 -592h72v-13h-299v13h90l-83 255h-238l-82 -255h88v-13h-182v13h76zM288 633l-113 -350h228l-113 350h-2zM331 887h8q14 -42 53 -81t79 -58l-2 -5q-91 11 -134 50q-42 -39 -133 -50l-2 5q40 19 79 58t52 81z
" />
    <glyph glyph-name="Atilde" unicode="&#xc3;" horiz-adv-x="700" 
d="M70 13l198 608q15 45 32 64.5t47 19.5q28 0 45 -21t36 -79l200 -592h72v-13h-299v13h90l-83 255h-238l-82 -255h88v-13h-182v13h76zM288 633l-113 -350h228l-113 350h-2zM199 741h-11q0 55 21 98.5t67 43.5q29 0 81.5 -36.5t74.5 -36.5q50 0 53 70h11q-1 -137 -79 -137
q-35 0 -85.5 36.5t-76.5 36.5q-51 0 -56 -75z" />
    <glyph glyph-name="Adieresis" unicode="&#xc4;" horiz-adv-x="700" 
d="M70 13l198 608q15 45 32 64.5t47 19.5q28 0 45 -21t36 -79l200 -592h72v-13h-299v13h90l-83 255h-238l-82 -255h88v-13h-182v13h76zM288 633l-113 -350h228l-113 350h-2zM493 815q0 -25 -16.5 -42t-41.5 -17t-41.5 17t-16.5 42t16.5 41.5t41.5 16.5t41.5 -16.5
t16.5 -41.5zM283 815q0 -25 -16.5 -42t-41.5 -17t-41.5 17t-16.5 42t16.5 41.5t41.5 16.5t41.5 -16.5t16.5 -41.5z" />
    <glyph glyph-name="Aring" unicode="&#xc5;" horiz-adv-x="700" 
d="M70 13l198 608q15 45 32 64.5t47 19.5q28 0 45 -21t36 -79l200 -592h72v-13h-299v13h90l-83 255h-238l-82 -255h88v-13h-182v13h76zM288 633l-113 -350h228l-113 350h-2zM329 755q26 0 46.5 17.5t20.5 51.5q0 35 -20.5 53t-46.5 18q-27 0 -47.5 -18t-20.5 -53
q0 -34 20.5 -51.5t47.5 -17.5zM329 910q35 0 59.5 -24.5t24.5 -61.5q0 -36 -24 -59.5t-60 -23.5t-60 23.5t-24 59.5q0 37 24.5 61.5t59.5 24.5z" />
    <glyph glyph-name="AE" unicode="&#xc6;" horiz-adv-x="1012" 
d="M583 372h54q39 0 58 13.5t30 45.5q1 4 4 12.5t4.5 12.5t4 11t4.5 11l4.5 9t5.5 8l6 6t7 4t8 1h3v-281h-3q-4 0 -8 1t-7 4l-6 6t-5.5 8l-4.5 9t-4.5 11t-4 11t-4.5 12.5t-4 12.5q-11 33 -30 46t-58 13h-54v-346h138q80 0 112 22.5t48 77.5q4 14 9.5 36t9.5 35t9.5 27
t14 20.5t19.5 6.5h4v-238h-588v13h96v259h-216l-146 -259h105v-13h-207v13h83l348 615q24 43 44 53.5t80 10.5h365v-229h-5q-11 0 -19 6t-13.5 19t-9 24.5t-8.5 32.5t-9 34q-17 57 -47 78.5t-109 21.5h-108v-307zM454 653l-207 -366h208v366h-1z" />
    <glyph glyph-name="Ccedilla" unicode="&#xc7;" horiz-adv-x="706" 
d="M384 703q47 0 86.5 -15t64 -30t37.5 -15q17 0 29.5 26t28.5 26h3v-246h-4q-37 0 -65 115q-14 57 -63 90.5t-115 33.5q-94 0 -144 -87t-50 -254q0 -168 50 -254.5t147 -86.5q109 0 169 61t73 160l15 -2q-5 -41 -20 -79.5t-43.5 -75t-79.5 -58.5t-118 -22q-3 0 -8 0.5
t-7 0.5l-48 -90l1 -1q21 16 52 16q35 0 65.5 -21t30.5 -60t-35 -63.5t-80 -24.5q-30 0 -54.5 17t-33.5 48l13 5q16 -57 71 -57q29 0 45 19t16 54q0 36 -14.5 53t-36.5 17q-28 0 -52 -24l-11 10l56 102q-132 11 -219 110t-87 246q0 155 97 255.5t238 100.5z" />
    <glyph glyph-name="Egrave" unicode="&#xc8;" horiz-adv-x="685" 
d="M415 743h-9l-233 134v5h147zM257 372h54q38 0 57 13.5t30 45.5q2 6 5.5 16t5.5 15.5t5.5 13.5t6.5 12.5t7 9t8.5 6.5t10.5 2h3v-281h-3q-6 0 -10.5 2t-8.5 6.5t-7 9t-6.5 12.5t-5.5 13.5t-5.5 15.5t-5.5 16q-12 33 -30 46t-57 13h-54v-346h138q80 0 111.5 22.5t48.5 77.5
q4 13 9.5 35.5t9 35.5t9.5 27t14.5 20.5t19.5 6.5h3v-238h-592v13h101v666h-101v13h557v-229h-5q-11 0 -19 6t-13.5 19t-9 24.5t-8.5 32.5t-9 34q-17 57 -47.5 78.5t-108.5 21.5h-108v-307z" />
    <glyph glyph-name="Eacute" unicode="&#xc9;" horiz-adv-x="685" 
d="M257 372h54q38 0 57 13.5t30 45.5q2 6 5.5 16t5.5 15.5t5.5 13.5t6.5 12.5t7 9t8.5 6.5t10.5 2h3v-281h-3q-6 0 -10.5 2t-8.5 6.5t-7 9t-6.5 12.5t-5.5 13.5t-5.5 15.5t-5.5 16q-12 33 -30 46t-57 13h-54v-346h138q80 0 111.5 22.5t48.5 77.5q4 13 9.5 35.5t9 35.5
t9.5 27t14.5 20.5t19.5 6.5h3v-238h-592v13h101v666h-101v13h557v-229h-5q-11 0 -19 6t-13.5 19t-9 24.5t-8.5 32.5t-9 34q-17 57 -47.5 78.5t-108.5 21.5h-108v-307zM302 743h-8l95 139h147v-5z" />
    <glyph glyph-name="Ecircumflex" unicode="&#xca;" horiz-adv-x="685" 
d="M357 887h8q14 -42 53 -81t79 -58l-2 -5q-91 11 -134 50q-42 -39 -133 -50l-2 5q40 19 79 58t52 81zM257 372h54q38 0 57 13.5t30 45.5q2 6 5.5 16t5.5 15.5t5.5 13.5t6.5 12.5t7 9t8.5 6.5t10.5 2h3v-281h-3q-6 0 -10.5 2t-8.5 6.5t-7 9t-6.5 12.5t-5.5 13.5t-5.5 15.5
t-5.5 16q-12 33 -30 46t-57 13h-54v-346h138q80 0 111.5 22.5t48.5 77.5q4 13 9.5 35.5t9 35.5t9.5 27t14.5 20.5t19.5 6.5h3v-238h-592v13h101v666h-101v13h557v-229h-5q-11 0 -19 6t-13.5 19t-9 24.5t-8.5 32.5t-9 34q-17 57 -47.5 78.5t-108.5 21.5h-108v-307z" />
    <glyph glyph-name="Edieresis" unicode="&#xcb;" horiz-adv-x="685" 
d="M257 372h54q38 0 57 13.5t30 45.5q2 6 5.5 16t5.5 15.5t5.5 13.5t6.5 12.5t7 9t8.5 6.5t10.5 2h3v-281h-3q-6 0 -10.5 2t-8.5 6.5t-7 9t-6.5 12.5t-5.5 13.5t-5.5 15.5t-5.5 16q-12 33 -30 46t-57 13h-54v-346h138q80 0 111.5 22.5t48.5 77.5q4 13 9.5 35.5t9 35.5
t9.5 27t14.5 20.5t19.5 6.5h3v-238h-592v13h101v666h-101v13h557v-229h-5q-11 0 -19 6t-13.5 19t-9 24.5t-8.5 32.5t-9 34q-17 57 -47.5 78.5t-108.5 21.5h-108v-307zM525 815q0 -25 -16.5 -42t-41.5 -17t-41.5 17t-16.5 42t16.5 41.5t41.5 16.5t41.5 -16.5t16.5 -41.5z
M315 815q0 -25 -16.5 -42t-41.5 -17t-41.5 17t-16.5 42t16.5 41.5t41.5 16.5t41.5 -16.5t16.5 -41.5z" />
    <glyph glyph-name="Igrave" unicode="&#xcc;" horiz-adv-x="386" 
d="M358 0h-330v13h101v666h-101v13h330v-13h-101v-666h101v-13zM281 743h-9l-233 134v5h147z" />
    <glyph glyph-name="Iacute" unicode="&#xcd;" horiz-adv-x="386" 
d="M358 0h-330v13h101v666h-101v13h330v-13h-101v-666h101v-13zM135 743h-8l95 139h147v-5z" />
    <glyph glyph-name="Icircumflex" unicode="&#xce;" horiz-adv-x="386" 
d="M358 0h-330v13h101v666h-101v13h330v-13h-101v-666h101v-13zM188 887h8q14 -42 53 -81t79 -58l-2 -5q-91 11 -134 50q-42 -39 -133 -50l-2 5q40 19 79 58t52 81z" />
    <glyph glyph-name="Idieresis" unicode="&#xcf;" horiz-adv-x="386" 
d="M358 0h-330v13h101v666h-101v13h330v-13h-101v-666h101v-13zM356 815q0 -25 -16.5 -42t-41.5 -17t-41.5 17t-16.5 42t16.5 41.5t41.5 16.5t41.5 -16.5t16.5 -41.5zM146 815q0 -25 -16.5 -42t-41.5 -17t-41.5 17t-16.5 42t16.5 41.5t41.5 16.5t41.5 -16.5t16.5 -41.5z" />
    <glyph glyph-name="Eth" unicode="&#xd0;" horiz-adv-x="754" 
d="M33 360v13h96v306h-101v13h104q20 0 84 1t94 1q173 0 284 -94t111 -261q0 -164 -107.5 -252.5t-271.5 -88.5q-28 0 -97 1t-98 1h-103v13h101v347h-96zM563 339q0 341 -251 341h-55v-307h110v-13h-110v-348h61q124 0 184.5 76t60.5 251z" />
    <glyph glyph-name="Ntilde" unicode="&#xd1;" 
d="M256 741h-11q0 55 21 98.5t67 43.5q29 0 81.5 -36.5t74.5 -36.5q50 0 53 70h11q-1 -137 -79 -137q-35 0 -85.5 36.5t-76.5 36.5q-51 0 -56 -75zM622 679v-583q0 -33 -3.5 -53.5t-19 -37t-43.5 -16.5q-29 0 -53 20.5t-52 69.5l-302 538h-1v-604h101v-13h-219v13h101v666
h-103v13h125q67 0 92.5 -16.5t58.5 -74.5l301 -530h1v608h-101v13h218v-13h-101z" />
    <glyph glyph-name="Ograve" unicode="&#xd2;" horiz-adv-x="785" 
d="M434 743h-9l-233 134v5h147zM192 347q0 -164 52 -254t149 -90q96 0 148 90t52 254t-52 253.5t-148 89.5q-97 0 -149 -89.5t-52 -253.5zM49 347q0 154 99.5 255t244.5 101q144 0 243.5 -101t99.5 -255t-99.5 -255.5t-243.5 -101.5q-145 0 -244.5 101.5t-99.5 255.5z" />
    <glyph glyph-name="Oacute" unicode="&#xd3;" horiz-adv-x="785" 
d="M380 743h-8l95 139h147v-5zM192 347q0 -164 52 -254t149 -90q96 0 148 90t52 254t-52 253.5t-148 89.5q-97 0 -149 -89.5t-52 -253.5zM49 347q0 154 99.5 255t244.5 101q144 0 243.5 -101t99.5 -255t-99.5 -255.5t-243.5 -101.5q-145 0 -244.5 101.5t-99.5 255.5z" />
    <glyph glyph-name="Ocircumflex" unicode="&#xd4;" horiz-adv-x="785" 
d="M388 887h8q14 -42 53 -81t79 -58l-2 -5q-91 11 -134 50q-42 -39 -133 -50l-2 5q40 19 79 58t52 81zM192 347q0 -164 52 -254t149 -90q96 0 148 90t52 254t-52 253.5t-148 89.5q-97 0 -149 -89.5t-52 -253.5zM49 347q0 154 99.5 255t244.5 101q144 0 243.5 -101t99.5 -255
t-99.5 -255.5t-243.5 -101.5q-145 0 -244.5 101.5t-99.5 255.5z" />
    <glyph glyph-name="Otilde" unicode="&#xd5;" horiz-adv-x="785" 
d="M192 347q0 -164 52 -254t149 -90q96 0 148 90t52 254t-52 253.5t-148 89.5q-97 0 -149 -89.5t-52 -253.5zM49 347q0 154 99.5 255t244.5 101q144 0 243.5 -101t99.5 -255t-99.5 -255.5t-243.5 -101.5q-145 0 -244.5 101.5t-99.5 255.5zM259 741h-11q0 55 21 98.5t67 43.5
q29 0 81.5 -36.5t74.5 -36.5q50 0 53 70h11q-1 -137 -79 -137q-35 0 -85.5 36.5t-76.5 36.5q-51 0 -56 -75z" />
    <glyph glyph-name="Odieresis" unicode="&#xd6;" horiz-adv-x="785" 
d="M192 347q0 -164 52 -254t149 -90q96 0 148 90t52 254t-52 253.5t-148 89.5q-97 0 -149 -89.5t-52 -253.5zM49 347q0 154 99.5 255t244.5 101q144 0 243.5 -101t99.5 -255t-99.5 -255.5t-243.5 -101.5q-145 0 -244.5 101.5t-99.5 255.5zM556 815q0 -25 -16.5 -42
t-41.5 -17t-41.5 17t-16.5 42t16.5 41.5t41.5 16.5t41.5 -16.5t16.5 -41.5zM346 815q0 -25 -16.5 -42t-41.5 -17t-41.5 17t-16.5 42t16.5 41.5t41.5 16.5t41.5 -16.5t16.5 -41.5z" />
    <glyph glyph-name="multiply" unicode="&#xd7;" horiz-adv-x="438" 
d="M56 49l-11 10l163 164l-162 162l11 12l163 -163l162 163l11 -11l-163 -163l163 -162l-11 -12l-163 163z" />
    <glyph glyph-name="Oslash" unicode="&#xd8;" horiz-adv-x="785" 
d="M49 347q0 154 99.5 255t244.5 101q108 0 196 -61l67 92l15 -9l-68 -93q62 -48 97.5 -122.5t35.5 -162.5q0 -154 -99.5 -255.5t-243.5 -101.5q-117 0 -208 69l-56 -78l-13 9l57 78q-58 49 -91 121.5t-33 157.5zM593 347q0 137 -36 221l-327 -448q51 -117 163 -117
q96 0 148 90t52 254zM192 347q0 -129 31 -210l325 449q-53 104 -155 104q-97 0 -149 -89.5t-52 -253.5z" />
    <glyph glyph-name="Ugrave" unicode="&#xd9;" 
d="M468 743h-9l-233 134v5h147zM618 259v420h-99v13h219v-13h-101v-419q0 -142 -58.5 -206t-180.5 -64q-138 0 -209.5 59.5t-71.5 203.5v426h-100v13h329v-13h-101v-414q0 -134 37 -194.5t132 -60.5q101 0 152.5 58.5t51.5 190.5z" />
    <glyph glyph-name="Uacute" unicode="&#xda;" 
d="M618 259v420h-99v13h219v-13h-101v-419q0 -142 -58.5 -206t-180.5 -64q-138 0 -209.5 59.5t-71.5 203.5v426h-100v13h329v-13h-101v-414q0 -134 37 -194.5t132 -60.5q101 0 152.5 58.5t51.5 190.5zM392 743h-8l95 139h147v-5z" />
    <glyph glyph-name="Ucircumflex" unicode="&#xdb;" 
d="M417 887h8q14 -42 53 -81t79 -58l-2 -5q-91 11 -134 50q-42 -39 -133 -50l-2 5q40 19 79 58t52 81zM618 259v420h-99v13h219v-13h-101v-419q0 -142 -58.5 -206t-180.5 -64q-138 0 -209.5 59.5t-71.5 203.5v426h-100v13h329v-13h-101v-414q0 -134 37 -194.5t132 -60.5
q101 0 152.5 58.5t51.5 190.5z" />
    <glyph glyph-name="Udieresis" unicode="&#xdc;" 
d="M618 259v420h-99v13h219v-13h-101v-419q0 -142 -58.5 -206t-180.5 -64q-138 0 -209.5 59.5t-71.5 203.5v426h-100v13h329v-13h-101v-414q0 -134 37 -194.5t132 -60.5q101 0 152.5 58.5t51.5 190.5zM577 815q0 -25 -16.5 -42t-41.5 -17t-41.5 17t-16.5 42t16.5 41.5
t41.5 16.5t41.5 -16.5t16.5 -41.5zM367 815q0 -25 -16.5 -42t-41.5 -17t-41.5 17t-16.5 42t16.5 41.5t41.5 16.5t41.5 -16.5t16.5 -41.5z" />
    <glyph glyph-name="Yacute" unicode="&#xdd;" horiz-adv-x="692" 
d="M401 336l188 343h-96v13h199v-13h-85l-203 -369v-297h105v-13h-338v13h105v295l-187 371h-89v13h327v-13h-97zM375 743h-8l95 139h147v-5z" />
    <glyph glyph-name="Thorn" unicode="&#xde;" horiz-adv-x="676" 
d="M36 0v13h98v666h-98v13h331v-13h-105v-121h96q120 0 202 -50t82 -147t-77.5 -148t-200.5 -51h-102v-149h113v-13h-339zM342 175q85 0 123.5 42t38.5 143q0 98 -37.5 141.5t-122.5 43.5h-82v-370h80z" />
    <glyph glyph-name="germandbls" unicode="&#xdf;" horiz-adv-x="641" 
d="M357 720q74 0 122 -40t48 -107q0 -61 -39.5 -102.5t-106.5 -53.5v-1q94 -13 157 -71t63 -142q0 -87 -66 -149.5t-149 -62.5q-53 0 -88.5 28t-35.5 76q0 28 20 49.5t48 21.5q22 0 35.5 -12.5t13.5 -34.5q0 -17 -11 -28.5t-23.5 -16.5t-23.5 -13t-11 -18q0 -17 20.5 -28.5
t50.5 -11.5q51 0 71.5 45.5t20.5 156.5q0 206 -144 206h-32v14h34q83 0 132 42t49 106t-44.5 99t-108.5 35q-137 0 -137 -186v-521h-192v13h76v406h-76v13h76v9q0 127 68.5 203t182.5 76z" />
    <glyph glyph-name="agrave" unicode="&#xe0;" horiz-adv-x="499" 
d="M300 240v59q0 77 -19.5 105t-64.5 28q-30 0 -55 -10.5t-25 -26.5q0 -8 7.5 -15t17 -11.5t17 -15.5t7.5 -27q0 -22 -15 -36t-40 -14q-24 0 -42 17.5t-18 46.5q0 42 46.5 73.5t109.5 31.5q38 0 69 -7.5t59.5 -26t44 -54t15.5 -85.5l-2 -197q0 -37 6 -51t22 -14
q17 0 32 16.5t19 49.5l13 -1q-12 -84 -91 -84q-103 0 -105 102h-2q-28 -103 -116 -103q-64 0 -108 28.5t-44 76.5q0 20 8 36.5t26.5 30t37.5 23.5t54 20.5t62 17t74 17.5zM301 227q-54 -11 -75 -16.5t-40 -19.5t-23 -33.5t-4 -57.5q0 -93 51 -93q37 0 64 42t27 121v57z
M283 520h-8l-179 156v5h121z" />
    <glyph glyph-name="aacute" unicode="&#xe1;" horiz-adv-x="499" 
d="M300 240v59q0 77 -19.5 105t-64.5 28q-30 0 -55 -10.5t-25 -26.5q0 -8 7.5 -15t17 -11.5t17 -15.5t7.5 -27q0 -22 -15 -36t-40 -14q-24 0 -42 17.5t-18 46.5q0 42 46.5 73.5t109.5 31.5q38 0 69 -7.5t59.5 -26t44 -54t15.5 -85.5l-2 -197q0 -37 6 -51t22 -14
q17 0 32 16.5t19 49.5l13 -1q-12 -84 -91 -84q-103 0 -105 102h-2q-28 -103 -116 -103q-64 0 -108 28.5t-44 76.5q0 20 8 36.5t26.5 30t37.5 23.5t54 20.5t62 17t74 17.5zM301 227q-54 -11 -75 -16.5t-40 -19.5t-23 -33.5t-4 -57.5q0 -93 51 -93q37 0 64 42t27 121v57z
M228 520h-8l70 161h121v-4z" />
    <glyph glyph-name="acircumflex" unicode="&#xe2;" horiz-adv-x="499" 
d="M300 240v59q0 77 -19.5 105t-64.5 28q-30 0 -55 -10.5t-25 -26.5q0 -8 7.5 -15t17 -11.5t17 -15.5t7.5 -27q0 -22 -15 -36t-40 -14q-24 0 -42 17.5t-18 46.5q0 42 46.5 73.5t109.5 31.5q38 0 69 -7.5t59.5 -26t44 -54t15.5 -85.5l-2 -197q0 -37 6 -51t22 -14
q17 0 32 16.5t19 49.5l13 -1q-12 -84 -91 -84q-103 0 -105 102h-2q-28 -103 -116 -103q-64 0 -108 28.5t-44 76.5q0 20 8 36.5t26.5 30t37.5 23.5t54 20.5t62 17t74 17.5zM301 227q-54 -11 -75 -16.5t-40 -19.5t-23 -33.5t-4 -57.5q0 -93 51 -93q37 0 64 42t27 121v57z
M248 682h8q11 -45 51 -93.5t77 -69.5l-3 -5q-85 22 -129 69q-44 -47 -129 -69l-3 5q37 21 77 69.5t51 93.5z" />
    <glyph glyph-name="atilde" unicode="&#xe3;" horiz-adv-x="499" 
d="M300 240v59q0 77 -19.5 105t-64.5 28q-30 0 -55 -10.5t-25 -26.5q0 -8 7.5 -15t17 -11.5t17 -15.5t7.5 -27q0 -22 -15 -36t-40 -14q-24 0 -42 17.5t-18 46.5q0 42 46.5 73.5t109.5 31.5q38 0 69 -7.5t59.5 -26t44 -54t15.5 -85.5l-2 -197q0 -37 6 -51t22 -14
q17 0 32 16.5t19 49.5l13 -1q-12 -84 -91 -84q-103 0 -105 102h-2q-28 -103 -116 -103q-64 0 -108 28.5t-44 76.5q0 20 8 36.5t26.5 30t37.5 23.5t54 20.5t62 17t74 17.5zM301 227q-54 -11 -75 -16.5t-40 -19.5t-23 -33.5t-4 -57.5q0 -93 51 -93q37 0 64 42t27 121v57z
M105 527h-11q0 55 21 98.5t67 43.5q30 0 82 -36.5t74 -36.5q50 0 53 70h11q-1 -137 -79 -137q-36 0 -86 36.5t-76 36.5q-51 0 -56 -75z" />
    <glyph glyph-name="adieresis" unicode="&#xe4;" horiz-adv-x="499" 
d="M300 240v59q0 77 -19.5 105t-64.5 28q-30 0 -55 -10.5t-25 -26.5q0 -8 7.5 -15t17 -11.5t17 -15.5t7.5 -27q0 -22 -15 -36t-40 -14q-24 0 -42 17.5t-18 46.5q0 42 46.5 73.5t109.5 31.5q38 0 69 -7.5t59.5 -26t44 -54t15.5 -85.5l-2 -197q0 -37 6 -51t22 -14
q17 0 32 16.5t19 49.5l13 -1q-12 -84 -91 -84q-103 0 -105 102h-2q-28 -103 -116 -103q-64 0 -108 28.5t-44 76.5q0 20 8 36.5t26.5 30t37.5 23.5t54 20.5t62 17t74 17.5zM301 227q-54 -11 -75 -16.5t-40 -19.5t-23 -33.5t-4 -57.5q0 -93 51 -93q37 0 64 42t27 121v57z
M199 602q0 -24 -17 -41t-42 -17t-41.5 17t-16.5 41q0 25 16.5 42t41.5 17q26 0 42.5 -16.5t16.5 -42.5zM404 602q0 -24 -16.5 -41t-41.5 -17t-41.5 17t-16.5 41q0 25 16.5 42t41.5 17t41.5 -17t16.5 -42z" />
    <glyph glyph-name="aring" unicode="&#xe5;" horiz-adv-x="499" 
d="M300 240v59q0 77 -19.5 105t-64.5 28q-30 0 -55 -10.5t-25 -26.5q0 -8 7.5 -15t17 -11.5t17 -15.5t7.5 -27q0 -22 -15 -36t-40 -14q-24 0 -42 17.5t-18 46.5q0 42 46.5 73.5t109.5 31.5q38 0 69 -7.5t59.5 -26t44 -54t15.5 -85.5l-2 -197q0 -37 6 -51t22 -14
q17 0 32 16.5t19 49.5l13 -1q-12 -84 -91 -84q-103 0 -105 102h-2q-28 -103 -116 -103q-64 0 -108 28.5t-44 76.5q0 20 8 36.5t26.5 30t37.5 23.5t54 20.5t62 17t74 17.5zM301 227q-54 -11 -75 -16.5t-40 -19.5t-23 -33.5t-4 -57.5q0 -93 51 -93q37 0 64 42t27 121v57z
M232 706q35 0 59.5 -24.5t24.5 -61.5q0 -36 -24 -59.5t-60 -23.5t-60 23.5t-24 59.5q0 37 24.5 61.5t59.5 24.5zM232 551q27 0 47.5 17.5t20.5 51.5q0 35 -20.5 53t-47.5 18q-26 0 -46.5 -18t-20.5 -53q0 -34 20.5 -51.5t46.5 -17.5z" />
    <glyph glyph-name="ae" unicode="&#xe6;" horiz-adv-x="746" 
d="M300 240v58q0 73 -19.5 103t-63.5 30q-31 0 -55 -10t-24 -26q0 -11 23.5 -26.5t23.5 -40.5q0 -21 -15 -35.5t-39 -14.5t-41 17.5t-17 45.5q0 42 45.5 72.5t108.5 30.5q106 0 145 -61q62 60 142 60q84 0 143 -55t47 -150h-277v-10v-15q0 -207 113 -207q53 0 92.5 31.5
t51.5 96.5l15 -3q-13 -68 -58 -104.5t-115 -36.5q-74 0 -129.5 36t-79.5 98h-1q-27 -134 -123 -134q-64 0 -107.5 28t-43.5 77q0 20 8 37t26 30.5t37.5 23.5t53 20t61 17t72.5 17zM301 227q-53 -11 -74 -16.5t-39.5 -20t-22 -33.5t-3.5 -57q0 -93 51 -93q36 0 62 42.5
t26 120.5v33v10v9v5zM513 432q-81 0 -86 -181h158q7 181 -72 181z" />
    <glyph glyph-name="ccedilla" unicode="&#xe7;" horiz-adv-x="463" 
d="M347 -160q0 -39 -35 -63.5t-80 -24.5q-31 0 -55 17t-33 48l13 4q7 -28 26.5 -42.5t44.5 -14.5q28 0 44.5 19t16.5 54q0 70 -51 70q-30 0 -52 -24l-11 10l54 100q-84 11 -135.5 72t-51.5 149q0 93 65 161.5t165 68.5q65 0 107 -33t42 -82q0 -28 -18 -49t-47 -21
q-26 0 -41.5 15.5t-15.5 38.5q0 34 33 53q26 15 26 27q0 15 -24 26.5t-55 11.5q-35 0 -58.5 -18t-34 -52t-14.5 -67.5t-4 -79.5q0 -208 108 -208q50 0 84 31.5t46 95.5l14 -2q-26 -141 -156 -141q-14 0 -20 1l-46 -85l1 -1q21 16 52 16q35 0 65.5 -21.5t30.5 -59.5z" />
    <glyph glyph-name="egrave" unicode="&#xe8;" horiz-adv-x="490" 
d="M448 239h-280v-10v-15q0 -208 115 -208q54 0 93 31.5t51 96.5l14 -3q-13 -68 -58 -104.5t-114 -36.5q-100 0 -163.5 62.5t-63.5 161.5q0 95 63.5 162.5t149.5 67.5q84 0 143 -54.5t50 -150.5zM254 433q-81 0 -86 -181h161q7 181 -75 181zM283 520h-8l-179 156v5h121z" />
    <glyph glyph-name="eacute" unicode="&#xe9;" horiz-adv-x="490" 
d="M247 520h-8l70 161h121v-4zM448 239h-280v-10v-15q0 -208 115 -208q54 0 93 31.5t51 96.5l14 -3q-13 -68 -58 -104.5t-114 -36.5q-100 0 -163.5 62.5t-63.5 161.5q0 95 63.5 162.5t149.5 67.5q84 0 143 -54.5t50 -150.5zM254 433q-81 0 -86 -181h161q7 181 -75 181z" />
    <glyph glyph-name="ecircumflex" unicode="&#xea;" horiz-adv-x="490" 
d="M254 682h8q11 -45 51 -93.5t77 -69.5l-3 -5q-85 22 -129 69q-44 -47 -129 -69l-3 5q37 21 77 69.5t51 93.5zM448 239h-280v-10v-15q0 -208 115 -208q54 0 93 31.5t51 96.5l14 -3q-13 -68 -58 -104.5t-114 -36.5q-100 0 -163.5 62.5t-63.5 161.5q0 95 63.5 162.5
t149.5 67.5q84 0 143 -54.5t50 -150.5zM254 433q-81 0 -86 -181h161q7 181 -75 181z" />
    <glyph glyph-name="edieresis" unicode="&#xeb;" horiz-adv-x="490" 
d="M212 602q0 -24 -17 -41t-42 -17t-41.5 17t-16.5 41q0 25 16.5 42t41.5 17t42 -16.5t17 -42.5zM417 602q0 -24 -16.5 -41t-41.5 -17t-41.5 17t-16.5 41q0 25 16.5 42t41.5 17t41.5 -17t16.5 -42zM448 239h-280v-10v-15q0 -208 115 -208q54 0 93 31.5t51 96.5l14 -3
q-13 -68 -58 -104.5t-114 -36.5q-100 0 -163.5 62.5t-63.5 161.5q0 95 63.5 162.5t149.5 67.5q84 0 143 -54.5t50 -150.5zM254 433q-81 0 -86 -181h161q7 181 -75 181z" />
    <glyph glyph-name="igrave" unicode="&#xec;" horiz-adv-x="313" 
d="M296 0h-267v13h75v406h-75v13h192v-419h75v-13zM205 520h-8l-179 156v5h121z" />
    <glyph glyph-name="iacute" unicode="&#xed;" horiz-adv-x="313" 
d="M112 520h-8l70 161h121v-4zM296 0h-267v13h75v406h-75v13h192v-419h75v-13z" />
    <glyph glyph-name="icircumflex" unicode="&#xee;" horiz-adv-x="313" 
d="M152 682h8q11 -45 51 -93.5t77 -69.5l-3 -5q-85 22 -129 69q-44 -47 -129 -69l-3 5q37 21 77 69.5t51 93.5zM296 0h-267v13h75v406h-75v13h192v-419h75v-13z" />
    <glyph glyph-name="idieresis" unicode="&#xef;" horiz-adv-x="313" 
d="M115 602q0 -24 -17 -41t-42 -17t-41.5 17t-16.5 41q0 25 16.5 42t41.5 17q26 0 42.5 -16.5t16.5 -42.5zM320 602q0 -24 -16.5 -41t-41.5 -17t-41.5 17t-16.5 41q0 25 16.5 42t41.5 17t41.5 -17t16.5 -42zM296 0h-267v13h75v406h-75v13h192v-419h75v-13z" />
    <glyph glyph-name="eth" unicode="&#xf0;" horiz-adv-x="575" 
d="M224 568l-10 10l62 66q-52 40 -135 59l3 13q75 -12 151 -51l58 63l11 -11l-56 -59q95 -55 152.5 -145t57.5 -200q0 -151 -68 -237t-181 -86q-88 0 -158.5 60.5t-70.5 154.5q0 99 63 156t149 57q55 0 91.5 -35.5t48.5 -107.5h3q2 20 2 51q0 215 -110 309zM386 202
q0 100 -35 150.5t-84 50.5q-100 0 -100 -198q0 -203 105 -203q50 0 82 50.5t32 149.5z" />
    <glyph glyph-name="ntilde" unicode="&#xf1;" horiz-adv-x="583" 
d="M30 0v13h75v406h-75v13h188v-118h1q40 127 136 127q143 0 143 -173v-255h76v-13h-255v13h63v244q0 51 -1 75t-5.5 49t-14.5 33.5t-27 8.5q-48 0 -80 -60.5t-32 -122.5v-227h64v-13h-256zM180 527h-11q0 55 21 98.5t67 43.5q30 0 82 -36.5t74 -36.5q50 0 53 70h11
q-1 -137 -79 -137q-36 0 -86 36.5t-76 36.5q-51 0 -56 -75z" />
    <glyph glyph-name="ograve" unicode="&#xf2;" horiz-adv-x="526" 
d="M485 217q0 -90 -65 -158.5t-157 -68.5q-91 0 -156 68.5t-65 158.5t65 158.5t156 68.5q92 0 157 -68.5t65 -158.5zM168 217q0 -111 21 -163.5t74 -52.5t74 52.5t21 163.5t-21 163.5t-74 52.5t-74 -52.5t-21 -163.5zM287 520h-8l-179 156v5h121z" />
    <glyph glyph-name="oacute" unicode="&#xf3;" horiz-adv-x="526" 
d="M249 520h-8l70 161h121v-4zM485 217q0 -90 -65 -158.5t-157 -68.5q-91 0 -156 68.5t-65 158.5t65 158.5t156 68.5q92 0 157 -68.5t65 -158.5zM168 217q0 -111 21 -163.5t74 -52.5t74 52.5t21 163.5t-21 163.5t-74 52.5t-74 -52.5t-21 -163.5z" />
    <glyph glyph-name="ocircumflex" unicode="&#xf4;" horiz-adv-x="526" 
d="M259 682h8q11 -45 51 -93.5t77 -69.5l-3 -5q-85 22 -129 69q-44 -47 -129 -69l-3 5q37 21 77 69.5t51 93.5zM485 217q0 -90 -65 -158.5t-157 -68.5q-91 0 -156 68.5t-65 158.5t65 158.5t156 68.5q92 0 157 -68.5t65 -158.5zM168 217q0 -111 21 -163.5t74 -52.5t74 52.5
t21 163.5t-21 163.5t-74 52.5t-74 -52.5t-21 -163.5z" />
    <glyph glyph-name="otilde" unicode="&#xf5;" horiz-adv-x="526" 
d="M485 217q0 -90 -65 -158.5t-157 -68.5q-91 0 -156 68.5t-65 158.5t65 158.5t156 68.5q92 0 157 -68.5t65 -158.5zM168 217q0 -111 21 -163.5t74 -52.5t74 52.5t21 163.5t-21 163.5t-74 52.5t-74 -52.5t-21 -163.5zM125 527h-11q0 55 21 98.5t67 43.5q30 0 82 -36.5
t74 -36.5q50 0 53 70h11q-1 -137 -79 -137q-36 0 -86 36.5t-76 36.5q-51 0 -56 -75z" />
    <glyph glyph-name="odieresis" unicode="&#xf6;" horiz-adv-x="526" 
d="M219 602q0 -24 -17 -41t-42 -17t-41.5 17t-16.5 41q0 25 16.5 42t41.5 17q26 0 42.5 -16.5t16.5 -42.5zM424 602q0 -24 -16.5 -41t-41.5 -17t-41.5 17t-16.5 41q0 25 16.5 42t41.5 17t41.5 -17t16.5 -42zM485 217q0 -90 -65 -158.5t-157 -68.5q-91 0 -156 68.5t-65 158.5
t65 158.5t156 68.5q92 0 157 -68.5t65 -158.5zM168 217q0 -111 21 -163.5t74 -52.5t74 52.5t21 163.5t-21 163.5t-74 52.5t-74 -52.5t-21 -163.5z" />
    <glyph glyph-name="divide" unicode="&#xf7;" horiz-adv-x="496" 
d="M316 386q0 -29 -19.5 -49t-47.5 -20q-29 0 -49 19.5t-20 48.5t19.5 48.5t48.5 19.5t48.5 -19t19.5 -48zM317 72q0 -29 -19.5 -49t-48.5 -20t-49 19.5t-20 47.5q0 29 20 49t48 20q29 0 49 -19.5t20 -47.5zM35 235h426v-15h-426v15z" />
    <glyph glyph-name="oslash" unicode="&#xf8;" horiz-adv-x="526" 
d="M485 217q0 -90 -65 -158.5t-157 -68.5q-70 0 -128 42l-56 -77l-13 10l57 78q-81 70 -81 174q0 90 65 158.5t156 68.5q68 0 124 -40l60 82l13 -9l-61 -83q86 -70 86 -177zM358 217q0 68 -7 111l-174 -238q10 -45 30.5 -67t55.5 -22q53 0 74 52.5t21 163.5zM168 217
q0 -60 6 -105l173 237q-20 84 -84 84q-53 0 -74 -52.5t-21 -163.5z" />
    <glyph glyph-name="ugrave" unicode="&#xf9;" horiz-adv-x="563" 
d="M193 432v-266q0 -92 8.5 -124.5t39.5 -32.5q49 0 80.5 60.5t31.5 126.5v223h-70v13h187v-419h73v-13h-187v118h-1q-39 -128 -136 -128q-68 0 -105.5 37t-37.5 127v265h-73v13h190zM301 520h-8l-179 156v5h121z" />
    <glyph glyph-name="uacute" unicode="&#xfa;" horiz-adv-x="563" 
d="M265 520h-8l70 161h121v-4zM193 432v-266q0 -92 8.5 -124.5t39.5 -32.5q49 0 80.5 60.5t31.5 126.5v223h-70v13h187v-419h73v-13h-187v118h-1q-39 -128 -136 -128q-68 0 -105.5 37t-37.5 127v265h-73v13h190z" />
    <glyph glyph-name="ucircumflex" unicode="&#xfb;" horiz-adv-x="563" 
d="M273 682h8q11 -45 51 -93.5t77 -69.5l-3 -5q-85 22 -129 69q-44 -47 -129 -69l-3 5q37 21 77 69.5t51 93.5zM193 432v-266q0 -92 8.5 -124.5t39.5 -32.5q49 0 80.5 60.5t31.5 126.5v223h-70v13h187v-419h73v-13h-187v118h-1q-39 -128 -136 -128q-68 0 -105.5 37
t-37.5 127v265h-73v13h190z" />
    <glyph glyph-name="udieresis" unicode="&#xfc;" horiz-adv-x="563" 
d="M226 602q0 -24 -17 -41t-42 -17t-41.5 17t-16.5 41q0 25 16.5 42t41.5 17t42 -16.5t17 -42.5zM431 602q0 -24 -16.5 -41t-41.5 -17t-41.5 17t-16.5 41q0 25 16.5 42t41.5 17t41.5 -17t16.5 -42zM193 432v-266q0 -92 8.5 -124.5t39.5 -32.5q49 0 80.5 60.5t31.5 126.5v223
h-70v13h187v-419h73v-13h-187v118h-1q-39 -128 -136 -128q-68 0 -105.5 37t-37.5 127v265h-73v13h190z" />
    <glyph glyph-name="yacute" unicode="&#xfd;" horiz-adv-x="508" 
d="M275 -44v-57q0 -150 -101 -150q-44 0 -78.5 30t-34.5 76q0 30 19 50t48 20q25 0 39 -14t14 -36q0 -20 -14.5 -33.5t-29 -24t-14.5 -23.5q0 -16 16 -24t39 -8q36 0 58.5 31.5t22.5 99.5v64l-195 462h-60v13h258v-13h-73l123 -306h2l110 306h-72v13h152v-13h-62zM271 520
h-8l70 161h121v-4z" />
    <glyph glyph-name="thorn" unicode="&#xfe;" horiz-adv-x="591" 
d="M214 217q0 -81 34.5 -146t87.5 -65q42 0 63.5 57.5t21.5 153.5q0 95 -21.5 152.5t-63.5 57.5q-53 0 -87.5 -65t-34.5 -145zM216 326h2q39 117 132 117q80 0 139.5 -65.5t59.5 -160.5q0 -92 -60 -159.5t-139 -67.5q-93 0 -132 117h-2q3 -60 3 -95v-239h100v-13h-291v13h75
v925h-75v13h191v-311z" />
    <glyph glyph-name="ydieresis" unicode="&#xff;" horiz-adv-x="508" 
d="M275 -44v-57q0 -150 -101 -150q-44 0 -78.5 30t-34.5 76q0 30 19 50t48 20q25 0 39 -14t14 -36q0 -20 -14.5 -33.5t-29 -24t-14.5 -23.5q0 -16 16 -24t39 -8q36 0 58.5 31.5t22.5 99.5v64l-195 462h-60v13h258v-13h-73l123 -306h2l110 306h-72v13h152v-13h-62zM234 602
q0 -24 -17 -41t-42 -17t-41.5 17t-16.5 41q0 25 16.5 42t41.5 17t42 -16.5t17 -42.5zM439 602q0 -24 -16.5 -41t-41.5 -17t-41.5 17t-16.5 41q0 25 16.5 42t41.5 17t41.5 -17t16.5 -42z" />
    <glyph glyph-name="Amacron" unicode="&#x100;" horiz-adv-x="700" 
d="M70 13l198 608q15 45 32 64.5t47 19.5q28 0 45 -21t36 -79l200 -592h72v-13h-299v13h90l-83 255h-238l-82 -255h88v-13h-182v13h76zM288 633l-113 -350h228l-113 350h-2zM460 787h-250v51h250v-51z" />
    <glyph glyph-name="amacron" unicode="&#x101;" horiz-adv-x="499" 
d="M300 240v59q0 77 -19.5 105t-64.5 28q-30 0 -55 -10.5t-25 -26.5q0 -8 7.5 -15t17 -11.5t17 -15.5t7.5 -27q0 -22 -15 -36t-40 -14q-24 0 -42 17.5t-18 46.5q0 42 46.5 73.5t109.5 31.5q38 0 69 -7.5t59.5 -26t44 -54t15.5 -85.5l-2 -197q0 -37 6 -51t22 -14
q17 0 32 16.5t19 49.5l13 -1q-12 -84 -91 -84q-103 0 -105 102h-2q-28 -103 -116 -103q-64 0 -108 28.5t-44 76.5q0 20 8 36.5t26.5 30t37.5 23.5t54 20.5t62 17t74 17.5zM301 227q-54 -11 -75 -16.5t-40 -19.5t-23 -33.5t-4 -57.5q0 -93 51 -93q37 0 64 42t27 121v57z
M365 570h-250v51h250v-51z" />
    <glyph glyph-name="Abreve" unicode="&#x102;" horiz-adv-x="700" 
d="M70 13l198 608q15 45 32 64.5t47 19.5q28 0 45 -21t36 -79l200 -592h72v-13h-299v13h90l-83 255h-238l-82 -255h88v-13h-182v13h76zM288 633l-113 -350h228l-113 350h-2zM327 798q97 0 107 84h10q-2 -62 -31 -100.5t-86 -38.5q-58 0 -87 38.5t-31 100.5h10
q6 -47 33.5 -65.5t74.5 -18.5z" />
    <glyph glyph-name="abreve" unicode="&#x103;" horiz-adv-x="499" 
d="M300 240v59q0 77 -19.5 105t-64.5 28q-30 0 -55 -10.5t-25 -26.5q0 -8 7.5 -15t17 -11.5t17 -15.5t7.5 -27q0 -22 -15 -36t-40 -14q-24 0 -42 17.5t-18 46.5q0 42 46.5 73.5t109.5 31.5q38 0 69 -7.5t59.5 -26t44 -54t15.5 -85.5l-2 -197q0 -37 6 -51t22 -14
q17 0 32 16.5t19 49.5l13 -1q-12 -84 -91 -84q-103 0 -105 102h-2q-28 -103 -116 -103q-64 0 -108 28.5t-44 76.5q0 20 8 36.5t26.5 30t37.5 23.5t54 20.5t62 17t74 17.5zM301 227q-54 -11 -75 -16.5t-40 -19.5t-23 -33.5t-4 -57.5q0 -93 51 -93q37 0 64 42t27 121v57z
M239 580q100 0 109 95h10q-3 -67 -31.5 -110.5t-87.5 -43.5t-87.5 43.5t-31.5 110.5h10q9 -95 109 -95z" />
    <glyph glyph-name="Aogonek" unicode="&#x104;" horiz-adv-x="700" 
d="M398 -125q0 36 40 65t111 60h-148v13h90l-83 255h-238l-82 -255h88v-13h-182v13h76l198 608q15 45 32 64.5t47 19.5q28 0 45 -21t36 -79l200 -592h72v-13h-139q-56 -33 -74.5 -60t-18.5 -61q0 -27 11.5 -41t30.5 -14q27 0 54 21l5 -8q-37 -31 -84 -31q-37 0 -62 19
t-25 50zM288 633l-113 -350h228l-113 350h-2z" />
    <glyph glyph-name="aogonek" unicode="&#x105;" horiz-adv-x="499" 
d="M261 -125q0 59 133 117q-84 9 -86 101h-2q-28 -103 -116 -103q-64 0 -108 28.5t-44 76.5q0 20 8 36.5t26.5 30t37.5 23.5t54 20.5t62 17t74 17.5v59q0 77 -19.5 105t-64.5 28q-30 0 -55 -10.5t-25 -26.5q0 -8 7.5 -15t17 -11.5t17 -15.5t7.5 -27q0 -22 -15 -36t-40 -14
q-24 0 -42 17.5t-18 46.5q0 42 46.5 73.5t109.5 31.5q38 0 69 -7.5t59.5 -26t44 -54t15.5 -85.5l-2 -197q0 -37 6 -51t22 -14q17 0 32 16.5t19 49.5l13 -1q-12 -84 -91 -84h-3q-47 -29 -63 -54.5t-16 -56.5q0 -27 12 -41.5t31 -14.5q25 0 54 21l5 -8q-37 -31 -84 -31
q-37 0 -62.5 19t-25.5 50zM301 227q-54 -11 -75 -16.5t-40 -19.5t-23 -33.5t-4 -57.5q0 -93 51 -93q37 0 64 42t27 121v57z" />
    <glyph glyph-name="Cacute" unicode="&#x106;" horiz-adv-x="706" 
d="M384 703q47 0 86.5 -15t64 -30t37.5 -15q17 0 29.5 26t28.5 26h3v-246h-4q-37 0 -65 115q-14 57 -63 90.5t-115 33.5q-94 0 -144 -87t-50 -254q0 -168 50 -254.5t147 -86.5q109 0 169 61t73 160l15 -2q-5 -41 -20 -79.5t-43.5 -75t-79.5 -58.5t-118 -22
q-143 0 -239.5 101t-96.5 256t97 255.5t238 100.5zM365 743h-8l95 139h147v-5z" />
    <glyph glyph-name="cacute" unicode="&#x107;" horiz-adv-x="463" 
d="M238 520h-8l70 161h121v-4zM168 214q0 -208 108 -208q50 0 84 31.5t46 95.5l14 -2q-26 -141 -156 -141q-97 0 -159.5 63t-62.5 161q0 93 65 161.5t165 68.5q65 0 107 -33t42 -82q0 -28 -18 -49t-47 -21q-26 0 -41.5 15.5t-15.5 38.5q0 34 33 53q26 15 26 27
q0 15 -24 26.5t-55 11.5q-35 0 -58.5 -18t-34 -52t-14.5 -67.5t-4 -79.5z" />
    <glyph glyph-name="Ccircumflex" unicode="&#x108;" horiz-adv-x="706" 
d="M384 703q47 0 86.5 -15t64 -30t37.5 -15q17 0 29.5 26t28.5 26h3v-246h-4q-37 0 -65 115q-14 57 -63 90.5t-115 33.5q-94 0 -144 -87t-50 -254q0 -168 50 -254.5t147 -86.5q109 0 169 61t73 160l15 -2q-5 -41 -20 -79.5t-43.5 -75t-79.5 -58.5t-118 -22
q-143 0 -239.5 101t-96.5 256t97 255.5t238 100.5zM382 887h8q14 -42 53 -81t79 -58l-2 -5q-91 11 -134 50q-42 -39 -133 -50l-2 5q40 19 79 58t52 81z" />
    <glyph glyph-name="ccircumflex" unicode="&#x109;" horiz-adv-x="463" 
d="M255 682h8q11 -45 51 -93.5t77 -69.5l-3 -5q-85 22 -129 69q-44 -47 -129 -69l-3 5q37 21 77 69.5t51 93.5zM168 214q0 -208 108 -208q50 0 84 31.5t46 95.5l14 -2q-26 -141 -156 -141q-97 0 -159.5 63t-62.5 161q0 93 65 161.5t165 68.5q65 0 107 -33t42 -82
q0 -28 -18 -49t-47 -21q-26 0 -41.5 15.5t-15.5 38.5q0 34 33 53q26 15 26 27q0 15 -24 26.5t-55 11.5q-35 0 -58.5 -18t-34 -52t-14.5 -67.5t-4 -79.5z" />
    <glyph glyph-name="Cdotaccent" unicode="&#x10a;" horiz-adv-x="706" 
d="M435 821q0 -25 -16.5 -42t-41.5 -17t-41.5 17t-16.5 42t16.5 41.5t41.5 16.5t41.5 -16.5t16.5 -41.5zM384 703q47 0 86.5 -15t64 -30t37.5 -15q17 0 29.5 26t28.5 26h3v-246h-4q-37 0 -65 115q-14 57 -63 90.5t-115 33.5q-94 0 -144 -87t-50 -254q0 -168 50 -254.5
t147 -86.5q109 0 169 61t73 160l15 -2q-5 -41 -20 -79.5t-43.5 -75t-79.5 -58.5t-118 -22q-143 0 -239.5 101t-96.5 256t97 255.5t238 100.5z" />
    <glyph glyph-name="cdotaccent" unicode="&#x10b;" horiz-adv-x="463" 
d="M168 214q0 -208 108 -208q50 0 84 31.5t46 95.5l14 -2q-26 -141 -156 -141q-97 0 -159.5 63t-62.5 161q0 93 65 161.5t165 68.5q65 0 107 -33t42 -82q0 -28 -18 -49t-47 -21q-26 0 -41.5 15.5t-15.5 38.5q0 34 33 53q26 15 26 27q0 15 -24 26.5t-55 11.5q-35 0 -58.5 -18
t-34 -52t-14.5 -67.5t-4 -79.5zM313 607q0 -24 -17 -41t-42 -17q-24 0 -41 17t-17 41q0 25 17 42t41 17q25 0 42 -17t17 -42z" />
    <glyph glyph-name="Ccaron" unicode="&#x10c;" horiz-adv-x="706" 
d="M384 703q47 0 86.5 -15t64 -30t37.5 -15q17 0 29.5 26t28.5 26h3v-246h-4q-37 0 -65 115q-14 57 -63 90.5t-115 33.5q-94 0 -144 -87t-50 -254q0 -168 50 -254.5t147 -86.5q109 0 169 61t73 160l15 -2q-5 -41 -20 -79.5t-43.5 -75t-79.5 -58.5t-118 -22
q-143 0 -239.5 101t-96.5 256t97 255.5t238 100.5zM387 743h-8q-13 42 -52 81t-79 58l2 5q91 -11 133 -50q43 39 134 50l2 -5q-40 -19 -79 -58t-53 -81z" />
    <glyph glyph-name="ccaron" unicode="&#x10d;" horiz-adv-x="463" 
d="M260 514h-8q-11 45 -51 93.5t-77 69.5l3 5q85 -20 129 -69q44 49 129 69l3 -5q-37 -21 -77 -69.5t-51 -93.5zM168 214q0 -208 108 -208q50 0 84 31.5t46 95.5l14 -2q-26 -141 -156 -141q-97 0 -159.5 63t-62.5 161q0 93 65 161.5t165 68.5q65 0 107 -33t42 -82
q0 -28 -18 -49t-47 -21q-26 0 -41.5 15.5t-15.5 38.5q0 34 33 53q26 15 26 27q0 15 -24 26.5t-55 11.5q-35 0 -58.5 -18t-34 -52t-14.5 -67.5t-4 -79.5z" />
    <glyph glyph-name="Dcaron" unicode="&#x10e;" horiz-adv-x="754" 
d="M705 339q0 -164 -107.5 -252.5t-271.5 -88.5q-28 0 -97 1t-98 1h-103v13h101v666h-101v13h104q20 0 84 1t94 1q173 0 284 -94t111 -261zM563 339q0 341 -251 341h-55v-668h61q124 0 184.5 76t60.5 251zM339 743h-8q-13 42 -52 81t-79 58l2 5q91 -11 133 -50q43 39 134 50
l2 -5q-40 -19 -79 -58t-53 -81z" />
    <glyph glyph-name="dcaron" unicode="&#x10f;" horiz-adv-x="655" 
d="M545 670q0 22 16.5 36.5t40.5 14.5q34 0 51.5 -24.5t17.5 -59.5q0 -94 -87 -153l-7 9q74 54 74 120q0 22 -18 22q-6 0 -18 -8t-25 -8q-20 0 -32.5 14.5t-12.5 36.5zM375 327q-4 38 -4 82v289h-85v13h202v-698h75v-13h-188v108h-2q-39 -118 -132 -118q-80 0 -139.5 66
t-59.5 161q0 92 60 159.5t139 67.5q93 0 132 -117h2zM170 217q0 -96 21.5 -153.5t63.5 -57.5q53 0 87.5 65t34.5 146t-34.5 146.5t-87.5 65.5q-42 0 -63.5 -58t-21.5 -154z" />
    <glyph glyph-name="Dcroat" unicode="&#x110;" horiz-adv-x="754" 
d="M33 360v13h96v306h-101v13h104q20 0 84 1t94 1q173 0 284 -94t111 -261q0 -164 -107.5 -252.5t-271.5 -88.5q-28 0 -97 1t-98 1h-103v13h101v347h-96zM563 339q0 341 -251 341h-55v-307h110v-13h-110v-348h61q124 0 184.5 76t60.5 251z" />
    <glyph glyph-name="dcroat" unicode="&#x111;" horiz-adv-x="581" 
d="M375 327q-4 38 -4 82v136h-94v13h94v140h-85v13h202v-153h73v-13h-73v-532h75v-13h-188v108h-2q-39 -118 -132 -118q-80 0 -139.5 66t-59.5 161q0 92 60 159.5t139 67.5q93 0 132 -117h2zM170 217q0 -96 21.5 -153.5t63.5 -57.5q53 0 87.5 65t34.5 146t-34.5 146.5
t-87.5 65.5q-42 0 -63.5 -58t-21.5 -154z" />
    <glyph glyph-name="Emacron" unicode="&#x112;" horiz-adv-x="685" 
d="M257 372h54q38 0 57 13.5t30 45.5q2 6 5.5 16t5.5 15.5t5.5 13.5t6.5 12.5t7 9t8.5 6.5t10.5 2h3v-281h-3q-6 0 -10.5 2t-8.5 6.5t-7 9t-6.5 12.5t-5.5 13.5t-5.5 15.5t-5.5 16q-12 33 -30 46t-57 13h-54v-346h138q80 0 111.5 22.5t48.5 77.5q4 13 9.5 35.5t9 35.5
t9.5 27t14.5 20.5t19.5 6.5h3v-238h-592v13h101v666h-101v13h557v-229h-5q-11 0 -19 6t-13.5 19t-9 24.5t-8.5 32.5t-9 34q-17 57 -47.5 78.5t-108.5 21.5h-108v-307zM485 787h-250v51h250v-51z" />
    <glyph glyph-name="emacron" unicode="&#x113;" horiz-adv-x="490" 
d="M448 239h-280v-10v-15q0 -208 115 -208q54 0 93 31.5t51 96.5l14 -3q-13 -68 -58 -104.5t-114 -36.5q-100 0 -163.5 62.5t-63.5 161.5q0 95 63.5 162.5t149.5 67.5q84 0 143 -54.5t50 -150.5zM254 433q-81 0 -86 -181h161q7 181 -75 181zM385 570h-250v51h250v-51z" />
    <glyph glyph-name="Ebreve" unicode="&#x114;" horiz-adv-x="685" 
d="M257 372h54q38 0 57 13.5t30 45.5q2 6 5.5 16t5.5 15.5t5.5 13.5t6.5 12.5t7 9t8.5 6.5t10.5 2h3v-281h-3q-6 0 -10.5 2t-8.5 6.5t-7 9t-6.5 12.5t-5.5 13.5t-5.5 15.5t-5.5 16q-12 33 -30 46t-57 13h-54v-346h138q80 0 111.5 22.5t48.5 77.5q4 13 9.5 35.5t9 35.5
t9.5 27t14.5 20.5t19.5 6.5h3v-238h-592v13h101v666h-101v13h557v-229h-5q-11 0 -19 6t-13.5 19t-9 24.5t-8.5 32.5t-9 34q-17 57 -47.5 78.5t-108.5 21.5h-108v-307zM355 798q97 0 107 84h10q-2 -62 -31 -100.5t-86 -38.5q-58 0 -87 38.5t-31 100.5h10q6 -47 33.5 -65.5
t74.5 -18.5z" />
    <glyph glyph-name="ebreve" unicode="&#x115;" horiz-adv-x="490" 
d="M448 239h-280v-10v-15q0 -208 115 -208q54 0 93 31.5t51 96.5l14 -3q-13 -68 -58 -104.5t-114 -36.5q-100 0 -163.5 62.5t-63.5 161.5q0 95 63.5 162.5t149.5 67.5q84 0 143 -54.5t50 -150.5zM254 433q-81 0 -86 -181h161q7 181 -75 181zM255 580q100 0 109 95h10
q-3 -67 -31.5 -110.5t-87.5 -43.5t-87.5 43.5t-31.5 110.5h10q9 -95 109 -95z" />
    <glyph glyph-name="Edotaccent" unicode="&#x116;" horiz-adv-x="685" 
d="M417 821q0 -25 -16.5 -42t-41.5 -17t-41.5 17t-16.5 42t16.5 41.5t41.5 16.5t41.5 -16.5t16.5 -41.5zM257 372h54q38 0 57 13.5t30 45.5q2 6 5.5 16t5.5 15.5t5.5 13.5t6.5 12.5t7 9t8.5 6.5t10.5 2h3v-281h-3q-6 0 -10.5 2t-8.5 6.5t-7 9t-6.5 12.5t-5.5 13.5t-5.5 15.5
t-5.5 16q-12 33 -30 46t-57 13h-54v-346h138q80 0 111.5 22.5t48.5 77.5q4 13 9.5 35.5t9 35.5t9.5 27t14.5 20.5t19.5 6.5h3v-238h-592v13h101v666h-101v13h557v-229h-5q-11 0 -19 6t-13.5 19t-9 24.5t-8.5 32.5t-9 34q-17 57 -47.5 78.5t-108.5 21.5h-108v-307z" />
    <glyph glyph-name="edotaccent" unicode="&#x117;" horiz-adv-x="490" 
d="M448 239h-280v-10v-15q0 -208 115 -208q54 0 93 31.5t51 96.5l14 -3q-13 -68 -58 -104.5t-114 -36.5q-100 0 -163.5 62.5t-63.5 161.5q0 95 63.5 162.5t149.5 67.5q84 0 143 -54.5t50 -150.5zM254 433q-81 0 -86 -181h161q7 181 -75 181zM306 607q0 -24 -17 -41t-42 -17
q-24 0 -41 17t-17 41q0 25 17 42t41 17q25 0 42 -17t17 -42z" />
    <glyph glyph-name="Eogonek" unicode="&#x118;" horiz-adv-x="685" 
d="M434 -125q0 36 40 65t111 60h-557v13h101v666h-101v13h557v-229h-5q-11 0 -19 6t-13.5 19t-9 24.5t-8.5 32.5t-9 34q-17 57 -47.5 78.5t-108.5 21.5h-108v-307h54q38 0 57 13.5t30 45.5q2 6 5.5 16t5.5 15.5t5.5 13.5t6.5 12.5t7 9t8.5 6.5t10.5 2h3v-281h-3
q-6 0 -10.5 2t-8.5 6.5t-7 9t-6.5 12.5t-5.5 13.5t-5.5 15.5t-5.5 16q-12 33 -30 46t-57 13h-54v-346h138q80 0 111.5 22.5t48.5 77.5q4 13 9.5 35.5t9 35.5t9.5 27t14.5 20.5t19.5 6.5h3v-238h-23q-56 -33 -74.5 -60t-18.5 -61q0 -27 11.5 -41t30.5 -14q27 0 54 21l5 -8
q-37 -31 -84 -31q-37 0 -62 19t-25 50z" />
    <glyph glyph-name="eogonek" unicode="&#x119;" horiz-adv-x="490" 
d="M448 239h-280v-25q0 -208 115 -208q54 0 93 31.5t51 96.5l14 -3q-20 -107 -113 -133q-54 -32 -72 -58.5t-18 -59.5q0 -27 12 -41.5t31 -14.5q25 0 54 21l5 -8q-37 -31 -84 -31q-37 0 -62.5 19t-25.5 50q0 58 134 118q-16 -3 -33 -3q-100 0 -163.5 62.5t-63.5 161.5
q0 95 63.5 162.5t149.5 67.5q84 0 143 -54.5t50 -150.5zM254 433q-81 0 -86 -181h161q7 181 -75 181z" />
    <glyph glyph-name="Ecaron" unicode="&#x11a;" horiz-adv-x="685" 
d="M257 372h54q38 0 57 13.5t30 45.5q2 6 5.5 16t5.5 15.5t5.5 13.5t6.5 12.5t7 9t8.5 6.5t10.5 2h3v-281h-3q-6 0 -10.5 2t-8.5 6.5t-7 9t-6.5 12.5t-5.5 13.5t-5.5 15.5t-5.5 16q-12 33 -30 46t-57 13h-54v-346h138q80 0 111.5 22.5t48.5 77.5q4 13 9.5 35.5t9 35.5
t9.5 27t14.5 20.5t19.5 6.5h3v-238h-592v13h101v666h-101v13h557v-229h-5q-11 0 -19 6t-13.5 19t-9 24.5t-8.5 32.5t-9 34q-17 57 -47.5 78.5t-108.5 21.5h-108v-307zM367 743h-8q-13 42 -52 81t-79 58l2 5q91 -11 133 -50q43 39 134 50l2 -5q-40 -19 -79 -58t-53 -81z" />
    <glyph glyph-name="ecaron" unicode="&#x11b;" horiz-adv-x="490" 
d="M257 514h-8q-11 45 -51 93.5t-77 69.5l3 5q85 -20 129 -69q44 49 129 69l3 -5q-37 -21 -77 -69.5t-51 -93.5zM448 239h-280v-10v-15q0 -208 115 -208q54 0 93 31.5t51 96.5l14 -3q-13 -68 -58 -104.5t-114 -36.5q-100 0 -163.5 62.5t-63.5 161.5q0 95 63.5 162.5
t149.5 67.5q84 0 143 -54.5t50 -150.5zM254 433q-81 0 -86 -181h161q7 181 -75 181z" />
    <glyph glyph-name="Gcircumflex" unicode="&#x11c;" horiz-adv-x="769" 
d="M383 887h8q14 -42 53 -81t79 -58l-2 -5q-91 11 -134 50q-42 -39 -133 -50l-2 5q40 19 79 58t52 81zM387 703q50 0 88.5 -15t62 -30t35.5 -15q14 0 22 13t15.5 26t21.5 13h3v-246h-5q-37 0 -65 115q-14 58 -61 91t-116 33q-95 0 -145.5 -87t-50.5 -254q0 -166 48.5 -254
t137.5 -88q69 0 110.5 34t41.5 103v145h-87v13h285v-13h-72v-291h-7q-22 0 -45 31t-40 31q-13 0 -38 -17t-64 -34t-87 -17q-137 0 -231.5 101t-94.5 256t97.5 255.5t240.5 100.5z" />
    <glyph glyph-name="gcircumflex" unicode="&#x11d;" horiz-adv-x="571" 
d="M251 682h8q11 -45 51 -93.5t77 -69.5l-3 -5q-85 22 -129 69q-44 -47 -129 -69l-3 5q37 21 77 69.5t51 93.5zM485 -107q0 -68 -76.5 -107.5t-174.5 -39.5q-86 0 -147.5 45t-61.5 121q0 52 32 92t81 40q22 0 37.5 -13.5t15.5 -33.5q0 -27 -18 -39.5t-52 -18.5
q-73 -13 -73 -55q0 -51 54.5 -88t124.5 -37q68 0 102.5 34.5t34.5 96.5q0 119 -99 119h-11l6 11h18q33 0 53 13.5t20 37.5q0 45 -56 53q-27 -5 -48 -5q-77 0 -137 44t-60 116t60.5 117.5t136.5 45.5q90 0 152 -59q30 64 87 64q27 0 47 -14t20 -41q0 -20 -12 -34t-32 -14
q-15 0 -26 9.5t-11 24.5q0 12 7 24.5t7 17.5q0 12 -15 12q-19 0 -37.5 -18t-26.5 -40q37 -40 37 -95q0 -56 -37.5 -96t-95.5 -56q50 -3 84.5 -17.5t34.5 -39.5q0 -50 -128 -56v-1q34 -2 64 -9t58 -20.5t44.5 -36.5t16.5 -54zM324 279q0 153 -77 153q-76 0 -76 -153
q0 -149 76 -149q77 0 77 149z" />
    <glyph glyph-name="Gbreve" unicode="&#x11e;" horiz-adv-x="769" 
d="M387 703q50 0 88.5 -15t62 -30t35.5 -15q14 0 22 13t15.5 26t21.5 13h3v-246h-5q-37 0 -65 115q-14 58 -61 91t-116 33q-95 0 -145.5 -87t-50.5 -254q0 -166 48.5 -254t137.5 -88q69 0 110.5 34t41.5 103v145h-87v13h285v-13h-72v-291h-7q-22 0 -45 31t-40 31
q-13 0 -38 -17t-64 -34t-87 -17q-137 0 -231.5 101t-94.5 256t97.5 255.5t240.5 100.5zM383 798q97 0 107 84h10q-2 -62 -31 -100.5t-86 -38.5q-58 0 -87 38.5t-31 100.5h10q6 -47 33.5 -65.5t74.5 -18.5z" />
    <glyph glyph-name="gbreve" unicode="&#x11f;" horiz-adv-x="571" 
d="M485 -107q0 -68 -76.5 -107.5t-174.5 -39.5q-86 0 -147.5 45t-61.5 121q0 52 32 92t81 40q22 0 37.5 -13.5t15.5 -33.5q0 -27 -18 -39.5t-52 -18.5q-73 -13 -73 -55q0 -51 54.5 -88t124.5 -37q68 0 102.5 34.5t34.5 96.5q0 119 -99 119h-11l6 11h18q33 0 53 13.5t20 37.5
q0 45 -56 53q-27 -5 -48 -5q-77 0 -137 44t-60 116t60.5 117.5t136.5 45.5q90 0 152 -59q30 64 87 64q27 0 47 -14t20 -41q0 -20 -12 -34t-32 -14q-15 0 -26 9.5t-11 24.5q0 12 7 24.5t7 17.5q0 12 -15 12q-19 0 -37.5 -18t-26.5 -40q37 -40 37 -95q0 -56 -37.5 -96
t-95.5 -56q50 -3 84.5 -17.5t34.5 -39.5q0 -50 -128 -56v-1q34 -2 64 -9t58 -20.5t44.5 -36.5t16.5 -54zM324 279q0 153 -77 153q-76 0 -76 -153q0 -149 76 -149q77 0 77 149zM251 580q100 0 109 95h10q-3 -67 -31.5 -110.5t-87.5 -43.5t-87.5 43.5t-31.5 110.5h10
q9 -95 109 -95z" />
    <glyph glyph-name="Gdotaccent" unicode="&#x120;" horiz-adv-x="769" 
d="M444 821q0 -25 -16.5 -42t-41.5 -17t-41.5 17t-16.5 42t16.5 41.5t41.5 16.5t41.5 -16.5t16.5 -41.5zM387 703q50 0 88.5 -15t62 -30t35.5 -15q14 0 22 13t15.5 26t21.5 13h3v-246h-5q-37 0 -65 115q-14 58 -61 91t-116 33q-95 0 -145.5 -87t-50.5 -254q0 -166 48.5 -254
t137.5 -88q69 0 110.5 34t41.5 103v145h-87v13h285v-13h-72v-291h-7q-22 0 -45 31t-40 31q-13 0 -38 -17t-64 -34t-87 -17q-137 0 -231.5 101t-94.5 256t97.5 255.5t240.5 100.5z" />
    <glyph glyph-name="gdotaccent" unicode="&#x121;" horiz-adv-x="571" 
d="M485 -107q0 -68 -76.5 -107.5t-174.5 -39.5q-86 0 -147.5 45t-61.5 121q0 52 32 92t81 40q22 0 37.5 -13.5t15.5 -33.5q0 -27 -18 -39.5t-52 -18.5q-73 -13 -73 -55q0 -51 54.5 -88t124.5 -37q68 0 102.5 34.5t34.5 96.5q0 119 -99 119h-11l6 11h18q33 0 53 13.5t20 37.5
q0 45 -56 53q-27 -5 -48 -5q-77 0 -137 44t-60 116t60.5 117.5t136.5 45.5q90 0 152 -59q30 64 87 64q27 0 47 -14t20 -41q0 -20 -12 -34t-32 -14q-15 0 -26 9.5t-11 24.5q0 12 7 24.5t7 17.5q0 12 -15 12q-19 0 -37.5 -18t-26.5 -40q37 -40 37 -95q0 -56 -37.5 -96
t-95.5 -56q50 -3 84.5 -17.5t34.5 -39.5q0 -50 -128 -56v-1q34 -2 64 -9t58 -20.5t44.5 -36.5t16.5 -54zM324 279q0 153 -77 153q-76 0 -76 -153q0 -149 76 -149q77 0 77 149zM308 607q0 -24 -17 -41t-42 -17q-24 0 -41 17t-17 41q0 25 17 42t41 17q25 0 42 -17t17 -42z" />
    <glyph glyph-name="Gcommaaccent" unicode="&#x122;" horiz-adv-x="769" 
d="M318 -147q0 22 16.5 36.5t40.5 14.5q34 0 51.5 -24.5t17.5 -59.5q0 -94 -87 -153l-7 9q74 54 74 120q0 22 -18 22q-6 0 -18 -8t-25 -8q-20 0 -32.5 14.5t-12.5 36.5zM387 703q50 0 88.5 -15t62 -30t35.5 -15q14 0 22 13t15.5 26t21.5 13h3v-246h-5q-37 0 -65 115
q-14 58 -61 91t-116 33q-95 0 -145.5 -87t-50.5 -254q0 -166 48.5 -254t137.5 -88q69 0 110.5 34t41.5 103v145h-87v13h285v-13h-72v-291h-7q-22 0 -45 31t-40 31q-13 0 -38 -17t-64 -34t-87 -17q-137 0 -231.5 101t-94.5 256t97.5 255.5t240.5 100.5z" />
    <glyph glyph-name="gcommaaccent" unicode="&#x123;" horiz-adv-x="571" 
d="M306 586q0 -22 -16.5 -37t-39.5 -15q-35 0 -52 24.5t-17 60.5q0 96 93 157l7 -9q-81 -55 -81 -124q0 -22 18 -22q6 0 18.5 8t25.5 8q20 0 32 -15t12 -36zM485 -107q0 -68 -76.5 -107.5t-174.5 -39.5q-86 0 -147.5 45t-61.5 121q0 52 32 92t81 40q22 0 37.5 -13.5
t15.5 -33.5q0 -27 -18 -39.5t-52 -18.5q-73 -13 -73 -55q0 -51 54.5 -88t124.5 -37q68 0 102.5 34.5t34.5 96.5q0 119 -99 119h-11l6 11h18q33 0 53 13.5t20 37.5q0 45 -56 53q-27 -5 -48 -5q-77 0 -137 44t-60 116t60.5 117.5t136.5 45.5q90 0 152 -59q30 64 87 64
q27 0 47 -14t20 -41q0 -20 -12 -34t-32 -14q-15 0 -26 9.5t-11 24.5q0 12 7 24.5t7 17.5q0 12 -15 12q-19 0 -37.5 -18t-26.5 -40q37 -40 37 -95q0 -56 -37.5 -96t-95.5 -56q50 -3 84.5 -17.5t34.5 -39.5q0 -50 -128 -56v-1q34 -2 64 -9t58 -20.5t44.5 -36.5t16.5 -54z
M324 279q0 153 -77 153q-76 0 -76 -153q0 -149 76 -149q77 0 77 149z" />
    <glyph glyph-name="Hcircumflex" unicode="&#x124;" horiz-adv-x="822" 
d="M794 0h-330v13h101v347h-308v-347h101v-13h-330v13h101v666h-101v13h330v-13h-101v-304h308v304h-101v13h330v-13h-101v-666h101v-13zM406 887h8q14 -42 53 -81t79 -58l-2 -5q-91 11 -134 50q-42 -39 -133 -50l-2 5q40 19 79 58t52 81z" />
    <glyph glyph-name="hcircumflex" unicode="&#x125;" horiz-adv-x="570" 
d="M17 0v13h75v685h-74v13h191v-314q0 -45 -4 -83h1q40 127 137 127q142 0 142 -173v-255h76v-13h-255v13h63v244q0 52 -1 74.5t-5 48.5t-14 34.5t-28 8.5q-48 0 -80 -60.5t-32 -122.5v-227h64v-13h-256zM132 887h8q14 -42 53 -81t79 -58l-2 -5q-91 11 -134 50
q-42 -39 -133 -50l-2 5q40 19 79 58t52 81z" />
    <glyph glyph-name="Hbar" unicode="&#x126;" horiz-adv-x="822" 
d="M794 0h-330v13h101v347h-308v-347h101v-13h-330v13h101v666h-101v13h330v-13h-101v-158h308v158h-101v13h330v-13h-101v-666h101v-13zM257 375h308v130h-308v-130z" />
    <glyph glyph-name="hbar" unicode="&#x127;" horiz-adv-x="570" 
d="M17 0v13h75v534h-74v13h74v138h-74v13h191v-151h95v-13h-95v-150q0 -45 -4 -83h1q40 127 137 127q142 0 142 -173v-255h76v-13h-255v13h63v244q0 52 -1 74.5t-5 48.5t-14 34.5t-28 8.5q-48 0 -80 -60.5t-32 -122.5v-227h64v-13h-256z" />
    <glyph glyph-name="Itilde" unicode="&#x128;" horiz-adv-x="386" 
d="M358 0h-330v13h101v666h-101v13h330v-13h-101v-666h101v-13zM51 741h-11q0 55 21 98.5t67 43.5q29 0 81.5 -36.5t74.5 -36.5q50 0 53 70h11q-1 -137 -79 -137q-35 0 -85.5 36.5t-76.5 36.5q-51 0 -56 -75z" />
    <glyph glyph-name="itilde" unicode="&#x129;" horiz-adv-x="313" 
d="M23 527h-10q0 55 20 98.5t63 43.5q27 0 75.5 -36.5t70.5 -36.5q47 0 50 70h10q-1 -137 -75 -137q-32 0 -79.5 36.5t-72.5 36.5q-47 0 -52 -75zM296 0h-267v13h75v406h-75v13h192v-419h75v-13z" />
    <glyph glyph-name="Imacron" unicode="&#x12a;" horiz-adv-x="386" 
d="M358 0h-330v13h101v666h-101v13h330v-13h-101v-666h101v-13zM318 787h-250v51h250v-51z" />
    <glyph glyph-name="imacron" unicode="&#x12b;" horiz-adv-x="313" 
d="M296 0h-267v13h75v406h-75v13h192v-419h75v-13zM277 570h-250v51h250v-51z" />
    <glyph glyph-name="Ibreve" unicode="&#x12c;" horiz-adv-x="386" 
d="M358 0h-330v13h101v666h-101v13h330v-13h-101v-666h101v-13zM194 798q97 0 107 84h10q-2 -62 -31 -100.5t-86 -38.5q-58 0 -87 38.5t-31 100.5h10q6 -47 33.5 -65.5t74.5 -18.5z" />
    <glyph glyph-name="ibreve" unicode="&#x12d;" horiz-adv-x="313" 
d="M296 0h-267v13h75v406h-75v13h192v-419h75v-13zM159 580q100 0 109 95h10q-3 -67 -31.5 -110.5t-87.5 -43.5t-87.5 43.5t-31.5 110.5h10q9 -95 109 -95z" />
    <glyph glyph-name="Iogonek" unicode="&#x12e;" horiz-adv-x="386" 
d="M93 -125q0 36 40 65t111 60h-216v13h101v666h-101v13h330v-13h-101v-666h101v-13h-102q-56 -33 -74.5 -60t-18.5 -61q0 -27 11.5 -41t30.5 -14q27 0 54 21l5 -8q-37 -31 -84 -31q-37 0 -62 19t-25 50z" />
    <glyph glyph-name="iogonek" unicode="&#x12f;" horiz-adv-x="313" 
d="M53 -125q0 37 40.5 66t110.5 59h-175v13h75v406h-75v13h192v-419h75v-13h-79q-56 -33 -75 -60t-19 -60q0 -27 12 -41.5t31 -14.5q25 0 54 21l5 -8q-37 -31 -84 -31q-37 0 -62.5 19t-25.5 50zM233 631q0 -30 -21 -50.5t-51 -20.5t-50.5 20.5t-20.5 50.5t20.5 51t50.5 21
t51 -21t21 -51z" />
    <glyph glyph-name="Idotaccent" unicode="&#x130;" horiz-adv-x="386" 
d="M358 0h-330v13h101v666h-101v13h330v-13h-101v-666h101v-13zM251 821q0 -25 -16.5 -42t-41.5 -17t-41.5 17t-16.5 42t16.5 41.5t41.5 16.5t41.5 -16.5t16.5 -41.5z" />
    <glyph glyph-name="dotlessi" unicode="&#x131;" horiz-adv-x="313" 
d="M296 0h-267v13h75v406h-75v13h192v-419h75v-13z" />
    <glyph glyph-name="Jcircumflex" unicode="&#x134;" horiz-adv-x="505" 
d="M163 3q50 0 74.5 36t24.5 121v519h-114v13h343v-13h-101v-401q0 -146 -58.5 -217t-164.5 -71q-70 0 -116.5 42.5t-46.5 100.5q0 37 23 62.5t60 25.5q26 0 43 -16.5t17 -41.5q0 -19 -11.5 -32.5t-25 -20t-25 -18t-11.5 -27.5q0 -27 26 -44.5t63 -17.5zM316 887h8
q14 -42 53 -81t79 -58l-2 -5q-91 11 -134 50q-42 -39 -133 -50l-2 5q40 19 79 58t52 81z" />
    <glyph glyph-name="jcircumflex" unicode="&#x135;" horiz-adv-x="310" 
d="M151 683h8q11 -45 51 -93.5t77 -69.5l-3 -5q-85 22 -129 69q-44 -47 -129 -69l-3 5q37 21 77 69.5t51 93.5zM11 -240q94 0 94 167v492h-97v13h213v-410q0 -122 -60 -197.5t-146 -75.5q-51 0 -85 29t-34 73q0 30 19.5 50.5t47.5 20.5q25 0 39 -14.5t14 -36.5
q0 -17 -8.5 -29t-19 -17t-19 -13.5t-8.5 -19.5q0 -14 14 -23t36 -9z" />
    <glyph glyph-name="Kcommaaccent" unicode="&#x136;" horiz-adv-x="746" 
d="M316 -147q0 22 16.5 36.5t40.5 14.5q34 0 51.5 -24.5t17.5 -59.5q0 -94 -87 -153l-7 9q74 54 74 120q0 22 -18 22q-6 0 -18 -8t-25 -8q-20 0 -32.5 14.5t-12.5 36.5zM358 0h-330v13h101v666h-101v13h330v-13h-101v-307h43q60 0 91 20t75 98l105 189h-104v13h227v-13h-105
l-115 -207q-28 -51 -52 -74t-53 -31v-1q54 -2 87 -25t74 -88l153 -240h79v-13h-328v13h98l-211 345h-64v-345h101v-13z" />
    <glyph glyph-name="kcommaaccent" unicode="&#x137;" horiz-adv-x="560" 
d="M211 -147q0 22 16.5 36.5t40.5 14.5q34 0 51.5 -24.5t17.5 -59.5q0 -94 -87 -153l-7 9q74 54 74 120q0 22 -18 22q-6 0 -18 -8t-25 -8q-20 0 -32.5 14.5t-12.5 36.5zM267 13v-13h-250v13h75v685h-74v13h191v-456h33q44 0 72 13.5t52 56.5l53 94h-79v13h171v-13h-74
l-55 -95q-33 -62 -78 -72v-2q37 -2 61 -20t51 -64l89 -153h62v-13h-257v13h66l-124 229h-43v-229h58z" />
    <glyph glyph-name="Lacute" unicode="&#x139;" horiz-adv-x="652" 
d="M175 743h-8l95 139h147v-5zM605 0h-577v14h101v665h-101v13h340v-13h-111v-666h122q80 0 112 22.5t48 77.5q4 14 9.5 36t9.5 36t9.5 28t14 21t19.5 7h4v-241z" />
    <glyph glyph-name="lacute" unicode="&#x13a;" horiz-adv-x="302" 
d="M96 743h-8l95 139h147v-5zM284 0h-267v13h75v685h-74v13h191v-698h75v-13z" />
    <glyph glyph-name="Lcommaaccent" unicode="&#x13b;" horiz-adv-x="652" 
d="M264 -147q0 22 16.5 36.5t40.5 14.5q34 0 51.5 -24.5t17.5 -59.5q0 -94 -87 -153l-7 9q74 54 74 120q0 22 -18 22q-6 0 -18 -8t-25 -8q-20 0 -32.5 14.5t-12.5 36.5zM605 0h-577v14h101v665h-101v13h340v-13h-111v-666h122q80 0 112 22.5t48 77.5q4 14 9.5 36t9.5 36
t9.5 28t14 21t19.5 7h4v-241z" />
    <glyph glyph-name="lcommaaccent" unicode="&#x13c;" horiz-adv-x="302" 
d="M78 -147q0 22 16.5 36.5t40.5 14.5q34 0 51.5 -24.5t17.5 -59.5q0 -94 -87 -153l-7 9q74 54 74 120q0 22 -18 22q-6 0 -18 -8t-25 -8q-20 0 -32.5 14.5t-12.5 36.5zM284 0h-267v13h75v685h-74v13h191v-698h75v-13z" />
    <glyph glyph-name="Lcaron" unicode="&#x13d;" horiz-adv-x="652" 
d="M413 652q0 22 16.5 36.5t40.5 14.5q34 0 51.5 -24.5t17.5 -59.5q0 -94 -87 -153l-7 9q74 54 74 120q0 22 -18 22q-6 0 -18 -8t-25 -8q-20 0 -32.5 14.5t-12.5 36.5zM605 0h-577v14h101v665h-101v13h340v-13h-111v-666h122q80 0 112 22.5t48 77.5q4 14 9.5 36t9.5 36
t9.5 28t14 21t19.5 7h4v-241z" />
    <glyph glyph-name="lcaron" unicode="&#x13e;" horiz-adv-x="377" 
d="M267 670q0 22 16.5 36.5t40.5 14.5q34 0 51.5 -24.5t17.5 -59.5q0 -94 -87 -153l-7 9q74 54 74 120q0 22 -18 22q-6 0 -18 -8t-25 -8q-20 0 -32.5 14.5t-12.5 36.5zM283 0h-267v13h75v685h-74v13h191v-698h75v-13z" />
    <glyph glyph-name="Ldot" unicode="&#x13f;" horiz-adv-x="652" 
d="M462 393q0 -25 -16.5 -42t-41.5 -17t-41.5 17t-16.5 42t16.5 41.5t41.5 16.5t41.5 -16.5t16.5 -41.5zM605 0h-577v14h101v665h-101v13h340v-13h-111v-666h122q80 0 112 22.5t48 77.5q4 14 9.5 36t9.5 36t9.5 28t14 21t19.5 7h4v-241z" />
    <glyph glyph-name="ldot" unicode="&#x140;" horiz-adv-x="369" 
d="M284 0h-267v13h75v685h-74v13h191v-698h75v-13zM394 366q0 -24 -17 -41t-42 -17q-24 0 -41 17t-17 41q0 25 17 42t41 17q25 0 42 -17t17 -42z" />
    <glyph glyph-name="Lslash" unicode="&#x141;" horiz-adv-x="652" 
d="M54 298l-5 13l80 37v331h-101v13h340v-13h-111v-272l100 47l5 -13l-105 -49v-379h122q80 0 112 22.5t48 77.5q4 14 9.5 36t9.5 36t9.5 28t14 21t19.5 7h4v-241h-577v14h101v319z" />
    <glyph glyph-name="lslash" unicode="&#x142;" horiz-adv-x="302" 
d="M24 299l-6 13l74 35v351h-74v13h191v-309l76 36l5 -13l-81 -39v-373h75v-13h-267v13h75v318z" />
    <glyph glyph-name="Nacute" unicode="&#x143;" 
d="M362 743h-8l95 139h147v-5zM622 679v-583q0 -33 -3.5 -53.5t-19 -37t-43.5 -16.5q-29 0 -53 20.5t-52 69.5l-302 538h-1v-604h101v-13h-219v13h101v666h-103v13h125q67 0 92.5 -16.5t58.5 -74.5l301 -530h1v608h-101v13h218v-13h-101z" />
    <glyph glyph-name="nacute" unicode="&#x144;" horiz-adv-x="582" 
d="M302 520h-8l70 161h121v-4zM29 0v13h75v406h-75v13h188v-118h1q40 127 136 127q143 0 143 -173v-255h76v-13h-255v13h63v244q0 51 -1 75t-5.5 49t-14.5 33.5t-27 8.5q-48 0 -80 -60.5t-32 -122.5v-227h64v-13h-256z" />
    <glyph glyph-name="Ncommaaccent" unicode="&#x145;" 
d="M301 -147q0 22 16.5 36.5t40.5 14.5q34 0 51.5 -24.5t17.5 -59.5q0 -94 -87 -153l-7 9q74 54 74 120q0 22 -18 22q-6 0 -18 -8t-25 -8q-20 0 -32.5 14.5t-12.5 36.5zM622 679v-583q0 -33 -3.5 -53.5t-19 -37t-43.5 -16.5q-29 0 -53 20.5t-52 69.5l-302 538h-1v-604h101
v-13h-219v13h101v666h-103v13h125q67 0 92.5 -16.5t58.5 -74.5l301 -530h1v608h-101v13h218v-13h-101z" />
    <glyph glyph-name="ncommaaccent" unicode="&#x146;" horiz-adv-x="582" 
d="M237 -147q0 22 16.5 36.5t40.5 14.5q34 0 51.5 -24.5t17.5 -59.5q0 -94 -87 -153l-7 9q74 54 74 120q0 22 -18 22q-6 0 -18 -8t-25 -8q-20 0 -32.5 14.5t-12.5 36.5zM29 0v13h75v406h-75v13h188v-118h1q40 127 136 127q143 0 143 -173v-255h76v-13h-255v13h63v244
q0 51 -1 75t-5.5 49t-14.5 33.5t-27 8.5q-48 0 -80 -60.5t-32 -122.5v-227h64v-13h-256z" />
    <glyph glyph-name="Ncaron" unicode="&#x147;" 
d="M622 679v-583q0 -33 -3.5 -53.5t-19 -37t-43.5 -16.5q-29 0 -53 20.5t-52 69.5l-302 538h-1v-604h101v-13h-219v13h101v666h-103v13h125q67 0 92.5 -16.5t58.5 -74.5l301 -530h1v608h-101v13h218v-13h-101zM408 743h-8q-13 42 -52 81t-79 58l2 5q91 -11 133 -50
q43 39 134 50l2 -5q-40 -19 -79 -58t-53 -81z" />
    <glyph glyph-name="ncaron" unicode="&#x148;" horiz-adv-x="582" 
d="M307 514h-8q-11 45 -51 93.5t-77 69.5l3 5q85 -20 129 -69q44 49 129 69l3 -5q-37 -21 -77 -69.5t-51 -93.5zM29 0v13h75v406h-75v13h188v-118h1q40 127 136 127q143 0 143 -173v-255h76v-13h-255v13h63v244q0 51 -1 75t-5.5 49t-14.5 33.5t-27 8.5q-48 0 -80 -60.5
t-32 -122.5v-227h64v-13h-256z" />
    <glyph glyph-name="Eng" unicode="&#x14a;" 
d="M416 -250q-51 0 -85 29.5t-34 72.5q0 30 20 50.5t47 20.5q25 0 39 -14.5t14 -35.5q0 -17 -8.5 -29t-19 -17.5t-19 -14t-8.5 -19.5q0 -14 14 -23t36 -9q94 0 94 167v57l-357 632h-1v-604h101v-13h-219v13h101v666h-103v13h125q67 0 92.5 -16.5t58.5 -74.5l301 -530h1v608
h-101v13h218v-13h-101v-656q0 -122 -59.5 -197.5t-146.5 -75.5z" />
    <glyph glyph-name="eng" unicode="&#x14b;" horiz-adv-x="568" 
d="M291 -250q-51 0 -85 29.5t-34 72.5q0 30 20 50.5t47 20.5q25 0 39 -14.5t14 -35.5q0 -17 -8.5 -29t-19 -17.5t-19 -14t-8.5 -19.5q0 -14 14 -23t36 -9q94 0 94 167v329q0 51 -1 75t-5.5 49t-14.5 33.5t-27 8.5q-48 0 -80 -60.5t-32 -122.5v-227h64v-13h-256v13h75v406
h-75v13h187l1 -118h1q40 127 136 127q143 0 143 -173v-245q0 -124 -59.5 -198.5t-146.5 -74.5z" />
    <glyph glyph-name="Omacron" unicode="&#x14c;" horiz-adv-x="785" 
d="M192 347q0 -164 52 -254t149 -90q96 0 148 90t52 254t-52 253.5t-148 89.5q-97 0 -149 -89.5t-52 -253.5zM49 347q0 154 99.5 255t244.5 101q144 0 243.5 -101t99.5 -255t-99.5 -255.5t-243.5 -101.5q-145 0 -244.5 101.5t-99.5 255.5zM517 787h-250v51h250v-51z" />
    <glyph glyph-name="omacron" unicode="&#x14d;" horiz-adv-x="526" 
d="M388 570h-250v51h250v-51zM485 217q0 -90 -65 -158.5t-157 -68.5q-91 0 -156 68.5t-65 158.5t65 158.5t156 68.5q92 0 157 -68.5t65 -158.5zM168 217q0 -111 21 -163.5t74 -52.5t74 52.5t21 163.5t-21 163.5t-74 52.5t-74 -52.5t-21 -163.5z" />
    <glyph glyph-name="Obreve" unicode="&#x14e;" horiz-adv-x="785" 
d="M192 347q0 -164 52 -254t149 -90q96 0 148 90t52 254t-52 253.5t-148 89.5q-97 0 -149 -89.5t-52 -253.5zM49 347q0 154 99.5 255t244.5 101q144 0 243.5 -101t99.5 -255t-99.5 -255.5t-243.5 -101.5q-145 0 -244.5 101.5t-99.5 255.5zM393 798q97 0 107 84h10
q-2 -62 -31 -100.5t-86 -38.5q-58 0 -87 38.5t-31 100.5h10q6 -47 33.5 -65.5t74.5 -18.5z" />
    <glyph glyph-name="obreve" unicode="&#x14f;" horiz-adv-x="526" 
d="M485 217q0 -90 -65 -158.5t-157 -68.5q-91 0 -156 68.5t-65 158.5t65 158.5t156 68.5q92 0 157 -68.5t65 -158.5zM168 217q0 -111 21 -163.5t74 -52.5t74 52.5t21 163.5t-21 163.5t-74 52.5t-74 -52.5t-21 -163.5zM263 580q100 0 109 95h10q-3 -67 -31.5 -110.5
t-87.5 -43.5t-87.5 43.5t-31.5 110.5h10q9 -95 109 -95z" />
    <glyph glyph-name="Ohungarumlaut" unicode="&#x150;" horiz-adv-x="785" 
d="M305 743h-8l95 139h147v-5zM483 743h-8l94 139h147v-5zM192 347q0 -164 52 -254t149 -90q96 0 148 90t52 254t-52 253.5t-148 89.5q-97 0 -149 -89.5t-52 -253.5zM49 347q0 154 99.5 255t244.5 101q144 0 243.5 -101t99.5 -255t-99.5 -255.5t-243.5 -101.5
q-145 0 -244.5 101.5t-99.5 255.5z" />
    <glyph glyph-name="ohungarumlaut" unicode="&#x151;" horiz-adv-x="526" 
d="M180 520l70 161h121v-4l-183 -157h-8zM333 520l70 161h121v-4l-184 -157h-7zM485 217q0 -90 -65 -158.5t-157 -68.5q-91 0 -156 68.5t-65 158.5t65 158.5t156 68.5q92 0 157 -68.5t65 -158.5zM168 217q0 -111 21 -163.5t74 -52.5t74 52.5t21 163.5t-21 163.5t-74 52.5
t-74 -52.5t-21 -163.5z" />
    <glyph glyph-name="OE" unicode="&#x152;" horiz-adv-x="1151" 
d="M49 347q0 154 99.5 255t244.5 101q133 0 214 -91v80h443v-229h-5q-11 0 -19 6t-13.5 19t-9 24.5t-8.5 32.5t-9 34q-17 57 -47 78.5t-109 21.5h-108v-307h54q38 0 57 13.5t30 45.5q2 6 5.5 16t5.5 15.5t5.5 13.5t6.5 12.5t7 9t8.5 6.5t10.5 2h3v-281h-3q-6 0 -10.5 2
t-8.5 6.5t-7 9t-6.5 12.5t-5.5 13.5t-5.5 15.5t-5.5 16q-12 33 -30 46t-57 13h-54v-346h138q80 0 111.5 22.5t48.5 77.5q4 14 9.5 36t9.5 35t9.5 27t14 20.5t19.5 6.5h4v-238h-479v81q-81 -91 -214 -91q-145 0 -244.5 101.5t-99.5 255.5zM192 347q0 -164 52 -254t149 -90
q96 0 148 90t52 254t-52 253.5t-148 89.5q-97 0 -149 -89.5t-52 -253.5z" />
    <glyph glyph-name="oe" unicode="&#x153;" horiz-adv-x="796" 
d="M754 238h-277v-10v-15q0 -207 113 -207q53 0 92.5 31.5t51.5 96.5l15 -3q-13 -68 -58 -104.5t-115 -36.5q-106 0 -163 71q-58 -71 -150 -71q-91 0 -156 68.5t-65 158.5t64.5 158t156.5 68q94 0 152 -75q59 75 149 75q84 0 143 -55t47 -150zM168 217q0 -112 21 -164
t74 -52t74 52t21 164q0 111 -21 163t-74 52t-74 -52t-21 -163zM563 432q-81 0 -86 -181h158q7 181 -72 181z" />
    <glyph glyph-name="Racute" unicode="&#x154;" horiz-adv-x="755" 
d="M28 679v13h107q29 0 99.5 1t101.5 1q53 0 99.5 -8.5t88 -26.5t65.5 -51t24 -79q0 -69 -55 -111t-143 -57v-1q91 -13 145 -63.5t58 -141.5l1 -21q3 -68 13 -96.5t34 -28.5q47 0 61 76l13 -3q-18 -92 -106 -92q-69 0 -108 38.5t-45 129.5l-3 38q-5 69 -21 103t-39 43t-69 9
h-92v-338h102v-13h-331v13h101v666h-101zM474 526q0 85 -38 119.5t-106 34.5h-73v-316h95q59 0 90.5 33.5t31.5 128.5zM311 743h-8l95 139h147v-5z" />
    <glyph glyph-name="racute" unicode="&#x155;" horiz-adv-x="458" 
d="M247 520h-8l70 161h121v-4zM216 432v-121h2q15 54 48.5 90.5t82.5 37.5q39 0 66 -25.5t27 -68.5q0 -33 -18.5 -55t-49.5 -22q-24 0 -40 14t-16 39q0 34 36 52q25 15 25 28q0 24 -35 24q-54 0 -88.5 -60t-34.5 -133v-219h104v-13h-296v13h75v406h-75v13h187z" />
    <glyph glyph-name="Rcommaaccent" unicode="&#x156;" horiz-adv-x="755" 
d="M317 -147q0 22 16.5 36.5t40.5 14.5q34 0 51.5 -24.5t17.5 -59.5q0 -94 -87 -153l-7 9q74 54 74 120q0 22 -18 22q-6 0 -18 -8t-25 -8q-20 0 -32.5 14.5t-12.5 36.5zM28 679v13h107q29 0 99.5 1t101.5 1q53 0 99.5 -8.5t88 -26.5t65.5 -51t24 -79q0 -69 -55 -111
t-143 -57v-1q91 -13 145 -63.5t58 -141.5l1 -21q3 -68 13 -96.5t34 -28.5q47 0 61 76l13 -3q-18 -92 -106 -92q-69 0 -108 38.5t-45 129.5l-3 38q-5 69 -21 103t-39 43t-69 9h-92v-338h102v-13h-331v13h101v666h-101zM474 526q0 85 -38 119.5t-106 34.5h-73v-316h95
q59 0 90.5 33.5t31.5 128.5z" />
    <glyph glyph-name="rcommaaccent" unicode="&#x157;" horiz-adv-x="458" 
d="M105 -147q0 22 16.5 36.5t40.5 14.5q34 0 51.5 -24.5t17.5 -59.5q0 -94 -87 -153l-7 9q74 54 74 120q0 22 -18 22q-6 0 -18 -8t-25 -8q-20 0 -32.5 14.5t-12.5 36.5zM216 432v-121h2q15 54 48.5 90.5t82.5 37.5q39 0 66 -25.5t27 -68.5q0 -33 -18.5 -55t-49.5 -22
q-24 0 -40 14t-16 39q0 34 36 52q25 15 25 28q0 24 -35 24q-54 0 -88.5 -60t-34.5 -133v-219h104v-13h-296v13h75v406h-75v13h187z" />
    <glyph glyph-name="Rcaron" unicode="&#x158;" horiz-adv-x="755" 
d="M28 679v13h107q29 0 99.5 1t101.5 1q53 0 99.5 -8.5t88 -26.5t65.5 -51t24 -79q0 -69 -55 -111t-143 -57v-1q91 -13 145 -63.5t58 -141.5l1 -21q3 -68 13 -96.5t34 -28.5q47 0 61 76l13 -3q-18 -92 -106 -92q-69 0 -108 38.5t-45 129.5l-3 38q-5 69 -21 103t-39 43t-69 9
h-92v-338h102v-13h-331v13h101v666h-101zM474 526q0 85 -38 119.5t-106 34.5h-73v-316h95q59 0 90.5 33.5t31.5 128.5zM340 743h-8q-13 42 -52 81t-79 58l2 5q91 -11 133 -50q43 39 134 50l2 -5q-40 -19 -79 -58t-53 -81z" />
    <glyph glyph-name="rcaron" unicode="&#x159;" horiz-adv-x="458" 
d="M261 514h-8q-11 45 -51 93.5t-77 69.5l3 5q85 -20 129 -69q44 49 129 69l3 -5q-37 -21 -77 -69.5t-51 -93.5zM216 432v-121h2q15 54 48.5 90.5t82.5 37.5q39 0 66 -25.5t27 -68.5q0 -33 -18.5 -55t-49.5 -22q-24 0 -40 14t-16 39q0 34 36 52q25 15 25 28q0 24 -35 24
q-54 0 -88.5 -60t-34.5 -133v-219h104v-13h-296v13h75v406h-75v13h187z" />
    <glyph glyph-name="Sacute" unicode="&#x15a;" horiz-adv-x="621" 
d="M504 461h-5q-40 0 -60 102q-12 55 -50.5 90t-107.5 35q-55 0 -99.5 -29t-44.5 -77t41 -79.5t120 -59.5l54 -20q101 -35 152.5 -86.5t51.5 -140.5q0 -93 -64 -149.5t-161 -56.5q-41 0 -76.5 9.5t-54.5 21t-36.5 21t-26.5 9.5q-16 0 -29 -28t-30 -28h-4v247h4q40 0 64 -107
q30 -130 195 -130q63 0 115 31.5t52 94.5q0 53 -41.5 86t-128.5 65l-64 23q-182 66 -182 220q0 77 57 127.5t137 50.5q45 0 79.5 -14.5t54.5 -28.5t30 -14q12 0 25.5 23t29.5 23h3v-231zM286 743h-8l95 139h147v-5z" />
    <glyph glyph-name="sacute" unicode="&#x15b;" horiz-adv-x="454" 
d="M220 520h-8l70 161h121v-4zM408 129q0 -64 -48.5 -101.5t-114.5 -37.5q-36 0 -65.5 11t-47 22t-24.5 11q-9 0 -20 -20t-25 -20h-3v184h3q28 0 54 -86q27 -89 127 -89q47 0 80.5 19t33.5 53q0 29 -26.5 46t-93.5 40l-39 12q-66 22 -101 59.5t-35 86.5q0 56 42.5 90.5
t102.5 34.5q42 0 80.5 -18.5t41.5 -18.5q9 0 18 17t20 17h4v-159h-4q-13 0 -26 19.5t-20 48.5q-22 81 -114 81q-39 0 -68 -16t-29 -43q0 -24 25 -42.5t81 -37.5l44 -15q71 -24 109 -57.5t38 -90.5z" />
    <glyph glyph-name="Scircumflex" unicode="&#x15c;" horiz-adv-x="621" 
d="M504 461h-5q-40 0 -60 102q-12 55 -50.5 90t-107.5 35q-55 0 -99.5 -29t-44.5 -77t41 -79.5t120 -59.5l54 -20q101 -35 152.5 -86.5t51.5 -140.5q0 -93 -64 -149.5t-161 -56.5q-41 0 -76.5 9.5t-54.5 21t-36.5 21t-26.5 9.5q-16 0 -29 -28t-30 -28h-4v247h4q40 0 64 -107
q30 -130 195 -130q63 0 115 31.5t52 94.5q0 53 -41.5 86t-128.5 65l-64 23q-182 66 -182 220q0 77 57 127.5t137 50.5q45 0 79.5 -14.5t54.5 -28.5t30 -14q12 0 25.5 23t29.5 23h3v-231zM294 887h8q14 -42 53 -81t79 -58l-2 -5q-91 11 -134 50q-42 -39 -133 -50l-2 5
q40 19 79 58t52 81z" />
    <glyph glyph-name="scircumflex" unicode="&#x15d;" horiz-adv-x="454" 
d="M225 682h8q11 -45 51 -93.5t77 -69.5l-3 -5q-85 22 -129 69q-44 -47 -129 -69l-3 5q37 21 77 69.5t51 93.5zM408 129q0 -64 -48.5 -101.5t-114.5 -37.5q-36 0 -65.5 11t-47 22t-24.5 11q-9 0 -20 -20t-25 -20h-3v184h3q28 0 54 -86q27 -89 127 -89q47 0 80.5 19t33.5 53
q0 29 -26.5 46t-93.5 40l-39 12q-66 22 -101 59.5t-35 86.5q0 56 42.5 90.5t102.5 34.5q42 0 80.5 -18.5t41.5 -18.5q9 0 18 17t20 17h4v-159h-4q-13 0 -26 19.5t-20 48.5q-22 81 -114 81q-39 0 -68 -16t-29 -43q0 -24 25 -42.5t81 -37.5l44 -15q71 -24 109 -57.5t38 -90.5z
" />
    <glyph glyph-name="Scedilla" unicode="&#x15e;" horiz-adv-x="621" 
d="M504 461h-5q-40 0 -60 102q-12 55 -50.5 90t-107.5 35q-55 0 -99.5 -29t-44.5 -77t41 -79.5t120 -59.5l54 -20q101 -35 152.5 -86.5t51.5 -140.5q0 -93 -64 -149.5t-161 -56.5q-4 0 -12 0.5t-11 0.5l-48 -90l1 -1q21 16 52 16q35 0 65.5 -21t30.5 -60t-35 -63.5
t-80 -24.5q-30 0 -54.5 17t-33.5 48l13 5q16 -57 71 -57q29 0 45 19t16 54q0 36 -14.5 53t-36.5 17q-28 0 -52 -24l-11 10l56 103q-53 6 -100.5 32.5t-55.5 26.5q-16 0 -29 -28t-30 -28h-4v247h4q40 0 64 -107q30 -130 195 -130q63 0 115 31.5t52 94.5q0 53 -41.5 86
t-128.5 65l-64 23q-182 66 -182 220q0 77 57 127.5t137 50.5q45 0 79.5 -14.5t54.5 -28.5t30 -14q12 0 25.5 23t29.5 23h3v-231z" />
    <glyph glyph-name="scedilla" unicode="&#x15f;" horiz-adv-x="454" 
d="M329 -160q0 -39 -35 -63.5t-80 -24.5q-31 0 -55 17t-33 48l13 4q7 -28 26.5 -42.5t44.5 -14.5q28 0 44.5 19t16.5 54q0 70 -51 70q-30 0 -52 -24l-11 10l54 100q-34 5 -66 23t-37 18q-9 0 -20 -20t-25 -20h-3v184h3q28 0 54 -86q27 -89 127 -89q47 0 80.5 19t33.5 53
q0 29 -26.5 46t-93.5 40l-39 12q-66 22 -101 59.5t-35 86.5q0 56 42.5 90.5t102.5 34.5q42 0 80.5 -18.5t41.5 -18.5q9 0 18 17t20 17h4v-159h-4q-13 0 -26 19.5t-20 48.5q-22 81 -114 81q-39 0 -68 -16t-29 -43q0 -24 25 -42.5t81 -37.5l44 -15q71 -24 109 -57.5t38 -90.5
q0 -64 -48.5 -101.5t-114.5 -37.5q-13 0 -19 1l-46 -85l1 -1q21 16 52 16q35 0 65.5 -21.5t30.5 -59.5z" />
    <glyph glyph-name="Scaron" unicode="&#x160;" horiz-adv-x="621" 
d="M504 461h-5q-40 0 -60 102q-12 55 -50.5 90t-107.5 35q-55 0 -99.5 -29t-44.5 -77t41 -79.5t120 -59.5l54 -20q101 -35 152.5 -86.5t51.5 -140.5q0 -93 -64 -149.5t-161 -56.5q-41 0 -76.5 9.5t-54.5 21t-36.5 21t-26.5 9.5q-16 0 -29 -28t-30 -28h-4v247h4q40 0 64 -107
q30 -130 195 -130q63 0 115 31.5t52 94.5q0 53 -41.5 86t-128.5 65l-64 23q-182 66 -182 220q0 77 57 127.5t137 50.5q45 0 79.5 -14.5t54.5 -28.5t30 -14q12 0 25.5 23t29.5 23h3v-231zM300 743h-8q-13 42 -52 81t-79 58l2 5q91 -11 133 -50q43 39 134 50l2 -5
q-40 -19 -79 -58t-53 -81z" />
    <glyph glyph-name="scaron" unicode="&#x161;" horiz-adv-x="454" 
d="M224 514h-8q-11 45 -51 93.5t-77 69.5l3 5q85 -20 129 -69q44 49 129 69l3 -5q-37 -21 -77 -69.5t-51 -93.5zM408 129q0 -64 -48.5 -101.5t-114.5 -37.5q-36 0 -65.5 11t-47 22t-24.5 11q-9 0 -20 -20t-25 -20h-3v184h3q28 0 54 -86q27 -89 127 -89q47 0 80.5 19t33.5 53
q0 29 -26.5 46t-93.5 40l-39 12q-66 22 -101 59.5t-35 86.5q0 56 42.5 90.5t102.5 34.5q42 0 80.5 -18.5t41.5 -18.5q9 0 18 17t20 17h4v-159h-4q-13 0 -26 19.5t-20 48.5q-22 81 -114 81q-39 0 -68 -16t-29 -43q0 -24 25 -42.5t81 -37.5l44 -15q71 -24 109 -57.5t38 -90.5z
" />
    <glyph glyph-name="uni0162" unicode="&#x162;" horiz-adv-x="708" 
d="M283 -147q0 22 16.5 36.5t40.5 14.5q34 0 51.5 -24.5t17.5 -59.5q0 -94 -87 -153l-7 9q74 54 74 120q0 22 -18 22q-6 0 -18 -8t-25 -8q-20 0 -32.5 14.5t-12.5 36.5zM39 692h630v-250h-6q-11 0 -19 7t-14.5 22.5t-10 27.5t-9 35t-8.5 33q-17 67 -41 89.5t-95 22.5h-48
v-666h111v-13h-350v13h111v666h-47q-71 0 -95.5 -23t-41.5 -89q-3 -10 -8.5 -33t-9 -35t-10 -27.5t-14.5 -22.5t-19 -7h-6v250z" />
    <glyph glyph-name="uni0163" unicode="&#x163;" horiz-adv-x="363" 
d="M106 -147q0 22 16.5 36.5t40.5 14.5q34 0 51.5 -24.5t17.5 -59.5q0 -94 -87 -153l-7 9q74 54 74 120q0 22 -18 22q-6 0 -18 -8t-25 -8q-20 0 -32.5 14.5t-12.5 36.5zM218 -10q-128 0 -128 125v304h-86v13h86v70q36 14 64.5 42t41.5 63h10v-175h129v-13h-129v-317
q0 -46 9.5 -69.5t35.5 -23.5q27 0 49 25.5t31 69.5l13 -2q-24 -112 -126 -112z" />
    <glyph glyph-name="Tcaron" unicode="&#x164;" horiz-adv-x="708" 
d="M39 692h630v-250h-6q-11 0 -19 7t-14.5 22.5t-10 27.5t-9 35t-8.5 33q-17 67 -41 89.5t-95 22.5h-48v-666h111v-13h-350v13h111v666h-47q-71 0 -95.5 -23t-41.5 -89q-3 -10 -8.5 -33t-9 -35t-10 -27.5t-14.5 -22.5t-19 -7h-6v250zM357 743h-8q-13 42 -52 81t-79 58l2 5
q91 -11 133 -50q43 39 134 50l2 -5q-40 -19 -79 -58t-53 -81z" />
    <glyph glyph-name="tcaron" unicode="&#x165;" horiz-adv-x="389" 
d="M296 669q0 22 16.5 36.5t40.5 14.5q34 0 51.5 -24.5t17.5 -59.5q0 -94 -87 -153l-7 9q74 54 74 120q0 22 -18 22q-6 0 -18 -8t-25 -8q-20 0 -32.5 14.5t-12.5 36.5zM218 -10q-128 0 -128 125v304h-86v13h86v70q36 14 64.5 42t41.5 63h10v-175h129v-13h-129v-317
q0 -46 9.5 -69.5t35.5 -23.5q27 0 49 25.5t31 69.5l13 -2q-24 -112 -126 -112z" />
    <glyph glyph-name="Tbar" unicode="&#x166;" horiz-adv-x="708" 
d="M39 692h630v-250h-6q-11 0 -19 7t-14.5 22.5t-10 27.5t-9 35t-8.5 33q-17 67 -41 89.5t-95 22.5h-48v-304h144v-14h-144v-348h111v-13h-350v13h111v348h-144v14h144v304h-47q-71 0 -95.5 -23t-41.5 -89q-3 -10 -8.5 -33t-9 -35t-10 -27.5t-14.5 -22.5t-19 -7h-6v250z" />
    <glyph glyph-name="tbar" unicode="&#x167;" horiz-adv-x="363" 
d="M218 -10q-128 0 -128 125v191h-86v14h86v99h-86v13h86v70q36 14 64.5 42t41.5 63h10v-175h129v-13h-129v-99h129v-14h-129v-204q0 -46 9.5 -69.5t35.5 -23.5q27 0 49 25.5t31 69.5l13 -2q-24 -112 -126 -112z" />
    <glyph glyph-name="Utilde" unicode="&#x168;" 
d="M618 259v420h-99v13h219v-13h-101v-419q0 -142 -58.5 -206t-180.5 -64q-138 0 -209.5 59.5t-71.5 203.5v426h-100v13h329v-13h-101v-414q0 -134 37 -194.5t132 -60.5q101 0 152.5 58.5t51.5 190.5zM273 741h-11q0 55 21 98.5t67 43.5q29 0 81.5 -36.5t74.5 -36.5
q50 0 53 70h11q-1 -137 -79 -137q-35 0 -85.5 36.5t-76.5 36.5q-51 0 -56 -75z" />
    <glyph glyph-name="utilde" unicode="&#x169;" horiz-adv-x="563" 
d="M193 432v-266q0 -92 8.5 -124.5t39.5 -32.5q49 0 80.5 60.5t31.5 126.5v223h-70v13h187v-419h73v-13h-187v118h-1q-39 -128 -136 -128q-68 0 -105.5 37t-37.5 127v265h-73v13h190zM136 527h-11q0 55 21 98.5t67 43.5q30 0 82 -36.5t74 -36.5q50 0 53 70h11
q-1 -137 -79 -137q-36 0 -86 36.5t-76 36.5q-51 0 -56 -75z" />
    <glyph glyph-name="Umacron" unicode="&#x16a;" 
d="M618 259v420h-99v13h219v-13h-101v-419q0 -142 -58.5 -206t-180.5 -64q-138 0 -209.5 59.5t-71.5 203.5v426h-100v13h329v-13h-101v-414q0 -134 37 -194.5t132 -60.5q101 0 152.5 58.5t51.5 190.5zM544 787h-250v51h250v-51z" />
    <glyph glyph-name="umacron" unicode="&#x16b;" horiz-adv-x="563" 
d="M193 432v-266q0 -92 8.5 -124.5t39.5 -32.5q49 0 80.5 60.5t31.5 126.5v223h-70v13h187v-419h73v-13h-187v118h-1q-39 -128 -136 -128q-68 0 -105.5 37t-37.5 127v265h-73v13h190zM400 570h-250v51h250v-51z" />
    <glyph glyph-name="Ubreve" unicode="&#x16c;" 
d="M618 259v420h-99v13h219v-13h-101v-419q0 -142 -58.5 -206t-180.5 -64q-138 0 -209.5 59.5t-71.5 203.5v426h-100v13h329v-13h-101v-414q0 -134 37 -194.5t132 -60.5q101 0 152.5 58.5t51.5 190.5zM421 798q97 0 107 84h10q-2 -62 -31 -100.5t-86 -38.5q-58 0 -87 38.5
t-31 100.5h10q6 -47 33.5 -65.5t74.5 -18.5z" />
    <glyph glyph-name="ubreve" unicode="&#x16d;" horiz-adv-x="563" 
d="M193 432v-266q0 -92 8.5 -124.5t39.5 -32.5q49 0 80.5 60.5t31.5 126.5v223h-70v13h187v-419h73v-13h-187v118h-1q-39 -128 -136 -128q-68 0 -105.5 37t-37.5 127v265h-73v13h190zM273 580q100 0 109 95h10q-3 -67 -31.5 -110.5t-87.5 -43.5t-87.5 43.5t-31.5 110.5h10
q9 -95 109 -95z" />
    <glyph glyph-name="Uring" unicode="&#x16e;" 
d="M424 755q26 0 46.5 17.5t20.5 51.5q0 35 -20.5 53t-46.5 18q-27 0 -47.5 -18t-20.5 -53q0 -34 20.5 -51.5t47.5 -17.5zM424 910q35 0 59.5 -24.5t24.5 -61.5q0 -36 -24 -59.5t-60 -23.5t-60 23.5t-24 59.5q0 37 24.5 61.5t59.5 24.5zM618 259v420h-99v13h219v-13h-101
v-419q0 -142 -58.5 -206t-180.5 -64q-138 0 -209.5 59.5t-71.5 203.5v426h-100v13h329v-13h-101v-414q0 -134 37 -194.5t132 -60.5q101 0 152.5 58.5t51.5 190.5z" />
    <glyph glyph-name="uring" unicode="&#x16f;" horiz-adv-x="563" 
d="M261 706q35 0 59.5 -24.5t24.5 -61.5q0 -36 -24 -59.5t-60 -23.5t-60 23.5t-24 59.5q0 37 24.5 61.5t59.5 24.5zM261 551q27 0 47.5 17.5t20.5 51.5q0 35 -20.5 53t-47.5 18q-26 0 -46.5 -18t-20.5 -53q0 -34 20.5 -51.5t46.5 -17.5zM193 432v-266q0 -92 8.5 -124.5
t39.5 -32.5q49 0 80.5 60.5t31.5 126.5v223h-70v13h187v-419h73v-13h-187v118h-1q-39 -128 -136 -128q-68 0 -105.5 37t-37.5 127v265h-73v13h190z" />
    <glyph glyph-name="Uhungarumlaut" unicode="&#x170;" 
d="M321 743h-8l95 139h147v-5zM499 743h-8l94 139h147v-5zM618 259v420h-99v13h219v-13h-101v-419q0 -142 -58.5 -206t-180.5 -64q-138 0 -209.5 59.5t-71.5 203.5v426h-100v13h329v-13h-101v-414q0 -134 37 -194.5t132 -60.5q101 0 152.5 58.5t51.5 190.5z" />
    <glyph glyph-name="uhungarumlaut" unicode="&#x171;" horiz-adv-x="563" 
d="M193 432v-266q0 -92 8.5 -124.5t39.5 -32.5q49 0 80.5 60.5t31.5 126.5v223h-70v13h187v-419h73v-13h-187v118h-1q-39 -128 -136 -128q-68 0 -105.5 37t-37.5 127v265h-73v13h190zM167 520l70 161h121v-4l-183 -157h-8zM320 520l70 161h121v-4l-184 -157h-7z" />
    <glyph glyph-name="Uogonek" unicode="&#x172;" 
d="M281 -125q0 59 128 115h-11q-138 0 -209.5 59.5t-71.5 203.5v426h-100v13h329v-13h-101v-414q0 -134 37 -194.5t132 -60.5q101 0 152.5 58.5t51.5 190.5v420h-99v13h219v-13h-101v-419q0 -132 -51 -196.5t-157 -72.5q-47 -29 -62.5 -54t-15.5 -58q0 -27 11.5 -41
t30.5 -14q27 0 54 21l5 -8q-37 -31 -84 -31q-37 0 -62 19t-25 50z" />
    <glyph glyph-name="uogonek" unicode="&#x173;" horiz-adv-x="563" 
d="M193 432v-266q0 -92 8.5 -124.5t39.5 -32.5q49 0 80.5 60.5t31.5 126.5v223h-70v13h187v-419h73v-13h-43q-56 -33 -75 -60t-19 -60q0 -27 12 -41.5t31 -14.5q25 0 54 21l5 -8q-37 -31 -84 -31q-37 0 -62.5 19t-25.5 50q0 37 40.5 66t110.5 59h-131v118h-1
q-39 -128 -136 -128q-68 0 -105.5 37t-37.5 127v265h-73v13h190z" />
    <glyph glyph-name="Wcircumflex" unicode="&#x174;" horiz-adv-x="955" 
d="M505 887h8q14 -42 53 -81t79 -58l-2 -5q-91 11 -134 50q-42 -39 -133 -50l-2 5q40 19 79 58t52 81zM743 692h209v-13h-92l-121 -612q-9 -43 -26.5 -60t-46.5 -17q-33 0 -52.5 23t-32.5 81l-117 510h-1l-101 -534q-7 -42 -24.5 -61t-49.5 -19t-50.5 21.5t-29.5 74.5
l-122 593h-83v13h306v-13h-85l118 -621h2l99 537q8 43 26 61t51 18q34 0 52 -22t29 -79l117 -519h1l123 625h-99v13z" />
    <glyph glyph-name="wcircumflex" unicode="&#x175;" horiz-adv-x="733" 
d="M383 682h8q11 -45 51 -93.5t77 -69.5l-3 -5q-85 22 -129 69q-44 -47 -129 -69l-3 5q37 21 77 69.5t51 93.5zM589 419v13h140v-13h-63l-94 -353q-12 -44 -27.5 -60.5t-43.5 -16.5q-32 0 -48.5 23.5t-32.5 79.5l-52 187l-70 -212q-13 -44 -29 -61t-42 -17q-33 0 -49.5 23.5
t-30.5 79.5l-87 327h-56v13h243v-13h-66l96 -364h1l82 252l-34 125h121l103 -379h1l99 366h-61z" />
    <glyph glyph-name="Ycircumflex" unicode="&#x176;" horiz-adv-x="692" 
d="M401 336l188 343h-96v13h199v-13h-85l-203 -369v-297h105v-13h-338v13h105v295l-187 371h-89v13h327v-13h-97zM375 887h8q14 -42 53 -81t79 -58l-2 -5q-91 11 -134 50q-42 -39 -133 -50l-2 5q40 19 79 58t52 81z" />
    <glyph glyph-name="ycircumflex" unicode="&#x177;" horiz-adv-x="508" 
d="M275 -44v-57q0 -150 -101 -150q-44 0 -78.5 30t-34.5 76q0 30 19 50t48 20q25 0 39 -14t14 -36q0 -20 -14.5 -33.5t-29 -24t-14.5 -23.5q0 -16 16 -24t39 -8q36 0 58.5 31.5t22.5 99.5v64l-195 462h-60v13h258v-13h-73l123 -306h2l110 306h-72v13h152v-13h-62zM274 682h8
q11 -45 51 -93.5t77 -69.5l-3 -5q-85 22 -129 69q-44 -47 -129 -69l-3 5q37 21 77 69.5t51 93.5z" />
    <glyph glyph-name="Ydieresis" unicode="&#x178;" horiz-adv-x="692" 
d="M401 336l188 343h-96v13h199v-13h-85l-203 -369v-297h105v-13h-338v13h105v295l-187 371h-89v13h327v-13h-97zM536 815q0 -25 -16.5 -42t-41.5 -17t-41.5 17t-16.5 42t16.5 41.5t41.5 16.5t41.5 -16.5t16.5 -41.5zM326 815q0 -25 -16.5 -42t-41.5 -17t-41.5 17t-16.5 42
t16.5 41.5t41.5 16.5t41.5 -16.5t16.5 -41.5z" />
    <glyph glyph-name="Zacute" unicode="&#x179;" horiz-adv-x="655" 
d="M175 13h172q87 0 119 22t50 79q4 12 9.5 33.5t10 34.5t10.5 27t14 21t18 7h6v-237h-549l420 679h-124q-88 0 -119.5 -21t-49.5 -78q-4 -12 -9.5 -32.5t-9.5 -34t-9.5 -27t-13.5 -20.5t-18 -7h-6v233h501zM332 743h-8l95 139h147v-5z" />
    <glyph glyph-name="zacute" unicode="&#x17a;" horiz-adv-x="485" 
d="M235 520h-8l70 161h121v-4zM159 13h102q57 0 79.5 20t35.5 63q11 35 21.5 52.5t27.5 17.5h2v-166h-392v1l269 418h-74q-49 0 -69.5 -19t-33.5 -60q-11 -35 -21.5 -52.5t-27.5 -17.5h-2v162h353v-1z" />
    <glyph glyph-name="Zdotaccent" unicode="&#x17b;" horiz-adv-x="655" 
d="M401 821q0 -25 -16.5 -42t-41.5 -17t-41.5 17t-16.5 42t16.5 41.5t41.5 16.5t41.5 -16.5t16.5 -41.5zM175 13h172q87 0 119 22t50 79q4 12 9.5 33.5t10 34.5t10.5 27t14 21t18 7h6v-237h-549l420 679h-124q-88 0 -119.5 -21t-49.5 -78q-4 -12 -9.5 -32.5t-9.5 -34
t-9.5 -27t-13.5 -20.5t-18 -7h-6v233h501z" />
    <glyph glyph-name="zdotaccent" unicode="&#x17c;" horiz-adv-x="485" 
d="M159 13h102q57 0 79.5 20t35.5 63q11 35 21.5 52.5t27.5 17.5h2v-166h-392v1l269 418h-74q-49 0 -69.5 -19t-33.5 -60q-11 -35 -21.5 -52.5t-27.5 -17.5h-2v162h353v-1zM321 607q0 -24 -17 -41t-42 -17q-24 0 -41 17t-17 41q0 25 17 42t41 17q25 0 42 -17t17 -42z" />
    <glyph glyph-name="Zcaron" unicode="&#x17d;" horiz-adv-x="655" 
d="M175 13h172q87 0 119 22t50 79q4 12 9.5 33.5t10 34.5t10.5 27t14 21t18 7h6v-237h-549l420 679h-124q-88 0 -119.5 -21t-49.5 -78q-4 -12 -9.5 -32.5t-9.5 -34t-9.5 -27t-13.5 -20.5t-18 -7h-6v233h501zM334 743h-8q-13 42 -52 81t-79 58l2 5q91 -11 133 -50
q43 39 134 50l2 -5q-40 -19 -79 -58t-53 -81z" />
    <glyph glyph-name="zcaron" unicode="&#x17e;" horiz-adv-x="485" 
d="M258 514h-8q-11 45 -51 93.5t-77 69.5l3 5q85 -20 129 -69q44 49 129 69l3 -5q-37 -21 -77 -69.5t-51 -93.5zM159 13h102q57 0 79.5 20t35.5 63q11 35 21.5 52.5t27.5 17.5h2v-166h-392v1l269 418h-74q-49 0 -69.5 -19t-33.5 -60q-11 -35 -21.5 -52.5t-27.5 -17.5h-2v162
h353v-1z" />
    <glyph glyph-name="uni018F" unicode="&#x18f;" horiz-adv-x="785" 
d="M372 688q-182 0 -265 -174l-15 9q91 180 280 180q163 0 263.5 -99.5t100.5 -256.5q0 -154 -100 -255.5t-244 -101.5q-141 0 -240.5 97.5t-103.5 246.5h545v13q0 169 -53 255t-168 86zM392 4q93 0 144 82t56 233h-400q5 -151 56.5 -233t143.5 -82z" />
    <glyph glyph-name="Scommaaccent" unicode="&#x218;" horiz-adv-x="621" 
d="M243 -147q0 22 16.5 36.5t40.5 14.5q34 0 51.5 -24.5t17.5 -59.5q0 -94 -87 -153l-7 9q74 54 74 120q0 22 -18 22q-6 0 -18 -8t-25 -8q-20 0 -32.5 14.5t-12.5 36.5zM504 461h-5q-40 0 -60 102q-12 55 -50.5 90t-107.5 35q-55 0 -99.5 -29t-44.5 -77t41 -79.5t120 -59.5
l54 -20q101 -35 152.5 -86.5t51.5 -140.5q0 -93 -64 -149.5t-161 -56.5q-41 0 -76.5 9.5t-54.5 21t-36.5 21t-26.5 9.5q-16 0 -29 -28t-30 -28h-4v247h4q40 0 64 -107q30 -130 195 -130q63 0 115 31.5t52 94.5q0 53 -41.5 86t-128.5 65l-64 23q-182 66 -182 220
q0 77 57 127.5t137 50.5q45 0 79.5 -14.5t54.5 -28.5t30 -14q12 0 25.5 23t29.5 23h3v-231z" />
    <glyph glyph-name="scommaaccent" unicode="&#x219;" horiz-adv-x="454" 
d="M157 -147q0 22 16.5 36.5t40.5 14.5q34 0 51.5 -24.5t17.5 -59.5q0 -94 -87 -153l-7 9q74 54 74 120q0 22 -18 22q-6 0 -18 -8t-25 -8q-20 0 -32.5 14.5t-12.5 36.5zM408 129q0 -64 -48.5 -101.5t-114.5 -37.5q-36 0 -65.5 11t-47 22t-24.5 11q-9 0 -20 -20t-25 -20h-3
v184h3q28 0 54 -86q27 -89 127 -89q47 0 80.5 19t33.5 53q0 29 -26.5 46t-93.5 40l-39 12q-66 22 -101 59.5t-35 86.5q0 56 42.5 90.5t102.5 34.5q42 0 80.5 -18.5t41.5 -18.5q9 0 18 17t20 17h4v-159h-4q-13 0 -26 19.5t-20 48.5q-22 81 -114 81q-39 0 -68 -16t-29 -43
q0 -24 25 -42.5t81 -37.5l44 -15q71 -24 109 -57.5t38 -90.5z" />
    <glyph glyph-name="Tcommaaccent" unicode="&#x21a;" horiz-adv-x="708" 
d="M283 -147q0 22 16.5 36.5t40.5 14.5q34 0 51.5 -24.5t17.5 -59.5q0 -94 -87 -153l-7 9q74 54 74 120q0 22 -18 22q-6 0 -18 -8t-25 -8q-20 0 -32.5 14.5t-12.5 36.5zM39 692h630v-250h-6q-11 0 -19 7t-14.5 22.5t-10 27.5t-9 35t-8.5 33q-17 67 -41 89.5t-95 22.5h-48
v-666h111v-13h-350v13h111v666h-47q-71 0 -95.5 -23t-41.5 -89q-3 -10 -8.5 -33t-9 -35t-10 -27.5t-14.5 -22.5t-19 -7h-6v250z" />
    <glyph glyph-name="tcommaaccent" unicode="&#x21b;" horiz-adv-x="363" 
d="M106 -147q0 22 16.5 36.5t40.5 14.5q34 0 51.5 -24.5t17.5 -59.5q0 -94 -87 -153l-7 9q74 54 74 120q0 22 -18 22q-6 0 -18 -8t-25 -8q-20 0 -32.5 14.5t-12.5 36.5zM218 -10q-128 0 -128 125v304h-86v13h86v70q36 14 64.5 42t41.5 63h10v-175h129v-13h-129v-317
q0 -46 9.5 -69.5t35.5 -23.5q27 0 49 25.5t31 69.5l13 -2q-24 -112 -126 -112z" />
    <glyph glyph-name="uni0232" unicode="&#x232;" horiz-adv-x="692" 
d="M401 336l188 343h-96v13h199v-13h-85l-203 -369v-297h105v-13h-338v13h105v295l-187 371h-89v13h327v-13h-97zM499 787h-250v51h250v-51z" />
    <glyph glyph-name="uni0233" unicode="&#x233;" horiz-adv-x="508" 
d="M275 -44v-57q0 -150 -101 -150q-44 0 -78.5 30t-34.5 76q0 30 19 50t48 20q25 0 39 -14t14 -36q0 -20 -14.5 -33.5t-29 -24t-14.5 -23.5q0 -16 16 -24t39 -8q36 0 58.5 31.5t22.5 99.5v64l-195 462h-60v13h258v-13h-73l123 -306h2l110 306h-72v13h152v-13h-62zM393 570
h-250v51h250v-51z" />
    <glyph glyph-name="dotlessj" unicode="&#x237;" horiz-adv-x="310" 
d="M11 -240q94 0 94 167v492h-97v13h213v-410q0 -122 -60 -197.5t-146 -75.5q-51 0 -85 29t-34 73q0 30 19.5 50.5t47.5 20.5q25 0 39 -14.5t14 -36.5q0 -17 -8.5 -29t-19 -17t-19 -13.5t-8.5 -19.5q0 -14 14 -23t36 -9z" />
    <glyph glyph-name="uni0259" unicode="&#x259;" horiz-adv-x="490" 
d="M235 -10q-84 0 -143 54.5t-50 151.5h280v9v16q0 208 -115 208q-52 0 -92 -32t-52 -96l-14 2q13 68 57.5 104.5t114.5 36.5q100 0 163.5 -62.5t63.5 -160.5q0 -96 -63.5 -163.5t-149.5 -67.5zM236 1q81 0 86 182h-161q-7 -182 75 -182z" />
    <glyph glyph-name="circumflex" unicode="&#x2c6;" horiz-adv-x="308" 
d="M150 682h8q11 -45 51 -93.5t77 -69.5l-3 -5q-85 22 -129 69q-44 -47 -129 -69l-3 5q37 21 77 69.5t51 93.5z" />
    <glyph glyph-name="caron" unicode="&#x2c7;" horiz-adv-x="308" 
d="M158 514h-8q-11 45 -51 93.5t-77 69.5l3 5q85 -20 129 -69q44 49 129 69l3 -5q-37 -21 -77 -69.5t-51 -93.5z" />
    <glyph glyph-name="breve" unicode="&#x2d8;" horiz-adv-x="275" 
d="M137 580q100 0 109 95h10q-3 -67 -31.5 -110.5t-87.5 -43.5t-87.5 43.5t-31.5 110.5h10q9 -95 109 -95z" />
    <glyph glyph-name="dotaccent" unicode="&#x2d9;" horiz-adv-x="243" 
d="M180 607q0 -24 -17 -41t-42 -17q-24 0 -41 17t-17 41q0 25 17 42t41 17q25 0 42 -17t17 -42z" />
    <glyph glyph-name="ring" unicode="&#x2da;" horiz-adv-x="248" 
d="M124 706q35 0 59.5 -24.5t24.5 -61.5q0 -36 -24 -59.5t-60 -23.5t-60 23.5t-24 59.5q0 37 24.5 61.5t59.5 24.5zM124 551q27 0 47.5 17.5t20.5 51.5q0 35 -20.5 53t-47.5 18q-26 0 -46.5 -18t-20.5 -53q0 -34 20.5 -51.5t46.5 -17.5z" />
    <glyph glyph-name="ogonek" unicode="&#x2db;" horiz-adv-x="247" 
d="M54 -125q0 37 40.5 66t110.5 59h13q-56 -33 -75 -60t-19 -60q0 -27 12 -41.5t31 -14.5q25 0 54 21l5 -8q-37 -31 -84 -31q-37 0 -62.5 19t-25.5 50z" />
    <glyph glyph-name="tilde" unicode="&#x2dc;" horiz-adv-x="328" 
d="M21 527h-11q0 55 21 98.5t67 43.5q30 0 82 -36.5t74 -36.5q50 0 53 70h11q-1 -137 -79 -137q-36 0 -86 36.5t-76 36.5q-51 0 -56 -75z" />
    <glyph glyph-name="hungarumlaut" unicode="&#x2dd;" horiz-adv-x="379" 
d="M22 520l70 161h121v-4l-183 -157h-8zM175 520l70 161h121v-4l-184 -157h-7z" />
    <glyph glyph-name="uni032C" unicode="&#x32c;" horiz-adv-x="308" 
d="M158 -168h-8q-11 45 -51 93.5t-77 69.5l3 5q85 -20 129 -69q44 49 129 69l3 -5q-37 -21 -77 -69.5t-51 -93.5z" />
    <glyph glyph-name="Delta" unicode="&#x394;" horiz-adv-x="646" 
d="M323 600l308 -600h-616zM323 565l-283 -550h566z" />
    <glyph glyph-name="Delta" unicode="&#x2206;" horiz-adv-x="646" 
d="M323 600l308 -600h-616zM323 565l-283 -550h566z" />
    <glyph glyph-name="Omega" unicode="&#x3a9;" horiz-adv-x="812" 
d="M406 721q152 0 252 -98.5t100 -252.5q0 -115 -74.5 -210t-184.5 -129v-16h268v-15h-284v42q98 24 177.5 114.5t79.5 214.5q0 147 -95 240.5t-239 93.5t-239 -93.5t-95 -240.5q0 -124 79.5 -214.5t177.5 -114.5v-42h-284v15h268v16q-110 34 -184.5 129t-74.5 210
q0 154 100 252.5t252 98.5z" />
    <glyph glyph-name="Omega" unicode="&#x2126;" horiz-adv-x="812" 
d="M406 721q152 0 252 -98.5t100 -252.5q0 -115 -74.5 -210t-184.5 -129v-16h268v-15h-284v42q98 24 177.5 114.5t79.5 214.5q0 147 -95 240.5t-239 93.5t-239 -93.5t-95 -240.5q0 -124 79.5 -214.5t177.5 -114.5v-42h-284v15h268v16q-110 34 -184.5 129t-74.5 210
q0 154 100 252.5t252 98.5z" />
    <glyph glyph-name="pi" unicode="&#x3c0;" horiz-adv-x="585" 
d="M462 415v-415h-16v415h-307v-415h-16v415h-88v15h515v-15h-88z" />
    <glyph glyph-name="Wgrave" unicode="&#x1e80;" horiz-adv-x="955" 
d="M533 743h-9l-233 134v5h147zM743 692h209v-13h-92l-121 -612q-9 -43 -26.5 -60t-46.5 -17q-33 0 -52.5 23t-32.5 81l-117 510h-1l-101 -534q-7 -42 -24.5 -61t-49.5 -19t-50.5 21.5t-29.5 74.5l-122 593h-83v13h306v-13h-85l118 -621h2l99 537q8 43 26 61t51 18
q34 0 52 -22t29 -79l117 -519h1l123 625h-99v13z" />
    <glyph glyph-name="wgrave" unicode="&#x1e81;" horiz-adv-x="733" 
d="M589 419v13h140v-13h-63l-94 -353q-12 -44 -27.5 -60.5t-43.5 -16.5q-32 0 -48.5 23.5t-32.5 79.5l-52 187l-70 -212q-13 -44 -29 -61t-42 -17q-33 0 -49.5 23.5t-30.5 79.5l-87 327h-56v13h243v-13h-66l96 -364h1l82 252l-34 125h121l103 -379h1l99 366h-61zM402 520h-8
l-179 156v5h121z" />
    <glyph glyph-name="Wacute" unicode="&#x1e82;" horiz-adv-x="955" 
d="M484 743h-8l95 139h147v-5zM743 692h209v-13h-92l-121 -612q-9 -43 -26.5 -60t-46.5 -17q-33 0 -52.5 23t-32.5 81l-117 510h-1l-101 -534q-7 -42 -24.5 -61t-49.5 -19t-50.5 21.5t-29.5 74.5l-122 593h-83v13h306v-13h-85l118 -621h2l99 537q8 43 26 61t51 18
q34 0 52 -22t29 -79l117 -519h1l123 625h-99v13z" />
    <glyph glyph-name="wacute" unicode="&#x1e83;" horiz-adv-x="733" 
d="M336 520h-8l70 161h121v-4zM589 419v13h140v-13h-63l-94 -353q-12 -44 -27.5 -60.5t-43.5 -16.5q-32 0 -48.5 23.5t-32.5 79.5l-52 187l-70 -212q-13 -44 -29 -61t-42 -17q-33 0 -49.5 23.5t-30.5 79.5l-87 327h-56v13h243v-13h-66l96 -364h1l82 252l-34 125h121
l103 -379h1l99 366h-61z" />
    <glyph glyph-name="Wdieresis" unicode="&#x1e84;" horiz-adv-x="955" 
d="M743 692h209v-13h-92l-121 -612q-9 -43 -26.5 -60t-46.5 -17q-33 0 -52.5 23t-32.5 81l-117 510h-1l-101 -534q-7 -42 -24.5 -61t-49.5 -19t-50.5 21.5t-29.5 74.5l-122 593h-83v13h306v-13h-85l118 -621h2l99 537q8 43 26 61t51 18q34 0 52 -22t29 -79l117 -519h1
l123 625h-99v13zM673 815q0 -25 -16.5 -42t-41.5 -17t-41.5 17t-16.5 42t16.5 41.5t41.5 16.5t41.5 -16.5t16.5 -41.5zM463 815q0 -25 -16.5 -42t-41.5 -17t-41.5 17t-16.5 42t16.5 41.5t41.5 16.5t41.5 -16.5t16.5 -41.5z" />
    <glyph glyph-name="wdieresis" unicode="&#x1e85;" horiz-adv-x="733" 
d="M329 602q0 -24 -17 -41t-42 -17t-41.5 17t-16.5 41q0 25 16.5 42t41.5 17q26 0 42.5 -16.5t16.5 -42.5zM534 602q0 -24 -16.5 -41t-41.5 -17t-41.5 17t-16.5 41q0 25 16.5 42t41.5 17t41.5 -17t16.5 -42zM589 419v13h140v-13h-63l-94 -353q-12 -44 -27.5 -60.5
t-43.5 -16.5q-32 0 -48.5 23.5t-32.5 79.5l-52 187l-70 -212q-13 -44 -29 -61t-42 -17q-33 0 -49.5 23.5t-30.5 79.5l-87 327h-56v13h243v-13h-66l96 -364h1l82 252l-34 125h121l103 -379h1l99 366h-61z" />
    <glyph glyph-name="uni1ECA" unicode="&#x1eca;" horiz-adv-x="386" 
d="M358 0h-330v13h101v666h-101v13h330v-13h-101v-666h101v-13zM252 -154q0 -25 -17 -42t-42 -17q-24 0 -41 17t-17 42t17 41.5t41 16.5q25 0 42 -16.5t17 -41.5z" />
    <glyph glyph-name="uni1ECB" unicode="&#x1ecb;" horiz-adv-x="313" 
d="M296 0h-267v13h75v406h-75v13h192v-419h75v-13zM233 631q0 -30 -21 -50.5t-51 -20.5t-50.5 20.5t-20.5 50.5t20.5 51t50.5 21t51 -21t21 -51zM216 -154q0 -25 -17 -42t-42 -17q-24 0 -41 17t-17 42t17 41.5t41 16.5q25 0 42 -16.5t17 -41.5z" />
    <glyph glyph-name="uni1ECC" unicode="&#x1ecc;" horiz-adv-x="785" 
d="M451 -154q0 -25 -17 -42t-42 -17q-24 0 -41 17t-17 42t17 41.5t41 16.5q25 0 42 -16.5t17 -41.5zM192 347q0 -164 52 -254t149 -90q96 0 148 90t52 254t-52 253.5t-148 89.5q-97 0 -149 -89.5t-52 -253.5zM49 347q0 154 99.5 255t244.5 101q144 0 243.5 -101t99.5 -255
t-99.5 -255.5t-243.5 -101.5q-145 0 -244.5 101.5t-99.5 255.5z" />
    <glyph glyph-name="uni1ECD" unicode="&#x1ecd;" horiz-adv-x="526" 
d="M322 -154q0 -25 -17 -42t-42 -17q-24 0 -41 17t-17 42t17 41.5t41 16.5q25 0 42 -16.5t17 -41.5zM485 217q0 -90 -65 -158.5t-157 -68.5q-91 0 -156 68.5t-65 158.5t65 158.5t156 68.5q92 0 157 -68.5t65 -158.5zM168 217q0 -111 21 -163.5t74 -52.5t74 52.5t21 163.5
t-21 163.5t-74 52.5t-74 -52.5t-21 -163.5z" />
    <glyph glyph-name="uni1EE4" unicode="&#x1ee4;" 
d="M463 -154q0 -25 -17 -42t-42 -17q-24 0 -41 17t-17 42t17 41.5t41 16.5q25 0 42 -16.5t17 -41.5zM618 259v420h-99v13h219v-13h-101v-419q0 -142 -58.5 -206t-180.5 -64q-138 0 -209.5 59.5t-71.5 203.5v426h-100v13h329v-13h-101v-414q0 -134 37 -194.5t132 -60.5
q101 0 152.5 58.5t51.5 190.5z" />
    <glyph glyph-name="uni1EE5" unicode="&#x1ee5;" horiz-adv-x="563" 
d="M331 -154q0 -25 -17 -42t-42 -17q-24 0 -41 17t-17 42t17 41.5t41 16.5q25 0 42 -16.5t17 -41.5zM193 432v-266q0 -92 8.5 -124.5t39.5 -32.5q49 0 80.5 60.5t31.5 126.5v223h-70v13h187v-419h73v-13h-187v118h-1q-39 -128 -136 -128q-68 0 -105.5 37t-37.5 127v265h-73
v13h190z" />
    <glyph glyph-name="Ygrave" unicode="&#x1ef2;" horiz-adv-x="692" 
d="M401 336l188 343h-96v13h199v-13h-85l-203 -369v-297h105v-13h-338v13h105v295l-187 371h-89v13h327v-13h-97zM420 743h-9l-233 134v5h147z" />
    <glyph glyph-name="ygrave" unicode="&#x1ef3;" horiz-adv-x="508" 
d="M275 -44v-57q0 -150 -101 -150q-44 0 -78.5 30t-34.5 76q0 30 19 50t48 20q25 0 39 -14t14 -36q0 -20 -14.5 -33.5t-29 -24t-14.5 -23.5q0 -16 16 -24t39 -8q36 0 58.5 31.5t22.5 99.5v64l-195 462h-60v13h258v-13h-73l123 -306h2l110 306h-72v13h152v-13h-62zM310 520
h-8l-179 156v5h121z" />
    <glyph glyph-name="endash" unicode="&#x2013;" horiz-adv-x="489" 
d="M454 220h-419v15h419v-15z" />
    <glyph glyph-name="emdash" unicode="&#x2014;" horiz-adv-x="638" 
d="M603 220h-568v15h568v-15z" />
    <glyph glyph-name="quoteleft" unicode="&#x2018;" horiz-adv-x="236" 
d="M219 479q0 -32 -22.5 -51.5t-56.5 -19.5q-41 0 -64.5 31t-23.5 81q0 125 128 201l8 -12q-52 -31 -82 -71t-30 -79q0 -28 22 -28q8 0 26 9t32 9q26 0 44.5 -20t18.5 -50z" />
    <glyph glyph-name="quoteright" unicode="&#x2019;" horiz-adv-x="236" 
d="M17 649q0 31 22.5 51t56.5 20q42 0 65 -31t23 -81q0 -127 -128 -201l-7 12q52 31 81.5 71t29.5 79q0 28 -22 28q-8 0 -25.5 -9.5t-32.5 -9.5q-26 0 -44.5 20.5t-18.5 50.5z" />
    <glyph glyph-name="quotesinglbase" unicode="&#x201a;" horiz-adv-x="244" 
d="M25 61q0 31 22.5 51t56.5 20q42 0 65 -31t23 -81q0 -127 -128 -201l-7 12q52 31 81.5 71t29.5 79q0 28 -22 28q-8 0 -25.5 -9.5t-32.5 -9.5q-26 0 -44.5 20.5t-18.5 50.5z" />
    <glyph glyph-name="quotedblleft" unicode="&#x201c;" horiz-adv-x="437" 
d="M419 479q0 -32 -22.5 -51.5t-56.5 -19.5q-41 0 -64.5 31t-23.5 81q0 125 128 201l8 -12q-52 -31 -82 -71t-30 -79q0 -28 22 -28q8 0 26 9t32 9q26 0 44.5 -20t18.5 -50zM219 479q0 -32 -22.5 -51.5t-56.5 -19.5q-41 0 -64.5 31t-23.5 81q0 125 128 201l8 -12
q-52 -31 -82 -71t-30 -79q0 -28 22 -28q8 0 26 9t32 9q26 0 44.5 -20t18.5 -50z" />
    <glyph glyph-name="quotedblright" unicode="&#x201d;" horiz-adv-x="437" 
d="M217 649q0 31 22.5 51t56.5 20q42 0 65 -31t23 -81q0 -127 -128 -201l-7 12q52 31 81.5 71t29.5 79q0 28 -22 28q-8 0 -25.5 -9.5t-32.5 -9.5q-26 0 -44.5 20.5t-18.5 50.5zM17 649q0 31 22.5 51t56.5 20q42 0 65 -31t23 -81q0 -127 -128 -201l-7 12q52 31 81.5 71
t29.5 79q0 28 -22 28q-8 0 -25.5 -9.5t-32.5 -9.5q-26 0 -44.5 20.5t-18.5 50.5z" />
    <glyph glyph-name="quotedblbase" unicode="&#x201e;" horiz-adv-x="445" 
d="M225 61q0 31 22.5 51t56.5 20q42 0 65 -31t23 -81q0 -127 -128 -201l-7 12q52 31 81.5 71t29.5 79q0 28 -22 28q-8 0 -25.5 -9.5t-32.5 -9.5q-26 0 -44.5 20.5t-18.5 50.5zM25 61q0 31 22.5 51t56.5 20q42 0 65 -31t23 -81q0 -127 -128 -201l-7 12q52 31 81.5 71t29.5 79
q0 28 -22 28q-8 0 -25.5 -9.5t-32.5 -9.5q-26 0 -44.5 20.5t-18.5 50.5z" />
    <glyph glyph-name="dagger" unicode="&#x2020;" horiz-adv-x="522" 
d="M487 457h-218v-697h-16v697h-218v15h218v239h16v-239h218v-15z" />
    <glyph glyph-name="daggerdbl" unicode="&#x2021;" horiz-adv-x="522" 
d="M487 56h-218v-296h-16v296h-218v16h218v345h-218v15h218v279h16v-279h218v-15h-218v-345h218v-16z" />
    <glyph glyph-name="bullet" unicode="&#x2022;" horiz-adv-x="488" 
d="M408 224q0 -68 -48 -116t-116 -48t-116 48t-48 116t48 116t116 48t116 -48t48 -116z" />
    <glyph glyph-name="ellipsis" unicode="&#x2026;" horiz-adv-x="724" 
d="M682 70q0 -34 -22.5 -57t-54.5 -23q-34 0 -57 23t-23 55q0 34 22.5 57t54.5 23q34 0 57 -23t23 -55zM440 70q0 -34 -22.5 -57t-54.5 -23q-34 0 -57 23t-23 55q0 34 22.5 57t54.5 23q34 0 57 -23t23 -55zM199 70q0 -34 -22.5 -57t-54.5 -23q-34 0 -57 23t-23 55
q0 34 22.5 57t54.5 23q34 0 57 -23t23 -55z" />
    <glyph glyph-name="perthousand" unicode="&#x2030;" horiz-adv-x="1216" 
d="M40 512q0 98 49.5 155.5t118.5 57.5t118.5 -57.5t49.5 -155.5q0 -97 -50 -155t-118 -58q-69 0 -118.5 57.5t-49.5 155.5zM144 512q0 -116 15 -160t49 -44t49 44t15 160t-15 160t-49 44t-49 -43.5t-15 -160.5zM606 722l13 -7l-396 -726l-12 7zM454 206q0 98 49.5 155.5
t118.5 57.5t118.5 -57.5t49.5 -155.5q0 -97 -50 -155t-118 -58q-69 0 -118.5 57.5t-49.5 155.5zM558 206q0 -116 15 -160t49 -44t49 44t15 160t-15 160t-49 44t-49 -43.5t-15 -160.5zM840 206q0 98 49.5 155.5t118.5 57.5t118.5 -57.5t49.5 -155.5q0 -97 -50 -155t-118 -58
q-69 0 -118.5 57.5t-49.5 155.5zM944 206q0 -116 15 -160t49 -44t49 44t15 160t-15 160t-49 44t-49 -43.5t-15 -160.5z" />
    <glyph glyph-name="guilsinglleft" unicode="&#x2039;" horiz-adv-x="258" 
d="M40 221q0 60 29 104.5t69 65.5l7 -13q-36 -19 -60 -56t-24 -74q0 -40 67 -47q76 -8 76 -71q0 -24 -16.5 -41t-44.5 -17q-48 0 -75.5 46t-27.5 103z" />
    <glyph glyph-name="guilsinglright" unicode="&#x203a;" horiz-adv-x="258" 
d="M218 239q0 -60 -29 -104.5t-69 -65.5l-7 13q37 19 60.5 56.5t23.5 74.5q0 39 -67 46q-76 8 -76 71q0 24 17 41.5t44 17.5q48 0 75.5 -46.5t27.5 -103.5z" />
    <glyph glyph-name="fraction" unicode="&#x2044;" horiz-adv-x="128" 
d="M255 722l13 -7l-396 -726l-12 7z" />
    <glyph glyph-name="zero.superior" unicode="&#x2070;" horiz-adv-x="426" 
d="M45 612q0 98 49.5 155.5t118.5 57.5t118.5 -57.5t49.5 -155.5q0 -97 -50 -155t-118 -58q-69 0 -118.5 57.5t-49.5 155.5zM149 612q0 -116 15 -160t49 -44t49 44t15 160t-15 160t-49 44t-49 -43.5t-15 -160.5z" />
    <glyph glyph-name="four.superior" unicode="&#x2074;" horiz-adv-x="385" 
d="M276 667v-158h76v-12h-76v-80h59v-11h-214v11h58v80h-164v9q72 58 105.5 117t44.5 147q5 31 14 39.5t37 8.5h27q23 0 31.5 -3t12 -15.5t-9.5 -37.5q-22 -52 -101.5 -129t-147.5 -124h151v69q26 12 53.5 38t35.5 51h8z" />
    <glyph glyph-name="five.superior" unicode="&#x2075;" horiz-adv-x="369" 
d="M149 412q78 0 78 122q0 56 -16.5 84.5t-56.5 28.5q-29 0 -51.5 -16t-32.5 -40h-17l30 231h10q11 -14 40.5 -24t60.5 -10q36 0 71 14t47 43l8 -1q-11 -69 -53 -106.5t-95 -37.5q-49 0 -88 22l-15 -109h1q32 49 101 49q68 0 114.5 -34.5t46.5 -92.5q0 -63 -49.5 -99.5
t-121.5 -36.5q-56 0 -91.5 32t-35.5 72q0 26 15.5 42.5t38.5 16.5q17 0 28 -10.5t11 -27.5q0 -14 -7.5 -23t-16 -13t-16 -11.5t-7.5 -17.5q0 -23 20.5 -35t48.5 -12z" />
    <glyph glyph-name="six.superior" unicode="&#x2076;" horiz-adv-x="409" 
d="M245 825q49 0 80 -25.5t31 -65.5q0 -26 -14.5 -41t-35.5 -15q-19 0 -30.5 10.5t-11.5 27.5q0 14 8 23t17 12t17 9.5t8 17.5q0 16 -18.5 26.5t-43.5 10.5q-118 0 -110 -229q19 69 86 69q57 0 97 -33.5t40 -94.5q-1 -57 -46 -92.5t-109 -35.5q-73 0 -119 53t-46 144
q0 94 60 161.5t140 67.5zM147 525q0 -60 17 -88t43 -28q55 0 55 118q0 114 -54 114q-24 0 -42.5 -28.5t-18.5 -87.5z" />
    <glyph glyph-name="seven.superior" unicode="&#x2077;" horiz-adv-x="353" 
d="M283 751h-148q-37 0 -49.5 -7.5t-19.5 -26.5q-15 -38 -33 -38v140h318v-4q-31 -33 -47 -51t-45.5 -58t-45 -74.5t-28 -84.5t-11.5 -103q0 -22 -9 -33.5t-34 -11.5h-21q-46 0 -40 53q8 72 56 135.5t157 163.5z" />
    <glyph glyph-name="eight.superior" unicode="&#x2078;" horiz-adv-x="376" 
d="M33 507q0 32 22 57.5t56 40.5q-63 43 -63 108q0 49 41.5 80.5t101.5 31.5q51 0 87 -22t36 -62q0 -55 -72 -90q51 -25 76 -54.5t25 -72.5q0 -56 -48.5 -90.5t-117.5 -34.5q-60 0 -102 30t-42 78zM143 588q-14 6 -21 10q-73 -30 -73 -91q0 -44 38 -69.5t90 -25.5
q105 0 105 66q0 27 -20 45t-68 41zM105 758q0 -24 20 -42.5t63 -37.5l41 -20q30 12 50 34t20 49q0 35 -31.5 54t-76.5 19q-40 0 -63 -15.5t-23 -40.5z" />
    <glyph glyph-name="nine.superior" unicode="&#x2079;" horiz-adv-x="396" 
d="M154 399q-49 0 -79.5 25.5t-30.5 65.5q0 26 14.5 41t35.5 15q19 0 30.5 -10.5t11.5 -27.5q0 -14 -8 -23t-17 -12t-17 -9.5t-8 -17.5q0 -16 18.5 -26.5t43.5 -10.5q118 0 110 229h-1q-18 -69 -85 -69q-57 0 -97 33.5t-40 94.5q1 57 46 92.5t109 35.5q73 0 119 -53t46 -144
q0 -94 -60 -161.5t-141 -67.5zM252 699q1 59 -16 87.5t-43 28.5q-55 0 -55 -118q0 -114 54 -114q24 0 42 28.5t18 87.5z" />
    <glyph glyph-name="zero.inferior" unicode="&#x2080;" horiz-adv-x="426" 
d="M45 106q0 98 49.5 155.5t118.5 57.5t118.5 -57.5t49.5 -155.5q0 -97 -50 -155t-118 -58q-69 0 -118.5 57.5t-49.5 155.5zM149 106q0 -116 15 -160t49 -44t49 44t15 160t-15 160t-49 44t-49 -43.5t-15 -160.5z" />
    <glyph glyph-name="one.inferior" unicode="&#x2081;" horiz-adv-x="314" 
d="M265 -100h-212v11h65v367q-51 -18 -82 -25l-3 12q87 22 169 51h8v-405h55v-11z" />
    <glyph glyph-name="two.inferior" unicode="&#x2082;" horiz-adv-x="399" 
d="M177 319q69 0 115 -30t46 -85q0 -27 -13.5 -53t-45 -53.5t-52 -42.5t-67.5 -45t-58 -37q7 1 27 1h112q35 0 48 7.5t21 25.5q16 40 33 40v-147h-325v6q126 112 172.5 175.5t46.5 131.5q0 93 -77 93q-44 0 -76 -29.5t-32 -71.5q0 -27 12.5 -46t28.5 -19q10 0 15.5 9.5
t8.5 21t13.5 21t28.5 9.5q17 0 27.5 -11t10.5 -26q0 -25 -20.5 -38.5t-46.5 -13.5q-37 0 -64 25t-27 67q0 49 38 82t100 33z" />
    <glyph glyph-name="three.inferior" unicode="&#x2083;" horiz-adv-x="380" 
d="M159 -107q-55 0 -95 29t-40 69q0 27 15.5 44t37.5 17q18 0 29 -11t11 -28q0 -14 -7.5 -23.5t-16 -13t-16 -10.5t-7.5 -17q0 -20 26 -31.5t56 -11.5q37 0 60.5 24.5t23.5 78.5q0 103 -66 103q-13 0 -54 -13v12l28 9q41 12 60.5 33t19.5 71q0 83 -70 83q-29 0 -54 -11
t-25 -29q0 -10 7.5 -17t16.5 -11t16.5 -14t7.5 -25q0 -16 -12 -27t-30 -11q-21 0 -36 17t-15 44q0 40 39.5 68t97.5 28q62 0 110.5 -22t48.5 -70q0 -21 -11.5 -38t-25 -27t-38.5 -18.5t-36 -11.5t-32 -7v-1q62 0 110 -27.5t48 -80.5q0 -57 -53 -90t-129 -33z" />
    <glyph glyph-name="four.inferior" unicode="&#x2084;" horiz-adv-x="385" 
d="M276 161v-158h76v-12h-76v-80h59v-11h-214v11h58v80h-164v9q72 58 105.5 117t44.5 147q5 31 14 39.5t37 8.5h27q23 0 31.5 -3t12 -15.5t-9.5 -37.5q-22 -52 -101.5 -129t-147.5 -124h151v69q26 12 53.5 38t35.5 51h8z" />
    <glyph glyph-name="five.inferior" unicode="&#x2085;" horiz-adv-x="369" 
d="M149 -94q78 0 78 122q0 56 -16.5 84.5t-56.5 28.5q-29 0 -51.5 -16t-32.5 -40h-17l30 231h10q11 -14 40.5 -24t60.5 -10q36 0 71 14t47 43l8 -1q-11 -69 -53 -106.5t-95 -37.5q-49 0 -88 22l-15 -109h1q32 49 101 49q68 0 114.5 -34.5t46.5 -92.5q0 -63 -49.5 -99.5
t-121.5 -36.5q-56 0 -91.5 32t-35.5 72q0 26 15.5 42.5t38.5 16.5q17 0 28 -10.5t11 -27.5q0 -14 -7.5 -23t-16 -13t-16 -11.5t-7.5 -17.5q0 -23 20.5 -35t48.5 -12z" />
    <glyph glyph-name="six.inferior" unicode="&#x2086;" horiz-adv-x="409" 
d="M245 319q49 0 80 -25.5t31 -65.5q0 -26 -14.5 -41t-35.5 -15q-19 0 -30.5 10.5t-11.5 27.5q0 14 8 23t17 12t17 9.5t8 17.5q0 16 -18.5 26.5t-43.5 10.5q-118 0 -110 -229q19 69 86 69q57 0 97 -33.5t40 -94.5q-1 -57 -46 -92.5t-109 -35.5q-73 0 -119 53t-46 144
q0 94 60 161.5t140 67.5zM147 19q0 -60 17 -88t43 -28q55 0 55 118q0 114 -54 114q-24 0 -42.5 -28.5t-18.5 -87.5z" />
    <glyph glyph-name="seven.inferior" unicode="&#x2087;" horiz-adv-x="353" 
d="M283 245h-148q-37 0 -49.5 -7.5t-19.5 -26.5q-15 -38 -33 -38v140h318v-4q-31 -33 -47 -51t-45.5 -58t-45 -74.5t-28 -84.5t-11.5 -103q0 -22 -9 -33.5t-34 -11.5h-21q-46 0 -40 53q8 72 56 135.5t157 163.5z" />
    <glyph glyph-name="eight.inferior" unicode="&#x2088;" horiz-adv-x="376" 
d="M33 1q0 32 22 57.5t56 40.5q-63 43 -63 108q0 49 41.5 80.5t101.5 31.5q51 0 87 -22t36 -62q0 -55 -72 -90q51 -25 76 -54.5t25 -72.5q0 -56 -48.5 -90.5t-117.5 -34.5q-60 0 -102 30t-42 78zM143 82q-14 6 -21 10q-73 -30 -73 -91q0 -44 38 -69.5t90 -25.5q105 0 105 66
q0 27 -20 45t-68 41zM105 252q0 -24 20 -42.5t63 -37.5l41 -20q30 12 50 34t20 49q0 35 -31.5 54t-76.5 19q-40 0 -63 -15.5t-23 -40.5z" />
    <glyph glyph-name="nine.inferior" unicode="&#x2089;" horiz-adv-x="396" 
d="M154 -107q-49 0 -79.5 25.5t-30.5 65.5q0 26 14.5 41t35.5 15q19 0 30.5 -10.5t11.5 -27.5q0 -14 -8 -23t-17 -12t-17 -9.5t-8 -17.5q0 -16 18.5 -26.5t43.5 -10.5q118 0 110 229h-1q-18 -69 -85 -69q-57 0 -97 33.5t-40 94.5q1 57 46 92.5t109 35.5q73 0 119 -53
t46 -144q0 -94 -60 -161.5t-141 -67.5zM252 193q1 59 -16 87.5t-43 28.5q-55 0 -55 -118q0 -114 54 -114q24 0 42 28.5t18 87.5z" />
    <glyph glyph-name="Euro" unicode="&#x20ac;" horiz-adv-x="644" 
d="M421 693q-163 0 -180 -281h173v-13h-174q-1 -17 -1 -51q0 -23 2 -61h173v-13h-173q20 -269 174 -269q67 0 111.5 40.5t57.5 116.5l16 -3q-14 -78 -62.5 -123.5t-126.5 -45.5q-119 0 -199 75.5t-99 208.5h-105v13h103q-3 29 -3 61q0 34 2 51h-102v13h104q17 138 100.5 216
t206.5 78q82 0 133.5 -44t51.5 -107q0 -41 -21.5 -66.5t-52.5 -25.5q-25 0 -41 14.5t-16 37.5q0 36 39 54q1 1 6.5 3.5t7.5 3.5t7 4t7 5l5.5 5.5t5 6.5t3 7t1.5 8q0 34 -39.5 57.5t-94.5 23.5z" />
    <glyph glyph-name="afii61289" unicode="&#x2113;" horiz-adv-x="563" 
d="M37 111q46 32 96 70q-1 8 -1 26q0 64 9.5 131t30.5 133t51 117t75.5 83t99.5 32q43 0 64.5 -26t19.5 -66.5t-20 -89t-50 -92.5q-55 -76 -146 -157q-4 -40 -4 -72q0 -50 1.5 -79.5t7.5 -57t19 -39.5t33 -12q39 0 68.5 30t45.5 68l15 -5q-10 -22 -17.5 -34t-27 -35t-50 -35
t-70.5 -12q-137 0 -153 174q-37 -28 -89 -64zM413 677q-27 0 -52 -38t-43 -99t-30 -123.5t-19 -123.5q84 77 135 147q34 47 51.5 102t7.5 95t-50 40z" />
    <glyph glyph-name="afii61352" unicode="&#x2116;" horiz-adv-x="1138" 
d="M622 679v-583q0 -33 -3.5 -53.5t-19 -37t-43.5 -16.5q-29 0 -53 20.5t-52 69.5l-302 538h-1v-604h101v-13h-219v13h101v666h-103v13h125q67 0 92.5 -16.5t58.5 -74.5l301 -530h1v608h-101v13h218v-13h-101zM755 512q0 98 49.5 155.5t118.5 57.5t118.5 -57.5t49.5 -155.5
q0 -97 -50 -155t-118 -58q-69 0 -118.5 57.5t-49.5 155.5zM859 512q0 -116 15 -160t49 -44t49 44t15 160t-15 160t-49 44t-49 -43.5t-15 -160.5zM1129 250h-419v15h419v-15z" />
    <glyph glyph-name="uni2117" unicode="&#x2117;" horiz-adv-x="845" 
d="M294 560h134q167 0 167 -125q0 -126 -167 -126h-118v-183h-16v434zM422 548h-112v-226h112q76 0 117 24.5t41 88.5t-41.5 88.5t-116.5 24.5zM775 343q0 -150 -102.5 -251.5t-249.5 -101.5t-250 101.5t-103 251.5t103 251t250 101t249.5 -101t102.5 -251zM758 343
q0 143 -97.5 240t-237.5 97q-141 0 -238.5 -97t-97.5 -240t97.5 -241t238.5 -98q140 0 237.5 98t97.5 241z" />
    <glyph glyph-name="trademark" unicode="&#x2122;" horiz-adv-x="877" 
d="M603 265h-11l-183 416v-416h-15v427h27l177 -407l177 407h27v-427h-16v416zM170 265v412h-154v15h324v-15h-154v-412h-16z" />
    <glyph glyph-name="estimated" unicode="&#x212e;" horiz-adv-x="601" 
d="M481 73h21q-73 -85 -202 -85q-106 0 -178 61t-72 167q0 105 72.5 166t178.5 61q105 1 177.5 -59.5t72.5 -164.5v-9h-376q-7 0 -7 -7v-149q0 -11 8 -17q49 -33 124 -33q108 0 181 69zM425 393q-52 35 -125 34q-75 0 -124 -34q-8 -6 -8 -17v-146q0 -7 7 -7h251q7 0 7 7v146
q0 11 -8 17z" />
    <glyph glyph-name="onethird" unicode="&#x2153;" horiz-adv-x="822" 
d="M265 306h-212v11h65v367q-51 -18 -82 -25l-3 12q87 22 169 51h8v-405h55v-11zM569 722l13 -7l-396 -726l-12 7zM601 -7q-55 0 -95 29t-40 69q0 27 15.5 44t37.5 17q18 0 29 -11t11 -28q0 -14 -7.5 -23.5t-16 -13t-16 -10.5t-7.5 -17q0 -20 26 -31.5t56 -11.5
q37 0 60.5 24.5t23.5 78.5q0 103 -66 103q-13 0 -54 -13v12l28 9q41 12 60.5 33t19.5 71q0 83 -70 83q-29 0 -54 -11t-25 -29q0 -10 7.5 -17t16.5 -11t16.5 -14t7.5 -25q0 -16 -12 -27t-30 -11q-21 0 -36 17t-15 44q0 40 39.5 68t97.5 28q62 0 110.5 -22t48.5 -70
q0 -21 -11.5 -38t-25 -27t-38.5 -18.5t-36 -11.5t-32 -7v-1q62 0 110 -27.5t48 -80.5q0 -57 -53 -90t-129 -33z" />
    <glyph glyph-name="twothirds" unicode="&#x2154;" horiz-adv-x="907" 
d="M177 725q69 0 115 -30t46 -85q0 -27 -13.5 -53t-45 -53.5t-52 -42.5t-67.5 -45t-58 -37q7 1 27 1h112q35 0 48 7.5t21 25.5q16 40 33 40v-147h-325v6q126 112 172.5 175.5t46.5 131.5q0 93 -77 93q-44 0 -76 -29.5t-32 -71.5q0 -27 12.5 -46t28.5 -19q10 0 15.5 9.5
t8.5 21t13.5 21t28.5 9.5q17 0 27.5 -11t10.5 -26q0 -25 -20.5 -38.5t-46.5 -13.5q-37 0 -64 25t-27 67q0 49 38 82t100 33zM654 722l13 -7l-396 -726l-12 7zM686 -7q-55 0 -95 29t-40 69q0 27 15.5 44t37.5 17q18 0 29 -11t11 -28q0 -18 -12 -27.5t-23.5 -17t-11.5 -19.5
q0 -20 26 -31.5t56 -11.5q37 0 60.5 24.5t23.5 78.5q0 103 -66 103q-13 0 -54 -13v12l28 9q41 12 60.5 33t19.5 71q0 83 -70 83q-29 0 -54 -11t-25 -29q0 -10 7.5 -17t16.5 -11t16.5 -14t7.5 -25q0 -16 -12 -27t-30 -11q-21 0 -36 17t-15 44q0 40 39.5 68t97.5 28
q62 0 110.5 -22t48.5 -70q0 -21 -11.5 -38t-25 -27t-38.5 -18.5t-36 -11.5t-32 -7v-1q62 0 110 -27.5t48 -80.5q0 -57 -53 -90t-129 -33z" />
    <glyph glyph-name="uni2155" unicode="&#x2155;" horiz-adv-x="811" 
d="M265 306h-212v11h65v367q-51 -18 -82 -25l-3 12q87 22 169 51h8v-405h55v-11zM569 722l13 -7l-396 -726l-12 7zM591 6q78 0 78 122q0 56 -16.5 84.5t-56.5 28.5q-29 0 -51.5 -16t-32.5 -40h-17l30 231h10q11 -14 40.5 -24t60.5 -10q36 0 71 14t47 43l8 -1
q-11 -69 -53 -106.5t-95 -37.5q-49 0 -88 22l-15 -109h1q32 49 101 49q68 0 114.5 -34.5t46.5 -92.5q0 -63 -49.5 -99.5t-121.5 -36.5q-56 0 -91.5 32t-35.5 72q0 26 15.5 42.5t38.5 16.5q17 0 28 -10.5t11 -27.5q0 -14 -7.5 -23t-16 -13t-16 -11.5t-7.5 -17.5
q0 -23 20.5 -35t48.5 -12z" />
    <glyph glyph-name="uni2156" unicode="&#x2156;" horiz-adv-x="896" 
d="M177 725q69 0 115 -30t46 -85q0 -27 -13.5 -53t-45 -53.5t-52 -42.5t-67.5 -45t-58 -37q7 1 27 1h112q35 0 48 7.5t21 25.5q16 40 33 40v-147h-325v6q126 112 172.5 175.5t46.5 131.5q0 93 -77 93q-44 0 -76 -29.5t-32 -71.5q0 -27 12.5 -46t28.5 -19q10 0 15.5 9.5
t8.5 21t13.5 21t28.5 9.5q17 0 27.5 -11t10.5 -26q0 -25 -20.5 -38.5t-46.5 -13.5q-37 0 -64 25t-27 67q0 49 38 82t100 33zM654 722l13 -7l-396 -726l-12 7zM676 6q78 0 78 122q0 56 -16.5 84.5t-56.5 28.5q-29 0 -51.5 -16t-32.5 -40h-17l30 231h10q11 -14 40.5 -24
t60.5 -10q36 0 71 14t47 43l8 -1q-11 -69 -53 -106.5t-95 -37.5q-49 0 -88 22l-15 -109h1q31 49 101 49q68 0 114.5 -34.5t46.5 -92.5q0 -63 -49.5 -99.5t-121.5 -36.5q-56 0 -91.5 32t-35.5 72q0 26 15.5 42.5t38.5 16.5q17 0 28 -10.5t11 -27.5t-12 -27t-23.5 -17.5
t-11.5 -20.5q0 -23 20.5 -35t48.5 -12z" />
    <glyph glyph-name="uni2157" unicode="&#x2157;" horiz-adv-x="877" 
d="M159 299q-55 0 -95 29t-40 69q0 27 15.5 44t37.5 17q18 0 29 -11t11 -28q0 -14 -7.5 -23.5t-16 -13t-16 -10.5t-7.5 -17q0 -20 26 -31.5t56 -11.5q37 0 60.5 24.5t23.5 78.5q0 103 -66 103q-13 0 -54 -13v12l28 9q41 12 60.5 33t19.5 71q0 83 -70 83q-29 0 -54 -11
t-25 -29q0 -10 7.5 -17t16.5 -11t16.5 -14t7.5 -25q0 -16 -12 -27t-30 -11q-21 0 -36 17t-15 44q0 40 39.5 68t97.5 28q62 0 110.5 -22t48.5 -70q0 -21 -11.5 -38t-25 -27t-38.5 -18.5t-36 -11.5t-32 -7v-1q62 0 110 -27.5t48 -80.5q0 -57 -53 -90t-129 -33zM635 722l13 -7
l-396 -726l-12 7zM657 6q78 0 78 122q0 56 -16.5 84.5t-56.5 28.5q-29 0 -51.5 -16t-32.5 -40h-17l30 231h10q11 -14 40.5 -24t60.5 -10q36 0 71 14t47 43l8 -1q-11 -69 -53 -106.5t-95 -37.5q-49 0 -88 22l-15 -109h1q32 49 101 49q68 0 114.5 -34.5t46.5 -92.5
q0 -63 -49.5 -99.5t-121.5 -36.5q-56 0 -91.5 32t-35.5 72q0 26 15.5 42.5t38.5 16.5q17 0 28 -10.5t11 -27.5q0 -14 -7.5 -23t-16 -13t-16 -11.5t-7.5 -17.5q0 -23 20.5 -35t48.5 -12z" />
    <glyph glyph-name="uni2158" unicode="&#x2158;" horiz-adv-x="882" 
d="M276 567v-158h76v-12h-76v-80h59v-11h-214v11h58v80h-164v9q72 58 105.5 117t44.5 147q5 31 14 39.5t37 8.5h27q23 0 31.5 -3t12 -15.5t-9.5 -37.5q-22 -52 -101.5 -129t-147.5 -124h151v69q26 12 53.5 38t35.5 51h8zM640 722l13 -7l-396 -726l-12 7zM662 6q78 0 78 122
q0 56 -16.5 84.5t-56.5 28.5q-29 0 -51.5 -16t-32.5 -40h-17l30 231h10q11 -14 40.5 -24t60.5 -10q36 0 71 14t47 43l8 -1q-11 -69 -53 -106.5t-95 -37.5q-49 0 -88 22l-15 -109h1q31 49 101 49q68 0 114.5 -34.5t46.5 -92.5q0 -63 -49.5 -99.5t-121.5 -36.5q-56 0 -91.5 32
t-35.5 72q0 26 15.5 42.5t38.5 16.5q17 0 28 -10.5t11 -27.5t-12 -27t-23.5 -17.5t-11.5 -20.5q0 -23 20.5 -35t48.5 -12z" />
    <glyph glyph-name="uni2159" unicode="&#x2159;" horiz-adv-x="851" 
d="M265 306h-212v11h65v367q-51 -18 -82 -25l-3 12q87 22 169 51h8v-405h55v-11zM569 722l13 -7l-396 -726l-12 7zM687 419q49 0 80 -25.5t31 -65.5q0 -26 -14.5 -41t-35.5 -15q-19 0 -30.5 10.5t-11.5 27.5q0 14 8 23t17 12t17 9.5t8 17.5q0 16 -18.5 26.5t-43.5 10.5
q-118 0 -110 -229q19 69 86 69q57 0 97 -33.5t40 -94.5q-1 -57 -46 -92.5t-109 -35.5q-73 0 -119 53t-46 144q0 94 60 161.5t140 67.5zM589 119q0 -60 17 -88t43 -28q55 0 55 118q0 114 -54 114q-24 0 -42.5 -28.5t-18.5 -87.5z" />
    <glyph glyph-name="uni215A" unicode="&#x215a;" horiz-adv-x="906" 
d="M149 312q78 0 78 122q0 56 -16.5 84.5t-56.5 28.5q-29 0 -51.5 -16t-32.5 -40h-17l30 231h10q11 -14 40.5 -24t60.5 -10q36 0 71 14t47 43l8 -1q-11 -69 -53 -106.5t-95 -37.5q-49 0 -88 22l-15 -109h1q32 49 101 49q68 0 114.5 -34.5t46.5 -92.5q0 -63 -49.5 -99.5
t-121.5 -36.5q-56 0 -91.5 32t-35.5 72q0 26 15.5 42.5t38.5 16.5q17 0 28 -10.5t11 -27.5q0 -14 -7.5 -23t-16 -13t-16 -11.5t-7.5 -17.5q0 -23 20.5 -35t48.5 -12zM624 722l13 -7l-396 -726l-12 7zM742 419q49 0 80 -25.5t31 -65.5q0 -26 -14.5 -41t-35.5 -15
q-19 0 -30.5 10.5t-11.5 27.5q0 14 8 23t17 12t17 9.5t8 17.5q0 16 -18.5 26.5t-43.5 10.5q-118 0 -110 -229q19 69 86 69q57 0 97 -33.5t40 -94.5q-1 -57 -46 -92.5t-109 -35.5q-73 0 -119 53t-46 144q0 94 60 161.5t140 67.5zM644 119q0 -60 17 -88t43 -28q55 0 55 118
q0 114 -54 114q-24 0 -42.5 -28.5t-18.5 -87.5z" />
    <glyph glyph-name="oneeighth" unicode="&#x215b;" horiz-adv-x="818" 
d="M265 306h-212v11h65v367q-51 -18 -82 -25l-3 12q87 22 169 51h8v-405h55v-11zM569 722l13 -7l-396 -726l-12 7zM475 101q0 32 22 57.5t56 40.5q-63 44 -63 108q0 49 41.5 80.5t101.5 31.5q51 0 87 -22t36 -62q0 -55 -72 -90q51 -25 76 -54.5t25 -72.5q0 -56 -48.5 -90.5
t-117.5 -34.5q-60 0 -102 30t-42 78zM585 182q-14 6 -21 10q-73 -30 -73 -91q0 -44 38 -69.5t90 -25.5q105 0 105 66q0 27 -20 45t-68 41zM547 352q0 -24 20 -42.5t63 -37.5l41 -20q30 12 50 34t20 49q0 35 -31.5 54t-76.5 19q-40 0 -63 -15.5t-23 -40.5z" />
    <glyph glyph-name="threeeighths" unicode="&#x215c;" horiz-adv-x="884" 
d="M159 299q-55 0 -95 29t-40 69q0 27 15.5 44t37.5 17q18 0 29 -11t11 -28q0 -14 -7.5 -23.5t-16 -13t-16 -10.5t-7.5 -17q0 -20 26 -31.5t56 -11.5q37 0 60.5 24.5t23.5 78.5q0 103 -66 103q-13 0 -54 -13v12l28 9q41 12 60.5 33t19.5 71q0 83 -70 83q-29 0 -54 -11
t-25 -29q0 -10 7.5 -17t16.5 -11t16.5 -14t7.5 -25q0 -16 -12 -27t-30 -11q-21 0 -36 17t-15 44q0 40 39.5 68t97.5 28q62 0 110.5 -22t48.5 -70q0 -21 -11.5 -38t-25 -27t-38.5 -18.5t-36 -11.5t-32 -7v-1q62 0 110 -27.5t48 -80.5q0 -57 -53 -90t-129 -33zM635 722l13 -7
l-396 -726l-12 7zM541 101q0 32 22 57.5t56 40.5q-63 44 -63 108q0 49 41.5 80.5t101.5 31.5q51 0 87 -22t36 -62q0 -55 -72 -90q51 -25 76 -54.5t25 -72.5q0 -56 -48.5 -90.5t-117.5 -34.5q-60 0 -102 30t-42 78zM651 182q-14 6 -21 10q-73 -30 -73 -91q0 -44 38 -69.5
t90 -25.5q105 0 105 66q0 27 -20 45t-68 41zM613 352q0 -24 20 -42.5t63 -37.5l41 -20q30 12 50 34t20 49q0 35 -31.5 54t-76.5 19q-40 0 -63 -15.5t-23 -40.5z" />
    <glyph glyph-name="fiveeighths" unicode="&#x215d;" horiz-adv-x="873" 
d="M149 312q78 0 78 122q0 56 -16.5 84.5t-56.5 28.5q-29 0 -51.5 -16t-32.5 -40h-17l30 231h10q11 -14 40.5 -24t60.5 -10q36 0 71 14t47 43l8 -1q-11 -69 -53 -106.5t-95 -37.5q-49 0 -88 22l-15 -109h1q32 49 101 49q68 0 114.5 -34.5t46.5 -92.5q0 -63 -49.5 -99.5
t-121.5 -36.5q-56 0 -91.5 32t-35.5 72q0 26 15.5 42.5t38.5 16.5q17 0 28 -10.5t11 -27.5q0 -14 -7.5 -23t-16 -13t-16 -11.5t-7.5 -17.5q0 -23 20.5 -35t48.5 -12zM624 722l13 -7l-396 -726l-12 7zM530 101q0 32 22 57.5t56 40.5q-63 44 -63 108q0 49 41.5 80.5
t101.5 31.5q51 0 87 -22t36 -62q0 -55 -72 -90q51 -25 76 -54.5t25 -72.5q0 -56 -48.5 -90.5t-117.5 -34.5q-60 0 -102 30t-42 78zM640 182q-14 6 -21 10q-73 -30 -73 -91q0 -44 38 -69.5t90 -25.5q105 0 105 66q0 27 -20 45t-68 41zM602 352q0 -24 20 -42.5t63 -37.5
l41 -20q30 12 50 34t20 49q0 35 -31.5 54t-76.5 19q-40 0 -63 -15.5t-23 -40.5z" />
    <glyph glyph-name="seveneighths" unicode="&#x215e;" horiz-adv-x="857" 
d="M283 651h-148q-37 0 -49.5 -7.5t-19.5 -26.5q-15 -38 -33 -38v140h318v-4q-31 -33 -47 -51t-45.5 -58t-45 -74.5t-28 -84.5t-11.5 -103q0 -22 -9 -33.5t-34 -11.5h-21q-46 0 -40 53q8 72 56 135.5t157 163.5zM608 722l13 -7l-396 -726l-12 7zM514 101q0 32 22 57.5
t56 40.5q-63 44 -63 108q0 49 41.5 80.5t101.5 31.5q51 0 87 -22t36 -62q0 -55 -72 -90q51 -25 76 -54.5t25 -72.5q0 -56 -48.5 -90.5t-117.5 -34.5q-60 0 -102 30t-42 78zM624 182q-14 6 -21 10q-73 -30 -73 -91q0 -44 38 -69.5t90 -25.5q105 0 105 66q0 27 -20 45t-68 41z
M586 352q0 -24 20 -42.5t63 -37.5l41 -20q30 12 50 34t20 49q0 35 -31.5 54t-76.5 19q-40 0 -63 -15.5t-23 -40.5z" />
    <glyph glyph-name="uni215F" unicode="&#x215f;" horiz-adv-x="442" 
d="M265 306h-212v11h65v367q-51 -18 -82 -25l-3 12q87 22 169 51h8v-405h55v-11zM569 722l13 -7l-396 -726l-12 7z" />
    <glyph glyph-name="partialdiff" unicode="&#x2202;" horiz-adv-x="537" 
d="M60 238q0 -97 57 -164.5t154 -67.5q54 0 95.5 23t64 60t33.5 76.5t11 79.5q0 90 -55.5 157.5t-151.5 67.5q-97 0 -152.5 -66.5t-55.5 -165.5zM42 238q0 105 60 176.5t167 71.5q73 0 128 -41.5t78 -112.5l2 1q-13 143 -107.5 237.5t-234.5 133.5l6 17q171 -53 263.5 -163
t92.5 -279q0 -123 -57 -206t-170 -83q-104 0 -166 71t-62 177z" />
    <glyph glyph-name="product" unicode="&#x220f;" horiz-adv-x="632" 
d="M514 -240h-16v936h-364v-936h-16v936h-88v15h572v-15h-88v-936z" />
    <glyph glyph-name="summation" unicode="&#x2211;" horiz-adv-x="624" 
d="M271 355l-225 356h508v-217h-16v203h-464l216 -342l-224 -341h472v203h16v-217h-516z" />
    <glyph glyph-name="minus" unicode="&#x2212;" horiz-adv-x="496" 
d="M35 235h426v-15h-426v15z" />
    <glyph glyph-name="radical" unicode="&#x221a;" horiz-adv-x="691" 
d="M19 378v16h143l134 -418l241 798h150v-15h-139l-251 -831l-147 450h-131z" />
    <glyph glyph-name="infinity" unicode="&#x221e;" horiz-adv-x="751" 
d="M570 379q64 0 105 -41.5t41 -106.5t-41 -105.5t-105 -40.5q-29 0 -54 9t-51 32t-41.5 40.5t-46.5 54.5q-57 -71 -98.5 -104t-98.5 -33q-64 0 -104.5 41t-40.5 106t41.5 106.5t103.5 41.5q41 0 77.5 -20.5t57 -42.5t62.5 -72q54 70 95.5 102.5t97.5 32.5zM182 364
q-57 0 -94 -37.5t-37 -95.5q0 -57 36 -94.5t93 -37.5q51 0 93 33.5t95 99.5q-38 45 -59 67.5t-56 43.5t-71 21zM388 232q32 -38 44 -51.5t38.5 -38t49.5 -33.5t50 -9q59 0 94.5 36.5t35.5 94.5q0 59 -37 96t-95 37q-50 0 -89 -31.5t-90 -97.5l-2 -2z" />
    <glyph glyph-name="integral" unicode="&#x222b;" horiz-adv-x="256" 
d="M136 595v-728q0 -71 -21.5 -94t-79.5 -23h-10v15h11q51 0 67.5 19t16.5 82v728q0 71 21.5 94t78.5 23h11v-15h-11q-52 0 -68 -19t-16 -82z" />
    <glyph glyph-name="approxequal" unicode="&#x2248;" horiz-adv-x="519" 
d="M373 276q76 0 90 80h16q-7 -46 -35 -71t-71 -25q-41 0 -113.5 40t-114.5 40q-73 0 -89 -80h-16q7 45 35 70.5t70 25.5q45 0 118 -40t110 -40zM373 116q76 0 90 80h16q-7 -46 -35 -71t-71 -25q-41 0 -113.5 40t-114.5 40q-73 0 -89 -80h-16q7 45 35 70.5t70 25.5
q45 0 118 -40t110 -40z" />
    <glyph glyph-name="notequal" unicode="&#x2260;" horiz-adv-x="506" 
d="M466 127h-257l-67 -129l-14 7l63 122h-151v15h159l90 172h-249v15h257l67 129l15 -7l-64 -122h151v-15h-159l-90 -172h249v-15z" />
    <glyph glyph-name="lessequal" unicode="&#x2264;" horiz-adv-x="546" 
d="M35 15h476v-15h-476v15zM65 261l446 -186v-17l-475 198v10l475 198v-17z" />
    <glyph glyph-name="greaterequal" unicode="&#x2265;" horiz-adv-x="546" 
d="M511 15v-15h-476v15h476zM481 261l-446 186v17l475 -198v-10l-475 -198v17z" />
    <glyph glyph-name="lozenge" unicode="&#x25ca;" horiz-adv-x="555" 
d="M53 353l221 -388l227 388l-227 389zM35 353l239 419l246 -419l-246 -419z" />
    <glyph glyph-name="uniFB00" unicode="&#xfb00;" horiz-adv-x="657" 
d="M330 701q55 0 88 -28t35 -68q32 54 79.5 84.5t95.5 30.5q57 0 87 -30t30 -72q0 -30 -18 -53t-48 -23q-25 0 -41 15.5t-16 38.5q0 35 38 51q31 14 31 31q0 13 -17.5 21.5t-45.5 8.5q-12 0 -26 -3t-33 -11.5t-33 -23.5t-25.5 -39t-10.5 -58t11 -81l15 -60h130v-13h-128
v-406h100v-13h-291v13h74v406h-190v-406h86v-13h-278v13h75v406h-75v13h75v4q0 116 72.5 190.5t153.5 74.5zM411 447q0 49 12 91q-16 -11 -36 -11q-25 0 -40 13.5t-15 36.5q0 33 38 51q29 12 29 30q0 14 -20.5 22.5t-48.5 8.5q-25 0 -51 -9.5t-52.5 -33.5t-32.5 -64.5
t10 -102.5l15 -47h192v15z" />
    <glyph glyph-name="fi" unicode="&#xfb01;" horiz-adv-x="620" 
d="M603 0h-262v13h70v406h-190v-406h86v-13h-278v13h75v406h-75v13h75v15q0 117 66.5 195t148.5 78q71 0 118 -32q16 7 31 7q30 0 51 -21t21 -51t-21 -50.5t-51 -20.5t-50.5 20.5t-20.5 50.5v4q-1 41 -24.5 61t-56.5 20q-25 0 -49.5 -10.5t-47.5 -36t-27 -67t11 -103.5
l16 -59h309v-419h75v-13z" />
    <glyph glyph-name="fl" unicode="&#xfb02;" horiz-adv-x="621" 
d="M603 0h-265v13h73v585v9v6q-3 95 -92 95q-24 0 -47.5 -9t-47.5 -33t-29 -66t9 -108l15 -60h130v-13h-128v-406h86v-13h-278v13h75v406h-75v13h75v15q0 119 67.5 196t150.5 77q78 0 133 -39l73 30v-698h75v-13z" />
    <glyph glyph-name="uniFB03" unicode="&#xfb03;" horiz-adv-x="925" 
d="M330 701q54 0 87 -28t36 -67q31 53 77.5 83.5t95.5 30.5q69 0 116 -32q13 7 30 7q31 0 52 -21t21 -51t-21 -50.5t-52 -20.5q-30 0 -50.5 20t-20.5 50v1v4q-1 42 -23 61.5t-55 19.5q-25 0 -49.5 -10.5t-47.5 -36t-27 -67t11 -103.5l16 -59h306v-419h76v-13h-262v13h70v406
h-188v-406h86v-13h-277v13h74v406h-190v-406h86v-13h-278v13h75v406h-75v13h75v4q0 116 72.5 190.5t153.5 74.5zM411 447q0 45 13 91q-16 -11 -37 -11q-25 0 -40 13.5t-15 36.5q0 33 38 51q29 12 29 30q0 14 -20.5 22.5t-48.5 8.5q-25 0 -51 -9.5t-52.5 -33.5t-32.5 -64.5
t10 -102.5l15 -47h192v15z" />
    <glyph glyph-name="uniFB04" unicode="&#xfb04;" horiz-adv-x="928" 
d="M330 701q54 0 87 -28t36 -67q31 53 78.5 83.5t96.5 30.5q79 0 134 -39l73 30v-698h75v-13h-265v13h73v585v9v6q-3 95 -92 95q-24 0 -47.5 -9t-47.5 -33t-29 -66t9 -108l15 -60h130v-13h-128v-406h86v-13h-277v13h74v406h-190v-406h86v-13h-278v13h75v406h-75v13h75v4
q0 116 72.5 190.5t153.5 74.5zM411 447q0 49 12 91q-16 -11 -36 -11q-25 0 -40 13.5t-15 36.5q0 33 38 51q29 12 29 30q0 14 -20.5 22.5t-48.5 8.5q-25 0 -51 -9.5t-52.5 -33.5t-32.5 -64.5t10 -102.5l15 -47h192v15z" />
    <glyph glyph-name="CR" horiz-adv-x="194" 
 />
    <glyph glyph-name="apple" horiz-adv-x="555" 
d="M395 410l-117 -194l210 86q17 -42 17 -86q0 -94 -66.5 -160.5t-160.5 -66.5t-161 66.5t-67 160.5t67 160.5t161 66.5q64 0 117 -33z" />
    <glyph glyph-name="dot" horiz-adv-x="500" 
d="M322 631q0 -30 -21 -50.5t-51 -20.5t-50.5 20.5t-20.5 50.5t20.5 51t50.5 21t51 -21t21 -51z" />
    <glyph glyph-name="dotaccent.low" horiz-adv-x="243" 
d="M180 -154q0 -25 -17 -42t-42 -17q-24 0 -41 17t-17 42t17 41.5t41 16.5q25 0 42 -16.5t17 -41.5z" />
    <glyph glyph-name="commaaccent" horiz-adv-x="173" 
d="M22 -147q0 22 16.5 36.5t40.5 14.5q34 0 51.5 -24.5t17.5 -59.5q0 -94 -87 -153l-7 9q74 54 74 120q0 22 -18 22q-6 0 -18 -8t-25 -8q-20 0 -32.5 14.5t-12.5 36.5z" />
    <glyph glyph-name="one.numerator" horiz-adv-x="314" 
d="M265 306h-212v11h65v367q-51 -18 -82 -25l-3 12q87 22 169 51h8v-405h55v-11z" />
    <glyph glyph-name="two.numerator" horiz-adv-x="399" 
d="M177 725q69 0 115 -30t46 -85q0 -27 -13.5 -53t-45 -53.5t-52 -42.5t-67.5 -45t-58 -37q7 1 27 1h112q35 0 48 7.5t21 25.5q16 40 33 40v-147h-325v6q126 112 172.5 175.5t46.5 131.5q0 93 -77 93q-44 0 -76 -29.5t-32 -71.5q0 -27 12.5 -46t28.5 -19q10 0 15.5 9.5
t8.5 21t13.5 21t28.5 9.5q17 0 27.5 -11t10.5 -26q0 -25 -20.5 -38.5t-46.5 -13.5q-37 0 -64 25t-27 67q0 49 38 82t100 33z" />
    <glyph glyph-name="three.numerator" horiz-adv-x="380" 
d="M159 299q-55 0 -95 29t-40 69q0 27 15.5 44t37.5 17q18 0 29 -11t11 -28q0 -14 -7.5 -23.5t-16 -13t-16 -10.5t-7.5 -17q0 -20 26 -31.5t56 -11.5q37 0 60.5 24.5t23.5 78.5q0 103 -66 103q-13 0 -54 -13v12l28 9q41 12 60.5 33t19.5 71q0 83 -70 83q-29 0 -54 -11
t-25 -29q0 -10 7.5 -17t16.5 -11t16.5 -14t7.5 -25q0 -16 -12 -27t-30 -11q-21 0 -36 17t-15 44q0 40 39.5 68t97.5 28q62 0 110.5 -22t48.5 -70q0 -21 -11.5 -38t-25 -27t-38.5 -18.5t-36 -11.5t-32 -7v-1q62 0 110 -27.5t48 -80.5q0 -57 -53 -90t-129 -33z" />
    <glyph glyph-name="four.numerator" horiz-adv-x="385" 
d="M276 567v-158h76v-12h-76v-80h59v-11h-214v11h58v80h-164v9q72 58 105.5 117t44.5 147q5 31 14 39.5t37 8.5h27q23 0 31.5 -3t12 -15.5t-9.5 -37.5q-22 -52 -101.5 -129t-147.5 -124h151v69q26 12 53.5 38t35.5 51h8z" />
    <glyph glyph-name="five.numerator" horiz-adv-x="369" 
d="M149 312q78 0 78 122q0 56 -16.5 84.5t-56.5 28.5q-29 0 -51.5 -16t-32.5 -40h-17l30 231h10q11 -14 40.5 -24t60.5 -10q36 0 71 14t47 43l8 -1q-11 -69 -53 -106.5t-95 -37.5q-49 0 -88 22l-15 -109h1q32 49 101 49q68 0 114.5 -34.5t46.5 -92.5q0 -63 -49.5 -99.5
t-121.5 -36.5q-56 0 -91.5 32t-35.5 72q0 26 15.5 42.5t38.5 16.5q17 0 28 -10.5t11 -27.5q0 -14 -7.5 -23t-16 -13t-16 -11.5t-7.5 -17.5q0 -23 20.5 -35t48.5 -12z" />
    <glyph glyph-name="six.numerator" horiz-adv-x="409" 
d="M245 725q49 0 80 -25.5t31 -65.5q0 -26 -14.5 -41t-35.5 -15q-19 0 -30.5 10.5t-11.5 27.5q0 14 8 23t17 12t17 9.5t8 17.5q0 16 -18.5 26.5t-43.5 10.5q-118 0 -110 -229q19 69 86 69q57 0 97 -33.5t40 -94.5q-1 -57 -46 -92.5t-109 -35.5q-73 0 -119 53t-46 144
q0 94 60 161.5t140 67.5zM147 425q0 -60 17 -88t43 -28q55 0 55 118q0 114 -54 114q-24 0 -42.5 -28.5t-18.5 -87.5z" />
    <glyph glyph-name="seven.numerator" horiz-adv-x="353" 
d="M283 651h-148q-37 0 -49.5 -7.5t-19.5 -26.5q-15 -38 -33 -38v140h318v-4q-31 -33 -47 -51t-45.5 -58t-45 -74.5t-28 -84.5t-11.5 -103q0 -22 -9 -33.5t-34 -11.5h-21q-46 0 -40 53q8 72 56 135.5t157 163.5z" />
    <glyph glyph-name="eight.numerator" horiz-adv-x="376" 
d="M33 407q0 32 22 57.5t56 40.5q-63 43 -63 108q0 49 41.5 80.5t101.5 31.5q51 0 87 -22t36 -62q0 -55 -72 -90q51 -25 76 -54.5t25 -72.5q0 -56 -48.5 -90.5t-117.5 -34.5q-60 0 -102 30t-42 78zM143 488q-14 6 -21 10q-73 -30 -73 -91q0 -44 38 -69.5t90 -25.5
q105 0 105 66q0 27 -20 45t-68 41zM105 658q0 -24 20 -42.5t63 -37.5l41 -20q30 12 50 34t20 49q0 35 -31.5 54t-76.5 19q-40 0 -63 -15.5t-23 -40.5z" />
    <glyph glyph-name="nine.numerator" horiz-adv-x="396" 
d="M154 299q-49 0 -79.5 25.5t-30.5 65.5q0 26 14.5 41t35.5 15q19 0 30.5 -10.5t11.5 -27.5q0 -14 -8 -23t-17 -12t-17 -9.5t-8 -17.5q0 -16 18.5 -26.5t43.5 -10.5q118 0 110 229h-1q-18 -69 -85 -69q-57 0 -97 33.5t-40 94.5q1 57 46 92.5t109 35.5q73 0 119 -53t46 -144
q0 -94 -60 -161.5t-141 -67.5zM252 599q1 59 -16 87.5t-43 28.5q-55 0 -55 -118q0 -114 54 -114q24 0 42 28.5t18 87.5z" />
    <glyph glyph-name="zero.numerator" horiz-adv-x="426" 
d="M45 512q0 98 49.5 155.5t118.5 57.5t118.5 -57.5t49.5 -155.5q0 -97 -50 -155t-118 -58q-69 0 -118.5 57.5t-49.5 155.5zM149 512q0 -116 15 -160t49 -44t49 44t15 160t-15 160t-49 44t-49 -43.5t-15 -160.5z" />
    <glyph glyph-name="one.denominator" horiz-adv-x="314" 
d="M265 0h-212v11h65v367q-51 -18 -82 -25l-3 12q87 22 169 51h8v-405h55v-11z" />
    <glyph glyph-name="two.denominator" horiz-adv-x="399" 
d="M177 419q69 0 115 -30t46 -85q0 -27 -13.5 -53t-45 -53.5t-52 -42.5t-67.5 -45t-58 -37q7 1 27 1h112q35 0 48 7.5t21 25.5q16 40 33 40v-147h-325v6q126 112 172.5 175.5t46.5 131.5q0 93 -77 93q-44 0 -76 -29.5t-32 -71.5q0 -27 12.5 -46t28.5 -19q10 0 15.5 9.5
t8.5 21t13.5 21t28.5 9.5q17 0 27.5 -11t10.5 -26q0 -25 -20.5 -38.5t-46.5 -13.5q-37 0 -64 25t-27 67q0 49 38 82t100 33z" />
    <glyph glyph-name="three.denominator" horiz-adv-x="380" 
d="M159 -7q-55 0 -95 29t-40 69q0 27 15.5 44t37.5 17q18 0 29 -11t11 -28q0 -14 -7.5 -23.5t-16 -13t-16 -10.5t-7.5 -17q0 -20 26 -31.5t56 -11.5q37 0 60.5 24.5t23.5 78.5q0 103 -66 103q-13 0 -54 -13v12l28 9q41 12 60.5 33t19.5 71q0 83 -70 83q-29 0 -54 -11
t-25 -29q0 -10 7.5 -17t16.5 -11t16.5 -14t7.5 -25q0 -16 -12 -27t-30 -11q-21 0 -36 17t-15 44q0 40 39.5 68t97.5 28q62 0 110.5 -22t48.5 -70q0 -21 -11.5 -38t-25 -27t-38.5 -18.5t-36 -11.5t-32 -7v-1q62 0 110 -27.5t48 -80.5q0 -57 -53 -90t-129 -33z" />
    <glyph glyph-name="four.denominator" horiz-adv-x="385" 
d="M276 261v-158h76v-12h-76v-80h59v-11h-214v11h58v80h-164v9q72 58 105.5 117t44.5 147q5 31 14 39.5t37 8.5h27q23 0 31.5 -3t12 -15.5t-9.5 -37.5q-22 -52 -101.5 -129t-147.5 -124h151v69q26 12 53.5 38t35.5 51h8z" />
    <glyph glyph-name="five.denominator" horiz-adv-x="369" 
d="M149 6q78 0 78 122q0 56 -16.5 84.5t-56.5 28.5q-29 0 -51.5 -16t-32.5 -40h-17l30 231h10q11 -14 40.5 -24t60.5 -10q36 0 71 14t47 43l8 -1q-11 -69 -53 -106.5t-95 -37.5q-49 0 -88 22l-15 -109h1q32 49 101 49q68 0 114.5 -34.5t46.5 -92.5q0 -63 -49.5 -99.5
t-121.5 -36.5q-56 0 -91.5 32t-35.5 72q0 26 15.5 42.5t38.5 16.5q17 0 28 -10.5t11 -27.5q0 -14 -7.5 -23t-16 -13t-16 -11.5t-7.5 -17.5q0 -23 20.5 -35t48.5 -12z" />
    <glyph glyph-name="six.denominator" horiz-adv-x="409" 
d="M245 419q49 0 80 -25.5t31 -65.5q0 -26 -14.5 -41t-35.5 -15q-19 0 -30.5 10.5t-11.5 27.5q0 14 8 23t17 12t17 9.5t8 17.5q0 16 -18.5 26.5t-43.5 10.5q-118 0 -110 -229q19 69 86 69q57 0 97 -33.5t40 -94.5q-1 -57 -46 -92.5t-109 -35.5q-73 0 -119 53t-46 144
q0 94 60 161.5t140 67.5zM147 119q0 -60 17 -88t43 -28q55 0 55 118q0 114 -54 114q-24 0 -42.5 -28.5t-18.5 -87.5z" />
    <glyph glyph-name="seven.denominator" horiz-adv-x="353" 
d="M283 345h-148q-37 0 -49.5 -7.5t-19.5 -26.5q-15 -38 -33 -38v140h318v-4q-31 -33 -47 -51t-45.5 -58t-45 -74.5t-28 -84.5t-11.5 -103q0 -22 -9 -33.5t-34 -11.5h-21q-46 0 -40 53q8 72 56 135.5t157 163.5z" />
    <glyph glyph-name="eight.denominator" horiz-adv-x="376" 
d="M33 101q0 32 22 57.5t56 40.5q-63 43 -63 108q0 49 41.5 80.5t101.5 31.5q51 0 87 -22t36 -62q0 -55 -72 -90q51 -25 76 -54.5t25 -72.5q0 -56 -48.5 -90.5t-117.5 -34.5q-60 0 -102 30t-42 78zM143 182q-14 6 -21 10q-73 -30 -73 -91q0 -44 38 -69.5t90 -25.5
q105 0 105 66q0 27 -20 45t-68 41zM105 352q0 -24 20 -42.5t63 -37.5l41 -20q30 12 50 34t20 49q0 35 -31.5 54t-76.5 19q-40 0 -63 -15.5t-23 -40.5z" />
    <glyph glyph-name="nine.denominator" horiz-adv-x="396" 
d="M154 -7q-49 0 -79.5 25.5t-30.5 65.5q0 26 14.5 41t35.5 15q19 0 30.5 -10.5t11.5 -27.5q0 -14 -8 -23t-17 -12t-17 -9.5t-8 -17.5q0 -16 18.5 -26.5t43.5 -10.5q118 0 110 229h-1q-18 -69 -85 -69q-57 0 -97 33.5t-40 94.5q1 57 46 92.5t109 35.5q73 0 119 -53t46 -144
q0 -94 -60 -161.5t-141 -67.5zM252 293q1 59 -16 87.5t-43 28.5q-55 0 -55 -118q0 -114 54 -114q24 0 42 28.5t18 87.5z" />
    <glyph glyph-name="zero.denominator" horiz-adv-x="426" 
d="M45 206q0 98 49.5 155.5t118.5 57.5t118.5 -57.5t49.5 -155.5q0 -97 -50 -155t-118 -58q-69 0 -118.5 57.5t-49.5 155.5zM149 206q0 -116 15 -160t49 -44t49 44t15 160t-15 160t-49 44t-49 -43.5t-15 -160.5z" />
    <glyph glyph-name="hyphen.case" horiz-adv-x="335" 
d="M283 299h-231v70h231v-70z" />
    <glyph glyph-name="endash.case" horiz-adv-x="489" 
d="M454 330h-419v15h419v-15z" />
    <glyph glyph-name="emdash.case" horiz-adv-x="638" 
d="M603 330h-568v15h568v-15z" />
    <glyph glyph-name="question.case" horiz-adv-x="536" 
d="M372 556q0 62 -38 97t-101 35q-75 0 -128.5 -41.5t-53.5 -104.5q0 -39 18 -67t43 -28q12 0 20.5 16.5t21.5 33.5t37 17q22 0 36 -12.5t14 -34.5q0 -30 -22.5 -46.5t-54.5 -16.5q-54 0 -91 39t-37 99q0 69 59 115t151 46q104 0 176 -41t72 -104q0 -43 -25 -75.5t-60.5 -55
t-71.5 -47.5t-61 -67.5t-25 -100.5v-20h-14v35q0 53 14 95t33.5 68.5t39.5 49.5t34 52t14 64zM326 70q0 -34 -22.5 -57t-54.5 -23q-34 0 -57 23t-23 55q0 34 22.5 57t54.5 23q34 0 57 -23t23 -55z" />
    <glyph glyph-name="questiondown.case" horiz-adv-x="536" 
d="M165 137q0 -62 38 -97t101 -35q75 0 128.5 41.5t53.5 104.5q0 39 -18.5 67t-43.5 28q-9 0 -16.5 -10.5t-13 -23t-18 -23t-31.5 -10.5q-22 0 -36 12.5t-14 34.5q0 30 23 46.5t55 16.5q54 0 90.5 -39t36.5 -99q0 -69 -58.5 -115t-151.5 -46q-104 0 -176 41t-72 104
q0 43 25 75.5t60.5 55t71.5 47.5t61 67.5t25 100.5v1h14v-16q0 -53 -14 -95t-33.5 -68.5t-39 -49.5t-33.5 -52t-14 -64zM367 626q0 -34 -22.5 -57t-54.5 -23q-34 0 -57 23t-23 55q0 34 22.5 57t54.5 23q34 0 57 -23t23 -55z" />
    <glyph glyph-name="exclam.case" horiz-adv-x="357" 
d="M251 645q0 -63 -10.5 -113t-23 -81.5t-23 -98.5t-10.5 -160h-13q0 93 -10.5 160.5t-23 99t-23 81.5t-10.5 112q0 54 73 54q74 0 74 -54zM257 70q0 -34 -22.5 -57t-54.5 -23q-34 0 -57 23t-23 55q0 34 22.5 57t54.5 23q34 0 57 -23t23 -55z" />
    <glyph glyph-name="exclamdown.case" horiz-adv-x="358" 
d="M253 53q0 -35 -20 -47.5t-54 -12.5q-73 0 -73 59q0 58 10.5 104t23 74.5t23 94t10.5 158.5h13q0 -93 10.5 -158.5t23 -94t23 -74t10.5 -103.5zM257 626q0 -34 -22.5 -57t-54.5 -23q-34 0 -57 23t-23 55q0 34 22.5 57t54.5 23q34 0 57 -23t23 -55z" />
    <glyph glyph-name="guilsinglleft.case" horiz-adv-x="258" 
d="M40 331q0 60 29 104.5t69 65.5l7 -13q-36 -19 -60 -56t-24 -74q0 -40 67 -47q76 -8 76 -71q0 -24 -16.5 -41t-44.5 -17q-48 0 -75.5 46t-27.5 103z" />
    <glyph glyph-name="guilsinglright.case" horiz-adv-x="258" 
d="M218 349q0 -60 -29 -104.5t-69 -65.5l-7 13q37 19 60.5 56.5t23.5 74.5q0 39 -67 46q-76 8 -76 71q0 24 17 41.5t44 17.5q48 0 75.5 -46.5t27.5 -103.5z" />
    <glyph glyph-name="guillemotleft.case" horiz-adv-x="450" 
d="M232 331q0 60 29 104.5t69 65.5l7 -13q-36 -19 -60 -56t-24 -74q0 -40 67 -47q76 -8 76 -71q0 -24 -16.5 -41t-44.5 -17q-48 0 -75.5 46t-27.5 103zM40 331q0 60 29 104.5t69 65.5l7 -13q-36 -19 -60 -56t-24 -74q0 -40 67 -47q76 -8 76 -71q0 -24 -16.5 -41t-44.5 -17
q-48 0 -75.5 46t-27.5 103z" />
    <glyph glyph-name="guillemotright.case" horiz-adv-x="450" 
d="M410 349q0 -60 -29 -104.5t-69 -65.5l-7 13q37 19 60.5 56.5t23.5 74.5q0 39 -67 46q-76 8 -76 71q0 24 17 41.5t44 17.5q48 0 75.5 -46.5t27.5 -103.5zM218 349q0 -60 -29 -104.5t-69 -65.5l-7 13q37 19 60.5 56.5t23.5 74.5q0 39 -67 46q-76 8 -76 71q0 24 17 41.5
t44 17.5q48 0 75.5 -46.5t27.5 -103.5z" />
    <glyph glyph-name="parenleft.case" horiz-adv-x="212" 
d="M40 347q0 185 108 356l14 -9q-63 -102 -83.5 -182.5t-20.5 -164.5t20.5 -165t83.5 -183l-14 -9q-108 171 -108 357z" />
    <glyph glyph-name="parenright.case" horiz-adv-x="212" 
d="M172 345q0 -185 -108 -356l-14 9q63 102 83.5 182.5t20.5 164.5t-20.5 165.5t-83.5 183.5l14 9q108 -171 108 -358z" />
    <glyph glyph-name="bracketleft.case" horiz-adv-x="244" 
d="M214 0h-114v692h114v-13h-96v-666h96v-13z" />
    <glyph glyph-name="bracketright.case" horiz-adv-x="244" 
d="M144 0h-114v13h96v666h-96v13h114v-692z" />
    <glyph glyph-name="braceleft.case" horiz-adv-x="253" 
d="M53 348v-1q39 -11 53.5 -39t14.5 -91v-83q0 -70 17.5 -95.5t67.5 -25.5h17v-13h-15q-59 0 -82 26t-23 102v94q0 55 -13.5 81.5t-59.5 37.5v13q45 10 59 37t14 82v91q0 76 23 102t82 26h15v-13h-17q-50 0 -67.5 -25.5t-17.5 -95.5v-80q0 -63 -14.5 -91t-53.5 -39z" />
    <glyph glyph-name="braceright.case" horiz-adv-x="253" 
d="M200 343v1q-39 11 -53.5 39.5t-14.5 91.5v83q0 70 -17.5 95.5t-67.5 25.5h-17v13h15q59 0 82 -26t23 -102v-95q0 -55 13.5 -81.5t59.5 -37.5v-13q-45 -10 -59 -37t-14 -82v-91q0 -76 -23 -102t-82 -26h-15v13h17q50 0 67.5 25.5t17.5 95.5v80q0 63 14.5 91t53.5 39z" />
    <glyph glyph-name="bar.case" horiz-adv-x="237" 
d="M127 0h-17v692h17v-692z" />
    <glyph glyph-name="brokenbar.case" horiz-adv-x="236" 
d="M126 423h-16v269h16v-269zM126 0h-16v270h16v-270z" />
    <glyph glyph-name="periodcentered.case" horiz-adv-x="257" 
d="M207 337q0 -34 -22.5 -57t-54.5 -23q-34 0 -57 23t-23 55q0 34 22.5 57t54.5 23q34 0 57 -23t23 -55z" />
    <glyph glyph-name="plus.case" horiz-adv-x="546" 
d="M511 330h-230v-230h-16v230h-230v15h230v230h16v-230h230v-15z" />
    <glyph glyph-name="minus.case" horiz-adv-x="496" 
d="M35 345h426v-15h-426v15z" />
    <glyph glyph-name="divide.case" horiz-adv-x="496" 
d="M316 496q0 -29 -19.5 -49t-47.5 -20q-29 0 -49 19.5t-20 48.5t19.5 48.5t48.5 19.5t48.5 -19t19.5 -48zM317 182q0 -29 -19.5 -49t-48.5 -20t-49 19.5t-20 47.5q0 29 20 49t48 20q29 0 49 -19.5t20 -47.5zM35 345h426v-15h-426v15z" />
    <glyph glyph-name="multiply.case" horiz-adv-x="438" 
d="M56 159l-11 10l163 164l-162 162l11 12l163 -163l162 163l11 -11l-163 -163l163 -162l-11 -12l-163 163z" />
    <glyph glyph-name="equal.case" horiz-adv-x="506" 
d="M466 424h-426v15h426v-15zM466 237h-426v15h426v-15z" />
    <glyph glyph-name="plusminus.case" horiz-adv-x="506" 
d="M466 362h-205v-165h-16v165h-205v15h205v165h16v-165h205v-15zM40 125h426v-15h-426v15z" />
    <glyph glyph-name="less.case" horiz-adv-x="558" 
d="M523 98l-517 233v10l517 233v-18l-492 -220l492 -220v-18z" />
    <glyph glyph-name="greater.case" horiz-adv-x="558" 
d="M35 98v18l491 220l-491 220v18l517 -233v-10z" />
    <glyph glyph-name="lessequal.case" horiz-adv-x="546" 
d="M35 125h476v-15h-476v15zM65 371l446 -186v-17l-475 198v10l475 198v-17z" />
    <glyph glyph-name="greaterequal.case" horiz-adv-x="546" 
d="M511 125v-15h-476v15h476zM481 371l-446 186v17l475 -198v-10l-475 -198v17z" />
    <glyph glyph-name="notequal.case" horiz-adv-x="506" 
d="M466 237h-257l-67 -129l-14 7l63 122h-151v15h159l90 172h-249v15h257l67 129l15 -7l-64 -122h151v-15h-159l-90 -172h249v-15z" />
    <glyph glyph-name="acute.case" horiz-adv-x="248" 
d="M28 743h-8l95 139h147v-5z" />
    <glyph glyph-name="breve.case" horiz-adv-x="276" 
d="M136 798q97 0 107 84h10q-2 -62 -31 -100.5t-86 -38.5q-58 0 -87 38.5t-31 100.5h10q6 -47 33.5 -65.5t74.5 -18.5z" />
    <glyph glyph-name="caron.case" horiz-adv-x="309" 
d="M158 743h-8q-13 42 -52 81t-79 58l2 5q91 -11 133 -50q43 39 134 50l2 -5q-40 -19 -79 -58t-53 -81z" />
    <glyph glyph-name="cedilla.case" horiz-adv-x="252" 
d="M239 -165q0 -39 -35 -63.5t-80 -24.5q-30 0 -54.5 17t-33.5 48l13 5q16 -57 71 -57q29 0 45 19t16 54q0 36 -14.5 53t-36.5 17q-28 0 -52 -24l-11 10l61 111h15l-53 -99l1 -1q21 16 52 16q35 0 65.5 -21t30.5 -60z" />
    <glyph glyph-name="circumflex.case" horiz-adv-x="309" 
d="M150 887h8q14 -42 53 -81t79 -58l-2 -5q-91 11 -134 50q-42 -39 -133 -50l-2 5q40 19 79 58t52 81z" />
    <glyph glyph-name="dieresis.case" horiz-adv-x="356" 
d="M341 815q0 -25 -16.5 -42t-41.5 -17t-41.5 17t-16.5 42t16.5 41.5t41.5 16.5t41.5 -16.5t16.5 -41.5zM131 815q0 -25 -16.5 -42t-41.5 -17t-41.5 17t-16.5 42t16.5 41.5t41.5 16.5t41.5 -16.5t16.5 -41.5z" />
    <glyph glyph-name="dotaccent.case" horiz-adv-x="154" 
d="M135 821q0 -25 -16.5 -42t-41.5 -17t-41.5 17t-16.5 42t16.5 41.5t41.5 16.5t41.5 -16.5t16.5 -41.5z" />
    <glyph glyph-name="grave.case" horiz-adv-x="242" 
d="M228 743h-9l-233 134v5h147z" />
    <glyph glyph-name="hungarumlaut.case" horiz-adv-x="417" 
d="M28 743h-8l95 139h147v-5zM206 743h-8l94 139h147v-5z" />
    <glyph glyph-name="macron.case" horiz-adv-x="284" 
d="M265 787h-250v51h250v-51z" />
    <glyph glyph-name="ogonek.case" horiz-adv-x="227" 
d="M37 -125q0 36 40 65t111 60h12q-56 -33 -74.5 -60t-18.5 -61q0 -27 11.5 -41t30.5 -14q27 0 54 21l5 -8q-37 -31 -84 -31q-37 0 -62 19t-25 50z" />
    <glyph glyph-name="ring.case" horiz-adv-x="188" 
d="M94 755q26 0 46.5 17.5t20.5 51.5q0 35 -20.5 53t-46.5 18q-27 0 -47.5 -18t-20.5 -53q0 -34 20.5 -51.5t47.5 -17.5zM94 910q35 0 59.5 -24.5t24.5 -61.5q0 -36 -24 -59.5t-60 -23.5t-60 23.5t-24 59.5q0 37 24.5 61.5t59.5 24.5z" />
    <glyph glyph-name="tilde.case" horiz-adv-x="334" 
d="M23 741h-11q0 55 21 98.5t67 43.5q29 0 81.5 -36.5t74.5 -36.5q50 0 53 70h11q-1 -137 -79 -137q-35 0 -85.5 36.5t-76.5 36.5q-51 0 -56 -75z" />
    </font>
</defs>
</svg>
