<?xml version="1.0" standalone="no"?>
<!DOCTYPE svg PUBLIC "-//W3C//DTD SVG 1.1//EN" "http://www.w3.org/Graphics/SVG/1.1/DTD/svg11.dtd" >
<svg xmlns="http://www.w3.org/2000/svg" xmlns:xlink="http://www.w3.org/1999/xlink" version="1.1">
<metadata>
Created by FontForge 20170731 at Thu May 11 09:49:14 2017
 By Aleksey,,,
Copyright (c) 2017 Swiss Typefaces Sarl. All rights reserved.
</metadata>
<defs>
<font id="NewParisSkyline-Regular" horiz-adv-x="530" >
  <font-face 
    font-family="NewParis Skyline"
    font-weight="400"
    font-stretch="normal"
    units-per-em="1000"
    panose-1="2 11 5 4 0 0 0 0 0 0"
    ascent="729"
    descent="-271"
    x-height="430"
    cap-height="692"
    bbox="-191 -265 1245 960"
    underline-thickness="62"
    underline-position="-244"
    unicode-range="U+0020-FEFF"
  />
<missing-glyph horiz-adv-x="672" 
d="M86 725h500v-725h-500v725zM120 706l216 -328l216 328h-432zM105 696v-667l221 334zM347 363l220 -334v667zM120 19h432l-216 328z" />
    <glyph glyph-name=".notdef" horiz-adv-x="672" 
d="M86 725h500v-725h-500v725zM120 706l216 -328l216 328h-432zM105 696v-667l221 334zM347 363l220 -334v667zM120 19h432l-216 328z" />
    <glyph glyph-name=".null" horiz-adv-x="0" 
 />
    <glyph glyph-name="nonmarkingreturn" horiz-adv-x="333" 
 />
    <glyph glyph-name="space" unicode=" " horiz-adv-x="236" 
 />
    <glyph glyph-name="exclam" unicode="!" horiz-adv-x="251" 
d="M144 218h-38l-22 278v196h83v-196zM71 0v110h110v-110h-110z" />
    <glyph glyph-name="quotedbl" unicode="&#x22;" horiz-adv-x="353" 
d="M212 692h88l-20 -249h-48zM53 692h88l-20 -249h-48z" />
    <glyph glyph-name="numbersign" unicode="#" horiz-adv-x="664" 
d="M360 0l29 212h-149l-29 -212h-70l29 212h-135l10 67h134l23 166h-136l10 68h135l25 179h71l-25 -179h149l25 179h70l-25 -179h128l-9 -68h-128l-23 -166h129l-10 -67h-128l-29 -212h-71zM250 279h149l23 166h-149z" />
    <glyph glyph-name="dollar" unicode="$" horiz-adv-x="505" 
d="M468 167q0 -67 -45.5 -116.5t-127.5 -60.5v-101h-77v102q-85 12 -133 72.5t-51 123.5h86q3 -53 39 -93t98 -40q66 0 99.5 31.5t33.5 82.5q0 87 -122 139l-57 24q-157 66 -157 195q0 72 43.5 119.5t120.5 55.5v111h77v-113q133 -25 157 -178h-84q-9 58 -42 87t-80 29
q-49 0 -81.5 -29.5t-32.5 -80.5q0 -78 103 -121l66 -28q75 -32 121 -86.5t46 -124.5z" />
    <glyph glyph-name="percent" unicode="%" horiz-adv-x="879" 
d="M377 506q0 -87 -49 -142t-123 -55t-123 55t-49 142t49 142t123 55t123 -55t49 -142zM167 0l469 692h76l-469 -692h-76zM106 506q0 -64 26 -99t73 -35t73 35t26 99t-26 99t-73 35t-73 -35t-26 -99zM845 185q0 -87 -49 -142t-123 -55t-123 55t-49 142t49 142t123 55
t123 -55t49 -142zM574 185q0 -64 26 -99t73 -35t73 35t26 99t-26 99t-73 35t-73 -35t-26 -99z" />
    <glyph glyph-name="ampersand" unicode="&#x26;" horiz-adv-x="580" 
d="M570 68v-103l-131 152q-30 -65 -80 -97t-112 -32q-96 0 -151.5 56t-55.5 140q0 62 40 122t108 102q-70 87 -70 152q0 61 48.5 102t122.5 41q68 0 117.5 -43.5t49.5 -117.5h-77q0 45 -27.5 70t-67.5 25q-39 0 -65 -20.5t-26 -58.5q0 -10 2.5 -21.5t5 -19.5t10 -20.5
t10.5 -18.5t14 -19.5t14 -17t16 -19t15 -17.5zM118 188q0 -57 37.5 -95.5t96.5 -38.5q45 0 88 24t71 71l-180 209l-2 2q-111 -79 -111 -172z" />
    <glyph glyph-name="quotesingle" unicode="'" horiz-adv-x="194" 
d="M53 692h88l-20 -249h-48z" />
    <glyph glyph-name="parenleft" unicode="(" horiz-adv-x="279" 
d="M43 240q0 139 47 263.5t111 207.5h63q-146 -217 -146 -471q0 -253 146 -470h-63q-64 82 -111 207t-47 263z" />
    <glyph glyph-name="parenright" unicode=")" horiz-adv-x="279" 
d="M78 711q64 -83 111 -207.5t47 -263.5q0 -138 -47 -263t-111 -207h-63q146 217 146 470q0 254 -146 471h63z" />
    <glyph glyph-name="asterisk" unicode="*" horiz-adv-x="396" 
d="M136 434l-49 31l65 89l-104 37l18 51l104 -39v108h56v-108l104 39l18 -51l-104 -37l65 -89l-49 -31l-62 91z" />
    <glyph glyph-name="plus" unicode="+" 
d="M233 0v186h-184v62h184v182h63v-182h185v-62h-185v-186h-63z" />
    <glyph glyph-name="comma" unicode="," horiz-adv-x="245" 
d="M49 -139l73 139h-53v110h110v-110l-73 -139h-57z" />
    <glyph glyph-name="hyphen" unicode="-" horiz-adv-x="365" 
d="M303 183h-241v68h241v-68z" />
    <glyph glyph-name="period" unicode="." horiz-adv-x="234" 
d="M62 0v110h110v-110h-110z" />
    <glyph glyph-name="slash" unicode="/" horiz-adv-x="406" 
d="M102 0h-71l274 711h72z" />
    <glyph glyph-name="zero" unicode="0" horiz-adv-x="622" 
d="M569 346q0 -165 -72 -261.5t-186 -96.5t-186 96.5t-72 261.5t71.5 261t186.5 96t186.5 -96t71.5 -261zM133 346q0 -144 50 -218t128 -74t128 74t50 218t-50 217.5t-128 73.5t-128 -73.5t-50 -217.5z" />
    <glyph glyph-name="one" unicode="1" horiz-adv-x="307" 
d="M214 0h-77v619h-105v73h182v-692z" />
    <glyph glyph-name="two" unicode="2" horiz-adv-x="547" 
d="M486 0h-447v15q0 83 50.5 148.5t174.5 149.5q44 30 65.5 46t46 41t34.5 51t10 59q0 53 -36 90t-100 37t-105 -42t-36 -123h-80q-3 41 8.5 80.5t36.5 74t71.5 55.5t108.5 21q97 0 153.5 -56.5t56.5 -136.5q0 -75 -46.5 -130t-147.5 -123q-169 -114 -176 -183h358v-74z" />
    <glyph glyph-name="three" unicode="3" horiz-adv-x="571" 
d="M298 363v-2q98 -9 160 -54t62 -123q0 -92 -68.5 -144t-165.5 -52q-112 0 -175.5 62.5t-68.5 155.5h81q4 -74 46.5 -113t116.5 -39q66 0 111 34.5t45 102.5q0 65 -59.5 98.5t-144.5 33.5h-13v75h10q87 0 136.5 34t49.5 96q0 47 -37 78t-93 31q-66 0 -107.5 -42.5
t-41.5 -122.5h-79q-1 91 56 161t173 70q92 0 149.5 -49t57.5 -117q0 -75 -55 -119.5t-146 -54.5z" />
    <glyph glyph-name="four" unicode="4" horiz-adv-x="573" 
d="M363 0v166h-340v69l346 457h70v-453h94v-73h-94v-166h-76zM105 239h258v340z" />
    <glyph glyph-name="five" unicode="5" horiz-adv-x="562" 
d="M278 -12q-109 0 -168 61.5t-70 154.5h81q12 -77 50.5 -113.5t106.5 -36.5q66 0 112.5 44.5t46.5 130.5q0 84 -48.5 127.5t-111.5 43.5q-48 0 -82 -21.5t-47 -50.5h-84l49 364h377v-74h-312l-33 -235h2q21 35 62 59t97 24q83 0 146 -63.5t63 -172.5q0 -113 -69 -177.5
t-168 -64.5z" />
    <glyph glyph-name="six" unicode="6" horiz-adv-x="583" 
d="M132 311h2q14 54 64 93t126 39q93 0 149.5 -65.5t56.5 -161.5q0 -97 -65.5 -162.5t-164.5 -65.5q-121 0 -184 85.5t-63 247.5q0 103 26 186.5t88.5 139.5t153.5 56t142 -48.5t64 -123.5h-80q-28 106 -127 106q-86 0 -137 -79.5t-51 -246.5zM299 54q68 0 110.5 44.5
t42.5 117.5t-42.5 117.5t-110.5 44.5q-69 0 -111 -44t-42 -118t42 -118t111 -44z" />
    <glyph glyph-name="seven" unicode="7" horiz-adv-x="524" 
d="M132 0q-1 195 80.5 358t227.5 259v1h-418v74h481v-69q-138 -108 -211 -254.5t-73 -368.5h-87z" />
    <glyph glyph-name="eight" unicode="8" horiz-adv-x="558" 
d="M507 178q0 -86 -64.5 -138t-163.5 -52t-163.5 52t-64.5 138q0 68 44 117t111 61v2q-58 12 -95.5 56t-37.5 107q0 73 56.5 127.5t149.5 54.5t149.5 -54.5t56.5 -127.5q0 -63 -37.5 -107t-95.5 -56v-2q67 -12 111 -61t44 -117zM408 515q0 53 -34 87.5t-95 34.5t-95 -34.5
t-34 -87.5t34 -87.5t95 -34.5t95 34.5t34 87.5zM129 187q0 -61 42 -97t108 -36t108 36t42 97t-42 97t-108 36t-108 -36t-42 -97z" />
    <glyph glyph-name="nine" unicode="9" horiz-adv-x="583" 
d="M451 380h-2q-14 -54 -64 -93t-126 -39q-93 0 -149.5 65.5t-56.5 161.5q0 97 65.5 162.5t164.5 65.5q121 0 184 -85.5t63 -247.5q0 -103 -26 -186.5t-88.5 -139.5t-153.5 -56t-142 48.5t-64 123.5h80q28 -106 127 -106q86 0 137 79.5t51 246.5zM284 637
q-68 0 -110.5 -44.5t-42.5 -117.5t42.5 -117.5t110.5 -44.5q69 0 111 44t42 118t-42 118t-111 44z" />
    <glyph glyph-name="colon" unicode=":" horiz-adv-x="232" 
d="M61 320v110h110v-110h-110zM61 0v110h110v-110h-110z" />
    <glyph glyph-name="semicolon" unicode=";" horiz-adv-x="259" 
d="M79 320v110h110v-110h-110zM59 -139l73 139h-53v110h110v-110l-73 -139h-57z" />
    <glyph glyph-name="less" unicode="&#x3c;" 
d="M468 4l-416 182v62l416 182v-68l-335 -145l335 -145v-68z" />
    <glyph glyph-name="equal" unicode="=" 
d="M65 277v62h400v-62h-400zM65 93v62h400v-62h-400z" />
    <glyph glyph-name="greater" unicode="&#x3e;" 
d="M62 4v68l335 145l-335 145v68l416 -182v-62z" />
    <glyph glyph-name="question" unicode="?" horiz-adv-x="506" 
d="M260 703q96 0 151.5 -49t55.5 -121q0 -42 -19 -75.5t-42 -52.5t-63 -45q-3 -1 -4.5 -2.5t-4 -3t-4.5 -2.5q-35 -24 -44 -46t-9 -68v-20h-77v17q0 29 2 46.5t9.5 42t27 44.5t50.5 39q30 18 48.5 31.5t35 39t16.5 54.5q0 47 -34 76t-95 29q-76 0 -113.5 -46t-38.5 -104h-76
q5 98 66.5 157t161.5 59zM183 0v110h110v-110h-110z" />
    <glyph glyph-name="at" unicode="@" horiz-adv-x="793" 
d="M585 215q47 0 77.5 40t30.5 107q0 119 -81.5 198.5t-206.5 79.5q-127 0 -210 -84.5t-83 -210.5q0 -122 85.5 -208t217.5 -86q66 0 123 26l24 -59q-63 -30 -149 -30q-158 0 -262 104t-104 253q0 152 102.5 255t255.5 103q149 0 251 -96.5t102 -244.5q0 -95 -50.5 -149
t-123.5 -54q-99 0 -106 101h-1q-42 -98 -137 -98q-56 0 -96.5 42.5t-40.5 116.5q0 82 51 144.5t128 62.5q39 0 68 -23.5t39 -58.5h1l8 67h64l-26 -194q-8 -60 2 -82t47 -22zM390 471q-57 0 -88 -45t-31 -106q0 -48 21.5 -75.5t64.5 -27.5q52 0 87 48t35 109q0 41 -26.5 69
t-62.5 28z" />
    <glyph glyph-name="A" unicode="A" horiz-adv-x="642" 
d="M543 0l-77 208h-290l-77 -208h-86l265 692h86l265 -692h-86zM321 600l-118 -320h236z" />
    <glyph glyph-name="B" unicode="B" horiz-adv-x="616" 
d="M345 0h-253v692h216q103 0 165 -46t62 -126q0 -63 -50 -106.5t-117 -55.5v-1q95 -3 150 -50.5t55 -121.5q0 -86 -62 -135.5t-166 -49.5zM173 620v-230h127q75 0 114 31.5t39 83.5q0 115 -143 115h-137zM173 321v-249h170q147 0 147 125q0 54 -41 89t-106 35h-170z" />
    <glyph glyph-name="C" unicode="C" horiz-adv-x="746" 
d="M396 -12q-147 0 -249 103t-102 255q0 151 102 254t249 103q111 0 199.5 -60t117.5 -163h-89q-22 71 -86.5 111t-141.5 40q-111 0 -189.5 -81t-78.5 -204t78.5 -204.5t189.5 -81.5q77 0 141.5 40t86.5 111h89q-29 -103 -117.5 -163t-199.5 -60z" />
    <glyph glyph-name="D" unicode="D" horiz-adv-x="692" 
d="M289 0h-197v692h197q152 0 254.5 -97.5t102.5 -248.5t-102.5 -248.5t-254.5 -97.5zM563 346q0 124 -78 199t-196 75h-116v-548h116q118 0 196 75t78 199z" />
    <glyph glyph-name="E" unicode="E" horiz-adv-x="554" 
d="M92 0v692h412v-72h-331v-228h290v-72h-290v-248h331v-72h-412z" />
    <glyph glyph-name="F" unicode="F" horiz-adv-x="567" 
d="M92 0v692h451v-72h-370v-228h318v-72h-318v-320h-81z" />
    <glyph glyph-name="G" unicode="G" horiz-adv-x="768" 
d="M386 -12q-148 0 -244.5 102.5t-96.5 255.5q0 151 102.5 254t249.5 103q107 0 190 -57.5t116 -155.5h-89q-25 65 -84.5 103t-132.5 38q-111 0 -190 -81t-79 -204q0 -126 74 -206t195 -80q106 0 168.5 48.5t62.5 120.5v55h-182v72h263v-356h-78v128h-1q-20 -56 -84 -98
t-160 -42z" />
    <glyph glyph-name="H" unicode="H" horiz-adv-x="727" 
d="M554 0v320h-381v-320h-81v692h81v-300h381v300h81v-692h-81z" />
    <glyph glyph-name="I" unicode="I" horiz-adv-x="265" 
d="M173 692v-692h-81v692h81z" />
    <glyph glyph-name="J" unicode="J" horiz-adv-x="509" 
d="M222 -12q-91 0 -147.5 56t-56.5 147h80q0 -67 33.5 -99t89.5 -32q54 0 88 30.5t34 88.5v513h81v-499q0 -92 -55.5 -148.5t-146.5 -56.5z" />
    <glyph glyph-name="K" unicode="K" horiz-adv-x="582" 
d="M173 692v-692h-81v692h81zM478 0l-294 347v2l292 343h97l-291 -341l298 -351h-102z" />
    <glyph glyph-name="L" unicode="L" horiz-adv-x="502" 
d="M92 0v692h81v-620h317v-72h-398z" />
    <glyph glyph-name="M" unicode="M" horiz-adv-x="840" 
d="M667 523l-205 -410h-84l-205 410v-523h-81v692h83l245 -497l245 497h83v-692h-81v523z" />
    <glyph glyph-name="N" unicode="N" horiz-adv-x="706" 
d="M173 0h-81v692h83l358 -562v562h81v-692h-83l-358 563v-563z" />
    <glyph glyph-name="O" unicode="O" horiz-adv-x="804" 
d="M759 346q0 -152 -103.5 -255t-253.5 -103t-253.5 103t-103.5 255t103 254.5t254 102.5t254 -102.5t103 -254.5zM676 346q0 123 -80 204t-194 81t-194 -81t-80 -204t80 -204.5t194 -81.5t194 81.5t80 204.5z" />
    <glyph glyph-name="P" unicode="P" horiz-adv-x="578" 
d="M308 260h-135v-260h-81v692h216q107 0 174.5 -58t67.5 -158t-67.5 -158t-174.5 -58zM173 332h138q72 0 114.5 40t42.5 104t-42.5 104t-114.5 40h-138v-288z" />
    <glyph glyph-name="Q" unicode="Q" horiz-adv-x="804" 
d="M759 346q0 -152 -103.5 -255t-253.5 -103t-253.5 103t-103.5 255t103 254.5t254 102.5t254 -102.5t103 -254.5zM676 346q0 123 -80 204t-194 81t-194 -81t-80 -204t80 -204.5t194 -81.5t194 81.5t80 204.5zM387 -119v73h372v-73h-372z" />
    <glyph glyph-name="R" unicode="R" horiz-adv-x="609" 
d="M173 318v-318h-81v692h216q104 0 165.5 -48.5t61.5 -138.5q0 -75 -43 -121.5t-119 -59.5l213 -324h-92l-209 318h-112zM173 390h138q143 0 143 115t-143 115h-138v-230z" />
    <glyph glyph-name="S" unicode="S" horiz-adv-x="517" 
d="M261 -12q-102 0 -160 64t-61 135h86q3 -51 39 -90t98 -39q64 0 97 30.5t33 77.5q0 89 -119 137l-57 23q-157 64 -157 200q0 78 54.5 127.5t141.5 49.5q79 0 133.5 -45t68.5 -137h-84q-9 55 -42 83.5t-80 28.5q-44 0 -77.5 -29t-33.5 -77q0 -82 100 -123l66 -27
q167 -69 167 -208q0 -76 -56.5 -128.5t-156.5 -52.5z" />
    <glyph glyph-name="T" unicode="T" horiz-adv-x="547" 
d="M535 692v-72h-221v-620h-81v620h-221v72h523z" />
    <glyph glyph-name="U" unicode="U" horiz-adv-x="706" 
d="M353 60q93 0 140.5 56t47.5 161v415h81v-427q0 -129 -71 -203t-198 -74t-198 74t-71 203v427h81v-415q0 -105 47.5 -161t140.5 -56z" />
    <glyph glyph-name="V" unicode="V" horiz-adv-x="642" 
d="M279 0l-266 692h87l221 -594l221 594h87l-266 -692h-84z" />
    <glyph glyph-name="W" unicode="W" horiz-adv-x="858" 
d="M187 0l-160 692h80l125 -558l157 515h80l157 -515l125 558h80l-160 -692h-77l-165 536l-165 -536h-77z" />
    <glyph glyph-name="X" unicode="X" horiz-adv-x="607" 
d="M511 0l-207 294l-208 -294h-91l253 358l-236 334h91l191 -270l190 270h91l-236 -334l253 -358h-91z" />
    <glyph glyph-name="Y" unicode="Y" horiz-adv-x="597" 
d="M299 344l193 348h89l-242 -432v-260h-81v260l-242 432h89z" />
    <glyph glyph-name="Z" unicode="Z" horiz-adv-x="560" 
d="M8 0l396 620h-353v72h491l-396 -620h380v-72h-518z" />
    <glyph glyph-name="bracketleft" unicode="[" horiz-adv-x="304" 
d="M86 711h199v-63h-130v-815h130v-63h-199v941z" />
    <glyph glyph-name="backslash" unicode="\" horiz-adv-x="406" 
d="M101 711l274 -711h-71l-275 711h72z" />
    <glyph glyph-name="bracketright" unicode="]" horiz-adv-x="304" 
d="M19 711h199v-941h-199v63h130v815h-130v63z" />
    <glyph glyph-name="asciicircum" unicode="^" horiz-adv-x="522" 
d="M261 624l-159 -335h-68l193 403h68l193 -403h-68z" />
    <glyph glyph-name="underscore" unicode="_" horiz-adv-x="491" 
d="M430 -62h-369v62h369v-62z" />
    <glyph glyph-name="grave" unicode="`" horiz-adv-x="232" 
d="M151 554l-148 157h112l108 -157h-72z" />
    <glyph glyph-name="a" unicode="a" horiz-adv-x="526" 
d="M236 -12q-76 0 -136 61t-60 166t60 166t136 61q53 0 88.5 -28.5t53.5 -62.5h1v79h77v-430h-77v79h-1q-18 -34 -53.5 -62.5t-88.5 -28.5zM253 54q53 0 93.5 40t40.5 121t-40.5 121t-93.5 40t-94 -40t-41 -121t41 -121t94 -40z" />
    <glyph glyph-name="b" unicode="b" horiz-adv-x="526" 
d="M290 -12q-53 0 -88.5 28.5t-53.5 62.5h-1v-79h-77v711h77v-360h1q18 34 53.5 62.5t88.5 28.5q76 0 136 -61t60 -166t-60 -166t-136 -61zM273 54q53 0 94 40t41 121t-41 121t-94 40t-93.5 -40t-40.5 -121t40.5 -121t93.5 -40z" />
    <glyph glyph-name="c" unicode="c" horiz-adv-x="497" 
d="M256 -12q-95 0 -156 66t-61 162t61 162t156 66q80 0 135.5 -45t73.5 -118h-76q-14 44 -48 70.5t-85 26.5q-63 0 -101 -47.5t-38 -114.5t38 -114.5t101 -47.5q51 0 85 26.5t48 70.5h76q-18 -73 -73.5 -118t-135.5 -45z" />
    <glyph glyph-name="d" unicode="d" horiz-adv-x="526" 
d="M236 -12q-76 0 -136 61t-60 166t60 166t136 61q53 0 88.5 -28.5t53.5 -62.5h1v360h77v-711h-77v79h-1q-18 -34 -53.5 -62.5t-88.5 -28.5zM253 54q53 0 93.5 40t40.5 121t-40.5 121t-93.5 40t-94 -40t-41 -121t41 -121t94 -40z" />
    <glyph glyph-name="e" unicode="e" horiz-adv-x="506" 
d="M459 122q-21 -61 -75 -97.5t-127 -36.5q-96 0 -157 66t-61 162t61.5 162t158.5 66q86 0 147 -62.5t63 -182.5h-352q3 -61 41 -103t96 -42q92 0 124 68h81zM255 380q-54 0 -90 -33t-45 -88h266q-6 54 -42.5 87.5t-88.5 33.5z" />
    <glyph glyph-name="f" unicode="f" horiz-adv-x="308" 
d="M321 711v-69h-30q-54 0 -73.5 -35.5t-19.5 -107.5v-69h93v-64h-93v-366h-77v366h-106v64h106v83q0 98 42 148t112 50h46z" />
    <glyph glyph-name="g" unicode="g" horiz-adv-x="519" 
d="M470 -71q0 -74 -60.5 -122.5t-146.5 -48.5q-101 0 -164.5 66t-65.5 176h79q1 -92 46 -134t104 -42q62 0 98.5 32.5t36.5 79.5q0 48 -39.5 85t-104.5 37h2h-14q-84 0 -141 56t-57 137t57 137t141 56q39 0 75 -14h218l-55 -55h-85q45 -53 45 -124q0 -56 -28.5 -102
t-77.5 -70q66 -16 101.5 -58t35.5 -92zM241 122q55 0 88.5 36.5t33.5 92.5t-33.5 92.5t-88.5 36.5t-88.5 -36.5t-33.5 -92.5t33.5 -92.5t88.5 -36.5z" />
    <glyph glyph-name="h" unicode="h" horiz-adv-x="504" 
d="M148 338q44 103 147 103q60 0 102 -39.5t42 -124.5v-277h-77v267q0 53 -24 80.5t-68 27.5q-56 0 -89.5 -43.5t-33.5 -127.5v-204h-77v711h77v-373h1z" />
    <glyph glyph-name="i" unicode="i" horiz-adv-x="217" 
d="M147 688v-110h-77v110h77zM147 430v-430h-77v430h77z" />
    <glyph glyph-name="j" unicode="j" horiz-adv-x="217" 
d="M147 688v-110h-77v110h77zM71 -242h-1v672h77v-595z" />
    <glyph glyph-name="k" unicode="k" horiz-adv-x="459" 
d="M147 711v-711h-77v711h77zM158 227l190 203h96l-190 -203l201 -227h-97l-200 226v1z" />
    <glyph glyph-name="l" unicode="l" horiz-adv-x="217" 
d="M147 711v-711h-77v711h77z" />
    <glyph glyph-name="m" unicode="m" horiz-adv-x="786" 
d="M70 0v430h77v-92h1q45 103 144 103q48 0 85.5 -26.5t50.5 -82.5h1q50 109 150 109q59 0 100.5 -40t41.5 -124v-277h-77v267q0 52 -23.5 80t-65.5 28q-55 0 -88 -44t-33 -127v-204h-77v267q0 52 -23.5 80t-65.5 28q-55 0 -88 -44t-33 -127v-204h-77z" />
    <glyph glyph-name="n" unicode="n" horiz-adv-x="504" 
d="M148 338q44 103 147 103q60 0 102 -39.5t42 -124.5v-277h-77v267q0 53 -24 80.5t-68 27.5q-56 0 -89.5 -43.5t-33.5 -127.5v-204h-77v430h77v-92h1z" />
    <glyph glyph-name="o" unicode="o" 
d="M265 -12q-98 0 -162.5 66t-64.5 162t64.5 162t162.5 66t162.5 -66t64.5 -162t-64.5 -162t-162.5 -66zM265 54q66 0 107.5 47.5t41.5 114.5t-41.5 114.5t-107.5 47.5t-107.5 -47.5t-41.5 -114.5t41.5 -114.5t107.5 -47.5z" />
    <glyph glyph-name="p" unicode="p" horiz-adv-x="526" 
d="M70 -230v660h77v-79h1q18 34 53.5 62.5t88.5 28.5q76 0 136 -61t60 -166t-60 -166t-136 -61q-53 0 -88.5 28.5t-53.5 62.5h-1v-309h-77zM273 54q53 0 94 40t41 121t-41 121t-94 40t-93.5 -40t-40.5 -121t40.5 -121t93.5 -40z" />
    <glyph glyph-name="q" unicode="q" horiz-adv-x="526" 
d="M379 -230v309h-1q-18 -34 -53.5 -62.5t-88.5 -28.5q-76 0 -136 61t-60 166t60 166t136 61q53 0 88.5 -28.5t53.5 -62.5h1v79h77v-660h-77zM253 54q53 0 93.5 40t40.5 121t-40.5 121t-93.5 40t-94 -40t-41 -121t41 -121t94 -40z" />
    <glyph glyph-name="r" unicode="r" horiz-adv-x="327" 
d="M148 329q42 108 159 108h6v-78h-33q-63 0 -98 -33t-35 -118v-208h-77v430h77v-101h1z" />
    <glyph glyph-name="s" unicode="s" horiz-adv-x="381" 
d="M197 -12q-65 0 -111.5 36.5t-50.5 102.5h74q8 -77 89 -77q35 0 53.5 16t18.5 40q0 22 -17 38.5t-56 32.5l-49 20q-99 40 -99 126q0 53 38 86.5t100 33.5q51 0 94 -33t49 -96h-73q-12 66 -71 66q-30 0 -46.5 -15t-16.5 -38q0 -26 15.5 -40.5t43.5 -25.5l50 -20
q56 -23 84 -53.5t28 -80.5q0 -49 -41 -84t-106 -35z" />
    <glyph glyph-name="t" unicode="t" horiz-adv-x="332" 
d="M197 622v-192h122v-64h-122v-366h-77v366h-105v64h105v116l76 76h1z" />
    <glyph glyph-name="u" unicode="u" horiz-adv-x="495" 
d="M205 -12q-59 0 -99.5 40t-40.5 124v278h77v-268q0 -52 23 -80t64 -28q54 0 86.5 44t32.5 127v205h77v-430h-77v91h-1q-44 -103 -142 -103z" />
    <glyph glyph-name="v" unicode="v" horiz-adv-x="440" 
d="M181 0l-168 430h78l129 -339l129 339h78l-168 -430h-78z" />
    <glyph glyph-name="w" unicode="w" horiz-adv-x="652" 
d="M153 0l-131 430h77l96 -326l97 294h68l97 -294l96 326h77l-131 -430h-72l-101 313l-101 -313h-72z" />
    <glyph glyph-name="x" unicode="x" horiz-adv-x="459" 
d="M359 0l-130 166l-132 -166h-86l175 220l-165 210h88l121 -154l123 154h85l-165 -208l175 -222h-89z" />
    <glyph glyph-name="y" unicode="y" horiz-adv-x="470" 
d="M197 -230v230l-188 430h79l147 -340l147 340h79l-188 -430v-230h-76z" />
    <glyph glyph-name="z" unicode="z" horiz-adv-x="427" 
d="M392 0h-375l254 366h-226v64h355l-254 -366h246v-64z" />
    <glyph glyph-name="braceleft" unicode="{" horiz-adv-x="331" 
d="M278 -230q-83 0 -123.5 43.5t-40.5 142.5v161q0 92 -89 103v41q89 11 89 103v161q0 99 40.5 142.5t123.5 43.5h35v-63h-34q-56 0 -76 -27t-20 -103v-140q0 -112 -81 -136v-3q81 -24 81 -136v-140q0 -76 20 -103t76 -27h34v-63h-35z" />
    <glyph glyph-name="bar" unicode="|" horiz-adv-x="241" 
d="M155 -230h-69v941h69v-941z" />
    <glyph glyph-name="braceright" unicode="}" horiz-adv-x="331" 
d="M217 -44q0 -99 -40.5 -142.5t-123.5 -43.5h-35v63h34q56 0 76 27t20 103v140q0 112 81 136v3q-81 24 -81 136v140q0 76 -20 103t-76 27h-34v63h35q83 0 123.5 -43.5t40.5 -142.5v-161q0 -92 89 -103v-41q-89 -11 -89 -103v-161z" />
    <glyph glyph-name="asciitilde" unicode="~" horiz-adv-x="573" 
d="M191 300q43 0 104 -38t84 -38q56 0 65 73h63q-4 -62 -41 -97t-84 -35q-44 0 -104.5 38t-83.5 38q-56 0 -65 -73h-63q4 62 41 97t84 35z" />
    <glyph glyph-name="uni00A0" unicode="&#xa0;" horiz-adv-x="236" 
 />
    <glyph glyph-name="exclamdown" unicode="&#xa1;" horiz-adv-x="226" 
d="M58 320v110h110v-110h-110zM154 -230h-83v164l23 278h38l22 -278v-164z" />
    <glyph glyph-name="cent" unicode="&#xa2;" horiz-adv-x="506" 
d="M471 151q-15 -64 -61 -107t-112 -53v-83h-72v83q-80 13 -130.5 76t-50.5 149t50.5 149t130.5 76v76h72v-76q66 -10 112 -53t61 -107h-76q-14 44 -48 70.5t-85 26.5q-63 0 -101 -47.5t-38 -114.5t38 -114.5t101 -47.5q51 0 85 26.5t48 70.5h76z" />
    <glyph glyph-name="sterling" unicode="&#xa3;" horiz-adv-x="547" 
d="M490 74v-74h-455v3q33 31 52.5 51t49.5 54.5t45 67.5t15 63q0 33 -16 65h-125v60h89q-20 30 -30 47t-20 47.5t-10 59.5q0 84 62 134.5t147 50.5q103 0 158 -63t53 -160h-78q-1 75 -39 116t-98 41q-48 0 -87.5 -33t-39.5 -89q0 -18 8 -39.5t15 -33.5t26.5 -41t24.5 -37
h158v-60h-128q8 -24 8 -47q0 -28 -12 -56t-35 -53.5t-38 -39t-38 -32.5l1 -2h337z" />
    <glyph glyph-name="yen" unicode="&#xa5;" horiz-adv-x="617" 
d="M503 138h-156v-138h-77v138h-156v60h156v62h-156v60h122l-208 372h85l196 -356l195 356h85l-208 -372h122v-60h-156v-62h156v-60z" />
    <glyph glyph-name="brokenbar" unicode="&#xa6;" horiz-adv-x="241" 
d="M155 318h-69v393h69v-393zM155 -230h-69v394h69v-394z" />
    <glyph glyph-name="section" unicode="&#xa7;" horiz-adv-x="558" 
d="M282 -177q48 0 81 25.5t33 66.5q0 68 -103 123l-132 71q-66 36 -95.5 73t-29.5 90q0 95 139 146q-91 51 -91 143q0 66 53 104t126 38q86 0 138 -47t60 -130h-75q-19 112 -124 112q-44 0 -73 -20.5t-29 -52.5q0 -58 86 -105l140 -78q72 -40 104.5 -75.5t32.5 -90.5
q0 -50 -40 -88t-97 -61q49 -33 68 -66t19 -75q0 -77 -55 -122t-138 -45q-81 0 -134.5 50t-63.5 135h77q9 -56 39.5 -88.5t83.5 -32.5zM342 323l-133 74q-102 -39 -102 -112q0 -33 19 -58t66 -51l164 -88q93 47 93 113q0 35 -25 62.5t-82 59.5z" />
    <glyph glyph-name="dieresis" unicode="&#xa8;" horiz-adv-x="348" 
d="M236 688h77v-110h-77v110zM112 688v-110h-77v110h77z" />
    <glyph glyph-name="copyright" unicode="&#xa9;" horiz-adv-x="802" 
d="M401 -12q-149 0 -253 105t-104 253t104 252.5t253 104.5t253 -104.5t104 -252.5t-104 -253t-253 -105zM401 49q122 0 206 86t84 211t-84 211t-206 86t-206 -86t-84 -211t84 -211t206 -86zM405 164q-77 0 -132.5 53t-55.5 133t55.5 132.5t132.5 52.5q63 0 109.5 -33
t63.5 -90h-72q-27 65 -101 65q-50 0 -86 -36t-36 -91t35.5 -91.5t86.5 -36.5q75 0 101 65h72q-17 -56 -64 -89.5t-109 -33.5z" />
    <glyph glyph-name="ordfeminine" unicode="&#xaa;" horiz-adv-x="440" 
d="M194 350q-59 0 -105 47.5t-46 128.5t45.5 128.5t104.5 47.5q71 0 110 -70h1v60h68v-332h-68v60h-1q-39 -70 -109 -70zM211 406q40 0 69.5 30.5t29.5 89.5t-29.5 89.5t-69.5 30.5t-70 -31t-30 -89t30 -89t70 -31z" />
    <glyph glyph-name="guillemotleft" unicode="&#xab;" horiz-adv-x="455" 
d="M409 400l-112 -182l112 -182h-82l-112 182l112 182h82zM236 400l-112 -182l112 -182h-82l-112 182l112 182h82z" />
    <glyph glyph-name="uni00AD" unicode="&#xad;" horiz-adv-x="365" 
d="M303 183h-241v68h241v-68z" />
    <glyph glyph-name="registered" unicode="&#xae;" horiz-adv-x="802" 
d="M401 -12q-149 0 -253 105t-104 253t104 252.5t253 104.5t253 -104.5t104 -252.5t-104 -253t-253 -105zM401 49q122 0 206 86t84 211t-84 211t-206 86t-206 -86t-84 -211t84 -211t206 -86zM353 320v-149h-64v356h120q57 0 91 -27.5t34 -76.5q0 -75 -75 -96l103 -156h-73
l-97 149h-39zM353 376h60q57 0 57 47q0 48 -57 48h-60v-95z" />
    <glyph glyph-name="macron" unicode="&#xaf;" horiz-adv-x="300" 
d="M280 600h-260v67h260v-67z" />
    <glyph glyph-name="degree" unicode="&#xb0;" horiz-adv-x="408" 
d="M39 566q0 68 48.5 116t116.5 48t116.5 -48t48.5 -116t-48.5 -116t-116.5 -48t-116.5 48t-48.5 116zM99 566q0 -43 30 -75t75 -32q48 0 76.5 30.5t28.5 76.5t-30 76.5t-75 30.5q-42 0 -73.5 -30t-31.5 -77z" />
    <glyph glyph-name="twosuperior" unicode="&#xb2;" horiz-adv-x="311" 
d="M270 452h-237v10q0 51 25 88t86 73q34 20 50.5 37t16.5 42q0 20 -13.5 33t-36.5 13q-58 0 -57 -69h-65q-1 55 34 87.5t92 32.5q48 0 79.5 -28t31.5 -70q0 -35 -25 -63.5t-72 -57.5q-74 -46 -74 -70h165v-58z" />
    <glyph glyph-name="threesuperior" unicode="&#xb3;" horiz-adv-x="319" 
d="M185 633v-1q46 -5 72 -27.5t26 -59.5q0 -47 -37.5 -73.5t-87.5 -26.5q-56 0 -90.5 30t-36.5 79h65q5 -59 62 -59q27 0 43.5 15t16.5 39q0 54 -85 54h-4v52h3q37 0 57.5 13.5t20.5 36.5q0 19 -13 31t-35 12q-26 0 -41.5 -15.5t-16.5 -45.5h-63q2 47 33.5 79.5t89.5 32.5
q44 0 77 -22.5t33 -61.5q0 -34 -24.5 -54.5t-64.5 -27.5z" />
    <glyph glyph-name="acute" unicode="&#xb4;" horiz-adv-x="232" 
d="M226 711l-138 -157h-72l98 157h112z" />
    <glyph glyph-name="paragraph" unicode="&#xb6;" horiz-adv-x="549" 
d="M239 -134v428q-89 0 -149 58t-60 141q0 84 61.5 141.5t156.5 57.5h200v-826h-69v762h-71v-762h-69z" />
    <glyph glyph-name="periodcentered" unicode="&#xb7;" horiz-adv-x="234" 
d="M62 173v110h110v-110h-110z" />
    <glyph glyph-name="cedilla" unicode="&#xb8;" horiz-adv-x="268" 
d="M107 -81h1q25 19 52 19q30 0 52.5 -21.5t22.5 -58.5q0 -46 -35 -70t-86 -24q-46 0 -81 13l10 42q29 -11 58 -11t50 11.5t21 32.5q0 18 -14.5 30t-36.5 12q-24 0 -43 -11l-29 18l61 99h47z" />
    <glyph glyph-name="onesuperior" unicode="&#xb9;" horiz-adv-x="198" 
d="M145 452h-63v284h-59v56h122v-340z" />
    <glyph glyph-name="ordmasculine" unicode="&#xba;" horiz-adv-x="437" 
d="M218 350q-77 0 -127 51t-50 126q0 74 50.5 125t126.5 51q77 0 127.5 -51t50.5 -125q0 -75 -50.5 -126t-127.5 -51zM218 407q48 0 78.5 35t30.5 85t-30.5 84.5t-78.5 34.5t-78.5 -34.5t-30.5 -84.5t30.5 -85t78.5 -35z" />
    <glyph glyph-name="guillemotright" unicode="&#xbb;" horiz-adv-x="455" 
d="M158 218l-112 182h82l112 -182l-112 -182h-82zM331 218l-112 182h82l112 -182l-112 -182h-82z" />
    <glyph glyph-name="onequarter" unicode="&#xbc;" horiz-adv-x="669" 
d="M512 692h76l-469 -692h-76zM164 352h-63v284h-59v56h122v-340zM520 0v75h-163v51l170 214h56v-211h52v-54h-52v-75h-63zM421 129h99v126z" />
    <glyph glyph-name="onehalf" unicode="&#xbd;" horiz-adv-x="691" 
d="M503 692h76l-469 -692h-76zM178 352h-63v284h-59v56h122v-340zM647 0h-237v10q0 51 25 88t86 73q34 20 50.5 37t16.5 42q0 20 -13.5 33t-36.5 13q-58 0 -57 -69h-65q-1 55 34 87.5t92 32.5q48 0 79.5 -28t31.5 -70q0 -35 -25 -63.5t-72 -57.5q-74 -46 -74 -70h165v-58z
" />
    <glyph glyph-name="threequarters" unicode="&#xbe;" horiz-adv-x="735" 
d="M189 533v-1q46 -5 72 -27.5t26 -59.5q0 -47 -37.5 -73.5t-87.5 -26.5q-56 0 -90.5 30t-36.5 79h65q5 -59 62 -59q27 0 43.5 15t16.5 39q0 54 -85 54h-4v52h3q37 0 57.5 13.5t20.5 36.5q0 19 -13 31t-35 12q-26 0 -41.5 -15.5t-16.5 -45.5h-63q2 47 33.5 79.5t89.5 32.5
q44 0 77 -22.5t33 -61.5q0 -34 -24.5 -54.5t-64.5 -27.5zM589 692h76l-469 -692h-76zM583 0v75h-163v51l170 214h56v-211h52v-54h-52v-75h-63zM484 129h99v126z" />
    <glyph glyph-name="questiondown" unicode="&#xbf;" horiz-adv-x="493" 
d="M205 320v110h110v-110h-110zM238 -242q-96 0 -151.5 49t-55.5 121q0 42 19 75.5t42 52.5t63 45q9 5 13 8q35 24 44 46t9 68v20h77v-17q0 -29 -2 -46.5t-9.5 -42t-27 -44.5t-50.5 -39q-30 -18 -48.5 -31.5t-35 -39t-16.5 -54.5q0 -47 34 -76t95 -29q76 0 113.5 46
t38.5 104h76q-5 -98 -66.5 -157t-161.5 -59z" />
    <glyph glyph-name="Agrave" unicode="&#xc0;" horiz-adv-x="642" 
d="M276 743l-133 121h112l93 -121h-72zM543 0l-77 208h-290l-77 -208h-86l265 692h86l265 -692h-86zM321 600l-118 -320h236z" />
    <glyph glyph-name="Aacute" unicode="&#xc1;" horiz-adv-x="642" 
d="M499 864l-138 -121h-72l98 121h112zM543 0l-77 208h-290l-77 -208h-86l265 692h86l265 -692h-86zM321 600l-118 -320h236z" />
    <glyph glyph-name="Acircumflex" unicode="&#xc2;" horiz-adv-x="642" 
d="M157 743l127 121h74l127 -121h-74l-90 59l-90 -59h-74zM543 0l-77 208h-290l-77 -208h-86l265 692h86l265 -692h-86zM321 600l-118 -320h236z" />
    <glyph glyph-name="Atilde" unicode="&#xc3;" horiz-adv-x="642" 
d="M374 816q35 0 43 41h65q-8 -55 -36.5 -78t-64.5 -23q-28 0 -63 20t-49 20q-35 0 -41 -40h-66q7 55 36.5 78t65.5 23q28 0 61 -20.5t49 -20.5zM543 0l-77 208h-290l-77 -208h-86l265 692h86l265 -692h-86zM321 600l-118 -320h236z" />
    <glyph glyph-name="Adieresis" unicode="&#xc4;" horiz-adv-x="642" 
d="M181 743v110h77v-110h-77zM382 743v110h77v-110h-77zM543 0l-77 208h-290l-77 -208h-86l265 692h86l265 -692h-86zM321 600l-118 -320h236z" />
    <glyph glyph-name="Aring" unicode="&#xc5;" horiz-adv-x="642" 
d="M321 739q-45 0 -77.5 32.5t-32.5 78.5q0 45 32.5 77.5t77.5 32.5q46 0 78.5 -32.5t32.5 -77.5q0 -46 -32.5 -78.5t-78.5 -32.5zM321 782q29 0 48.5 20t19.5 48t-20 47.5t-48 19.5t-47.5 -19.5t-19.5 -47.5t19.5 -48t47.5 -20zM543 0l-77 208h-290l-77 -208h-86l265 692
h86l265 -692h-86zM321 600l-118 -320h236z" />
    <glyph glyph-name="AE" unicode="&#xc6;" horiz-adv-x="882" 
d="M420 0v208h-242l-80 -208h-86l265 692h86l-158 -412h215v412h412v-72h-331v-228h290v-72h-290v-248h331v-72h-412z" />
    <glyph glyph-name="Ccedilla" unicode="&#xc7;" horiz-adv-x="746" 
d="M498 -142q0 -46 -35 -70t-86 -24q-50 0 -84 14l13 44q29 -11 58 -11t48.5 10t19.5 31q0 18 -13 28.5t-35 10.5q-24 0 -43 -11l-32 21l55 88q-136 13 -227.5 113.5t-91.5 243.5q0 151 102 254t249 103q111 0 199.5 -60t117.5 -163h-89q-22 71 -86.5 111t-141.5 40
q-111 0 -189.5 -81t-78.5 -204t78.5 -204.5t189.5 -81.5q77 0 141.5 40t86.5 111h89q-28 -99 -111 -158.5t-189 -64.5l-43 -69h1q25 19 52 19q30 0 52.5 -21.5t22.5 -58.5z" />
    <glyph glyph-name="Egrave" unicode="&#xc8;" horiz-adv-x="554" 
d="M319 743l-133 121h112l93 -121h-72zM92 0v692h412v-72h-331v-228h290v-72h-290v-248h331v-72h-412z" />
    <glyph glyph-name="Eacute" unicode="&#xc9;" horiz-adv-x="554" 
d="M445 864l-138 -121h-72l98 121h112zM92 0v692h412v-72h-331v-228h290v-72h-290v-248h331v-72h-412z" />
    <glyph glyph-name="Ecircumflex" unicode="&#xca;" horiz-adv-x="554" 
d="M134 743l127 121h74l127 -121h-74l-90 59l-90 -59h-74zM92 0v692h412v-72h-331v-228h290v-72h-290v-248h331v-72h-412z" />
    <glyph glyph-name="Edieresis" unicode="&#xcb;" horiz-adv-x="554" 
d="M160 743v110h77v-110h-77zM361 743v110h77v-110h-77zM92 0v692h412v-72h-331v-228h290v-72h-290v-248h331v-72h-412z" />
    <glyph glyph-name="Igrave" unicode="&#xcc;" horiz-adv-x="265" 
d="M92 743l-133 121h112l93 -121h-72zM173 692v-692h-81v692h81z" />
    <glyph glyph-name="Iacute" unicode="&#xcd;" horiz-adv-x="265" 
d="M311 864l-138 -121h-72l98 121h112zM173 692v-692h-81v692h81z" />
    <glyph glyph-name="Icircumflex" unicode="&#xce;" horiz-adv-x="265" 
d="M-31 743l127 121h74l127 -121h-74l-90 59l-90 -59h-74zM173 692v-692h-81v692h81z" />
    <glyph glyph-name="Idieresis" unicode="&#xcf;" horiz-adv-x="265" 
d="M-6 743v110h77v-110h-77zM195 743v110h77v-110h-77zM173 692v-692h-81v692h81z" />
    <glyph glyph-name="Eth" unicode="&#xd0;" horiz-adv-x="701" 
d="M655 346q0 -151 -102.5 -248.5t-254.5 -97.5h-197v320h-80v72h80v300h197q152 0 254.5 -97.5t102.5 -248.5zM182 72h116q118 0 196 75t78 199t-78 199t-196 75h-116v-228h162v-72h-162v-248z" />
    <glyph glyph-name="Ntilde" unicode="&#xd1;" horiz-adv-x="706" 
d="M406 816q35 0 43 41h65q-8 -55 -36.5 -78t-64.5 -23q-28 0 -63 20t-49 20q-35 0 -41 -40h-66q7 55 36.5 78t65.5 23q28 0 61 -20.5t49 -20.5zM173 0h-81v692h83l358 -562v562h81v-692h-83l-358 563v-563z" />
    <glyph glyph-name="Ograve" unicode="&#xd2;" horiz-adv-x="804" 
d="M398 743l-133 121h112l93 -121h-72zM759 346q0 -152 -103.5 -255t-253.5 -103t-253.5 103t-103.5 255t103 254.5t254 102.5t254 -102.5t103 -254.5zM676 346q0 123 -80 204t-194 81t-194 -81t-80 -204t80 -204.5t194 -81.5t194 81.5t80 204.5z" />
    <glyph glyph-name="Oacute" unicode="&#xd3;" horiz-adv-x="804" 
d="M561 864l-138 -121h-72l98 121h112zM759 346q0 -152 -103.5 -255t-253.5 -103t-253.5 103t-103.5 255t103 254.5t254 102.5t254 -102.5t103 -254.5zM676 346q0 123 -80 204t-194 81t-194 -81t-80 -204t80 -204.5t194 -81.5t194 81.5t80 204.5z" />
    <glyph glyph-name="Ocircumflex" unicode="&#xd4;" horiz-adv-x="804" 
d="M238 743l127 121h74l127 -121h-74l-90 59l-90 -59h-74zM759 346q0 -152 -103.5 -255t-253.5 -103t-253.5 103t-103.5 255t103 254.5t254 102.5t254 -102.5t103 -254.5zM676 346q0 123 -80 204t-194 81t-194 -81t-80 -204t80 -204.5t194 -81.5t194 81.5t80 204.5z" />
    <glyph glyph-name="Otilde" unicode="&#xd5;" horiz-adv-x="804" 
d="M455 816q35 0 43 41h65q-8 -55 -36.5 -78t-64.5 -23q-28 0 -63 20t-49 20q-35 0 -41 -40h-66q7 55 36.5 78t65.5 23q27 0 61 -20.5t49 -20.5zM759 346q0 -152 -103.5 -255t-253.5 -103t-253.5 103t-103.5 255t103 254.5t254 102.5t254 -102.5t103 -254.5zM676 346
q0 123 -80 204t-194 81t-194 -81t-80 -204t80 -204.5t194 -81.5t194 81.5t80 204.5z" />
    <glyph glyph-name="Odieresis" unicode="&#xd6;" horiz-adv-x="804" 
d="M263 743v110h77v-110h-77zM464 743v110h77v-110h-77zM759 346q0 -152 -103.5 -255t-253.5 -103t-253.5 103t-103.5 255t103 254.5t254 102.5t254 -102.5t103 -254.5zM676 346q0 123 -80 204t-194 81t-194 -81t-80 -204t80 -204.5t194 -81.5t194 81.5t80 204.5z" />
    <glyph glyph-name="multiply" unicode="&#xd7;" 
d="M120 27l-44 44l144 144l-144 144l45 45l144 -144l144 144l44 -44l-144 -144l144 -144l-45 -45l-144 144z" />
    <glyph glyph-name="Oslash" unicode="&#xd8;" horiz-adv-x="814" 
d="M764 346q0 -152 -103.5 -255t-253.5 -103q-136 0 -236 86l-86 -86l-36 36l86 86q-85 101 -85 236q0 152 103 254.5t254 102.5q136 0 235 -86l86 86l36 -36l-86 -86q86 -99 86 -235zM133 346q0 -103 58 -180l397 397q-77 68 -181 68q-114 0 -194 -81t-80 -204zM681 346
q0 103 -58 180l-397 -397q75 -69 181 -69q114 0 194 81.5t80 204.5z" />
    <glyph glyph-name="Ugrave" unicode="&#xd9;" horiz-adv-x="706" 
d="M353 743l-133 121h112l93 -121h-72zM353 60q93 0 140.5 56t47.5 161v415h81v-427q0 -129 -71 -203t-198 -74t-198 74t-71 203v427h81v-415q0 -105 47.5 -161t140.5 -56z" />
    <glyph glyph-name="Uacute" unicode="&#xda;" horiz-adv-x="706" 
d="M492 864l-138 -121h-72l98 121h112zM353 60q93 0 140.5 56t47.5 161v415h81v-427q0 -129 -71 -203t-198 -74t-198 74t-71 203v427h81v-415q0 -105 47.5 -161t140.5 -56z" />
    <glyph glyph-name="Ucircumflex" unicode="&#xdb;" horiz-adv-x="706" 
d="M189 743l127 121h74l127 -121h-74l-90 59l-90 -59h-74zM353 60q93 0 140.5 56t47.5 161v415h81v-427q0 -129 -71 -203t-198 -74t-198 74t-71 203v427h81v-415q0 -105 47.5 -161t140.5 -56z" />
    <glyph glyph-name="Udieresis" unicode="&#xdc;" horiz-adv-x="706" 
d="M214 743v110h77v-110h-77zM415 743v110h77v-110h-77zM353 60q93 0 140.5 56t47.5 161v415h81v-427q0 -129 -71 -203t-198 -74t-198 74t-71 203v427h81v-415q0 -105 47.5 -161t140.5 -56z" />
    <glyph glyph-name="Yacute" unicode="&#xdd;" horiz-adv-x="597" 
d="M437 864l-138 -121h-72l98 121h112zM299 344l193 348h89l-242 -432v-260h-81v260l-242 432h89z" />
    <glyph glyph-name="Thorn" unicode="&#xde;" horiz-adv-x="589" 
d="M308 130h-135v-130h-81v692h81v-130h135q107 0 174.5 -58t67.5 -158t-67.5 -158t-174.5 -58zM173 202h138q72 0 114.5 40t42.5 104t-42.5 104t-114.5 40h-138v-288z" />
    <glyph glyph-name="germandbls" unicode="&#xdf;" horiz-adv-x="550" 
d="M512 196q0 -85 -60 -146.5t-153 -61.5q-37 0 -70 7v66q27 -7 72 -7q58 0 95.5 42.5t37.5 109.5q0 69 -49.5 114.5t-130.5 45.5h-25v64h6q72 0 108 35.5t36 83.5q0 45 -26 76.5t-75 31.5t-74.5 -31.5t-25.5 -81.5v-544h-77v366h-74v64h74v114q0 81 44.5 130t132.5 49
q83 0 131 -45t48 -108q0 -62 -46 -112.5t-129 -56.5v-2q57 1 108 -20.5t86.5 -69.5t35.5 -113z" />
    <glyph glyph-name="agrave" unicode="&#xe0;" horiz-adv-x="526" 
d="M272 554l-148 157h112l108 -157h-72zM236 -12q-76 0 -136 61t-60 166t60 166t136 61q53 0 88.5 -28.5t53.5 -62.5h1v79h77v-430h-77v79h-1q-18 -34 -53.5 -62.5t-88.5 -28.5zM253 54q53 0 93.5 40t40.5 121t-40.5 121t-93.5 40t-94 -40t-41 -121t41 -121t94 -40z" />
    <glyph glyph-name="aacute" unicode="&#xe1;" horiz-adv-x="526" 
d="M400 711l-138 -157h-72l98 157h112zM236 -12q-76 0 -136 61t-60 166t60 166t136 61q53 0 88.5 -28.5t53.5 -62.5h1v79h77v-430h-77v79h-1q-18 -34 -53.5 -62.5t-88.5 -28.5zM253 54q53 0 93.5 40t40.5 121t-40.5 121t-93.5 40t-94 -40t-41 -121t41 -121t94 -40z" />
    <glyph glyph-name="acircumflex" unicode="&#xe2;" horiz-adv-x="526" 
d="M108 554l127 157h74l127 -157h-74l-90 95l-90 -95h-74zM236 -12q-76 0 -136 61t-60 166t60 166t136 61q53 0 88.5 -28.5t53.5 -62.5h1v79h77v-430h-77v79h-1q-18 -34 -53.5 -62.5t-88.5 -28.5zM253 54q53 0 93.5 40t40.5 121t-40.5 121t-93.5 40t-94 -40t-41 -121
t41 -121t94 -40z" />
    <glyph glyph-name="atilde" unicode="&#xe3;" horiz-adv-x="526" 
d="M325 643q35 0 43 41h65q-8 -55 -36.5 -78t-64.5 -23q-28 0 -63 20t-49 20q-35 0 -41 -40h-66q7 55 36.5 78t65.5 23q27 0 61 -20.5t49 -20.5zM236 -12q-76 0 -136 61t-60 166t60 166t136 61q53 0 88.5 -28.5t53.5 -62.5h1v79h77v-430h-77v79h-1q-18 -34 -53.5 -62.5
t-88.5 -28.5zM253 54q53 0 93.5 40t40.5 121t-40.5 121t-93.5 40t-94 -40t-41 -121t41 -121t94 -40z" />
    <glyph glyph-name="adieresis" unicode="&#xe4;" horiz-adv-x="526" 
d="M334 688h77v-110h-77v110zM210 688v-110h-77v110h77zM236 -12q-76 0 -136 61t-60 166t60 166t136 61q53 0 88.5 -28.5t53.5 -62.5h1v79h77v-430h-77v79h-1q-18 -34 -53.5 -62.5t-88.5 -28.5zM253 54q53 0 93.5 40t40.5 121t-40.5 121t-93.5 40t-94 -40t-41 -121t41 -121
t94 -40z" />
    <glyph glyph-name="aring" unicode="&#xe5;" horiz-adv-x="526" 
d="M266 523q-45 0 -77.5 32.5t-32.5 78.5q0 45 32.5 77.5t77.5 32.5q46 0 78.5 -32.5t32.5 -77.5q0 -46 -32.5 -78.5t-78.5 -32.5zM266 566q28 0 48 20t20 48t-20 47.5t-48 19.5t-47.5 -19.5t-19.5 -47.5t19.5 -48t47.5 -20zM236 -12q-76 0 -136 61t-60 166t60 166t136 61
q53 0 88.5 -28.5t53.5 -62.5h1v79h77v-430h-77v79h-1q-18 -34 -53.5 -62.5t-88.5 -28.5zM253 54q53 0 93.5 40t40.5 121t-40.5 121t-93.5 40t-94 -40t-41 -121t41 -121t94 -40z" />
    <glyph glyph-name="ae" unicode="&#xe6;" horiz-adv-x="840" 
d="M236 -12q-76 0 -136 61t-60 166t60 166t136 61q53 0 88.5 -28.5t53.5 -62.5h1v79h71v-51q50 65 143 65q86 0 147 -62.5t63 -182.5h-352q3 -61 41 -103t96 -42q92 0 124 68h81q-21 -61 -75 -97.5t-127 -36.5q-90 0 -141 64v-52h-71v79h-1q-18 -34 -53.5 -62.5t-88.5 -28.5
zM589 380q-54 0 -90 -33t-45 -88h266q-6 54 -42.5 87.5t-88.5 33.5zM253 54q53 0 93.5 40t40.5 121t-40.5 121t-93.5 40t-94 -40t-41 -121t41 -121t94 -40z" />
    <glyph glyph-name="ccedilla" unicode="&#xe7;" horiz-adv-x="497" 
d="M354 -142q0 -46 -35 -70t-86 -24q-46 0 -81 13l10 42q29 -11 58 -11t50 11.5t21 32.5q0 18 -14.5 30t-36.5 12q-24 0 -43 -11l-29 18l55 89q-82 12 -133 75.5t-51 150.5q0 96 61 162t156 66q80 0 135.5 -45t73.5 -118h-76q-14 44 -48 70.5t-85 26.5q-63 0 -101 -47.5
t-38 -114.5t38 -114.5t101 -47.5q51 0 85 26.5t48 70.5h76q-17 -70 -69 -114.5t-127 -48.5l-43 -69h1q25 19 52 19q30 0 52.5 -21.5t22.5 -58.5z" />
    <glyph glyph-name="egrave" unicode="&#xe8;" horiz-adv-x="506" 
d="M264 554l-148 157h112l108 -157h-72zM459 122q-21 -61 -75 -97.5t-127 -36.5q-96 0 -157 66t-61 162t61.5 162t158.5 66q86 0 147 -62.5t63 -182.5h-352q3 -61 41 -103t96 -42q92 0 124 68h81zM255 380q-54 0 -90 -33t-45 -88h266q-6 54 -42.5 87.5t-88.5 33.5z" />
    <glyph glyph-name="eacute" unicode="&#xe9;" horiz-adv-x="506" 
d="M400 711l-138 -157h-72l98 157h112zM459 122q-21 -61 -75 -97.5t-127 -36.5q-96 0 -157 66t-61 162t61.5 162t158.5 66q86 0 147 -62.5t63 -182.5h-352q3 -61 41 -103t96 -42q92 0 124 68h81zM255 380q-54 0 -90 -33t-45 -88h266q-6 54 -42.5 87.5t-88.5 33.5z" />
    <glyph glyph-name="ecircumflex" unicode="&#xea;" horiz-adv-x="506" 
d="M90 554l127 157h74l127 -157h-74l-90 95l-90 -95h-74zM459 122q-21 -61 -75 -97.5t-127 -36.5q-96 0 -157 66t-61 162t61.5 162t158.5 66q86 0 147 -62.5t63 -182.5h-352q3 -61 41 -103t96 -42q92 0 124 68h81zM255 380q-54 0 -90 -33t-45 -88h266q-6 54 -42.5 87.5
t-88.5 33.5z" />
    <glyph glyph-name="edieresis" unicode="&#xeb;" horiz-adv-x="506" 
d="M329 688h77v-110h-77v110zM205 688v-110h-77v110h77zM459 122q-21 -61 -75 -97.5t-127 -36.5q-96 0 -157 66t-61 162t61.5 162t158.5 66q86 0 147 -62.5t63 -182.5h-352q3 -61 41 -103t96 -42q92 0 124 68h81zM255 380q-54 0 -90 -33t-45 -88h266q-6 54 -42.5 87.5
t-88.5 33.5z" />
    <glyph glyph-name="igrave" unicode="&#xec;" horiz-adv-x="217" 
d="M73 554l-148 157h112l108 -157h-72zM147 430v-430h-77v430h77z" />
    <glyph glyph-name="iacute" unicode="&#xed;" horiz-adv-x="217" 
d="M283 711l-138 -157h-72l98 157h112zM147 430v-430h-77v430h77z" />
    <glyph glyph-name="icircumflex" unicode="&#xee;" horiz-adv-x="217" 
d="M-56 554l127 157h74l127 -157h-74l-90 95l-90 -95h-74zM147 430v-430h-77v430h77z" />
    <glyph glyph-name="idieresis" unicode="&#xef;" horiz-adv-x="217" 
d="M171 688h77v-110h-77v110zM47 688v-110h-77v110h77zM147 430v-430h-77v430h77z" />
    <glyph glyph-name="eth" unicode="&#xf0;" horiz-adv-x="542" 
d="M490 256q0 -117 -57.5 -192.5t-169.5 -75.5q-94 0 -159 64.5t-65 163.5q0 94 62 160.5t149 66.5q62 0 103 -32t59 -80h1q-17 128 -82 202q-12 14 -38 38l-105 -74l-27 37l93 66q-48 32 -114 52l19 68q87 -26 156 -77l86 61l27 -37l-77 -54q19 -17 31 -32
q108 -127 108 -325zM266 54q66 0 107.5 47.5t41.5 114.5t-41.5 114t-107.5 47t-107.5 -47t-41.5 -114t41.5 -114.5t107.5 -47.5z" />
    <glyph glyph-name="ntilde" unicode="&#xf1;" horiz-adv-x="504" 
d="M306 643q35 0 43 41h65q-8 -55 -36.5 -78t-64.5 -23q-28 0 -63 20t-49 20q-35 0 -41 -40h-66q7 55 36.5 78t65.5 23q27 0 60.5 -20.5t49.5 -20.5zM148 338q44 103 147 103q60 0 102 -39.5t42 -124.5v-277h-77v267q0 53 -24 80.5t-68 27.5q-56 0 -89.5 -43.5t-33.5 -127.5
v-204h-77v430h77v-92h1z" />
    <glyph glyph-name="ograve" unicode="&#xf2;" 
d="M266 554l-148 157h112l108 -157h-72zM265 -12q-98 0 -162.5 66t-64.5 162t64.5 162t162.5 66t162.5 -66t64.5 -162t-64.5 -162t-162.5 -66zM265 54q66 0 107.5 47.5t41.5 114.5t-41.5 114.5t-107.5 47.5t-107.5 -47.5t-41.5 -114.5t41.5 -114.5t107.5 -47.5z" />
    <glyph glyph-name="oacute" unicode="&#xf3;" 
d="M403 711l-138 -157h-72l98 157h112zM265 -12q-98 0 -162.5 66t-64.5 162t64.5 162t162.5 66t162.5 -66t64.5 -162t-64.5 -162t-162.5 -66zM265 54q66 0 107.5 47.5t41.5 114.5t-41.5 114.5t-107.5 47.5t-107.5 -47.5t-41.5 -114.5t41.5 -114.5t107.5 -47.5z" />
    <glyph glyph-name="ocircumflex" unicode="&#xf4;" 
d="M102 554l127 157h74l127 -157h-74l-90 95l-90 -95h-74zM265 -12q-98 0 -162.5 66t-64.5 162t64.5 162t162.5 66t162.5 -66t64.5 -162t-64.5 -162t-162.5 -66zM265 54q66 0 107.5 47.5t41.5 114.5t-41.5 114.5t-107.5 47.5t-107.5 -47.5t-41.5 -114.5t41.5 -114.5
t107.5 -47.5z" />
    <glyph glyph-name="otilde" unicode="&#xf5;" 
d="M317 643q35 0 43 41h65q-8 -55 -36.5 -78t-64.5 -23q-28 0 -63 20t-49 20q-35 0 -41 -40h-66q7 55 36.5 78t65.5 23q27 0 61 -20.5t49 -20.5zM265 -12q-98 0 -162.5 66t-64.5 162t64.5 162t162.5 66t162.5 -66t64.5 -162t-64.5 -162t-162.5 -66zM265 54q66 0 107.5 47.5
t41.5 114.5t-41.5 114.5t-107.5 47.5t-107.5 -47.5t-41.5 -114.5t41.5 -114.5t107.5 -47.5z" />
    <glyph glyph-name="odieresis" unicode="&#xf6;" 
d="M327 688h77v-110h-77v110zM203 688v-110h-77v110h77zM265 -12q-98 0 -162.5 66t-64.5 162t64.5 162t162.5 66t162.5 -66t64.5 -162t-64.5 -162t-162.5 -66zM265 54q66 0 107.5 47.5t41.5 114.5t-41.5 114.5t-107.5 47.5t-107.5 -47.5t-41.5 -114.5t41.5 -114.5
t107.5 -47.5z" />
    <glyph glyph-name="divide" unicode="&#xf7;" 
d="M320 430v-110h-110v110h110zM50 186v62h430v-62h-430zM320 110v-110h-110v110h110z" />
    <glyph glyph-name="oslash" unicode="&#xf8;" horiz-adv-x="540" 
d="M497 216q0 -96 -64.5 -162t-162.5 -66q-84 0 -146 51l-51 -51l-31 30l52 52q-51 62 -51 146q0 96 64.5 162t162.5 66q86 0 146 -52l51 51l31 -30l-51 -51q50 -62 50 -146zM121 216q0 -52 26 -93l219 219q-41 36 -96 36q-66 0 -107.5 -47.5t-41.5 -114.5zM419 216
q0 51 -25 93l-220 -220q40 -35 96 -35q66 0 107.5 47.5t41.5 114.5z" />
    <glyph glyph-name="ugrave" unicode="&#xf9;" horiz-adv-x="495" 
d="M245 554l-148 157h112l108 -157h-72zM205 -12q-59 0 -99.5 40t-40.5 124v278h77v-268q0 -52 23 -80t64 -28q54 0 86.5 44t32.5 127v205h77v-430h-77v91h-1q-44 -103 -142 -103z" />
    <glyph glyph-name="uacute" unicode="&#xfa;" horiz-adv-x="495" 
d="M383 711l-138 -157h-72l98 157h112zM205 -12q-59 0 -99.5 40t-40.5 124v278h77v-268q0 -52 23 -80t64 -28q54 0 86.5 44t32.5 127v205h77v-430h-77v91h-1q-44 -103 -142 -103z" />
    <glyph glyph-name="ucircumflex" unicode="&#xfb;" horiz-adv-x="495" 
d="M81 554l127 157h74l127 -157h-74l-90 95l-90 -95h-74zM205 -12q-59 0 -99.5 40t-40.5 124v278h77v-268q0 -52 23 -80t64 -28q54 0 86.5 44t32.5 127v205h77v-430h-77v91h-1q-44 -103 -142 -103z" />
    <glyph glyph-name="udieresis" unicode="&#xfc;" horiz-adv-x="495" 
d="M307 688h77v-110h-77v110zM183 688v-110h-77v110h77zM205 -12q-59 0 -99.5 40t-40.5 124v278h77v-268q0 -52 23 -80t64 -28q54 0 86.5 44t32.5 127v205h77v-430h-77v91h-1q-44 -103 -142 -103z" />
    <glyph glyph-name="yacute" unicode="&#xfd;" horiz-adv-x="470" 
d="M374 711l-138 -157h-72l98 157h112zM197 -230v230l-188 430h79l147 -340l147 340h79l-188 -430v-230h-76z" />
    <glyph glyph-name="thorn" unicode="&#xfe;" horiz-adv-x="526" 
d="M70 -230v941h77v-360h1q18 34 53.5 62.5t88.5 28.5q76 0 136 -61t60 -166t-60 -166t-136 -61q-53 0 -88.5 28.5t-53.5 62.5h-1v-309h-77zM408 215q0 81 -41 121t-94 40t-93.5 -40t-40.5 -121t40.5 -121t93.5 -40t94 40t41 121z" />
    <glyph glyph-name="ydieresis" unicode="&#xff;" horiz-adv-x="470" 
d="M299 688h77v-110h-77v110zM175 688v-110h-77v110h77zM197 -230v230l-188 430h79l147 -340l147 340h79l-188 -430v-230h-76z" />
    <glyph glyph-name="Amacron" unicode="&#x100;" horiz-adv-x="642" 
d="M450 753h-260v67h260v-67zM543 0l-77 208h-290l-77 -208h-86l265 692h86l265 -692h-86zM321 600l-118 -320h236z" />
    <glyph glyph-name="amacron" unicode="&#x101;" horiz-adv-x="526" 
d="M402 600h-260v67h260v-67zM236 -12q-76 0 -136 61t-60 166t60 166t136 61q53 0 88.5 -28.5t53.5 -62.5h1v79h77v-430h-77v79h-1q-18 -34 -53.5 -62.5t-88.5 -28.5zM253 54q53 0 93.5 40t40.5 121t-40.5 121t-93.5 40t-94 -40t-41 -121t41 -121t94 -40z" />
    <glyph glyph-name="Abreve" unicode="&#x102;" horiz-adv-x="642" 
d="M321 739q-61 0 -99.5 32.5t-43.5 82.5h61q15 -64 82 -64t82 64h61q-5 -50 -43.5 -82.5t-99.5 -32.5zM543 0l-77 208h-290l-77 -208h-86l265 692h86l265 -692h-86zM321 600l-118 -320h236z" />
    <glyph glyph-name="abreve" unicode="&#x103;" horiz-adv-x="526" 
d="M269 576q-61 0 -99.5 32.5t-43.5 82.5h61q15 -64 82 -64t82 64h61q-5 -50 -43.5 -82.5t-99.5 -32.5zM236 -12q-76 0 -136 61t-60 166t60 166t136 61q53 0 88.5 -28.5t53.5 -62.5h1v79h77v-430h-77v79h-1q-18 -34 -53.5 -62.5t-88.5 -28.5zM253 54q53 0 93.5 40t40.5 121
t-40.5 121t-93.5 40t-94 -40t-41 -121t41 -121t94 -40z" />
    <glyph glyph-name="Aogonek" unicode="&#x104;" horiz-adv-x="642" 
d="M449 -132q0 85 94 132l-77 208h-290l-77 -208h-86l265 692h86l265 -692q-50 -24 -76.5 -55.5t-26.5 -63.5q0 -23 12.5 -38t38.5 -15q29 0 52 17v-63q-27 -18 -71 -18q-52 0 -80.5 30.5t-28.5 73.5zM321 600l-118 -320h236z" />
    <glyph glyph-name="aogonek" unicode="&#x105;" horiz-adv-x="526" 
d="M279 -117q0 39 25.5 65t74.5 52v79h-1q-18 -34 -53.5 -62.5t-88.5 -28.5q-76 0 -136 61t-60 166t60 166t136 61q53 0 88.5 -28.5t53.5 -62.5h1v79h77v-430q-50 -28 -76.5 -53t-26.5 -53q0 -49 51 -49q29 0 52 17v-60q-27 -18 -69 -18q-51 0 -79.5 29.5t-28.5 69.5z
M253 54q53 0 93.5 40t40.5 121t-40.5 121t-93.5 40t-94 -40t-41 -121t41 -121t94 -40z" />
    <glyph glyph-name="Cacute" unicode="&#x106;" horiz-adv-x="746" 
d="M546 864l-138 -121h-72l98 121h112zM396 -12q-147 0 -249 103t-102 255q0 151 102 254t249 103q111 0 199.5 -60t117.5 -163h-89q-22 71 -86.5 111t-141.5 40q-111 0 -189.5 -81t-78.5 -204t78.5 -204.5t189.5 -81.5q77 0 141.5 40t86.5 111h89q-29 -103 -117.5 -163
t-199.5 -60z" />
    <glyph glyph-name="cacute" unicode="&#x107;" horiz-adv-x="497" 
d="M405 711l-138 -157h-72l98 157h112zM256 -12q-95 0 -156 66t-61 162t61 162t156 66q80 0 135.5 -45t73.5 -118h-76q-14 44 -48 70.5t-85 26.5q-63 0 -101 -47.5t-38 -114.5t38 -114.5t101 -47.5q51 0 85 26.5t48 70.5h76q-18 -73 -73.5 -118t-135.5 -45z" />
    <glyph glyph-name="Ccircumflex" unicode="&#x108;" horiz-adv-x="746" 
d="M238 743l127 121h74l127 -121h-74l-90 59l-90 -59h-74zM396 -12q-147 0 -249 103t-102 255q0 151 102 254t249 103q111 0 199.5 -60t117.5 -163h-89q-22 71 -86.5 111t-141.5 40q-111 0 -189.5 -81t-78.5 -204t78.5 -204.5t189.5 -81.5q77 0 141.5 40t86.5 111h89
q-29 -103 -117.5 -163t-199.5 -60z" />
    <glyph glyph-name="ccircumflex" unicode="&#x109;" horiz-adv-x="497" 
d="M97 554l127 157h74l127 -157h-74l-90 95l-90 -95h-74zM256 -12q-95 0 -156 66t-61 162t61 162t156 66q80 0 135.5 -45t73.5 -118h-76q-14 44 -48 70.5t-85 26.5q-63 0 -101 -47.5t-38 -114.5t38 -114.5t101 -47.5q51 0 85 26.5t48 70.5h76q-18 -73 -73.5 -118t-135.5 -45
z" />
    <glyph glyph-name="Cdotaccent" unicode="&#x10a;" horiz-adv-x="746" 
d="M443 853v-110h-77v110h77zM396 -12q-147 0 -249 103t-102 255q0 151 102 254t249 103q111 0 199.5 -60t117.5 -163h-89q-22 71 -86.5 111t-141.5 40q-111 0 -189.5 -81t-78.5 -204t78.5 -204.5t189.5 -81.5q77 0 141.5 40t86.5 111h89q-29 -103 -117.5 -163t-199.5 -60z
" />
    <glyph glyph-name="cdotaccent" unicode="&#x10b;" horiz-adv-x="497" 
d="M293 688v-110h-77v110h77zM256 -12q-95 0 -156 66t-61 162t61 162t156 66q80 0 135.5 -45t73.5 -118h-76q-14 44 -48 70.5t-85 26.5q-63 0 -101 -47.5t-38 -114.5t38 -114.5t101 -47.5q51 0 85 26.5t48 70.5h76q-18 -73 -73.5 -118t-135.5 -45z" />
    <glyph glyph-name="Ccaron" unicode="&#x10c;" horiz-adv-x="746" 
d="M366 743l-127 121h74l90 -59l90 59h74l-127 -121h-74zM396 -12q-147 0 -249 103t-102 255q0 151 102 254t249 103q111 0 199.5 -60t117.5 -163h-89q-22 71 -86.5 111t-141.5 40q-111 0 -189.5 -81t-78.5 -204t78.5 -204.5t189.5 -81.5q77 0 141.5 40t86.5 111h89
q-29 -103 -117.5 -163t-199.5 -60z" />
    <glyph glyph-name="ccaron" unicode="&#x10d;" horiz-adv-x="497" 
d="M224 554l-127 157h74l90 -95l90 95h74l-127 -157h-74zM256 -12q-95 0 -156 66t-61 162t61 162t156 66q80 0 135.5 -45t73.5 -118h-76q-14 44 -48 70.5t-85 26.5q-63 0 -101 -47.5t-38 -114.5t38 -114.5t101 -47.5q51 0 85 26.5t48 70.5h76q-18 -73 -73.5 -118t-135.5 -45
z" />
    <glyph glyph-name="Dcaron" unicode="&#x10e;" horiz-adv-x="692" 
d="M297 743l-127 121h74l90 -59l90 59h74l-127 -121h-74zM289 0h-197v692h197q152 0 254.5 -97.5t102.5 -248.5t-102.5 -248.5t-254.5 -97.5zM563 346q0 124 -78 199t-196 75h-116v-548h116q118 0 196 75t78 199z" />
    <glyph glyph-name="dcaron" unicode="&#x10f;" horiz-adv-x="550" 
d="M236 -12q-76 0 -136 61t-60 166t60 166t136 61q53 0 88.5 -28.5t53.5 -62.5h1v360h77v-711h-77v79h-1q-18 -34 -53.5 -62.5t-88.5 -28.5zM621 711l-70 -200h-50l30 200h90zM253 54q53 0 93.5 40t40.5 121t-40.5 121t-93.5 40t-94 -40t-41 -121t41 -121t94 -40z" />
    <glyph glyph-name="Dcroat" unicode="&#x110;" horiz-adv-x="701" 
d="M655 346q0 -151 -102.5 -248.5t-254.5 -97.5h-197v320h-80v72h80v300h197q152 0 254.5 -97.5t102.5 -248.5zM182 72h116q118 0 196 75t78 199t-78 199t-196 75h-116v-228h162v-72h-162v-248z" />
    <glyph glyph-name="dcroat" unicode="&#x111;" horiz-adv-x="526" 
d="M378 79q-18 -34 -53.5 -62.5t-88.5 -28.5q-76 0 -136 61t-60 166t60 166t136 61q53 0 88.5 -28.5t53.5 -62.5h1v168h-140v63h140v129h77v-129h80v-63h-80v-519h-77v79h-1zM253 54q53 0 93.5 40t40.5 121t-40.5 121t-93.5 40t-94 -40t-41 -121t41 -121t94 -40z" />
    <glyph glyph-name="Emacron" unicode="&#x112;" horiz-adv-x="554" 
d="M428 753h-260v67h260v-67zM92 0v692h412v-72h-331v-228h290v-72h-290v-248h331v-72h-412z" />
    <glyph glyph-name="emacron" unicode="&#x113;" horiz-adv-x="506" 
d="M397 600h-260v67h260v-67zM459 122q-21 -61 -75 -97.5t-127 -36.5q-96 0 -157 66t-61 162t61.5 162t158.5 66q86 0 147 -62.5t63 -182.5h-352q3 -61 41 -103t96 -42q92 0 124 68h81zM255 380q-54 0 -90 -33t-45 -88h266q-6 54 -42.5 87.5t-88.5 33.5z" />
    <glyph glyph-name="Ebreve" unicode="&#x114;" horiz-adv-x="554" 
d="M303 739q-61 0 -99.5 32.5t-43.5 82.5h61q15 -64 82 -64t82 64h61q-5 -50 -43.5 -82.5t-99.5 -32.5zM92 0v692h412v-72h-331v-228h290v-72h-290v-248h331v-72h-412z" />
    <glyph glyph-name="ebreve" unicode="&#x115;" horiz-adv-x="506" 
d="M267 576q-61 0 -99.5 32.5t-43.5 82.5h61q15 -64 82 -64t82 64h61q-5 -50 -43.5 -82.5t-99.5 -32.5zM459 122q-21 -61 -75 -97.5t-127 -36.5q-96 0 -157 66t-61 162t61.5 162t158.5 66q86 0 147 -62.5t63 -182.5h-352q3 -61 41 -103t96 -42q92 0 124 68h81zM255 380
q-54 0 -90 -33t-45 -88h266q-6 54 -42.5 87.5t-88.5 33.5z" />
    <glyph glyph-name="Edotaccent" unicode="&#x116;" horiz-adv-x="554" 
d="M342 853v-110h-77v110h77zM92 0v692h412v-72h-331v-228h290v-72h-290v-248h331v-72h-412z" />
    <glyph glyph-name="edotaccent" unicode="&#x117;" horiz-adv-x="506" 
d="M296 688v-110h-77v110h77zM459 122q-21 -61 -75 -97.5t-127 -36.5q-96 0 -157 66t-61 162t61.5 162t158.5 66q86 0 147 -62.5t63 -182.5h-352q3 -61 41 -103t96 -42q92 0 124 68h81zM255 380q-54 0 -90 -33t-45 -88h266q-6 54 -42.5 87.5t-88.5 33.5z" />
    <glyph glyph-name="Eogonek" unicode="&#x118;" horiz-adv-x="554" 
d="M326 -132q0 84 97 132h-331v692h412v-72h-331v-228h290v-72h-290v-248h331v-72q-50 -24 -76.5 -55.5t-26.5 -63.5q0 -23 12.5 -38t38.5 -15q29 0 52 17v-63q-27 -18 -71 -18q-52 0 -79.5 30.5t-27.5 73.5z" />
    <glyph glyph-name="eogonek" unicode="&#x119;" horiz-adv-x="506" 
d="M333 -198q-27 -18 -69 -18q-51 0 -79.5 29.5t-28.5 69.5q0 61 80 106q-87 7 -142 72t-55 155q0 96 61.5 162t158.5 66q86 0 147 -62.5t63 -182.5h-352q3 -61 41 -103t96 -42q92 0 124 68h81q-32 -91 -126 -122q-50 -28 -76.5 -53t-26.5 -53q0 -49 51 -49q29 0 52 17v-60z
M255 380q-54 0 -90 -33t-45 -88h266q-6 54 -42.5 87.5t-88.5 33.5z" />
    <glyph glyph-name="Ecaron" unicode="&#x11a;" horiz-adv-x="554" 
d="M266 743l-127 121h74l90 -59l90 59h74l-127 -121h-74zM92 0v692h412v-72h-331v-228h290v-72h-290v-248h331v-72h-412z" />
    <glyph glyph-name="ecaron" unicode="&#x11b;" horiz-adv-x="506" 
d="M230 554l-127 157h74l90 -95l90 95h74l-127 -157h-74zM459 122q-21 -61 -75 -97.5t-127 -36.5q-96 0 -157 66t-61 162t61.5 162t158.5 66q86 0 147 -62.5t63 -182.5h-352q3 -61 41 -103t96 -42q92 0 124 68h81zM255 380q-54 0 -90 -33t-45 -88h266q-6 54 -42.5 87.5
t-88.5 33.5z" />
    <glyph glyph-name="Gcircumflex" unicode="&#x11c;" horiz-adv-x="768" 
d="M239 743l127 121h74l127 -121h-74l-90 59l-90 -59h-74zM386 -12q-148 0 -244.5 102.5t-96.5 255.5q0 151 102.5 254t249.5 103q107 0 190 -57.5t116 -155.5h-89q-25 65 -84.5 103t-132.5 38q-111 0 -190 -81t-79 -204q0 -126 74 -206t195 -80q106 0 168.5 48.5
t62.5 120.5v55h-182v72h263v-356h-78v128h-1q-20 -56 -84 -98t-160 -42z" />
    <glyph glyph-name="gcircumflex" unicode="&#x11d;" horiz-adv-x="519" 
d="M99 554l127 157h74l127 -157h-74l-90 95l-90 -95h-74zM470 -71q0 -74 -60.5 -122.5t-146.5 -48.5q-101 0 -164.5 66t-65.5 176h79q1 -92 46 -134t104 -42q62 0 98.5 32.5t36.5 79.5q0 48 -39.5 85t-104.5 37h2h-14q-84 0 -141 56t-57 137t57 137t141 56q39 0 75 -14h218
l-55 -55h-85q45 -53 45 -124q0 -56 -28.5 -102t-77.5 -70q66 -16 101.5 -58t35.5 -92zM241 122q55 0 88.5 36.5t33.5 92.5t-33.5 92.5t-88.5 36.5t-88.5 -36.5t-33.5 -92.5t33.5 -92.5t88.5 -36.5z" />
    <glyph glyph-name="Gbreve" unicode="&#x11e;" horiz-adv-x="768" 
d="M402 739q-61 0 -99.5 32.5t-43.5 82.5h61q15 -64 82 -64t82 64h61q-5 -50 -43.5 -82.5t-99.5 -32.5zM386 -12q-148 0 -244.5 102.5t-96.5 255.5q0 151 102.5 254t249.5 103q107 0 190 -57.5t116 -155.5h-89q-25 65 -84.5 103t-132.5 38q-111 0 -190 -81t-79 -204
q0 -126 74 -206t195 -80q106 0 168.5 48.5t62.5 120.5v55h-182v72h263v-356h-78v128h-1q-20 -56 -84 -98t-160 -42z" />
    <glyph glyph-name="gbreve" unicode="&#x11f;" horiz-adv-x="519" 
d="M262 576q-61 0 -99.5 32.5t-43.5 82.5h61q15 -64 82 -64t82 64h61q-5 -50 -43.5 -82.5t-99.5 -32.5zM470 -71q0 -74 -60.5 -122.5t-146.5 -48.5q-101 0 -164.5 66t-65.5 176h79q1 -92 46 -134t104 -42q62 0 98.5 32.5t36.5 79.5q0 48 -39.5 85t-104.5 37h2h-14
q-84 0 -141 56t-57 137t57 137t141 56q39 0 75 -14h218l-55 -55h-85q45 -53 45 -124q0 -56 -28.5 -102t-77.5 -70q66 -16 101.5 -58t35.5 -92zM241 122q55 0 88.5 36.5t33.5 92.5t-33.5 92.5t-88.5 36.5t-88.5 -36.5t-33.5 -92.5t33.5 -92.5t88.5 -36.5z" />
    <glyph glyph-name="Gdotaccent" unicode="&#x120;" horiz-adv-x="768" 
d="M441 853v-110h-77v110h77zM386 -12q-148 0 -244.5 102.5t-96.5 255.5q0 151 102.5 254t249.5 103q107 0 190 -57.5t116 -155.5h-89q-25 65 -84.5 103t-132.5 38q-111 0 -190 -81t-79 -204q0 -126 74 -206t195 -80q106 0 168.5 48.5t62.5 120.5v55h-182v72h263v-356h-78
v128h-1q-20 -56 -84 -98t-160 -42z" />
    <glyph glyph-name="gdotaccent" unicode="&#x121;" horiz-adv-x="519" 
d="M302 688v-110h-77v110h77zM470 -71q0 -74 -60.5 -122.5t-146.5 -48.5q-101 0 -164.5 66t-65.5 176h79q1 -92 46 -134t104 -42q62 0 98.5 32.5t36.5 79.5q0 48 -39.5 85t-104.5 37h2h-14q-84 0 -141 56t-57 137t57 137t141 56q39 0 75 -14h218l-55 -55h-85q45 -53 45 -124
q0 -56 -28.5 -102t-77.5 -70q66 -16 101.5 -58t35.5 -92zM241 122q55 0 88.5 36.5t33.5 92.5t-33.5 92.5t-88.5 36.5t-88.5 -36.5t-33.5 -92.5t33.5 -92.5t88.5 -36.5z" />
    <glyph glyph-name="Gcommaaccent" unicode="&#x122;" horiz-adv-x="768" 
d="M386 -12q-148 0 -244.5 102.5t-96.5 255.5q0 151 102.5 254t249.5 103q107 0 190 -57.5t116 -155.5h-89q-25 65 -84.5 103t-132.5 38q-111 0 -190 -81t-79 -204q0 -126 74 -206t195 -80q106 0 168.5 48.5t62.5 120.5v55h-182v72h263v-356h-78v128h-1q-20 -56 -84 -98
t-160 -42zM335 -262l49 97h-39v95h92v-95l-49 -97h-53z" />
    <glyph glyph-name="gcommaaccent" unicode="&#x123;" horiz-adv-x="519" 
d="M217 554v95l49 97h53l-49 -97h39v-95h-92zM470 -71q0 -74 -60.5 -122.5t-146.5 -48.5q-101 0 -164.5 66t-65.5 176h79q1 -92 46 -134t104 -42q62 0 98.5 32.5t36.5 79.5q0 48 -39.5 85t-104.5 37h2h-14q-84 0 -141 56t-57 137t57 137t141 56q39 0 75 -14h218l-55 -55h-85
q45 -53 45 -124q0 -56 -28.5 -102t-77.5 -70q66 -16 101.5 -58t35.5 -92zM241 122q55 0 88.5 36.5t33.5 92.5t-33.5 92.5t-88.5 36.5t-88.5 -36.5t-33.5 -92.5t33.5 -92.5t88.5 -36.5z" />
    <glyph glyph-name="Hcircumflex" unicode="&#x124;" horiz-adv-x="727" 
d="M200 743l127 121h74l127 -121h-74l-90 59l-90 -59h-74zM554 0v320h-381v-320h-81v692h81v-300h381v300h81v-692h-81z" />
    <glyph glyph-name="hcircumflex" unicode="&#x125;" horiz-adv-x="504" 
d="M-54 743l127 121h74l127 -121h-74l-90 59l-90 -59h-74zM148 338q44 103 147 103q60 0 102 -39.5t42 -124.5v-277h-77v267q0 53 -24 80.5t-68 27.5q-56 0 -89.5 -43.5t-33.5 -127.5v-204h-77v711h77v-373h1z" />
    <glyph glyph-name="Hbar" unicode="&#x126;" horiz-adv-x="747" 
d="M183 320v-320h-81v497h-80v70h80v125h81v-125h381v125h81v-125h80v-70h-80v-497h-81v320h-381zM183 392h381v105h-381v-105z" />
    <glyph glyph-name="hbar" unicode="&#x127;" horiz-adv-x="504" 
d="M147 204v-204h-77v519h-80v63h80v129h77v-129h143v-63h-143v-181h1q44 103 147 103q60 0 102 -39.5t42 -124.5v-277h-77v267q0 53 -24 80.5t-68 27.5q-56 0 -89.5 -43.5t-33.5 -127.5z" />
    <glyph glyph-name="Itilde" unicode="&#x128;" horiz-adv-x="265" 
d="M185 816q35 0 43 41h65q-8 -55 -36.5 -78t-64.5 -23q-28 0 -63 20t-49 20q-35 0 -41 -40h-66q7 55 36.5 78t65.5 23q27 0 61 -20.5t49 -20.5zM173 692v-692h-81v692h81z" />
    <glyph glyph-name="itilde" unicode="&#x129;" horiz-adv-x="217" 
d="M161 643q35 0 43 41h65q-8 -55 -36.5 -78t-64.5 -23q-28 0 -63 20t-49 20q-35 0 -41 -40h-66q7 55 36.5 78t65.5 23q27 0 61 -20.5t49 -20.5zM147 430v-430h-77v430h77z" />
    <glyph glyph-name="Imacron" unicode="&#x12a;" horiz-adv-x="265" 
d="M263 753h-260v67h260v-67zM173 692v-692h-81v692h81z" />
    <glyph glyph-name="imacron" unicode="&#x12b;" horiz-adv-x="217" 
d="M238 600h-260v67h260v-67zM147 430v-430h-77v430h77z" />
    <glyph glyph-name="Ibreve" unicode="&#x12c;" horiz-adv-x="265" 
d="M133 739q-61 0 -99.5 32.5t-43.5 82.5h61q15 -64 82 -64t82 64h61q-5 -50 -43.5 -82.5t-99.5 -32.5zM173 692v-692h-81v692h81z" />
    <glyph glyph-name="ibreve" unicode="&#x12d;" horiz-adv-x="217" 
d="M108 576q-61 0 -99.5 32.5t-43.5 82.5h61q15 -64 82 -64t82 64h61q-5 -50 -43.5 -82.5t-99.5 -32.5zM147 430v-430h-77v430h77z" />
    <glyph glyph-name="Iogonek" unicode="&#x12e;" horiz-adv-x="265" 
d="M-5 -132q0 84 97 132v692h81v-692q-50 -24 -76.5 -55.5t-26.5 -63.5q0 -23 12.5 -38t38.5 -15q29 0 52 17v-63q-27 -18 -71 -18q-52 0 -79.5 30.5t-27.5 73.5z" />
    <glyph glyph-name="iogonek" unicode="&#x12f;" horiz-adv-x="217" 
d="M147 688v-110h-77v110h77zM-30 -117q0 39 25.5 65t74.5 52v430h77v-430q-50 -28 -76.5 -53t-26.5 -53q0 -49 51 -49q29 0 52 17v-60q-27 -18 -69 -18q-51 0 -79.5 29.5t-28.5 69.5z" />
    <glyph glyph-name="Idotaccent" unicode="&#x130;" horiz-adv-x="265" 
d="M172 853v-110h-77v110h77zM173 692v-692h-81v692h81z" />
    <glyph glyph-name="dotlessi" unicode="&#x131;" horiz-adv-x="217" 
d="M147 430v-430h-77v430h77z" />
    <glyph glyph-name="Jcircumflex" unicode="&#x134;" horiz-adv-x="509" 
d="M219 743l127 121h74l127 -121h-74l-90 59l-90 -59h-74zM222 -12q-91 0 -147.5 56t-56.5 147h80q0 -67 33.5 -99t89.5 -32q54 0 88 30.5t34 88.5v513h81v-499q0 -92 -55.5 -148.5t-146.5 -56.5z" />
    <glyph glyph-name="jcircumflex" unicode="&#x135;" horiz-adv-x="217" 
d="M-56 554l127 157h74l127 -157h-74l-90 95l-90 -95h-74zM71 -242h-1v672h77v-595z" />
    <glyph glyph-name="Kcommaaccent" unicode="&#x136;" horiz-adv-x="582" 
d="M173 692v-692h-81v692h81zM478 0l-294 347v2l292 343h97l-291 -341l298 -351h-102zM253 -262l49 97h-39v95h92v-95l-49 -97h-53z" />
    <glyph glyph-name="kcommaaccent" unicode="&#x137;" horiz-adv-x="459" 
d="M147 711v-711h-77v711h77zM158 227l190 203h96l-190 -203l201 -227h-97l-200 226v1zM180 -262l49 97h-39v95h92v-95l-49 -97h-53z" />
    <glyph glyph-name="Lacute" unicode="&#x139;" horiz-adv-x="502" 
d="M303 864l-138 -121h-72l98 121h112zM92 0v692h81v-620h317v-72h-398z" />
    <glyph glyph-name="lacute" unicode="&#x13a;" horiz-adv-x="217" 
d="M283 864l-138 -121h-72l98 121h112zM147 711v-711h-77v711h77z" />
    <glyph glyph-name="Lcommaaccent" unicode="&#x13b;" horiz-adv-x="502" 
d="M92 0v692h81v-620h317v-72h-398zM235 -262l49 97h-39v95h92v-95l-49 -97h-53z" />
    <glyph glyph-name="lcommaaccent" unicode="&#x13c;" horiz-adv-x="217" 
d="M147 711v-711h-77v711h77zM52 -262l49 97h-39v95h92v-95l-49 -97h-53z" />
    <glyph glyph-name="Lcaron" unicode="&#x13d;" horiz-adv-x="506" 
d="M92 0v692h81v-620h317v-72h-398zM427 692l-70 -200h-50l30 200h90z" />
    <glyph glyph-name="lcaron" unicode="&#x13e;" horiz-adv-x="241" 
d="M147 711v-711h-77v711h77zM313 711l-70 -200h-50l30 200h90z" />
    <glyph glyph-name="Ldot" unicode="&#x13f;" horiz-adv-x="508" 
d="M92 0v692h81v-620h317v-72h-398zM428 440v-110h-77v110h77z" />
    <glyph glyph-name="ldot" unicode="&#x140;" horiz-adv-x="296" 
d="M147 711v-711h-77v711h77zM296 416v-110h-77v110h77z" />
    <glyph glyph-name="Lslash" unicode="&#x141;" horiz-adv-x="518" 
d="M505 72v-72h-398v261l-80 -56v81l80 56v350h81v-294l187 131v-81l-187 -131v-245h317z" />
    <glyph glyph-name="lslash" unicode="&#x142;" horiz-adv-x="289" 
d="M271 423l-80 -58v-365h-77v309l-80 -58v75l80 58v327h77v-271l80 58v-75z" />
    <glyph glyph-name="Nacute" unicode="&#x143;" horiz-adv-x="706" 
d="M519 864l-138 -121h-72l98 121h112zM173 0h-81v692h83l358 -562v562h81v-692h-83l-358 563v-563z" />
    <glyph glyph-name="nacute" unicode="&#x144;" horiz-adv-x="504" 
d="M414 711l-138 -157h-72l98 157h112zM148 338q44 103 147 103q60 0 102 -39.5t42 -124.5v-277h-77v267q0 53 -24 80.5t-68 27.5q-56 0 -89.5 -43.5t-33.5 -127.5v-204h-77v430h77v-92h1z" />
    <glyph glyph-name="Ncommaaccent" unicode="&#x145;" horiz-adv-x="706" 
d="M173 0h-81v692h83l358 -562v562h81v-692h-83l-358 563v-563zM297 -262l49 97h-39v95h92v-95l-49 -97h-53z" />
    <glyph glyph-name="ncommaaccent" unicode="&#x146;" horiz-adv-x="504" 
d="M148 338q44 103 147 103q60 0 102 -39.5t42 -124.5v-277h-77v267q0 53 -24 80.5t-68 27.5q-56 0 -89.5 -43.5t-33.5 -127.5v-204h-77v430h77v-92h1zM199 -262l49 97h-39v95h92v-95l-49 -97h-53z" />
    <glyph glyph-name="Ncaron" unicode="&#x147;" horiz-adv-x="706" 
d="M316 743l-127 121h74l90 -59l90 59h74l-127 -121h-74zM173 0h-81v692h83l358 -562v562h81v-692h-83l-358 563v-563z" />
    <glyph glyph-name="ncaron" unicode="&#x148;" horiz-adv-x="504" 
d="M227 554l-127 157h74l90 -95l90 95h74l-127 -157h-74zM148 338q44 103 147 103q60 0 102 -39.5t42 -124.5v-277h-77v267q0 53 -24 80.5t-68 27.5q-56 0 -89.5 -43.5t-33.5 -127.5v-204h-77v430h77v-92h1z" />
    <glyph glyph-name="Eng" unicode="&#x14a;" horiz-adv-x="706" 
d="M533 692h81v-857l-76 -77h-5v239l-360 560v-557h-81v692h83l358 -556v556z" />
    <glyph glyph-name="eng" unicode="&#x14b;" horiz-adv-x="504" 
d="M295 441q60 0 102 -39.5t42 -124.5v-442l-76 -77h-1v509q0 53 -24 80.5t-68 27.5q-56 0 -89.5 -43.5t-33.5 -127.5v-204h-77v430h77v-92h1q44 103 147 103z" />
    <glyph glyph-name="Omacron" unicode="&#x14c;" horiz-adv-x="804" 
d="M532 753h-260v67h260v-67zM759 346q0 -152 -103.5 -255t-253.5 -103t-253.5 103t-103.5 255t103 254.5t254 102.5t254 -102.5t103 -254.5zM676 346q0 123 -80 204t-194 81t-194 -81t-80 -204t80 -204.5t194 -81.5t194 81.5t80 204.5z" />
    <glyph glyph-name="omacron" unicode="&#x14d;" 
d="M395 600h-260v67h260v-67zM265 -12q-98 0 -162.5 66t-64.5 162t64.5 162t162.5 66t162.5 -66t64.5 -162t-64.5 -162t-162.5 -66zM265 54q66 0 107.5 47.5t41.5 114.5t-41.5 114.5t-107.5 47.5t-107.5 -47.5t-41.5 -114.5t41.5 -114.5t107.5 -47.5z" />
    <glyph glyph-name="Obreve" unicode="&#x14e;" horiz-adv-x="804" 
d="M403 739q-61 0 -99.5 32.5t-43.5 82.5h61q15 -64 82 -64t82 64h61q-5 -50 -43.5 -82.5t-99.5 -32.5zM759 346q0 -152 -103.5 -255t-253.5 -103t-253.5 103t-103.5 255t103 254.5t254 102.5t254 -102.5t103 -254.5zM676 346q0 123 -80 204t-194 81t-194 -81t-80 -204
t80 -204.5t194 -81.5t194 81.5t80 204.5z" />
    <glyph glyph-name="obreve" unicode="&#x14f;" 
d="M265 576q-61 0 -99.5 32.5t-43.5 82.5h61q15 -64 82 -64t82 64h61q-5 -50 -43.5 -82.5t-99.5 -32.5zM265 -12q-98 0 -162.5 66t-64.5 162t64.5 162t162.5 66t162.5 -66t64.5 -162t-64.5 -162t-162.5 -66zM265 54q66 0 107.5 47.5t41.5 114.5t-41.5 114.5t-107.5 47.5
t-107.5 -47.5t-41.5 -114.5t41.5 -114.5t107.5 -47.5z" />
    <glyph glyph-name="Ohungarumlaut" unicode="&#x150;" horiz-adv-x="804" 
d="M448 743l98 121h102l-138 -121h-62zM286 743l98 121h102l-138 -121h-62zM759 346q0 -152 -103.5 -255t-253.5 -103t-253.5 103t-103.5 255t103 254.5t254 102.5t254 -102.5t103 -254.5zM676 346q0 123 -80 204t-194 81t-194 -81t-80 -204t80 -204.5t194 -81.5t194 81.5
t80 204.5z" />
    <glyph glyph-name="ohungarumlaut" unicode="&#x151;" 
d="M490 711l-138 -157h-62l98 157h102zM338 711l-138 -157h-62l98 157h102zM265 -12q-98 0 -162.5 66t-64.5 162t64.5 162t162.5 66t162.5 -66t64.5 -162t-64.5 -162t-162.5 -66zM265 54q66 0 107.5 47.5t41.5 114.5t-41.5 114.5t-107.5 47.5t-107.5 -47.5t-41.5 -114.5
t41.5 -114.5t107.5 -47.5z" />
    <glyph glyph-name="OE" unicode="&#x152;" horiz-adv-x="1131" 
d="M676 0v121q-47 -63 -118 -98t-156 -35q-150 0 -253.5 103t-103.5 255t103 254.5t254 102.5q85 0 156 -35t118 -97v121h405v-72h-331v-228h290v-72h-290v-248h331v-72h-405zM676 346q0 123 -80 204t-194 81t-194 -81t-80 -204t80 -204.5t194 -81.5t194 81.5t80 204.5z" />
    <glyph glyph-name="oe" unicode="&#x153;" horiz-adv-x="875" 
d="M828 122q-21 -61 -75 -97.5t-127 -36.5q-121 0 -177 102q-61 -102 -184 -102q-98 0 -162.5 66t-64.5 162t64.5 162t162.5 66q61 0 108.5 -27t75.5 -75q56 102 179 102q86 0 147 -62.5t63 -182.5h-352q3 -61 41 -103t96 -42q92 0 124 68h81zM624 380q-54 0 -90 -33
t-45 -88h266q-6 54 -42.5 87.5t-88.5 33.5zM265 54q66 0 107.5 47.5t41.5 114.5t-41.5 114.5t-107.5 47.5t-107.5 -47.5t-41.5 -114.5t41.5 -114.5t107.5 -47.5z" />
    <glyph glyph-name="Racute" unicode="&#x154;" horiz-adv-x="609" 
d="M456 864l-138 -121h-72l98 121h112zM173 318v-318h-81v692h216q104 0 165.5 -48.5t61.5 -138.5q0 -75 -43 -121.5t-119 -59.5l213 -324h-92l-209 318h-112zM173 390h138q143 0 143 115t-143 115h-138v-230z" />
    <glyph glyph-name="racute" unicode="&#x155;" horiz-adv-x="327" 
d="M312 711l-138 -157h-72l98 157h112zM148 329q42 108 159 108h6v-78h-33q-63 0 -98 -33t-35 -118v-208h-77v430h77v-101h1z" />
    <glyph glyph-name="Rcommaaccent" unicode="&#x156;" horiz-adv-x="609" 
d="M173 318v-318h-81v692h216q104 0 165.5 -48.5t61.5 -138.5q0 -75 -43 -121.5t-119 -59.5l213 -324h-92l-209 318h-112zM173 390h138q143 0 143 115t-143 115h-138v-230zM259 -262l49 97h-39v95h92v-95l-49 -97h-53z" />
    <glyph glyph-name="rcommaaccent" unicode="&#x157;" horiz-adv-x="327" 
d="M148 329q42 108 159 108h6v-78h-33q-63 0 -98 -33t-35 -118v-208h-77v430h77v-101h1zM53 -262l49 97h-39v95h92v-95l-49 -97h-53z" />
    <glyph glyph-name="Rcaron" unicode="&#x158;" horiz-adv-x="609" 
d="M272 743l-127 121h74l90 -59l90 59h74l-127 -121h-74zM173 318v-318h-81v692h216q104 0 165.5 -48.5t61.5 -138.5q0 -75 -43 -121.5t-119 -59.5l213 -324h-92l-209 318h-112zM173 390h138q143 0 143 115t-143 115h-138v-230z" />
    <glyph glyph-name="rcaron" unicode="&#x159;" horiz-adv-x="327" 
d="M164 554l-127 157h74l90 -95l90 95h74l-127 -157h-74zM148 329q42 108 159 108h6v-78h-33q-63 0 -98 -33t-35 -118v-208h-77v430h77v-101h1z" />
    <glyph glyph-name="Sacute" unicode="&#x15a;" horiz-adv-x="517" 
d="M409 864l-138 -121h-72l98 121h112zM261 -12q-102 0 -160 64t-61 135h86q3 -51 39 -90t98 -39q64 0 97 30.5t33 77.5q0 89 -119 137l-57 23q-157 64 -157 200q0 78 54.5 127.5t141.5 49.5q79 0 133.5 -45t68.5 -137h-84q-9 55 -42 83.5t-80 28.5q-44 0 -77.5 -29
t-33.5 -77q0 -82 100 -123l66 -27q167 -69 167 -208q0 -76 -56.5 -128.5t-156.5 -52.5z" />
    <glyph glyph-name="sacute" unicode="&#x15b;" horiz-adv-x="381" 
d="M357 711l-138 -157h-72l98 157h112zM197 -12q-65 0 -111.5 36.5t-50.5 102.5h74q8 -77 89 -77q35 0 53.5 16t18.5 40q0 22 -17 38.5t-56 32.5l-49 20q-99 40 -99 126q0 53 38 86.5t100 33.5q51 0 94 -33t49 -96h-73q-12 66 -71 66q-30 0 -46.5 -15t-16.5 -38
q0 -26 15.5 -40.5t43.5 -25.5l50 -20q56 -23 84 -53.5t28 -80.5q0 -49 -41 -84t-106 -35z" />
    <glyph glyph-name="Scircumflex" unicode="&#x15c;" horiz-adv-x="517" 
d="M101 743l127 121h74l127 -121h-74l-90 59l-90 -59h-74zM261 -12q-102 0 -160 64t-61 135h86q3 -51 39 -90t98 -39q64 0 97 30.5t33 77.5q0 89 -119 137l-57 23q-157 64 -157 200q0 78 54.5 127.5t141.5 49.5q79 0 133.5 -45t68.5 -137h-84q-9 55 -42 83.5t-80 28.5
q-44 0 -77.5 -29t-33.5 -77q0 -82 100 -123l66 -27q167 -69 167 -208q0 -76 -56.5 -128.5t-156.5 -52.5z" />
    <glyph glyph-name="scircumflex" unicode="&#x15d;" horiz-adv-x="381" 
d="M33 554l127 157h74l127 -157h-74l-90 95l-90 -95h-74zM197 -12q-65 0 -111.5 36.5t-50.5 102.5h74q8 -77 89 -77q35 0 53.5 16t18.5 40q0 22 -17 38.5t-56 32.5l-49 20q-99 40 -99 126q0 53 38 86.5t100 33.5q51 0 94 -33t49 -96h-73q-12 66 -71 66q-30 0 -46.5 -15
t-16.5 -38q0 -26 15.5 -40.5t43.5 -25.5l50 -20q56 -23 84 -53.5t28 -80.5q0 -49 -41 -84t-106 -35z" />
    <glyph glyph-name="Scedilla" unicode="&#x15e;" horiz-adv-x="517" 
d="M371 -142q0 -46 -35 -70t-86 -24q-50 0 -84 14l13 44q29 -11 58 -11t48.5 10t19.5 31q0 18 -13 28.5t-35 10.5q-24 0 -43 -11l-32 21l54 88q-47 4 -85.5 25t-61.5 50.5t-35.5 61t-13.5 61.5h86q3 -51 39 -90t98 -39q64 0 97 30.5t33 77.5q0 89 -119 137l-57 23
q-157 64 -157 200q0 78 54.5 127.5t141.5 49.5q79 0 133.5 -45t68.5 -137h-84q-9 55 -42 83.5t-80 28.5q-44 0 -77.5 -29t-33.5 -77q0 -82 100 -123l66 -27q167 -69 167 -208q0 -71 -49.5 -122t-138.5 -58l-43 -70h1q25 19 52 19q30 0 52.5 -21.5t22.5 -58.5z" />
    <glyph glyph-name="scedilla" unicode="&#x15f;" horiz-adv-x="381" 
d="M295 -142q0 -46 -35 -70t-86 -24q-46 0 -81 13l10 42q29 -11 58 -11t50 11.5t21 32.5q0 18 -14.5 30t-36.5 12q-24 0 -43 -11l-29 18l55 90q-53 8 -89 43.5t-40 92.5h74q8 -77 89 -77q35 0 53.5 16t18.5 40q0 22 -17 38.5t-56 32.5l-49 20q-99 40 -99 126q0 53 38 86.5
t100 33.5q51 0 94 -33t49 -96h-73q-12 66 -71 66q-30 0 -46.5 -15t-16.5 -38q0 -26 15.5 -40.5t43.5 -25.5l50 -20q56 -23 84 -53.5t28 -80.5q0 -46 -37 -80.5t-97 -38.5l-43 -69h1q25 19 52 19q30 0 52.5 -21.5t22.5 -58.5z" />
    <glyph glyph-name="Scaron" unicode="&#x160;" horiz-adv-x="517" 
d="M229 743l-127 121h74l90 -59l90 59h74l-127 -121h-74zM261 -12q-102 0 -160 64t-61 135h86q3 -51 39 -90t98 -39q64 0 97 30.5t33 77.5q0 89 -119 137l-57 23q-157 64 -157 200q0 78 54.5 127.5t141.5 49.5q79 0 133.5 -45t68.5 -137h-84q-9 55 -42 83.5t-80 28.5
q-44 0 -77.5 -29t-33.5 -77q0 -82 100 -123l66 -27q167 -69 167 -208q0 -76 -56.5 -128.5t-156.5 -52.5z" />
    <glyph glyph-name="scaron" unicode="&#x161;" horiz-adv-x="381" 
d="M160 554l-127 157h74l90 -95l90 95h74l-127 -157h-74zM197 -12q-65 0 -111.5 36.5t-50.5 102.5h74q8 -77 89 -77q35 0 53.5 16t18.5 40q0 22 -17 38.5t-56 32.5l-49 20q-99 40 -99 126q0 53 38 86.5t100 33.5q51 0 94 -33t49 -96h-73q-12 66 -71 66q-30 0 -46.5 -15
t-16.5 -38q0 -26 15.5 -40.5t43.5 -25.5l50 -20q56 -23 84 -53.5t28 -80.5q0 -49 -41 -84t-106 -35z" />
    <glyph glyph-name="uni0162" unicode="&#x162;" horiz-adv-x="547" 
d="M535 692v-72h-221v-620h-81v620h-221v72h523zM218 -262l49 97h-39v95h92v-95l-49 -97h-53z" />
    <glyph glyph-name="uni0163" unicode="&#x163;" horiz-adv-x="332" 
d="M197 622v-192h122v-64h-122v-366h-77v366h-105v64h105v116l76 76h1zM103 -262l49 97h-39v95h92v-95l-49 -97h-53z" />
    <glyph glyph-name="Tcaron" unicode="&#x164;" horiz-adv-x="547" 
d="M237 743l-127 121h74l90 -59l90 59h74l-127 -121h-74zM535 692v-72h-221v-620h-81v620h-221v72h523z" />
    <glyph glyph-name="tcaron" unicode="&#x165;" horiz-adv-x="332" 
d="M383 711l-70 -200h-50l30 200h90zM197 622v-192h122v-64h-122v-366h-77v366h-105v64h105v116l76 76h1z" />
    <glyph glyph-name="Tbar" unicode="&#x166;" horiz-adv-x="567" 
d="M465 320h-141v-320h-81v320h-140v72h140v228h-221v72h523v-72h-221v-228h141v-72z" />
    <glyph glyph-name="tbar" unicode="&#x167;" horiz-adv-x="349" 
d="M327 237h-122v-237h-77v237h-105v64h105v65h-105v64h105v116l76 76h1v-192h122v-64h-122v-65h122v-64z" />
    <glyph glyph-name="Utilde" unicode="&#x168;" horiz-adv-x="706" 
d="M404 816q35 0 43 41h65q-8 -55 -36.5 -78t-64.5 -23q-28 0 -63 20t-49 20q-35 0 -41 -40h-66q7 55 36.5 78t65.5 23q28 0 61 -20.5t49 -20.5zM353 60q93 0 140.5 56t47.5 161v415h81v-427q0 -129 -71 -203t-198 -74t-198 74t-71 203v427h81v-415q0 -105 47.5 -161
t140.5 -56z" />
    <glyph glyph-name="utilde" unicode="&#x169;" horiz-adv-x="495" 
d="M298 643q35 0 43 41h65q-8 -55 -36.5 -78t-64.5 -23q-28 0 -63 20t-49 20q-35 0 -41 -40h-66q7 55 36.5 78t65.5 23q28 0 61 -20.5t49 -20.5zM205 -12q-59 0 -99.5 40t-40.5 124v278h77v-268q0 -52 23 -80t64 -28q54 0 86.5 44t32.5 127v205h77v-430h-77v91h-1
q-44 -103 -142 -103z" />
    <glyph glyph-name="Umacron" unicode="&#x16a;" horiz-adv-x="706" 
d="M483 753h-260v67h260v-67zM353 60q93 0 140.5 56t47.5 161v415h81v-427q0 -129 -71 -203t-198 -74t-198 74t-71 203v427h81v-415q0 -105 47.5 -161t140.5 -56z" />
    <glyph glyph-name="umacron" unicode="&#x16b;" horiz-adv-x="495" 
d="M375 600h-260v67h260v-67zM205 -12q-59 0 -99.5 40t-40.5 124v278h77v-268q0 -52 23 -80t64 -28q54 0 86.5 44t32.5 127v205h77v-430h-77v91h-1q-44 -103 -142 -103z" />
    <glyph glyph-name="Ubreve" unicode="&#x16c;" horiz-adv-x="706" 
d="M353 739q-61 0 -99.5 32.5t-43.5 82.5h61q15 -64 82 -64t82 64h61q-5 -50 -43.5 -82.5t-99.5 -32.5zM353 60q93 0 140.5 56t47.5 161v415h81v-427q0 -129 -71 -203t-198 -74t-198 74t-71 203v427h81v-415q0 -105 47.5 -161t140.5 -56z" />
    <glyph glyph-name="ubreve" unicode="&#x16d;" horiz-adv-x="495" 
d="M245 576q-61 0 -99.5 32.5t-43.5 82.5h61q15 -64 82 -64t82 64h61q-5 -50 -43.5 -82.5t-99.5 -32.5zM205 -12q-59 0 -99.5 40t-40.5 124v278h77v-268q0 -52 23 -80t64 -28q54 0 86.5 44t32.5 127v205h77v-430h-77v91h-1q-44 -103 -142 -103z" />
    <glyph glyph-name="Uring" unicode="&#x16e;" horiz-adv-x="706" 
d="M353 739q-45 0 -77.5 32.5t-32.5 78.5q0 45 32.5 77.5t77.5 32.5q46 0 78.5 -32.5t32.5 -77.5q0 -46 -32.5 -78.5t-78.5 -32.5zM353 782q29 0 48.5 20t19.5 48t-20 47.5t-48 19.5t-47.5 -19.5t-19.5 -47.5t19.5 -48t47.5 -20zM353 60q93 0 140.5 56t47.5 161v415h81v-427
q0 -129 -71 -203t-198 -74t-198 74t-71 203v427h81v-415q0 -105 47.5 -161t140.5 -56z" />
    <glyph glyph-name="uring" unicode="&#x16f;" horiz-adv-x="495" 
d="M245 523q-45 0 -77.5 32.5t-32.5 78.5q0 45 32.5 77.5t77.5 32.5q46 0 78.5 -32.5t32.5 -77.5q0 -46 -32.5 -78.5t-78.5 -32.5zM245 566q29 0 48.5 20t19.5 48t-20 47.5t-48 19.5t-47.5 -19.5t-19.5 -47.5t19.5 -48t47.5 -20zM205 -12q-59 0 -99.5 40t-40.5 124v278h77
v-268q0 -52 23 -80t64 -28q54 0 86.5 44t32.5 127v205h77v-430h-77v91h-1q-44 -103 -142 -103z" />
    <glyph glyph-name="Uhungarumlaut" unicode="&#x170;" horiz-adv-x="706" 
d="M390 743l98 121h102l-138 -121h-62zM228 743l98 121h102l-138 -121h-62zM353 60q93 0 140.5 56t47.5 161v415h81v-427q0 -129 -71 -203t-198 -74t-198 74t-71 203v427h81v-415q0 -105 47.5 -161t140.5 -56z" />
    <glyph glyph-name="uhungarumlaut" unicode="&#x171;" horiz-adv-x="495" 
d="M484 711l-138 -157h-62l98 157h102zM332 711l-138 -157h-62l98 157h102zM205 -12q-59 0 -99.5 40t-40.5 124v278h77v-268q0 -52 23 -80t64 -28q54 0 86.5 44t32.5 127v205h77v-430h-77v91h-1q-44 -103 -142 -103z" />
    <glyph glyph-name="Uogonek" unicode="&#x172;" horiz-adv-x="706" 
d="M445 -218q-27 -18 -71 -18q-52 0 -79.5 30.5t-27.5 73.5q0 74 76 120q-123 3 -191 76.5t-68 200.5v427h81v-415q0 -105 47.5 -161t140.5 -56t140.5 56t47.5 161v415h81v-427q0 -104 -46 -172.5t-131 -92.5q-50 -24 -76.5 -55.5t-26.5 -63.5q0 -23 12.5 -38t38.5 -15
q29 0 52 17v-63z" />
    <glyph glyph-name="uogonek" unicode="&#x173;" horiz-adv-x="495" 
d="M248 -117q0 39 25.5 65t74.5 52v91h-1q-44 -103 -142 -103q-59 0 -99.5 40t-40.5 124v278h77v-268q0 -52 23 -80t64 -28q54 0 86.5 44t32.5 127v205h77v-430q-50 -28 -76.5 -53t-26.5 -53q0 -49 51 -49q29 0 52 17v-60q-27 -18 -69 -18q-51 0 -79.5 29.5t-28.5 69.5z" />
    <glyph glyph-name="Wcircumflex" unicode="&#x174;" horiz-adv-x="858" 
d="M265 743l127 121h74l127 -121h-74l-90 59l-90 -59h-74zM187 0l-160 692h80l125 -558l157 515h80l157 -515l125 558h80l-160 -692h-77l-165 536l-165 -536h-77z" />
    <glyph glyph-name="wcircumflex" unicode="&#x175;" horiz-adv-x="652" 
d="M161 554l127 157h74l127 -157h-74l-90 95l-90 -95h-74zM153 0l-131 430h77l96 -326l97 294h68l97 -294l96 326h77l-131 -430h-72l-101 313l-101 -313h-72z" />
    <glyph glyph-name="Ycircumflex" unicode="&#x176;" horiz-adv-x="597" 
d="M135 743l127 121h74l127 -121h-74l-90 59l-90 -59h-74zM299 344l193 348h89l-242 -432v-260h-81v260l-242 432h89z" />
    <glyph glyph-name="ycircumflex" unicode="&#x177;" horiz-adv-x="470" 
d="M72 554l127 157h74l127 -157h-74l-90 95l-90 -95h-74zM197 -230v230l-188 430h79l147 -340l147 340h79l-188 -430v-230h-76z" />
    <glyph glyph-name="Ydieresis" unicode="&#x178;" horiz-adv-x="597" 
d="M160 743v110h77v-110h-77zM361 743v110h77v-110h-77zM299 344l193 348h89l-242 -432v-260h-81v260l-242 432h89z" />
    <glyph glyph-name="Zacute" unicode="&#x179;" horiz-adv-x="560" 
d="M442 864l-138 -121h-72l98 121h112zM8 0l396 620h-353v72h491l-396 -620h380v-72h-518z" />
    <glyph glyph-name="zacute" unicode="&#x17a;" horiz-adv-x="427" 
d="M377 711l-138 -157h-72l98 157h112zM392 0h-375l254 366h-226v64h355l-254 -366h246v-64z" />
    <glyph glyph-name="Zdotaccent" unicode="&#x17b;" horiz-adv-x="560" 
d="M338 853v-110h-77v110h77zM8 0l396 620h-353v72h491l-396 -620h380v-72h-518z" />
    <glyph glyph-name="zdotaccent" unicode="&#x17c;" horiz-adv-x="427" 
d="M270 688v-110h-77v110h77zM392 0h-375l254 366h-226v64h355l-254 -366h246v-64z" />
    <glyph glyph-name="Zcaron" unicode="&#x17d;" horiz-adv-x="560" 
d="M264 743l-127 121h74l90 -59l90 59h74l-127 -121h-74zM8 0l396 620h-353v72h491l-396 -620h380v-72h-518z" />
    <glyph glyph-name="zcaron" unicode="&#x17e;" horiz-adv-x="427" 
d="M195 554l-127 157h74l90 -95l90 95h74l-127 -157h-74zM392 0h-375l254 366h-226v64h355l-254 -366h246v-64z" />
    <glyph glyph-name="uni018F" unicode="&#x18f;" horiz-adv-x="803" 
d="M758 346q0 -152 -103.5 -255t-253.5 -103q-113 0 -201 59.5t-127.5 152t-25.5 192.5h625q-16 106 -92 171.5t-179 65.5q-76 0 -139.5 -37t-98.5 -102h-90q41 97 129 155t199 58q151 0 254 -102.5t103 -254.5zM401 62q108 0 186 72.5t87 185.5h-546q9 -113 87 -185.5
t186 -72.5z" />
    <glyph glyph-name="Scommaaccent" unicode="&#x218;" horiz-adv-x="517" 
d="M261 -12q-102 0 -160 64t-61 135h86q3 -51 39 -90t98 -39q64 0 97 30.5t33 77.5q0 89 -119 137l-57 23q-157 64 -157 200q0 78 54.5 127.5t141.5 49.5q79 0 133.5 -45t68.5 -137h-84q-9 55 -42 83.5t-80 28.5q-44 0 -77.5 -29t-33.5 -77q0 -82 100 -123l66 -27
q167 -69 167 -208q0 -76 -56.5 -128.5t-156.5 -52.5zM208 -262l49 97h-39v95h92v-95l-49 -97h-53z" />
    <glyph glyph-name="scommaaccent" unicode="&#x219;" horiz-adv-x="381" 
d="M197 -12q-65 0 -111.5 36.5t-50.5 102.5h74q8 -77 89 -77q35 0 53.5 16t18.5 40q0 22 -17 38.5t-56 32.5l-49 20q-99 40 -99 126q0 53 38 86.5t100 33.5q51 0 94 -33t49 -96h-73q-12 66 -71 66q-30 0 -46.5 -15t-16.5 -38q0 -26 15.5 -40.5t43.5 -25.5l50 -20
q56 -23 84 -53.5t28 -80.5q0 -49 -41 -84t-106 -35zM141 -265l49 97h-39v95h92v-95l-49 -97h-53z" />
    <glyph glyph-name="Tcommaaccent" unicode="&#x21a;" horiz-adv-x="547" 
d="M535 692v-72h-221v-620h-81v620h-221v72h523zM218 -262l49 97h-39v95h92v-95l-49 -97h-53z" />
    <glyph glyph-name="tcommaaccent" unicode="&#x21b;" horiz-adv-x="332" 
d="M197 622v-192h122v-64h-122v-366h-77v366h-105v64h105v116l76 76h1zM103 -262l49 97h-39v95h92v-95l-49 -97h-53z" />
    <glyph glyph-name="uni0232" unicode="&#x232;" horiz-adv-x="597" 
d="M429 753h-260v67h260v-67zM299 344l193 348h89l-242 -432v-260h-81v260l-242 432h89z" />
    <glyph glyph-name="uni0233" unicode="&#x233;" horiz-adv-x="470" 
d="M366 600h-260v67h260v-67zM197 -230v230l-188 430h79l147 -340l147 340h79l-188 -430v-230h-76z" />
    <glyph glyph-name="dotlessj" unicode="&#x237;" horiz-adv-x="217" 
d="M71 -242h-1v672h77v-595z" />
    <glyph glyph-name="uni0259" unicode="&#x259;" horiz-adv-x="506" 
d="M467 216q0 -96 -61.5 -162t-158.5 -66q-86 0 -147 62.5t-63 182.5h352q-3 61 -41 103t-96 42q-92 0 -124 -68h-81q21 61 75 97.5t127 36.5q96 0 157 -66t61 -162zM251 52q54 0 90 33t45 88h-266q6 -54 42.5 -87.5t88.5 -33.5z" />
    <glyph glyph-name="circumflex" unicode="&#x2c6;" horiz-adv-x="338" 
d="M5 554l127 157h74l127 -157h-74l-90 95l-90 -95h-74z" />
    <glyph glyph-name="caron" unicode="&#x2c7;" horiz-adv-x="338" 
d="M132 554l-127 157h74l90 -95l90 95h74l-127 -157h-74z" />
    <glyph glyph-name="breve" unicode="&#x2d8;" horiz-adv-x="316" 
d="M158 576q-61 0 -99.5 32.5t-43.5 82.5h61q15 -64 82 -64t82 64h61q-5 -50 -43.5 -82.5t-99.5 -32.5z" />
    <glyph glyph-name="dotaccent" unicode="&#x2d9;" horiz-adv-x="147" 
d="M112 688v-110h-77v110h77z" />
    <glyph glyph-name="ring" unicode="&#x2da;" horiz-adv-x="301" 
d="M150 523q-45 0 -77.5 32.5t-32.5 78.5q0 45 32.5 77.5t77.5 32.5q46 0 78.5 -32.5t32.5 -77.5q0 -46 -32.5 -78.5t-78.5 -32.5zM150 566q28 0 48 20t20 48t-20 47.5t-48 19.5t-47.5 -19.5t-19.5 -47.5t19.5 -48t47.5 -20z" />
    <glyph glyph-name="ogonek" unicode="&#x2db;" horiz-adv-x="264" 
d="M220 0q-50 -28 -76.5 -53t-26.5 -53q0 -49 51 -49q29 0 52 17v-60q-27 -18 -69 -18q-51 0 -79.5 29.5t-28.5 69.5q0 39 25.5 65t74.5 52h77z" />
    <glyph glyph-name="tilde" unicode="&#x2dc;" horiz-adv-x="330" 
d="M217 643q35 0 43 41h65q-8 -55 -36.5 -78t-64.5 -23q-28 0 -63 20t-49 20q-35 0 -41 -40h-66q7 55 36.5 78t65.5 23q27 0 61 -20.5t49 -20.5z" />
    <glyph glyph-name="hungarumlaut" unicode="&#x2dd;" horiz-adv-x="374" 
d="M368 711l-138 -157h-62l98 157h102zM216 711l-138 -157h-62l98 157h102z" />
    <glyph glyph-name="Wgrave" unicode="&#x1e80;" horiz-adv-x="858" 
d="M412 743l-133 121h112l93 -121h-72zM187 0l-160 692h80l125 -558l157 515h80l157 -515l125 558h80l-160 -692h-77l-165 536l-165 -536h-77z" />
    <glyph glyph-name="wgrave" unicode="&#x1e81;" horiz-adv-x="652" 
d="M331 554l-148 157h112l108 -157h-72zM153 0l-131 430h77l96 -326l97 294h68l97 -294l96 326h77l-131 -430h-72l-101 313l-101 -313h-72z" />
    <glyph glyph-name="Wacute" unicode="&#x1e82;" horiz-adv-x="858" 
d="M576 864l-138 -121h-72l98 121h112zM187 0l-160 692h80l125 -558l157 515h80l157 -515l125 558h80l-160 -692h-77l-165 536l-165 -536h-77z" />
    <glyph glyph-name="wacute" unicode="&#x1e83;" horiz-adv-x="652" 
d="M477 711l-138 -157h-72l98 157h112zM153 0l-131 430h77l96 -326l97 294h68l97 -294l96 326h77l-131 -430h-72l-101 313l-101 -313h-72z" />
    <glyph glyph-name="Wdieresis" unicode="&#x1e84;" horiz-adv-x="858" 
d="M290 743v110h77v-110h-77zM491 743v110h77v-110h-77zM187 0l-160 692h80l125 -558l157 515h80l157 -515l125 558h80l-160 -692h-77l-165 536l-165 -536h-77z" />
    <glyph glyph-name="wdieresis" unicode="&#x1e85;" horiz-adv-x="652" 
d="M387 688h77v-110h-77v110zM263 688v-110h-77v110h77zM153 0l-131 430h77l96 -326l97 294h68l97 -294l96 326h77l-131 -430h-72l-101 313l-101 -313h-72z" />
    <glyph glyph-name="uni1ECA" unicode="&#x1eca;" horiz-adv-x="265" 
d="M173 692v-692h-81v692h81zM171 -70v-110h-77v110h77z" />
    <glyph glyph-name="uni1ECB" unicode="&#x1ecb;" horiz-adv-x="217" 
d="M147 688v-110h-77v110h77zM147 430v-430h-77v430h77zM147 -70v-110h-77v110h77z" />
    <glyph glyph-name="uni1ECC" unicode="&#x1ecc;" horiz-adv-x="804" 
d="M759 346q0 -152 -103.5 -255t-253.5 -103t-253.5 103t-103.5 255t103 254.5t254 102.5t254 -102.5t103 -254.5zM676 346q0 123 -80 204t-194 81t-194 -81t-80 -204t80 -204.5t194 -81.5t194 81.5t80 204.5zM441 -70v-110h-77v110h77z" />
    <glyph glyph-name="uni1ECD" unicode="&#x1ecd;" 
d="M265 -12q-98 0 -162.5 66t-64.5 162t64.5 162t162.5 66t162.5 -66t64.5 -162t-64.5 -162t-162.5 -66zM265 54q66 0 107.5 47.5t41.5 114.5t-41.5 114.5t-107.5 47.5t-107.5 -47.5t-41.5 -114.5t41.5 -114.5t107.5 -47.5zM303 -70v-110h-77v110h77z" />
    <glyph glyph-name="uni1EE4" unicode="&#x1ee4;" horiz-adv-x="706" 
d="M353 60q93 0 140.5 56t47.5 161v415h81v-427q0 -129 -71 -203t-198 -74t-198 74t-71 203v427h81v-415q0 -105 47.5 -161t140.5 -56zM390 -70v-110h-77v110h77z" />
    <glyph glyph-name="uni1EE5" unicode="&#x1ee5;" horiz-adv-x="495" 
d="M205 -12q-59 0 -99.5 40t-40.5 124v278h77v-268q0 -52 23 -80t64 -28q54 0 86.5 44t32.5 127v205h77v-430h-77v91h-1q-44 -103 -142 -103zM275 -70v-110h-77v110h77z" />
    <glyph glyph-name="Ygrave" unicode="&#x1ef2;" horiz-adv-x="597" 
d="M294 743l-133 121h112l93 -121h-72zM299 344l193 348h89l-242 -432v-260h-81v260l-242 432h89z" />
    <glyph glyph-name="ygrave" unicode="&#x1ef3;" horiz-adv-x="470" 
d="M241 554l-148 157h112l108 -157h-72zM197 -230v230l-188 430h79l147 -340l147 340h79l-188 -430v-230h-76z" />
    <glyph glyph-name="uni2007" unicode="&#x2007;" horiz-adv-x="236" 
 />
    <glyph glyph-name="uni2008" unicode="&#x2008;" horiz-adv-x="234" 
 />
    <glyph glyph-name="uni2009" unicode="&#x2009;" horiz-adv-x="125" 
 />
    <glyph glyph-name="uni200B" unicode="&#x200b;" horiz-adv-x="0" 
 />
    <glyph glyph-name="endash" unicode="&#x2013;" horiz-adv-x="493" 
d="M431 186h-369v62h369v-62z" />
    <glyph glyph-name="emdash" unicode="&#x2014;" horiz-adv-x="775" 
d="M713 186h-651v62h651v-62z" />
    <glyph glyph-name="quoteleft" unicode="&#x2018;" horiz-adv-x="229" 
d="M184 692l-73 -139h53v-110h-110v110l73 139h57z" />
    <glyph glyph-name="quoteright" unicode="&#x2019;" horiz-adv-x="224" 
d="M51 443l73 139h-53v110h110v-110l-73 -139h-57z" />
    <glyph glyph-name="quotesinglbase" unicode="&#x201a;" horiz-adv-x="245" 
d="M49 -139l73 139h-53v110h110v-110l-73 -139h-57z" />
    <glyph glyph-name="quotedblleft" unicode="&#x201c;" horiz-adv-x="410" 
d="M184 692l-73 -139h53v-110h-110v110l73 139h57zM365 692l-73 -139h53v-110h-110v110l73 139h57z" />
    <glyph glyph-name="quotedblright" unicode="&#x201d;" horiz-adv-x="405" 
d="M232 443l73 139h-53v110h110v-110l-73 -139h-57zM51 443l73 139h-53v110h110v-110l-73 -139h-57z" />
    <glyph glyph-name="quotedblbase" unicode="&#x201e;" horiz-adv-x="426" 
d="M230 -139l73 139h-53v110h110v-110l-73 -139h-57zM49 -139l73 139h-53v110h110v-110l-73 -139h-57z" />
    <glyph glyph-name="dagger" unicode="&#x2020;" horiz-adv-x="563" 
d="M521 419h-205v-539h-69v539h-205v63h205v229h69v-229h205v-63z" />
    <glyph glyph-name="daggerdbl" unicode="&#x2021;" horiz-adv-x="563" 
d="M316 99v-219h-69v219h-205v63h205v267h-205v63h205v219h69v-219h205v-63h-205v-267h205v-63h-205z" />
    <glyph glyph-name="bullet" unicode="&#x2022;" horiz-adv-x="466" 
d="M397 224q0 -68 -48.5 -116t-115.5 -48t-115.5 48t-48.5 116t48.5 116t115.5 48t115.5 -48t48.5 -116z" />
    <glyph glyph-name="ellipsis" unicode="&#x2026;" horiz-adv-x="734" 
d="M562 0v110h110v-110h-110zM312 0v110h110v-110h-110zM62 0v110h110v-110h-110z" />
    <glyph glyph-name="perthousand" unicode="&#x2030;" horiz-adv-x="1277" 
d="M377 506q0 -87 -49 -142t-123 -55t-123 55t-49 142t49 142t123 55t123 -55t49 -142zM167 0l469 692h76l-469 -692h-76zM106 506q0 -64 26 -99t73 -35t73 35t26 99t-26 99t-73 35t-73 -35t-26 -99zM1245 185q0 -87 -49 -142t-123 -55t-123 55t-49 142t49 142t123 55
t123 -55t49 -142zM845 185q0 -87 -49 -142t-123 -55t-123 55t-49 142t49 142t123 55t123 -55t49 -142zM974 185q0 -64 26 -99t73 -35t73 35t26 99t-26 99t-73 35t-73 -35t-26 -99zM574 185q0 -64 26 -99t73 -35t73 35t26 99t-26 99t-73 35t-73 -35t-26 -99z" />
    <glyph glyph-name="guilsinglleft" unicode="&#x2039;" horiz-adv-x="282" 
d="M236 400l-112 -182l112 -182h-82l-112 182l112 182h82z" />
    <glyph glyph-name="guilsinglright" unicode="&#x203a;" horiz-adv-x="282" 
d="M158 218l-112 182h82l112 -182l-112 -182h-82z" />
    <glyph glyph-name="fraction" unicode="&#x2044;" horiz-adv-x="160" 
d="M278 692h76l-469 -692h-76z" />
    <glyph glyph-name="zero.superior" unicode="&#x2070;" horiz-adv-x="340" 
d="M303 622q0 -87 -37.5 -132t-95.5 -45t-95.5 45t-37.5 132t37.5 132t95.5 45t95.5 -45t37.5 -132zM101 622q0 -125 69 -125t69 125q0 124 -69 124t-69 -124z" />
    <glyph glyph-name="four.superior" unicode="&#x2074;" horiz-adv-x="329" 
d="M187 452v75h-163v51l170 214h56v-211h52v-54h-52v-75h-63zM88 581h99v126z" />
    <glyph glyph-name="five.superior" unicode="&#x2075;" horiz-adv-x="315" 
d="M156 445q-51 0 -85 29t-39 78h65q7 -57 60 -57q27 0 44.5 20t17.5 55q0 32 -18.5 51.5t-45.5 19.5q-18 0 -33.5 -10t-20.5 -27h-60l22 188h201v-58h-151l-12 -91h1q23 43 77 43q40 0 72 -31t32 -85q0 -56 -36.5 -90.5t-90.5 -34.5z" />
    <glyph glyph-name="six.superior" unicode="&#x2076;" horiz-adv-x="325" 
d="M98 609h1q8 28 30.5 45.5t56.5 17.5q47 0 75.5 -31t28.5 -77q0 -54 -35.5 -86.5t-86.5 -32.5q-61 0 -96 43.5t-35 124.5q0 82 35.5 134t103.5 52q50 0 78 -29t33 -67h-63q-10 45 -51 45q-31 0 -53 -32.5t-22 -106.5zM167 495q27 0 42.5 18t15.5 45q0 31 -15 49t-42 18
t-42 -18t-15 -49q0 -27 15.5 -45t40.5 -18z" />
    <glyph glyph-name="seven.superior" unicode="&#x2077;" horiz-adv-x="285" 
d="M74 452q0 184 149 281v1h-200v58h241v-53q-64 -52 -93.5 -118.5t-29.5 -168.5h-67z" />
    <glyph glyph-name="eight.superior" unicode="&#x2078;" horiz-adv-x="317" 
d="M282 541q0 -42 -35 -69t-88 -27q-54 0 -89 27t-35 69q0 33 21.5 55.5t55.5 30.5v1q-65 18 -65 79q0 37 29.5 64.5t82.5 27.5q52 0 81.5 -27.5t29.5 -64.5q0 -62 -65 -79v-1q35 -8 56 -30.5t21 -55.5zM207 702q0 22 -12.5 35t-35.5 13t-36 -13t-13 -35q0 -21 13 -34
t36 -13t35.5 13t12.5 34zM100 546q0 -25 16.5 -38.5t42.5 -13.5t42 13.5t16 38.5t-16 38.5t-42 13.5t-42.5 -13.5t-16.5 -38.5z" />
    <glyph glyph-name="nine.superior" unicode="&#x2079;" horiz-adv-x="325" 
d="M227 635h-1q-8 -28 -30.5 -45.5t-56.5 -17.5q-47 0 -75.5 31t-28.5 77q0 54 35.5 86.5t86.5 32.5q61 0 96 -43.5t35 -124.5q0 -82 -35.5 -134t-103.5 -52q-50 0 -78 29t-33 67h63q10 -45 51 -45q31 0 53 32.5t22 106.5zM158 749q-27 0 -42.5 -18t-15.5 -45q0 -31 15 -49
t42 -18t42 18t15 49q0 27 -15.5 45t-40.5 18z" />
    <glyph glyph-name="zero.inferior" unicode="&#x2080;" horiz-adv-x="340" 
d="M303 70q0 -87 -37.5 -132t-95.5 -45t-95.5 45t-37.5 132t37.5 132t95.5 45t95.5 -45t37.5 -132zM101 70q0 -125 69 -125t69 125q0 124 -69 124t-69 -124z" />
    <glyph glyph-name="one.inferior" unicode="&#x2081;" horiz-adv-x="198" 
d="M145 -100h-63v284h-59v56h122v-340z" />
    <glyph glyph-name="two.inferior" unicode="&#x2082;" horiz-adv-x="311" 
d="M270 -100h-237v10q0 51 25 88t86 73q34 20 50.5 37t16.5 42q0 20 -13.5 33t-36.5 13q-58 0 -57 -69h-65q-1 55 34 87.5t92 32.5q48 0 79.5 -28t31.5 -70q0 -35 -25 -63.5t-72 -57.5q-74 -46 -74 -70h165v-58z" />
    <glyph glyph-name="three.inferior" unicode="&#x2083;" horiz-adv-x="319" 
d="M185 81v-1q46 -5 72 -27.5t26 -59.5q0 -47 -37.5 -73.5t-87.5 -26.5q-56 0 -90.5 30t-36.5 79h65q5 -59 62 -59q27 0 43.5 15t16.5 39q0 54 -85 54h-4v52h3q37 0 57.5 13.5t20.5 36.5q0 19 -13 31t-35 12q-26 0 -41.5 -15.5t-16.5 -45.5h-63q2 47 33.5 79.5t89.5 32.5
q44 0 77 -22.5t33 -61.5q0 -34 -24.5 -54.5t-64.5 -27.5z" />
    <glyph glyph-name="four.inferior" unicode="&#x2084;" horiz-adv-x="329" 
d="M187 -100v75h-163v51l170 214h56v-211h52v-54h-52v-75h-63zM88 29h99v126z" />
    <glyph glyph-name="five.inferior" unicode="&#x2085;" horiz-adv-x="315" 
d="M156 -107q-51 0 -85 29t-39 78h65q7 -57 60 -57q27 0 44.5 20t17.5 55q0 32 -18.5 51.5t-45.5 19.5q-18 0 -33.5 -10t-20.5 -27h-60l22 188h201v-58h-151l-12 -91h1q23 43 77 43q40 0 72 -31t32 -85q0 -56 -36.5 -90.5t-90.5 -34.5z" />
    <glyph glyph-name="six.inferior" unicode="&#x2086;" horiz-adv-x="325" 
d="M98 57h1q8 28 30.5 45.5t56.5 17.5q47 0 75.5 -31t28.5 -77q0 -54 -35.5 -86.5t-86.5 -32.5q-61 0 -96 43.5t-35 124.5q0 82 35.5 134t103.5 52q50 0 78 -29t33 -67h-63q-10 45 -51 45q-31 0 -53 -32.5t-22 -106.5zM167 -57q27 0 42.5 18t15.5 45q0 31 -15 49t-42 18
t-42 -18t-15 -49q0 -27 15.5 -45t40.5 -18z" />
    <glyph glyph-name="seven.inferior" unicode="&#x2087;" horiz-adv-x="285" 
d="M74 -100q0 184 149 281v1h-200v58h241v-53q-64 -52 -93.5 -118.5t-29.5 -168.5h-67z" />
    <glyph glyph-name="eight.inferior" unicode="&#x2088;" horiz-adv-x="317" 
d="M282 -11q0 -42 -35 -69t-88 -27q-54 0 -89 27t-35 69q0 33 21.5 55.5t55.5 30.5v1q-65 18 -65 79q0 37 29.5 64.5t82.5 27.5q52 0 81.5 -27.5t29.5 -64.5q0 -62 -65 -79v-1q35 -8 56 -30.5t21 -55.5zM207 150q0 22 -12.5 35t-35.5 13t-36 -13t-13 -35q0 -21 13 -34
t36 -13t35.5 13t12.5 34zM100 -6q0 -25 16.5 -38.5t42.5 -13.5t42 13.5t16 38.5t-16 38.5t-42 13.5t-42.5 -13.5t-16.5 -38.5z" />
    <glyph glyph-name="nine.inferior" unicode="&#x2089;" horiz-adv-x="325" 
d="M227 83h-1q-8 -28 -30.5 -45.5t-56.5 -17.5q-47 0 -75.5 31t-28.5 77q0 54 35.5 86.5t86.5 32.5q61 0 96 -43.5t35 -124.5q0 -82 -35.5 -134t-103.5 -52q-50 0 -78 29t-33 67h63q10 -45 51 -45q31 0 53 32.5t22 106.5zM158 197q-27 0 -42.5 -18t-15.5 -45q0 -31 15 -49
t42 -18t42 18t15 49q0 27 -15.5 45t-40.5 18z" />
    <glyph glyph-name="Euro" unicode="&#x20ac;" horiz-adv-x="706" 
d="M653 28q-70 -40 -169 -40q-119 0 -212 70t-126 182h-112l27 60h73q-3 22 -3 46t3 46h-100l27 60h85q33 112 126 181.5t212 69.5q110 0 184 -50l-28 -65q-66 45 -156 45q-87 0 -155.5 -49.5t-97.5 -131.5h349l-26 -60h-338q-3 -23 -3 -46q0 -24 3 -46h297l-27 -60h-255
q29 -83 97.5 -132.5t155.5 -49.5q96 0 169 51v-81z" />
    <glyph glyph-name="afii61352" unicode="&#x2116;" horiz-adv-x="1072" 
d="M853 350q-77 0 -127 51t-50 126q0 74 50.5 125t126.5 51q77 0 127.5 -51t50.5 -125q0 -75 -50.5 -126t-127.5 -51zM173 0h-81v692h83l358 -562v562h81v-692h-83l-358 563v-563zM853 407q48 0 78.5 35t30.5 85t-30.5 84.5t-78.5 34.5t-78.5 -34.5t-30.5 -84.5t30.5 -85
t78.5 -35zM1020 245h-334v64h334v-64z" />
    <glyph glyph-name="uni2117" unicode="&#x2117;" horiz-adv-x="802" 
d="M401 -12q-149 0 -253 105t-104 253t104 252.5t253 104.5t253 -104.5t104 -252.5t-104 -253t-253 -105zM401 49q122 0 206 86t84 211t-84 211t-206 86t-206 -86t-84 -211t84 -211t206 -86zM428 299h-64v-128h-64v356h128q57 0 92 -31t35 -83t-35 -83t-92 -31zM364 355h65
q29 0 45 15.5t16 42.5t-16 42.5t-45 15.5h-65v-116z" />
    <glyph glyph-name="trademark" unicode="&#x2122;" horiz-adv-x="917" 
d="M350 692v-55h-128v-360h-63v360h-128v55h319zM771 573l-110 -215h-55l-111 215v-296h-62v415h65l135 -272l136 272h65v-415h-63v296z" />
    <glyph glyph-name="minus" unicode="&#x2212;" 
d="M50 186v62h430v-62h-430z" />
    <glyph glyph-name="commaaccent" unicode="&#xf6c3;" horiz-adv-x="162" 
d="M25 -262l49 97h-39v95h92v-95l-49 -97h-53z" />
    <glyph glyph-name="fi" unicode="&#xfb01;" horiz-adv-x="528" 
d="M321 711v-69h-30q-54 0 -73.5 -35.5t-19.5 -107.5v-69h93v-64h-93v-366h-77v366h-106v64h106v83q0 98 42 148t112 50h46zM458 671v-110h-77v110h77zM458 430v-430h-77v430h77z" />
    <glyph glyph-name="fl" unicode="&#xfb02;" horiz-adv-x="528" 
d="M321 711v-69h-30q-54 0 -73.5 -35.5t-19.5 -107.5v-69h93v-64h-93v-366h-77v366h-106v64h106v83q0 98 42 148t112 50h46zM458 711v-711h-77v711h77z" />
    <glyph glyph-name="uniFEFF" unicode="&#xfeff;" horiz-adv-x="0" 
 />
    <glyph glyph-name="CR" horiz-adv-x="236" 
 />
    <glyph glyph-name="L_periodcentered" horiz-adv-x="522" 
d="M92 0v692h81v-620h317v-72h-398zM428 440v-110h-77v110h77z" />
    <glyph glyph-name="l_periodcentered" horiz-adv-x="296" 
d="M147 711v-711h-77v711h77zM296 416v-110h-77v110h77z" />
    <glyph glyph-name="dot" horiz-adv-x="217" 
d="M147 671v-110h-77v110h77z" />
    <glyph glyph-name="dotaccent.low" horiz-adv-x="147" 
d="M112 -70v-110h-77v110h77z" />
    <glyph glyph-name="caron.slovak" horiz-adv-x="160" 
d="M140 711l-70 -200h-50l30 200h90z" />
    <glyph glyph-name="one.numerator" horiz-adv-x="198" 
d="M148 352h-63v284h-59v56h122v-340z" />
    <glyph glyph-name="two.numerator" horiz-adv-x="311" 
d="M270 352h-237v10q0 51 25 88t86 73q34 20 50.5 37t16.5 42q0 20 -13.5 33t-36.5 13q-58 0 -57 -69h-65q-1 55 34 87.5t92 32.5q48 0 79.5 -28t31.5 -70q0 -35 -25 -63.5t-72 -57.5q-74 -46 -74 -70h165v-58z" />
    <glyph glyph-name="three.numerator" horiz-adv-x="319" 
d="M185 533v-1q46 -5 72 -27.5t26 -59.5q0 -47 -37.5 -73.5t-87.5 -26.5q-56 0 -90.5 30t-36.5 79h65q5 -59 62 -59q27 0 43.5 15t16.5 39q0 54 -85 54h-4v52h3q37 0 57.5 13.5t20.5 36.5q0 19 -13 31t-35 12q-26 0 -41.5 -15.5t-16.5 -45.5h-63q2 47 33.5 79.5t89.5 32.5
q44 0 77 -22.5t33 -61.5q0 -34 -24.5 -54.5t-64.5 -27.5z" />
    <glyph glyph-name="four.numerator" horiz-adv-x="329" 
d="M188 352v75h-163v51l170 214h56v-211h52v-54h-52v-75h-63zM89 481h99v126z" />
    <glyph glyph-name="five.numerator" horiz-adv-x="315" 
d="M155 345q-51 0 -85 29t-39 78h65q7 -57 60 -57q27 0 44.5 20t17.5 55q0 32 -18.5 51.5t-45.5 19.5q-18 0 -33.5 -10t-20.5 -27h-60l22 188h201v-58h-151l-12 -91h1q23 43 77 43q40 0 72 -31t32 -85q0 -56 -36.5 -90.5t-90.5 -34.5z" />
    <glyph glyph-name="six.numerator" horiz-adv-x="325" 
d="M99 509h1q8 28 30.5 45.5t56.5 17.5q47 0 75.5 -31t28.5 -77q0 -54 -35.5 -86.5t-86.5 -32.5q-61 0 -96 43.5t-35 124.5q0 82 35.5 134t103.5 52q50 0 78 -29t33 -67h-63q-10 45 -51 45q-31 0 -53 -32.5t-22 -106.5zM168 395q27 0 42.5 18t15.5 45q0 31 -15 49t-42 18
t-42 -18t-15 -49q0 -27 15.5 -45t40.5 -18z" />
    <glyph glyph-name="seven.numerator" horiz-adv-x="285" 
d="M74 352q0 184 149 281v1h-200v58h241v-53q-64 -52 -93.5 -118.5t-29.5 -168.5h-67z" />
    <glyph glyph-name="eight.numerator" horiz-adv-x="317" 
d="M282 441q0 -42 -35 -69t-88 -27q-54 0 -89 27t-35 69q0 33 21.5 55.5t55.5 30.5v1q-65 18 -65 79q0 37 29.5 64.5t82.5 27.5q52 0 81.5 -27.5t29.5 -64.5q0 -62 -65 -79v-1q35 -8 56 -30.5t21 -55.5zM207 602q0 22 -12.5 35t-35.5 13t-36 -13t-13 -35q0 -21 13 -34
t36 -13t35.5 13t12.5 34zM100 446q0 -25 16.5 -38.5t42.5 -13.5t42 13.5t16 38.5t-16 38.5t-42 13.5t-42.5 -13.5t-16.5 -38.5z" />
    <glyph glyph-name="nine.numerator" horiz-adv-x="325" 
d="M226 535h-1q-8 -28 -30.5 -45.5t-56.5 -17.5q-47 0 -75.5 31t-28.5 77q0 54 35.5 86.5t86.5 32.5q61 0 96 -43.5t35 -124.5q0 -82 -35.5 -134t-103.5 -52q-50 0 -78 29t-33 67h63q10 -45 51 -45q31 0 53 32.5t22 106.5zM157 649q-27 0 -42.5 -18t-15.5 -45q0 -31 15 -49
t42 -18t42 18t15 49q0 27 -15.5 45t-40.5 18z" />
    <glyph glyph-name="zero.numerator" horiz-adv-x="340" 
d="M303 522q0 -87 -37.5 -132t-95.5 -45t-95.5 45t-37.5 132t37.5 132t95.5 45t95.5 -45t37.5 -132zM101 522q0 -125 69 -125t69 125q0 124 -69 124t-69 -124z" />
    <glyph glyph-name="one.denominator" horiz-adv-x="198" 
d="M145 0h-63v284h-59v56h122v-340z" />
    <glyph glyph-name="two.denominator" horiz-adv-x="311" 
d="M270 0h-237v10q0 51 25 88t86 73q34 20 50.5 37t16.5 42q0 20 -13.5 33t-36.5 13q-58 0 -57 -69h-65q-1 55 34 87.5t92 32.5q48 0 79.5 -28t31.5 -70q0 -35 -25 -63.5t-72 -57.5q-74 -46 -74 -70h165v-58z" />
    <glyph glyph-name="three.denominator" horiz-adv-x="319" 
d="M185 181v-1q46 -5 72 -27.5t26 -59.5q0 -47 -37.5 -73.5t-87.5 -26.5q-56 0 -90.5 30t-36.5 79h65q5 -59 62 -59q27 0 43.5 15t16.5 39q0 54 -85 54h-4v52h3q37 0 57.5 13.5t20.5 36.5q0 19 -13 31t-35 12q-26 0 -41.5 -15.5t-16.5 -45.5h-63q2 47 33.5 79.5t89.5 32.5
q44 0 77 -22.5t33 -61.5q0 -34 -24.5 -54.5t-64.5 -27.5z" />
    <glyph glyph-name="four.denominator" horiz-adv-x="329" 
d="M187 0v75h-163v51l170 214h56v-211h52v-54h-52v-75h-63zM88 129h99v126z" />
    <glyph glyph-name="five.denominator" horiz-adv-x="315" 
d="M155 -7q-51 0 -85 29t-39 78h65q7 -57 60 -57q27 0 44.5 20t17.5 55q0 32 -18.5 51.5t-45.5 19.5q-18 0 -33.5 -10t-20.5 -27h-60l22 188h201v-58h-151l-12 -91h1q23 43 77 43q40 0 72 -31t32 -85q0 -56 -36.5 -90.5t-90.5 -34.5z" />
    <glyph glyph-name="six.denominator" horiz-adv-x="325" 
d="M98 157h1q8 28 30.5 45.5t56.5 17.5q47 0 75.5 -31t28.5 -77q0 -54 -35.5 -86.5t-86.5 -32.5q-61 0 -96 43.5t-35 124.5q0 82 35.5 134t103.5 52q50 0 78 -29t33 -67h-63q-10 45 -51 45q-31 0 -53 -32.5t-22 -106.5zM167 43q27 0 42.5 18t15.5 45q0 31 -15 49t-42 18
t-42 -18t-15 -49q0 -27 15.5 -45t40.5 -18z" />
    <glyph glyph-name="seven.denominator" horiz-adv-x="285" 
d="M74 0q0 184 149 281v1h-200v58h241v-53q-64 -52 -93.5 -118.5t-29.5 -168.5h-67z" />
    <glyph glyph-name="eight.denominator" horiz-adv-x="317" 
d="M282 89q0 -42 -35 -69t-88 -27q-54 0 -89 27t-35 69q0 33 21.5 55.5t55.5 30.5v1q-65 18 -65 79q0 37 29.5 64.5t82.5 27.5q52 0 81.5 -27.5t29.5 -64.5q0 -62 -65 -79v-1q35 -8 56 -30.5t21 -55.5zM207 250q0 22 -12.5 35t-35.5 13t-36 -13t-13 -35q0 -21 13 -34t36 -13
t35.5 13t12.5 34zM100 94q0 -25 16.5 -38.5t42.5 -13.5t42 13.5t16 38.5t-16 38.5t-42 13.5t-42.5 -13.5t-16.5 -38.5z" />
    <glyph glyph-name="nine.denominator" horiz-adv-x="325" 
d="M227 183h-1q-8 -28 -30.5 -45.5t-56.5 -17.5q-47 0 -75.5 31t-28.5 77q0 54 35.5 86.5t86.5 32.5q61 0 96 -43.5t35 -124.5q0 -82 -35.5 -134t-103.5 -52q-50 0 -78 29t-33 67h63q10 -45 51 -45q31 0 53 32.5t22 106.5zM158 297q-27 0 -42.5 -18t-15.5 -45q0 -31 15 -49
t42 -18t42 18t15 49q0 27 -15.5 45t-40.5 18z" />
    <glyph glyph-name="zero.denominator" horiz-adv-x="340" 
d="M303 170q0 -87 -37.5 -132t-95.5 -45t-95.5 45t-37.5 132t37.5 132t95.5 45t95.5 -45t37.5 -132zM101 170q0 -125 69 -125t69 125q0 124 -69 124t-69 -124z" />
    <glyph glyph-name="hyphen.case" horiz-adv-x="371" 
d="M306 322h-241v68h241v-68z" />
    <glyph glyph-name="endash.case" horiz-adv-x="499" 
d="M434 325h-369v62h369v-62z" />
    <glyph glyph-name="emdash.case" horiz-adv-x="781" 
d="M716 325h-651v62h651v-62z" />
    <glyph glyph-name="question.case" horiz-adv-x="515" 
d="M265 703q96 0 154 -49t58 -121q0 -16 -2 -29.5t-8 -26.5t-10 -22.5t-16 -21t-17 -17.5t-20.5 -17.5t-21 -15t-24.5 -16t-23 -15.5q-25 -16 -36 -34t-12.5 -32t-1.5 -48v-20h-83v17q0 58 16.5 98.5t75.5 75.5q28 16 37.5 22.5t29 22.5t26.5 33.5t7 39.5q0 46 -33.5 74
t-95.5 28q-76 0 -113.5 -42.5t-38.5 -99.5h-81q5 97 68.5 156.5t164.5 59.5zM188 0v110h110v-110h-110z" />
    <glyph glyph-name="questiondown.case" horiz-adv-x="514" 
d="M216 582v110h110v-110h-110zM249 -12q-96 0 -154 49t-58 121q0 16 2 29.5t8 26.5t10 22.5t16 21t17 17.5t20.5 17.5t21 15t24.5 16t23 15.5q25 16 36 34t12.5 32t1.5 48v20h83v-17q0 -58 -16.5 -98.5t-75.5 -75.5q-28 -16 -37.5 -22.5t-29 -22.5t-26.5 -33.5t-7 -39.5
q0 -46 33.5 -74t95.5 -28q76 0 113.5 42.5t38.5 99.5h81q-5 -97 -68.5 -156.5t-164.5 -59.5z" />
    <glyph glyph-name="exclam.case" horiz-adv-x="264" 
d="M153 218h-42l-22 278v196h87v-196zM77 0v110h110v-110h-110z" />
    <glyph glyph-name="exclamdown.case" horiz-adv-x="263" 
d="M76 582v110h110v-110h-110zM88 196l22 278h42l23 -278v-196h-87v196z" />
    <glyph glyph-name="guilsinglleft.case" horiz-adv-x="316" 
d="M247 537l-112 -182l112 -182h-82l-112 182l112 182h82z" />
    <glyph glyph-name="guilsinglright.case" horiz-adv-x="316" 
d="M181 355l-112 182h82l112 -182l-112 -182h-82z" />
    <glyph glyph-name="guillemotleft.case" horiz-adv-x="489" 
d="M247 537l-112 -182l112 -182h-82l-112 182l112 182h82zM420 537l-112 -182l112 -182h-82l-112 182l112 182h82z" />
    <glyph glyph-name="guillemotright.case" horiz-adv-x="489" 
d="M181 355l-112 182h82l112 -182l-112 -182h-82zM354 355l-112 182h82l112 -182l-112 -182h-82z" />
    <glyph glyph-name="parenleft.case" horiz-adv-x="265" 
d="M158 -63q-46 80 -76.5 193.5t-30.5 220.5q0 106 30 214.5t77 189.5h75q-103 -198 -103 -404q0 -216 103 -414h-75z" />
    <glyph glyph-name="parenright.case" horiz-adv-x="265" 
d="M214 351q0 -107 -30.5 -220.5t-76.5 -193.5h-75q103 198 103 414q0 206 -103 404h75q47 -81 77 -189.5t30 -214.5z" />
    <glyph glyph-name="bracketleft.case" horiz-adv-x="305" 
d="M92 755h179v-63h-110v-692h110v-63h-179v818z" />
    <glyph glyph-name="bracketright.case" horiz-adv-x="305" 
d="M34 755h179v-818h-179v63h110v692h-110v63z" />
    <glyph glyph-name="braceleft.case" horiz-adv-x="316" 
d="M238 -63q-67 0 -99.5 30t-32.5 98v158q0 44 -15 71t-61 32v41q46 5 61 32t15 71v157q0 68 32.5 98t99.5 30h47v-63h-42q-38 0 -53 -14.5t-15 -52.5v-141q0 -60 -19.5 -92t-60.5 -44v-3q41 -12 60.5 -44t19.5 -92v-142q0 -38 15 -52.5t53 -14.5h42v-63h-47z" />
    <glyph glyph-name="braceright.case" horiz-adv-x="316" 
d="M210 65q0 -68 -32.5 -98t-99.5 -30h-47v63h42q38 0 53 14.5t15 52.5v142q0 60 19.5 92t60.5 44v3q-41 12 -60.5 44t-19.5 92v141q0 38 -15 52.5t-53 14.5h-42v63h47q67 0 99.5 -30t32.5 -98v-157q0 -44 15 -71t61 -32v-41q-46 -5 -61 -32t-15 -71v-158z" />
    <glyph glyph-name="periodcentered.case" horiz-adv-x="240" 
d="M65 301v110h110v-110h-110z" />
    <glyph glyph-name="plus.case" 
d="M233 139v186h-184v62h184v182h63v-182h185v-62h-185v-186h-63z" />
    <glyph glyph-name="minus.case" 
d="M50 325v62h430v-62h-430z" />
    <glyph glyph-name="divide.case" 
d="M320 569v-110h-110v110h110zM50 325v62h430v-62h-430zM320 249v-110h-110v110h110z" />
    <glyph glyph-name="multiply.case" 
d="M121 165l-44 44l144 144l-144 144l45 45l144 -144l144 144l44 -44l-144 -144l144 -144l-45 -45l-144 144z" />
    <glyph glyph-name="equal.case" 
d="M65 419v62h400v-62h-400zM65 235v62h400v-62h-400z" />
    <glyph glyph-name="less.case" 
d="M452 143l-416 182v62l416 182v-68l-335 -145l335 -145v-68z" />
    <glyph glyph-name="greater.case" 
d="M78 143v68l335 145l-335 145v68l416 -182v-62z" />
    <glyph glyph-name="acute.case" horiz-adv-x="252" 
d="M242 864l-138 -121h-72l98 121h112z" />
    <glyph glyph-name="breve.case" horiz-adv-x="316" 
d="M158 739q-61 0 -99.5 32.5t-43.5 82.5h61q15 -64 82 -64t82 64h61q-5 -50 -43.5 -82.5t-99.5 -32.5z" />
    <glyph glyph-name="caron.case" horiz-adv-x="338" 
d="M132 743l-127 121h74l90 -59l90 59h74l-127 -121h-74z" />
    <glyph glyph-name="cedilla.case" horiz-adv-x="268" 
d="M108 -81h1q25 19 52 19q30 0 52.5 -21.5t22.5 -58.5q0 -46 -35 -70t-86 -24q-50 0 -84 14l13 44q29 -11 58 -11t48.5 10t19.5 31q0 18 -13 28.5t-35 10.5q-24 0 -43 -11l-32 21l61 99h50z" />
    <glyph glyph-name="circumflex.case" horiz-adv-x="338" 
d="M5 743l127 121h74l127 -121h-74l-90 59l-90 -59h-74z" />
    <glyph glyph-name="dieresis.case" horiz-adv-x="348" 
d="M35 743v110h77v-110h-77zM236 743v110h77v-110h-77z" />
    <glyph glyph-name="dotaccent.case" horiz-adv-x="147" 
d="M112 853v-110h-77v110h77z" />
    <glyph glyph-name="grave.case" horiz-adv-x="222" 
d="M136 743l-133 121h112l93 -121h-72z" />
    <glyph glyph-name="hungarumlaut.case" horiz-adv-x="404" 
d="M194 743l98 121h102l-138 -121h-62zM32 743l98 121h102l-138 -121h-62z" />
    <glyph glyph-name="macron.case" horiz-adv-x="300" 
d="M280 753h-260v67h260v-67z" />
    <glyph glyph-name="ogonek.case" horiz-adv-x="267" 
d="M223 0q-50 -24 -76.5 -55.5t-26.5 -63.5q0 -23 12.5 -38t38.5 -15q29 0 52 17v-63q-27 -18 -71 -18q-52 0 -79.5 30.5t-27.5 73.5q0 84 97 132h81z" />
    <glyph glyph-name="ring.case" horiz-adv-x="301" 
d="M150 739q-45 0 -77.5 32.5t-32.5 78.5q0 45 32.5 77.5t77.5 32.5q46 0 78.5 -32.5t32.5 -77.5q0 -46 -32.5 -78.5t-78.5 -32.5zM150 782q28 0 48 20t20 48t-20 47.5t-48 19.5t-47.5 -19.5t-19.5 -47.5t19.5 -48t47.5 -20z" />
    <glyph glyph-name="tilde.case" horiz-adv-x="328" 
d="M217 816q35 0 43 41h65q-8 -55 -36.5 -78t-64.5 -23q-28 0 -63 20t-49 20q-35 0 -41 -40h-66q7 55 36.5 78t65.5 23q27 0 61 -20.5t49 -20.5z" />
    <glyph glyph-name="A.ss01" horiz-adv-x="642" 
d="M543 0l-77 208h-350l-196 -450l358 934h86l265 -692h-86zM306 643l-158 -363h292z" />
    <glyph glyph-name="B.ss01" horiz-adv-x="661" 
d="M499 519q0 55 -37.5 91.5t-117.5 36.5h-134l-280 -524l253 569h170q103 0 165 -46t62 -126q0 -63 -50 -106.5t-117 -55.5v-1q95 -3 150 -50.5t55 -121.5q0 -86 -62 -135.5t-166 -49.5h-253v390h214q70 0 109 35.5t39 93.5zM218 321v-249h171q147 0 147 125q0 54 -41 89
t-106 35h-171z" />
    <glyph glyph-name="C.ss01" horiz-adv-x="733" 
d="M397 -12q-147 0 -249.5 103.5t-102.5 254.5t102.5 254.5t249.5 103.5q107 0 190 -58.5t116 -155.5h-95q-59 148 -231 148q-49 0 -98.5 -19.5t-93 -56.5t-71 -98t-27.5 -136q0 -143 94.5 -232.5t218.5 -89.5q209 0 303 195q-33 -97 -116 -155t-190 -58z" />
    <glyph glyph-name="D.ss01" horiz-adv-x="713" 
d="M113 0v346h81v-274h116q118 0 196.5 75t78.5 199q0 131 -73.5 216t-203.5 85h-98l-280 -524l253 569h127q152 0 254.5 -97.5t102.5 -248.5t-102.5 -248.5t-254.5 -97.5h-197z" />
    <glyph glyph-name="E.ss01" horiz-adv-x="690" 
d="M678 -29q-33 -96 -116.5 -154.5t-188.5 -58.5q-144 0 -245 97t-101 244q0 100 46.5 179t123.5 123q-12 35 -12 79q0 104 67.5 163.5t154.5 59.5q88 0 158.5 -53.5t82.5 -159.5h-94q-5 43 -23 73.5t-42.5 44.5t-45.5 19.5t-43 5.5q-60 0 -105.5 -42.5t-45.5 -118.5
q0 -25 6 -46q51 17 105 17q69 0 105.5 -28.5t36.5 -70.5q0 -41 -31 -64.5t-84 -23.5q-48 0 -94.5 26t-74.5 74q-66 -38 -107.5 -107t-41.5 -168q0 -93 46 -164.5t115 -106t146 -34.5q208 0 302 195zM351 392q-38 0 -77 -12q42 -71 118 -71q53 0 53 36q0 21 -27 34t-67 13z
" />
    <glyph glyph-name="F.ss01" horiz-adv-x="593" 
d="M-70 123l253 569h386v-72h-374zM138 0v392h379v-72h-298v-320h-81z" />
    <glyph glyph-name="G.ss01" horiz-adv-x="767" 
d="M627 0v80q-92 -92 -230 -92q-147 0 -249.5 103.5t-102.5 254.5t102.5 254.5t249.5 103.5q107 0 190 -58.5t116 -155.5h-95q-59 148 -231 148q-49 0 -98.5 -19.5t-93 -56.5t-71 -98t-27.5 -136q0 -143 94.5 -232.5t218.5 -89.5q139 0 227 87v191h-182v72h263v-356h-81z
" />
    <glyph glyph-name="H.ss01" horiz-adv-x="755" 
d="M582 0v333l-381 14v-347h-81v350l-183 6l183 6v330h81v-327l381 14v313h81v-692h-81z" />
    <glyph glyph-name="I.ss01" horiz-adv-x="358" 
d="M266 692v-692h-83v597l-253 -474l253 569h83z" />
    <glyph glyph-name="J.ss01" horiz-adv-x="537" 
d="M198 692h254v-499q0 -92 -55.5 -148.5t-146.5 -56.5t-147.5 56t-56.5 147h80q0 -67 33.5 -99t89.5 -32q54 0 88 30.5t34 88.5v441h-161l-265 -497z" />
    <glyph glyph-name="K.ss01" horiz-adv-x="582" 
d="M478 0l-294 347v2l399 354l-315 -339l309 -364h-99zM173 692v-692h-81v692h81z" />
    <glyph glyph-name="L.ss01" horiz-adv-x="439" 
d="M92 -230v922h83v-830l251 477l-253 -569h-81z" />
    <glyph glyph-name="M.ss01" horiz-adv-x="840" 
d="M133 602l-41 -844v934h83l262 -532l424 752l-113 -226v-686h-81v524l-205 -411h-84z" />
    <glyph glyph-name="N.ss01" horiz-adv-x="706" 
d="M136 615l-44 -857v934h83l395 -614l44 834v-912h-83z" />
    <glyph glyph-name="O.ss01" horiz-adv-x="804" 
d="M403 -12q-148 0 -253 100.5t-105 260.5q0 103 51.5 186t131 125.5t167.5 42.5v-74q-132 0 -213 -85.5t-81 -213.5t90 -216.5t224 -88.5q137 0 231 96t94 240q0 142 -96.5 239t-236.5 103q142 0 247 -101.5t105 -255.5q0 -152 -103.5 -255t-252.5 -103z" />
    <glyph glyph-name="P.ss01" horiz-adv-x="592" 
d="M187 0h-81v332h219q75 0 116 42t41 116q0 71 -39.5 114t-129.5 43h-103l-280 -524l253 569h139q107 0 174.5 -58t67.5 -158t-67.5 -158t-174.5 -58h-135v-260z" />
    <glyph glyph-name="Q.ss01" horiz-adv-x="804" 
d="M331 -110l383 -39h-450l-35 60l136 79q-135 13 -227.5 111.5t-92.5 247.5q0 103 51.5 186t131 125.5t167.5 42.5v-74q-132 0 -213 -85.5t-81 -213.5t90 -216.5t224 -88.5q137 0 231 96t94 240q0 142 -96.5 239t-236.5 103q142 0 247 -101.5t105 -255.5q0 -102 -50 -185.5
t-134 -129.5z" />
    <glyph glyph-name="R.ss01" horiz-adv-x="609" 
d="M535 505q0 -75 -43 -121.5t-119 -59.5l372 -566l-425 560h-12h-135v-318h-81v692h216q104 0 165.5 -48.5t61.5 -138.5zM173 620v-230h138q143 0 143 115t-143 115h-138z" />
    <glyph glyph-name="S.ss01" horiz-adv-x="514" 
d="M261 -12q-53 0 -95 18.5t-65 44t-38 55.5t-20 50.5t-4 30.5q5 -30 17.5 -58.5t36 -58t65.5 -48t95 -18.5q88 0 134.5 43t46.5 101q0 46 -40 91t-146 91t-147.5 92.5t-41.5 111.5q0 69 51 119t143 50q94 0 144.5 -54t58.5 -128h-83q-7 44 -37 77t-95 33q-53 0 -85.5 -28.5
t-32.5 -74.5q0 -50 36.5 -84.5t118.5 -71.5q63 -28 104.5 -57.5t59.5 -57.5t24.5 -49.5t6.5 -46.5q0 -63 -53.5 -118t-158.5 -55z" />
    <glyph glyph-name="T.ss01" horiz-adv-x="548" 
d="M271 -242l-40 862h-219v72h524v-72h-219z" />
    <glyph glyph-name="U.ss01" horiz-adv-x="706" 
d="M353 -12q-127 0 -198 74t-71 203v427h81v-410q0 -128 56.5 -189.5t156.5 -61.5q114 0 168 68t58 180l18 424v-438q0 -129 -71 -203t-198 -74z" />
    <glyph glyph-name="V.ss01" horiz-adv-x="641" 
d="M363 0h-84l-266 692h87l236 -640l378 860z" />
    <glyph glyph-name="W.ss01" horiz-adv-x="861" 
d="M415 579l-285 -821l68 231l-169 703h87l124 -558l151 515h80l170 -580l245 843l-219 -912h-82z" />
    <glyph glyph-name="X.ss01" horiz-adv-x="582" 
d="M498 0l-216 306l-430 -548l403 586l-246 348h91l201 -284l377 504l-350 -543l261 -369h-91z" />
    <glyph glyph-name="Y.ss01" horiz-adv-x="595" 
d="M317 312l387 600l-365 -652v-260h-81v260l-242 432h89z" />
    <glyph glyph-name="Z.ss01" horiz-adv-x="559" 
d="M526 0h-492l-177 -242l537 862h-343v72h491l-455 -620h439v-72z" />
    <glyph glyph-name="c.ss01" horiz-adv-x="503" 
d="M271 -12q-110 0 -171.5 69t-61.5 156q0 104 66.5 167.5t160.5 63.5q71 0 127 -36.5t83 -101.5h-84q-46 80 -140 80q-73 0 -124 -51t-51 -133q0 -81 56.5 -139t140.5 -58q140 0 202 121q-22 -67 -78.5 -102.5t-125.5 -35.5z" />
    <glyph glyph-name="e.ss01" horiz-adv-x="499" 
d="M485 117q-52 -129 -204 -129q-62 0 -123 41t-81 124q-18 -1 -55 -1v73q9 0 25 0.5t23 0.5q3 91 66 154.5t159 63.5q58 0 101.5 -30t43.5 -91q0 -152 -334 -169q15 -75 70.5 -114.5t114.5 -39.5q70 0 115 29.5t79 87.5zM284 397q-66 0 -119.5 -48t-62.5 -122q140 6 206 31
t66 76q0 29 -23.5 46t-66.5 17z" />
    <glyph glyph-name="g.ss01" horiz-adv-x="519" 
d="M470 -71q0 -74 -60.5 -122.5t-146.5 -48.5q-101 0 -164.5 66t-65.5 176h79q1 -92 46 -134t104 -42q62 0 98.5 32.5t36.5 79.5q0 48 -39.5 84.5t-104.5 36.5h-11q-87 0 -143 57t-56 136q0 81 56.5 137t146.5 56v-64q-76 0 -115 -40.5t-39 -100.5q0 -68 46 -108.5
t108 -40.5q75 0 126 47t51 124q0 75 -50.5 126t-114.5 57q28 0 61 -13h215l-55 -55h-86q46 -54 46 -126q0 -61 -31.5 -106.5t-81.5 -67.5v-1q71 -17 107.5 -56t36.5 -89z" />
    <glyph glyph-name="k.ss01" horiz-adv-x="452" 
d="M147 711v-711h-77v711h77zM158 227l376 316l-289 -307l210 -236h-97l-200 226v1z" />
    <glyph glyph-name="o.ss01" 
d="M267 -12q-104 0 -166.5 67.5t-62.5 159.5q0 98 65 163t158 65v-72q-79 0 -125.5 -47t-46.5 -119q0 -82 55.5 -134t128.5 -52q83 0 142.5 56t59.5 146q0 96 -59.5 156t-142.5 66q88 0 153.5 -64.5t65.5 -162.5t-66 -163t-159 -65z" />
    <glyph glyph-name="s.ss01" horiz-adv-x="378" 
d="M193 -12q-43 0 -76 15.5t-50 38t-25 44.5t-8 40q8 -57 48.5 -90.5t100.5 -33.5t94 22.5t34 62.5q0 65 -124 111q-37 14 -53.5 21.5t-41 23.5t-34.5 37t-10 50q0 49 38.5 81t92.5 32q59 0 100.5 -34.5t49.5 -94.5h-73q-4 26 -26 47.5t-60 21.5q-35 0 -54 -17t-19 -40
q0 -26 20.5 -47t86.5 -47q71 -29 105 -62t34 -75q0 -43 -39 -75t-111 -32z" />
    <glyph glyph-name="u.ss01" horiz-adv-x="487" 
d="M244 -12q-83 0 -131.5 47.5t-48.5 141.5v253h77v-252q0 -77 29 -115t96 -38q71 0 104 38.5t38 118.5l16 261v-266q0 -189 -180 -189z" />
    <glyph glyph-name="v.ss01" horiz-adv-x="438" 
d="M181 0l-168 430h84l133 -375l224 445l-195 -500h-78z" />
    <glyph glyph-name="w.ss01" horiz-adv-x="629" 
d="M591 193q0 -51 -14.5 -94.5t-54.5 -77t-101 -33.5q-60 0 -105 35q-43 -35 -97 -35q-41 0 -73 16t-51 39.5t-31.5 54t-17 56t-4.5 49.5q0 117 63 227h87q-75 -114 -75 -229q0 -59 26 -101.5t74 -42.5q28 0 53 18q-45 72 -45 158q0 51 20 85t63 34q48 0 71.5 -40t23.5 -98
q0 -39 -18.5 -88.5t-51.5 -85.5q39 -34 93 -34q47 0 80.5 23.5t47.5 58.5t19.5 60.5t5.5 45.5q0 70 -34 150.5t-111 155.5q71 -63 114 -144t43 -163zM257 220q0 -69 34 -127q26 27 41.5 68t15.5 75q0 77 -44 77q-47 0 -47 -93z" />
    <glyph glyph-name="x.ss01" horiz-adv-x="437" 
d="M347 0l-134 170l-361 -412l327 456l-170 216h88l127 -161l214 231l-181 -273l179 -227h-89z" />
    <glyph glyph-name="y.ss01" horiz-adv-x="469" 
d="M197 -230v230l-188 430h84l153 -377l248 447l-221 -500v-230h-76z" />
    <glyph glyph-name="z.ss01" horiz-adv-x="426" 
d="M392 0h-345l-199 -243l423 609h-226v64h355l-300 -366h292v-64z" />
    </font>
</defs>
</svg>
